%TF.GenerationSoftware,KiCad,Pcbnew,8.0.6*%
%TF.CreationDate,2024-12-17T20:27:33+00:00*%
%TF.ProjectId,003-UART-1602,3030332d-5541-4525-942d-313630322e6b,MkI*%
%TF.SameCoordinates,Original*%
%TF.FileFunction,Soldermask,Top*%
%TF.FilePolarity,Negative*%
%FSLAX46Y46*%
G04 Gerber Fmt 4.6, Leading zero omitted, Abs format (unit mm)*
G04 Created by KiCad (PCBNEW 8.0.6) date 2024-12-17 20:27:33*
%MOMM*%
%LPD*%
G01*
G04 APERTURE LIST*
G04 Aperture macros list*
%AMRoundRect*
0 Rectangle with rounded corners*
0 $1 Rounding radius*
0 $2 $3 $4 $5 $6 $7 $8 $9 X,Y pos of 4 corners*
0 Add a 4 corners polygon primitive as box body*
4,1,4,$2,$3,$4,$5,$6,$7,$8,$9,$2,$3,0*
0 Add four circle primitives for the rounded corners*
1,1,$1+$1,$2,$3*
1,1,$1+$1,$4,$5*
1,1,$1+$1,$6,$7*
1,1,$1+$1,$8,$9*
0 Add four rect primitives between the rounded corners*
20,1,$1+$1,$2,$3,$4,$5,0*
20,1,$1+$1,$4,$5,$6,$7,0*
20,1,$1+$1,$6,$7,$8,$9,0*
20,1,$1+$1,$8,$9,$2,$3,0*%
G04 Aperture macros list end*
%ADD10RoundRect,0.150000X-0.150000X0.587500X-0.150000X-0.587500X0.150000X-0.587500X0.150000X0.587500X0*%
%ADD11RoundRect,0.100000X-0.100000X0.637500X-0.100000X-0.637500X0.100000X-0.637500X0.100000X0.637500X0*%
%ADD12C,1.000000*%
%ADD13RoundRect,0.150000X-0.587500X-0.150000X0.587500X-0.150000X0.587500X0.150000X-0.587500X0.150000X0*%
%ADD14R,1.700000X1.700000*%
%ADD15O,1.700000X1.700000*%
%ADD16RoundRect,0.250000X0.250000X0.475000X-0.250000X0.475000X-0.250000X-0.475000X0.250000X-0.475000X0*%
%ADD17RoundRect,0.250000X-0.475000X0.250000X-0.475000X-0.250000X0.475000X-0.250000X0.475000X0.250000X0*%
%ADD18RoundRect,0.250000X-0.262500X-0.450000X0.262500X-0.450000X0.262500X0.450000X-0.262500X0.450000X0*%
%ADD19C,1.260000*%
G04 APERTURE END LIST*
D10*
%TO.C,Q1*%
X37620000Y-70040000D03*
X35720000Y-70040000D03*
X36670000Y-71915000D03*
%TD*%
D11*
%TO.C,U1*%
X53600699Y-72853020D03*
X52950699Y-72853020D03*
X52300699Y-72853020D03*
X51650699Y-72853020D03*
X51000699Y-72853020D03*
X50350699Y-72853020D03*
X49700699Y-72853020D03*
X49050699Y-72853020D03*
X48400699Y-72853020D03*
X47750699Y-72853020D03*
X47750699Y-78578020D03*
X48400699Y-78578020D03*
X49050699Y-78578020D03*
X49700699Y-78578020D03*
X50350699Y-78578020D03*
X51000699Y-78578020D03*
X51650699Y-78578020D03*
X52300699Y-78578020D03*
X52950699Y-78578020D03*
X53600699Y-78578020D03*
%TD*%
D10*
%TO.C,D1*%
X43670000Y-73802500D03*
X41770000Y-73802500D03*
X42720000Y-75677500D03*
%TD*%
D12*
%TO.C,TP1*%
X55620000Y-73160000D03*
%TD*%
D13*
%TO.C,Q2*%
X71538201Y-67177500D03*
X69663200Y-68127500D03*
X69663200Y-66227500D03*
%TD*%
D14*
%TO.C,DS1*%
X33020000Y-63500000D03*
D15*
X35560000Y-63500000D03*
X38099999Y-63500000D03*
X40640000Y-63500000D03*
X43180000Y-63500000D03*
X45720000Y-63500000D03*
X48260000Y-63500000D03*
X50800001Y-63500000D03*
X53340000Y-63500000D03*
X55880000Y-63500000D03*
X58420000Y-63500000D03*
X60959999Y-63500000D03*
X63500000Y-63500000D03*
X66040000Y-63500000D03*
X68580000Y-63500000D03*
X71119999Y-63500000D03*
%TD*%
D16*
%TO.C,C3*%
X50019998Y-70740000D03*
X48120000Y-70740000D03*
%TD*%
D17*
%TO.C,C2*%
X45520000Y-73790001D03*
X45520000Y-75689999D03*
%TD*%
D14*
%TO.C,J2*%
X33020000Y-76200000D03*
D15*
X33020000Y-78740000D03*
%TD*%
D14*
%TO.C,J1*%
X33020000Y-68580000D03*
D15*
X33020000Y-71120000D03*
%TD*%
D18*
%TO.C,R2*%
X35720000Y-67740000D03*
X37545000Y-67740000D03*
%TD*%
D17*
%TO.C,C1*%
X39920000Y-73790001D03*
X39920000Y-75689999D03*
%TD*%
D12*
%TO.C,TP2*%
X55620000Y-75700000D03*
%TD*%
%TO.C,TP3*%
X55620000Y-78240001D03*
%TD*%
D19*
%TO.C,RV1*%
X45249999Y-72040000D03*
X42709999Y-69500000D03*
X40170000Y-72040000D03*
%TD*%
M02*
