%TF.GenerationSoftware,KiCad,Pcbnew,8.0.6*%
%TF.CreationDate,2024-12-17T20:27:38+00:00*%
%TF.ProjectId,003-UART-1602,3030332d-5541-4525-942d-313630322e6b,MkI*%
%TF.SameCoordinates,Original*%
%TF.FileFunction,Drillmap*%
%TF.FilePolarity,Positive*%
%FSLAX45Y45*%
G04 Gerber Fmt 4.5, Leading zero omitted, Abs format (unit mm)*
G04 Created by KiCad (PCBNEW 8.0.6) date 2024-12-17 20:27:38*
%MOMM*%
%LPD*%
G01*
G04 APERTURE LIST*
%ADD10C,0.050000*%
%ADD11C,0.200000*%
%ADD12C,0.100000*%
G04 APERTURE END LIST*
D10*
X7202000Y-6125000D02*
G75*
G02*
X7302000Y-6225000I0J-100000D01*
G01*
X7302000Y-8025000D02*
G75*
G02*
X7202000Y-8125000I-100000J0D01*
G01*
X3102000Y-6225000D02*
G75*
G02*
X3202000Y-6125000I100000J0D01*
G01*
X3202000Y-8125000D02*
G75*
G02*
X3102000Y-8025000I0J100000D01*
G01*
X7202000Y-6125000D02*
X3202000Y-6125000D01*
X7302000Y-8025000D02*
X7302000Y-6225000D01*
X3202000Y-8125000D02*
X7202000Y-8125000D01*
X3102000Y-6225000D02*
X3102000Y-8025000D01*
D11*
D12*
X3287000Y-6589000D02*
X3317000Y-6619000D01*
X3317000Y-6589000D02*
X3287000Y-6619000D01*
X3287000Y-7351000D02*
X3317000Y-7381000D01*
X3317000Y-7351000D02*
X3287000Y-7381000D01*
X3414000Y-6462000D02*
X3444000Y-6492000D01*
X3444000Y-6462000D02*
X3414000Y-6492000D01*
X3497000Y-6989000D02*
X3527000Y-7019000D01*
X3527000Y-6989000D02*
X3497000Y-7019000D01*
X3541000Y-7224000D02*
X3571000Y-7254000D01*
X3571000Y-7224000D02*
X3541000Y-7254000D01*
X3541000Y-7605000D02*
X3571000Y-7635000D01*
X3571000Y-7605000D02*
X3541000Y-7635000D01*
X3541000Y-7986000D02*
X3571000Y-8016000D01*
X3571000Y-7986000D02*
X3541000Y-8016000D01*
X3668000Y-6462000D02*
X3698000Y-6492000D01*
X3698000Y-6462000D02*
X3668000Y-6492000D01*
X3795000Y-7224000D02*
X3825000Y-7254000D01*
X3825000Y-7224000D02*
X3795000Y-7254000D01*
X3795000Y-7605000D02*
X3825000Y-7635000D01*
X3825000Y-7605000D02*
X3795000Y-7635000D01*
X3795000Y-7986000D02*
X3825000Y-8016000D01*
X3825000Y-7986000D02*
X3795000Y-8016000D01*
X3897000Y-7415000D02*
X3927000Y-7445000D01*
X3927000Y-7415000D02*
X3897000Y-7445000D01*
X3897000Y-7784000D02*
X3927000Y-7814000D01*
X3927000Y-7784000D02*
X3897000Y-7814000D01*
X4162000Y-7645000D02*
X4192000Y-7675000D01*
X4192000Y-7645000D02*
X4162000Y-7675000D01*
X4217000Y-7365000D02*
X4247000Y-7395000D01*
X4247000Y-7365000D02*
X4217000Y-7395000D01*
X4303000Y-6716000D02*
X4333000Y-6746000D01*
X4333000Y-6716000D02*
X4303000Y-6746000D01*
X4352000Y-7645000D02*
X4382000Y-7675000D01*
X4382000Y-7645000D02*
X4352000Y-7675000D01*
X4684000Y-6462000D02*
X4714000Y-6492000D01*
X4714000Y-6462000D02*
X4684000Y-6492000D01*
X4684000Y-6970000D02*
X4714000Y-7000000D01*
X4714000Y-6970000D02*
X4684000Y-7000000D01*
X4684000Y-7224000D02*
X4714000Y-7254000D01*
X4714000Y-7224000D02*
X4684000Y-7254000D01*
X4684000Y-7478000D02*
X4714000Y-7508000D01*
X4714000Y-7478000D02*
X4684000Y-7508000D01*
X4760070Y-7744000D02*
X4790070Y-7774000D01*
X4790070Y-7744000D02*
X4760070Y-7774000D01*
X4825070Y-7704000D02*
X4855070Y-7734000D01*
X4855070Y-7704000D02*
X4825070Y-7734000D01*
X4890070Y-7744000D02*
X4920070Y-7774000D01*
X4920070Y-7744000D02*
X4890070Y-7774000D01*
X4938000Y-6462000D02*
X4968000Y-6492000D01*
X4968000Y-6462000D02*
X4938000Y-6492000D01*
X4938000Y-6716000D02*
X4968000Y-6746000D01*
X4968000Y-6716000D02*
X4938000Y-6746000D01*
X4955070Y-7704000D02*
X4985070Y-7734000D01*
X4985070Y-7704000D02*
X4955070Y-7734000D01*
X5020070Y-7744000D02*
X5050070Y-7774000D01*
X5050070Y-7744000D02*
X5020070Y-7774000D01*
X5085070Y-7704000D02*
X5115070Y-7734000D01*
X5115070Y-7704000D02*
X5085070Y-7734000D01*
X5150070Y-7744000D02*
X5180070Y-7774000D01*
X5180070Y-7744000D02*
X5150070Y-7774000D01*
X5192000Y-6462000D02*
X5222000Y-6492000D01*
X5222000Y-6462000D02*
X5192000Y-6492000D01*
X5446000Y-6462000D02*
X5476000Y-6492000D01*
X5476000Y-6462000D02*
X5446000Y-6492000D01*
X5545070Y-6854000D02*
X5575070Y-6884000D01*
X5575070Y-6854000D02*
X5545070Y-6884000D01*
X5954000Y-6843000D02*
X5984000Y-6873000D01*
X5984000Y-6843000D02*
X5954000Y-6873000D01*
X5954000Y-7224000D02*
X5984000Y-7254000D01*
X5984000Y-7224000D02*
X5954000Y-7254000D01*
X5954000Y-7986000D02*
X5984000Y-8016000D01*
X5984000Y-7986000D02*
X5954000Y-8016000D01*
X6462000Y-6843000D02*
X6492000Y-6873000D01*
X6492000Y-6843000D02*
X6462000Y-6873000D01*
X6462000Y-7224000D02*
X6492000Y-7254000D01*
X6492000Y-7224000D02*
X6462000Y-7254000D01*
X6462000Y-7605000D02*
X6492000Y-7635000D01*
X6492000Y-7605000D02*
X6462000Y-7635000D01*
X6716000Y-6462000D02*
X6746000Y-6492000D01*
X6746000Y-6462000D02*
X6716000Y-6492000D01*
X6902000Y-7065000D02*
X6932000Y-7095000D01*
X6932000Y-7065000D02*
X6902000Y-7095000D01*
X6950070Y-6852750D02*
X6980070Y-6882750D01*
X6980070Y-6852750D02*
X6950070Y-6882750D01*
X6970000Y-6462000D02*
X7000000Y-6492000D01*
X7000000Y-6462000D02*
X6970000Y-6492000D01*
X7032000Y-7065000D02*
X7062000Y-7095000D01*
X7062000Y-7065000D02*
X7032000Y-7095000D01*
X7192570Y-6659000D02*
X7222570Y-6689000D01*
X7222570Y-6659000D02*
X7192570Y-6689000D01*
X5592000Y-7316000D02*
G75*
G02*
X5532000Y-7316000I-30000J0D01*
G01*
X5532000Y-7316000D02*
G75*
G02*
X5592000Y-7316000I30000J0D01*
G01*
X5592000Y-7570000D02*
G75*
G02*
X5532000Y-7570000I-30000J0D01*
G01*
X5532000Y-7570000D02*
G75*
G02*
X5592000Y-7570000I30000J0D01*
G01*
X5592000Y-7824000D02*
G75*
G02*
X5532000Y-7824000I-30000J0D01*
G01*
X5532000Y-7824000D02*
G75*
G02*
X5592000Y-7824000I30000J0D01*
G01*
X4017000Y-7169000D02*
X4017000Y-7239000D01*
X3982000Y-7204000D02*
X4052000Y-7204000D01*
X4271000Y-6915000D02*
X4271000Y-6985000D01*
X4236000Y-6950000D02*
X4306000Y-6950000D01*
X4525000Y-7169000D02*
X4525000Y-7239000D01*
X4490000Y-7204000D02*
X4560000Y-7204000D01*
X3337356Y-6385356D02*
X3337356Y-6314644D01*
X3266644Y-6314644D01*
X3266644Y-6385356D01*
X3337356Y-6385356D01*
X3337356Y-6893356D02*
X3337356Y-6822644D01*
X3266644Y-6822644D01*
X3266644Y-6893356D01*
X3337356Y-6893356D01*
X3337356Y-7147356D02*
X3337356Y-7076644D01*
X3266644Y-7076644D01*
X3266644Y-7147356D01*
X3337356Y-7147356D01*
X3337356Y-7655356D02*
X3337356Y-7584644D01*
X3266644Y-7584644D01*
X3266644Y-7655356D01*
X3337356Y-7655356D01*
X3337356Y-7909356D02*
X3337356Y-7838644D01*
X3266644Y-7838644D01*
X3266644Y-7909356D01*
X3337356Y-7909356D01*
X3591356Y-6385356D02*
X3591356Y-6314644D01*
X3520644Y-6314644D01*
X3520644Y-6385356D01*
X3591356Y-6385356D01*
X3845356Y-6385356D02*
X3845356Y-6314644D01*
X3774644Y-6314644D01*
X3774644Y-6385356D01*
X3845356Y-6385356D01*
X4099356Y-6385356D02*
X4099356Y-6314644D01*
X4028644Y-6314644D01*
X4028644Y-6385356D01*
X4099356Y-6385356D01*
X4353356Y-6385356D02*
X4353356Y-6314644D01*
X4282644Y-6314644D01*
X4282644Y-6385356D01*
X4353356Y-6385356D01*
X4607356Y-6385356D02*
X4607356Y-6314644D01*
X4536644Y-6314644D01*
X4536644Y-6385356D01*
X4607356Y-6385356D01*
X4861356Y-6385356D02*
X4861356Y-6314644D01*
X4790644Y-6314644D01*
X4790644Y-6385356D01*
X4861356Y-6385356D01*
X5115356Y-6385356D02*
X5115356Y-6314644D01*
X5044644Y-6314644D01*
X5044644Y-6385356D01*
X5115356Y-6385356D01*
X5369356Y-6385356D02*
X5369356Y-6314644D01*
X5298644Y-6314644D01*
X5298644Y-6385356D01*
X5369356Y-6385356D01*
X5623356Y-6385356D02*
X5623356Y-6314644D01*
X5552644Y-6314644D01*
X5552644Y-6385356D01*
X5623356Y-6385356D01*
X5877356Y-6385356D02*
X5877356Y-6314644D01*
X5806644Y-6314644D01*
X5806644Y-6385356D01*
X5877356Y-6385356D01*
X6131356Y-6385356D02*
X6131356Y-6314644D01*
X6060644Y-6314644D01*
X6060644Y-6385356D01*
X6131356Y-6385356D01*
X6385356Y-6385356D02*
X6385356Y-6314644D01*
X6314644Y-6314644D01*
X6314644Y-6385356D01*
X6385356Y-6385356D01*
X6639356Y-6385356D02*
X6639356Y-6314644D01*
X6568644Y-6314644D01*
X6568644Y-6385356D01*
X6639356Y-6385356D01*
X6893356Y-6385356D02*
X6893356Y-6314644D01*
X6822644Y-6314644D01*
X6822644Y-6385356D01*
X6893356Y-6385356D01*
X7147356Y-6385356D02*
X7147356Y-6314644D01*
X7076644Y-6314644D01*
X7076644Y-6385356D01*
X7147356Y-6385356D01*
D11*
X3360277Y-8438984D02*
X3360277Y-8238984D01*
X3360277Y-8238984D02*
X3407896Y-8238984D01*
X3407896Y-8238984D02*
X3436467Y-8248508D01*
X3436467Y-8248508D02*
X3455515Y-8267555D01*
X3455515Y-8267555D02*
X3465039Y-8286603D01*
X3465039Y-8286603D02*
X3474562Y-8324698D01*
X3474562Y-8324698D02*
X3474562Y-8353269D01*
X3474562Y-8353269D02*
X3465039Y-8391365D01*
X3465039Y-8391365D02*
X3455515Y-8410412D01*
X3455515Y-8410412D02*
X3436467Y-8429460D01*
X3436467Y-8429460D02*
X3407896Y-8438984D01*
X3407896Y-8438984D02*
X3360277Y-8438984D01*
X3560277Y-8438984D02*
X3560277Y-8305650D01*
X3560277Y-8343746D02*
X3569801Y-8324698D01*
X3569801Y-8324698D02*
X3579324Y-8315174D01*
X3579324Y-8315174D02*
X3598372Y-8305650D01*
X3598372Y-8305650D02*
X3617420Y-8305650D01*
X3684086Y-8438984D02*
X3684086Y-8305650D01*
X3684086Y-8238984D02*
X3674562Y-8248508D01*
X3674562Y-8248508D02*
X3684086Y-8258031D01*
X3684086Y-8258031D02*
X3693610Y-8248508D01*
X3693610Y-8248508D02*
X3684086Y-8238984D01*
X3684086Y-8238984D02*
X3684086Y-8258031D01*
X3807896Y-8438984D02*
X3788848Y-8429460D01*
X3788848Y-8429460D02*
X3779324Y-8410412D01*
X3779324Y-8410412D02*
X3779324Y-8238984D01*
X3912658Y-8438984D02*
X3893610Y-8429460D01*
X3893610Y-8429460D02*
X3884086Y-8410412D01*
X3884086Y-8410412D02*
X3884086Y-8238984D01*
X4141229Y-8438984D02*
X4141229Y-8238984D01*
X4141229Y-8238984D02*
X4207896Y-8381841D01*
X4207896Y-8381841D02*
X4274563Y-8238984D01*
X4274563Y-8238984D02*
X4274563Y-8438984D01*
X4455515Y-8438984D02*
X4455515Y-8334222D01*
X4455515Y-8334222D02*
X4445991Y-8315174D01*
X4445991Y-8315174D02*
X4426944Y-8305650D01*
X4426944Y-8305650D02*
X4388848Y-8305650D01*
X4388848Y-8305650D02*
X4369801Y-8315174D01*
X4455515Y-8429460D02*
X4436467Y-8438984D01*
X4436467Y-8438984D02*
X4388848Y-8438984D01*
X4388848Y-8438984D02*
X4369801Y-8429460D01*
X4369801Y-8429460D02*
X4360277Y-8410412D01*
X4360277Y-8410412D02*
X4360277Y-8391365D01*
X4360277Y-8391365D02*
X4369801Y-8372317D01*
X4369801Y-8372317D02*
X4388848Y-8362793D01*
X4388848Y-8362793D02*
X4436467Y-8362793D01*
X4436467Y-8362793D02*
X4455515Y-8353269D01*
X4550753Y-8305650D02*
X4550753Y-8505650D01*
X4550753Y-8315174D02*
X4569801Y-8305650D01*
X4569801Y-8305650D02*
X4607896Y-8305650D01*
X4607896Y-8305650D02*
X4626944Y-8315174D01*
X4626944Y-8315174D02*
X4636467Y-8324698D01*
X4636467Y-8324698D02*
X4645991Y-8343746D01*
X4645991Y-8343746D02*
X4645991Y-8400889D01*
X4645991Y-8400889D02*
X4636467Y-8419936D01*
X4636467Y-8419936D02*
X4626944Y-8429460D01*
X4626944Y-8429460D02*
X4607896Y-8438984D01*
X4607896Y-8438984D02*
X4569801Y-8438984D01*
X4569801Y-8438984D02*
X4550753Y-8429460D01*
X4731705Y-8419936D02*
X4741229Y-8429460D01*
X4741229Y-8429460D02*
X4731705Y-8438984D01*
X4731705Y-8438984D02*
X4722182Y-8429460D01*
X4722182Y-8429460D02*
X4731705Y-8419936D01*
X4731705Y-8419936D02*
X4731705Y-8438984D01*
X4731705Y-8315174D02*
X4741229Y-8324698D01*
X4741229Y-8324698D02*
X4731705Y-8334222D01*
X4731705Y-8334222D02*
X4722182Y-8324698D01*
X4722182Y-8324698D02*
X4731705Y-8315174D01*
X4731705Y-8315174D02*
X4731705Y-8334222D01*
D12*
X3069500Y-8752500D02*
X3099500Y-8782500D01*
X3099500Y-8752500D02*
X3069500Y-8782500D01*
D11*
X3398372Y-8658984D02*
X3417420Y-8658984D01*
X3417420Y-8658984D02*
X3436467Y-8668508D01*
X3436467Y-8668508D02*
X3445991Y-8678031D01*
X3445991Y-8678031D02*
X3455515Y-8697079D01*
X3455515Y-8697079D02*
X3465039Y-8735174D01*
X3465039Y-8735174D02*
X3465039Y-8782793D01*
X3465039Y-8782793D02*
X3455515Y-8820889D01*
X3455515Y-8820889D02*
X3445991Y-8839936D01*
X3445991Y-8839936D02*
X3436467Y-8849460D01*
X3436467Y-8849460D02*
X3417420Y-8858984D01*
X3417420Y-8858984D02*
X3398372Y-8858984D01*
X3398372Y-8858984D02*
X3379324Y-8849460D01*
X3379324Y-8849460D02*
X3369801Y-8839936D01*
X3369801Y-8839936D02*
X3360277Y-8820889D01*
X3360277Y-8820889D02*
X3350753Y-8782793D01*
X3350753Y-8782793D02*
X3350753Y-8735174D01*
X3350753Y-8735174D02*
X3360277Y-8697079D01*
X3360277Y-8697079D02*
X3369801Y-8678031D01*
X3369801Y-8678031D02*
X3379324Y-8668508D01*
X3379324Y-8668508D02*
X3398372Y-8658984D01*
X3550753Y-8839936D02*
X3560277Y-8849460D01*
X3560277Y-8849460D02*
X3550753Y-8858984D01*
X3550753Y-8858984D02*
X3541229Y-8849460D01*
X3541229Y-8849460D02*
X3550753Y-8839936D01*
X3550753Y-8839936D02*
X3550753Y-8858984D01*
X3626943Y-8658984D02*
X3750753Y-8658984D01*
X3750753Y-8658984D02*
X3684086Y-8735174D01*
X3684086Y-8735174D02*
X3712658Y-8735174D01*
X3712658Y-8735174D02*
X3731705Y-8744698D01*
X3731705Y-8744698D02*
X3741229Y-8754222D01*
X3741229Y-8754222D02*
X3750753Y-8773270D01*
X3750753Y-8773270D02*
X3750753Y-8820889D01*
X3750753Y-8820889D02*
X3741229Y-8839936D01*
X3741229Y-8839936D02*
X3731705Y-8849460D01*
X3731705Y-8849460D02*
X3712658Y-8858984D01*
X3712658Y-8858984D02*
X3655515Y-8858984D01*
X3655515Y-8858984D02*
X3636467Y-8849460D01*
X3636467Y-8849460D02*
X3626943Y-8839936D01*
X3874562Y-8658984D02*
X3893610Y-8658984D01*
X3893610Y-8658984D02*
X3912658Y-8668508D01*
X3912658Y-8668508D02*
X3922182Y-8678031D01*
X3922182Y-8678031D02*
X3931705Y-8697079D01*
X3931705Y-8697079D02*
X3941229Y-8735174D01*
X3941229Y-8735174D02*
X3941229Y-8782793D01*
X3941229Y-8782793D02*
X3931705Y-8820889D01*
X3931705Y-8820889D02*
X3922182Y-8839936D01*
X3922182Y-8839936D02*
X3912658Y-8849460D01*
X3912658Y-8849460D02*
X3893610Y-8858984D01*
X3893610Y-8858984D02*
X3874562Y-8858984D01*
X3874562Y-8858984D02*
X3855515Y-8849460D01*
X3855515Y-8849460D02*
X3845991Y-8839936D01*
X3845991Y-8839936D02*
X3836467Y-8820889D01*
X3836467Y-8820889D02*
X3826943Y-8782793D01*
X3826943Y-8782793D02*
X3826943Y-8735174D01*
X3826943Y-8735174D02*
X3836467Y-8697079D01*
X3836467Y-8697079D02*
X3845991Y-8678031D01*
X3845991Y-8678031D02*
X3855515Y-8668508D01*
X3855515Y-8668508D02*
X3874562Y-8658984D01*
X4065039Y-8658984D02*
X4084086Y-8658984D01*
X4084086Y-8658984D02*
X4103134Y-8668508D01*
X4103134Y-8668508D02*
X4112658Y-8678031D01*
X4112658Y-8678031D02*
X4122182Y-8697079D01*
X4122182Y-8697079D02*
X4131705Y-8735174D01*
X4131705Y-8735174D02*
X4131705Y-8782793D01*
X4131705Y-8782793D02*
X4122182Y-8820889D01*
X4122182Y-8820889D02*
X4112658Y-8839936D01*
X4112658Y-8839936D02*
X4103134Y-8849460D01*
X4103134Y-8849460D02*
X4084086Y-8858984D01*
X4084086Y-8858984D02*
X4065039Y-8858984D01*
X4065039Y-8858984D02*
X4045991Y-8849460D01*
X4045991Y-8849460D02*
X4036467Y-8839936D01*
X4036467Y-8839936D02*
X4026943Y-8820889D01*
X4026943Y-8820889D02*
X4017420Y-8782793D01*
X4017420Y-8782793D02*
X4017420Y-8735174D01*
X4017420Y-8735174D02*
X4026943Y-8697079D01*
X4026943Y-8697079D02*
X4036467Y-8678031D01*
X4036467Y-8678031D02*
X4045991Y-8668508D01*
X4045991Y-8668508D02*
X4065039Y-8658984D01*
X4217420Y-8858984D02*
X4217420Y-8725650D01*
X4217420Y-8744698D02*
X4226944Y-8735174D01*
X4226944Y-8735174D02*
X4245991Y-8725650D01*
X4245991Y-8725650D02*
X4274563Y-8725650D01*
X4274563Y-8725650D02*
X4293610Y-8735174D01*
X4293610Y-8735174D02*
X4303134Y-8754222D01*
X4303134Y-8754222D02*
X4303134Y-8858984D01*
X4303134Y-8754222D02*
X4312658Y-8735174D01*
X4312658Y-8735174D02*
X4331705Y-8725650D01*
X4331705Y-8725650D02*
X4360277Y-8725650D01*
X4360277Y-8725650D02*
X4379325Y-8735174D01*
X4379325Y-8735174D02*
X4388848Y-8754222D01*
X4388848Y-8754222D02*
X4388848Y-8858984D01*
X4484086Y-8858984D02*
X4484086Y-8725650D01*
X4484086Y-8744698D02*
X4493610Y-8735174D01*
X4493610Y-8735174D02*
X4512658Y-8725650D01*
X4512658Y-8725650D02*
X4541229Y-8725650D01*
X4541229Y-8725650D02*
X4560277Y-8735174D01*
X4560277Y-8735174D02*
X4569801Y-8754222D01*
X4569801Y-8754222D02*
X4569801Y-8858984D01*
X4569801Y-8754222D02*
X4579325Y-8735174D01*
X4579325Y-8735174D02*
X4598372Y-8725650D01*
X4598372Y-8725650D02*
X4626944Y-8725650D01*
X4626944Y-8725650D02*
X4645991Y-8735174D01*
X4645991Y-8735174D02*
X4655515Y-8754222D01*
X4655515Y-8754222D02*
X4655515Y-8858984D01*
X5045991Y-8649460D02*
X4874563Y-8906603D01*
X5303134Y-8658984D02*
X5322182Y-8658984D01*
X5322182Y-8658984D02*
X5341229Y-8668508D01*
X5341229Y-8668508D02*
X5350753Y-8678031D01*
X5350753Y-8678031D02*
X5360277Y-8697079D01*
X5360277Y-8697079D02*
X5369801Y-8735174D01*
X5369801Y-8735174D02*
X5369801Y-8782793D01*
X5369801Y-8782793D02*
X5360277Y-8820889D01*
X5360277Y-8820889D02*
X5350753Y-8839936D01*
X5350753Y-8839936D02*
X5341229Y-8849460D01*
X5341229Y-8849460D02*
X5322182Y-8858984D01*
X5322182Y-8858984D02*
X5303134Y-8858984D01*
X5303134Y-8858984D02*
X5284087Y-8849460D01*
X5284087Y-8849460D02*
X5274563Y-8839936D01*
X5274563Y-8839936D02*
X5265039Y-8820889D01*
X5265039Y-8820889D02*
X5255515Y-8782793D01*
X5255515Y-8782793D02*
X5255515Y-8735174D01*
X5255515Y-8735174D02*
X5265039Y-8697079D01*
X5265039Y-8697079D02*
X5274563Y-8678031D01*
X5274563Y-8678031D02*
X5284087Y-8668508D01*
X5284087Y-8668508D02*
X5303134Y-8658984D01*
X5455515Y-8839936D02*
X5465039Y-8849460D01*
X5465039Y-8849460D02*
X5455515Y-8858984D01*
X5455515Y-8858984D02*
X5445991Y-8849460D01*
X5445991Y-8849460D02*
X5455515Y-8839936D01*
X5455515Y-8839936D02*
X5455515Y-8858984D01*
X5588848Y-8658984D02*
X5607896Y-8658984D01*
X5607896Y-8658984D02*
X5626944Y-8668508D01*
X5626944Y-8668508D02*
X5636467Y-8678031D01*
X5636467Y-8678031D02*
X5645991Y-8697079D01*
X5645991Y-8697079D02*
X5655515Y-8735174D01*
X5655515Y-8735174D02*
X5655515Y-8782793D01*
X5655515Y-8782793D02*
X5645991Y-8820889D01*
X5645991Y-8820889D02*
X5636467Y-8839936D01*
X5636467Y-8839936D02*
X5626944Y-8849460D01*
X5626944Y-8849460D02*
X5607896Y-8858984D01*
X5607896Y-8858984D02*
X5588848Y-8858984D01*
X5588848Y-8858984D02*
X5569801Y-8849460D01*
X5569801Y-8849460D02*
X5560277Y-8839936D01*
X5560277Y-8839936D02*
X5550753Y-8820889D01*
X5550753Y-8820889D02*
X5541229Y-8782793D01*
X5541229Y-8782793D02*
X5541229Y-8735174D01*
X5541229Y-8735174D02*
X5550753Y-8697079D01*
X5550753Y-8697079D02*
X5560277Y-8678031D01*
X5560277Y-8678031D02*
X5569801Y-8668508D01*
X5569801Y-8668508D02*
X5588848Y-8658984D01*
X5845991Y-8858984D02*
X5731706Y-8858984D01*
X5788848Y-8858984D02*
X5788848Y-8658984D01*
X5788848Y-8658984D02*
X5769801Y-8687555D01*
X5769801Y-8687555D02*
X5750753Y-8706603D01*
X5750753Y-8706603D02*
X5731706Y-8716127D01*
X6036467Y-8858984D02*
X5922182Y-8858984D01*
X5979325Y-8858984D02*
X5979325Y-8658984D01*
X5979325Y-8658984D02*
X5960277Y-8687555D01*
X5960277Y-8687555D02*
X5941229Y-8706603D01*
X5941229Y-8706603D02*
X5922182Y-8716127D01*
X6150753Y-8744698D02*
X6131706Y-8735174D01*
X6131706Y-8735174D02*
X6122182Y-8725650D01*
X6122182Y-8725650D02*
X6112658Y-8706603D01*
X6112658Y-8706603D02*
X6112658Y-8697079D01*
X6112658Y-8697079D02*
X6122182Y-8678031D01*
X6122182Y-8678031D02*
X6131706Y-8668508D01*
X6131706Y-8668508D02*
X6150753Y-8658984D01*
X6150753Y-8658984D02*
X6188848Y-8658984D01*
X6188848Y-8658984D02*
X6207896Y-8668508D01*
X6207896Y-8668508D02*
X6217420Y-8678031D01*
X6217420Y-8678031D02*
X6226944Y-8697079D01*
X6226944Y-8697079D02*
X6226944Y-8706603D01*
X6226944Y-8706603D02*
X6217420Y-8725650D01*
X6217420Y-8725650D02*
X6207896Y-8735174D01*
X6207896Y-8735174D02*
X6188848Y-8744698D01*
X6188848Y-8744698D02*
X6150753Y-8744698D01*
X6150753Y-8744698D02*
X6131706Y-8754222D01*
X6131706Y-8754222D02*
X6122182Y-8763746D01*
X6122182Y-8763746D02*
X6112658Y-8782793D01*
X6112658Y-8782793D02*
X6112658Y-8820889D01*
X6112658Y-8820889D02*
X6122182Y-8839936D01*
X6122182Y-8839936D02*
X6131706Y-8849460D01*
X6131706Y-8849460D02*
X6150753Y-8858984D01*
X6150753Y-8858984D02*
X6188848Y-8858984D01*
X6188848Y-8858984D02*
X6207896Y-8849460D01*
X6207896Y-8849460D02*
X6217420Y-8839936D01*
X6217420Y-8839936D02*
X6226944Y-8820889D01*
X6226944Y-8820889D02*
X6226944Y-8782793D01*
X6226944Y-8782793D02*
X6217420Y-8763746D01*
X6217420Y-8763746D02*
X6207896Y-8754222D01*
X6207896Y-8754222D02*
X6188848Y-8744698D01*
X6303134Y-8658984D02*
X6303134Y-8697079D01*
X6379325Y-8658984D02*
X6379325Y-8697079D01*
X6674563Y-8935174D02*
X6665039Y-8925650D01*
X6665039Y-8925650D02*
X6645991Y-8897079D01*
X6645991Y-8897079D02*
X6636468Y-8878031D01*
X6636468Y-8878031D02*
X6626944Y-8849460D01*
X6626944Y-8849460D02*
X6617420Y-8801841D01*
X6617420Y-8801841D02*
X6617420Y-8763746D01*
X6617420Y-8763746D02*
X6626944Y-8716127D01*
X6626944Y-8716127D02*
X6636468Y-8687555D01*
X6636468Y-8687555D02*
X6645991Y-8668508D01*
X6645991Y-8668508D02*
X6665039Y-8639936D01*
X6665039Y-8639936D02*
X6674563Y-8630412D01*
X6836468Y-8725650D02*
X6836468Y-8858984D01*
X6788848Y-8649460D02*
X6741229Y-8792317D01*
X6741229Y-8792317D02*
X6865039Y-8792317D01*
X7036468Y-8658984D02*
X6941229Y-8658984D01*
X6941229Y-8658984D02*
X6931706Y-8754222D01*
X6931706Y-8754222D02*
X6941229Y-8744698D01*
X6941229Y-8744698D02*
X6960277Y-8735174D01*
X6960277Y-8735174D02*
X7007896Y-8735174D01*
X7007896Y-8735174D02*
X7026944Y-8744698D01*
X7026944Y-8744698D02*
X7036468Y-8754222D01*
X7036468Y-8754222D02*
X7045991Y-8773270D01*
X7045991Y-8773270D02*
X7045991Y-8820889D01*
X7045991Y-8820889D02*
X7036468Y-8839936D01*
X7036468Y-8839936D02*
X7026944Y-8849460D01*
X7026944Y-8849460D02*
X7007896Y-8858984D01*
X7007896Y-8858984D02*
X6960277Y-8858984D01*
X6960277Y-8858984D02*
X6941229Y-8849460D01*
X6941229Y-8849460D02*
X6931706Y-8839936D01*
X7284087Y-8858984D02*
X7284087Y-8658984D01*
X7369801Y-8858984D02*
X7369801Y-8754222D01*
X7369801Y-8754222D02*
X7360277Y-8735174D01*
X7360277Y-8735174D02*
X7341230Y-8725650D01*
X7341230Y-8725650D02*
X7312658Y-8725650D01*
X7312658Y-8725650D02*
X7293610Y-8735174D01*
X7293610Y-8735174D02*
X7284087Y-8744698D01*
X7493610Y-8858984D02*
X7474563Y-8849460D01*
X7474563Y-8849460D02*
X7465039Y-8839936D01*
X7465039Y-8839936D02*
X7455515Y-8820889D01*
X7455515Y-8820889D02*
X7455515Y-8763746D01*
X7455515Y-8763746D02*
X7465039Y-8744698D01*
X7465039Y-8744698D02*
X7474563Y-8735174D01*
X7474563Y-8735174D02*
X7493610Y-8725650D01*
X7493610Y-8725650D02*
X7522182Y-8725650D01*
X7522182Y-8725650D02*
X7541230Y-8735174D01*
X7541230Y-8735174D02*
X7550753Y-8744698D01*
X7550753Y-8744698D02*
X7560277Y-8763746D01*
X7560277Y-8763746D02*
X7560277Y-8820889D01*
X7560277Y-8820889D02*
X7550753Y-8839936D01*
X7550753Y-8839936D02*
X7541230Y-8849460D01*
X7541230Y-8849460D02*
X7522182Y-8858984D01*
X7522182Y-8858984D02*
X7493610Y-8858984D01*
X7674563Y-8858984D02*
X7655515Y-8849460D01*
X7655515Y-8849460D02*
X7645991Y-8830412D01*
X7645991Y-8830412D02*
X7645991Y-8658984D01*
X7826944Y-8849460D02*
X7807896Y-8858984D01*
X7807896Y-8858984D02*
X7769801Y-8858984D01*
X7769801Y-8858984D02*
X7750753Y-8849460D01*
X7750753Y-8849460D02*
X7741230Y-8830412D01*
X7741230Y-8830412D02*
X7741230Y-8754222D01*
X7741230Y-8754222D02*
X7750753Y-8735174D01*
X7750753Y-8735174D02*
X7769801Y-8725650D01*
X7769801Y-8725650D02*
X7807896Y-8725650D01*
X7807896Y-8725650D02*
X7826944Y-8735174D01*
X7826944Y-8735174D02*
X7836468Y-8754222D01*
X7836468Y-8754222D02*
X7836468Y-8773270D01*
X7836468Y-8773270D02*
X7741230Y-8792317D01*
X7912658Y-8849460D02*
X7931706Y-8858984D01*
X7931706Y-8858984D02*
X7969801Y-8858984D01*
X7969801Y-8858984D02*
X7988849Y-8849460D01*
X7988849Y-8849460D02*
X7998372Y-8830412D01*
X7998372Y-8830412D02*
X7998372Y-8820889D01*
X7998372Y-8820889D02*
X7988849Y-8801841D01*
X7988849Y-8801841D02*
X7969801Y-8792317D01*
X7969801Y-8792317D02*
X7941230Y-8792317D01*
X7941230Y-8792317D02*
X7922182Y-8782793D01*
X7922182Y-8782793D02*
X7912658Y-8763746D01*
X7912658Y-8763746D02*
X7912658Y-8754222D01*
X7912658Y-8754222D02*
X7922182Y-8735174D01*
X7922182Y-8735174D02*
X7941230Y-8725650D01*
X7941230Y-8725650D02*
X7969801Y-8725650D01*
X7969801Y-8725650D02*
X7988849Y-8735174D01*
X8065039Y-8935174D02*
X8074563Y-8925650D01*
X8074563Y-8925650D02*
X8093611Y-8897079D01*
X8093611Y-8897079D02*
X8103134Y-8878031D01*
X8103134Y-8878031D02*
X8112658Y-8849460D01*
X8112658Y-8849460D02*
X8122182Y-8801841D01*
X8122182Y-8801841D02*
X8122182Y-8763746D01*
X8122182Y-8763746D02*
X8112658Y-8716127D01*
X8112658Y-8716127D02*
X8103134Y-8687555D01*
X8103134Y-8687555D02*
X8093611Y-8668508D01*
X8093611Y-8668508D02*
X8074563Y-8639936D01*
X8074563Y-8639936D02*
X8065039Y-8630412D01*
D12*
X3099500Y-9031500D02*
G75*
G02*
X3039500Y-9031500I-30000J0D01*
G01*
X3039500Y-9031500D02*
G75*
G02*
X3099500Y-9031500I30000J0D01*
G01*
D11*
X3398372Y-8922984D02*
X3417420Y-8922984D01*
X3417420Y-8922984D02*
X3436467Y-8932508D01*
X3436467Y-8932508D02*
X3445991Y-8942031D01*
X3445991Y-8942031D02*
X3455515Y-8961079D01*
X3455515Y-8961079D02*
X3465039Y-8999174D01*
X3465039Y-8999174D02*
X3465039Y-9046793D01*
X3465039Y-9046793D02*
X3455515Y-9084889D01*
X3455515Y-9084889D02*
X3445991Y-9103936D01*
X3445991Y-9103936D02*
X3436467Y-9113460D01*
X3436467Y-9113460D02*
X3417420Y-9122984D01*
X3417420Y-9122984D02*
X3398372Y-9122984D01*
X3398372Y-9122984D02*
X3379324Y-9113460D01*
X3379324Y-9113460D02*
X3369801Y-9103936D01*
X3369801Y-9103936D02*
X3360277Y-9084889D01*
X3360277Y-9084889D02*
X3350753Y-9046793D01*
X3350753Y-9046793D02*
X3350753Y-8999174D01*
X3350753Y-8999174D02*
X3360277Y-8961079D01*
X3360277Y-8961079D02*
X3369801Y-8942031D01*
X3369801Y-8942031D02*
X3379324Y-8932508D01*
X3379324Y-8932508D02*
X3398372Y-8922984D01*
X3550753Y-9103936D02*
X3560277Y-9113460D01*
X3560277Y-9113460D02*
X3550753Y-9122984D01*
X3550753Y-9122984D02*
X3541229Y-9113460D01*
X3541229Y-9113460D02*
X3550753Y-9103936D01*
X3550753Y-9103936D02*
X3550753Y-9122984D01*
X3731705Y-8922984D02*
X3693610Y-8922984D01*
X3693610Y-8922984D02*
X3674562Y-8932508D01*
X3674562Y-8932508D02*
X3665039Y-8942031D01*
X3665039Y-8942031D02*
X3645991Y-8970603D01*
X3645991Y-8970603D02*
X3636467Y-9008698D01*
X3636467Y-9008698D02*
X3636467Y-9084889D01*
X3636467Y-9084889D02*
X3645991Y-9103936D01*
X3645991Y-9103936D02*
X3655515Y-9113460D01*
X3655515Y-9113460D02*
X3674562Y-9122984D01*
X3674562Y-9122984D02*
X3712658Y-9122984D01*
X3712658Y-9122984D02*
X3731705Y-9113460D01*
X3731705Y-9113460D02*
X3741229Y-9103936D01*
X3741229Y-9103936D02*
X3750753Y-9084889D01*
X3750753Y-9084889D02*
X3750753Y-9037270D01*
X3750753Y-9037270D02*
X3741229Y-9018222D01*
X3741229Y-9018222D02*
X3731705Y-9008698D01*
X3731705Y-9008698D02*
X3712658Y-8999174D01*
X3712658Y-8999174D02*
X3674562Y-8999174D01*
X3674562Y-8999174D02*
X3655515Y-9008698D01*
X3655515Y-9008698D02*
X3645991Y-9018222D01*
X3645991Y-9018222D02*
X3636467Y-9037270D01*
X3874562Y-8922984D02*
X3893610Y-8922984D01*
X3893610Y-8922984D02*
X3912658Y-8932508D01*
X3912658Y-8932508D02*
X3922182Y-8942031D01*
X3922182Y-8942031D02*
X3931705Y-8961079D01*
X3931705Y-8961079D02*
X3941229Y-8999174D01*
X3941229Y-8999174D02*
X3941229Y-9046793D01*
X3941229Y-9046793D02*
X3931705Y-9084889D01*
X3931705Y-9084889D02*
X3922182Y-9103936D01*
X3922182Y-9103936D02*
X3912658Y-9113460D01*
X3912658Y-9113460D02*
X3893610Y-9122984D01*
X3893610Y-9122984D02*
X3874562Y-9122984D01*
X3874562Y-9122984D02*
X3855515Y-9113460D01*
X3855515Y-9113460D02*
X3845991Y-9103936D01*
X3845991Y-9103936D02*
X3836467Y-9084889D01*
X3836467Y-9084889D02*
X3826943Y-9046793D01*
X3826943Y-9046793D02*
X3826943Y-8999174D01*
X3826943Y-8999174D02*
X3836467Y-8961079D01*
X3836467Y-8961079D02*
X3845991Y-8942031D01*
X3845991Y-8942031D02*
X3855515Y-8932508D01*
X3855515Y-8932508D02*
X3874562Y-8922984D01*
X4065039Y-8922984D02*
X4084086Y-8922984D01*
X4084086Y-8922984D02*
X4103134Y-8932508D01*
X4103134Y-8932508D02*
X4112658Y-8942031D01*
X4112658Y-8942031D02*
X4122182Y-8961079D01*
X4122182Y-8961079D02*
X4131705Y-8999174D01*
X4131705Y-8999174D02*
X4131705Y-9046793D01*
X4131705Y-9046793D02*
X4122182Y-9084889D01*
X4122182Y-9084889D02*
X4112658Y-9103936D01*
X4112658Y-9103936D02*
X4103134Y-9113460D01*
X4103134Y-9113460D02*
X4084086Y-9122984D01*
X4084086Y-9122984D02*
X4065039Y-9122984D01*
X4065039Y-9122984D02*
X4045991Y-9113460D01*
X4045991Y-9113460D02*
X4036467Y-9103936D01*
X4036467Y-9103936D02*
X4026943Y-9084889D01*
X4026943Y-9084889D02*
X4017420Y-9046793D01*
X4017420Y-9046793D02*
X4017420Y-8999174D01*
X4017420Y-8999174D02*
X4026943Y-8961079D01*
X4026943Y-8961079D02*
X4036467Y-8942031D01*
X4036467Y-8942031D02*
X4045991Y-8932508D01*
X4045991Y-8932508D02*
X4065039Y-8922984D01*
X4217420Y-9122984D02*
X4217420Y-8989650D01*
X4217420Y-9008698D02*
X4226944Y-8999174D01*
X4226944Y-8999174D02*
X4245991Y-8989650D01*
X4245991Y-8989650D02*
X4274563Y-8989650D01*
X4274563Y-8989650D02*
X4293610Y-8999174D01*
X4293610Y-8999174D02*
X4303134Y-9018222D01*
X4303134Y-9018222D02*
X4303134Y-9122984D01*
X4303134Y-9018222D02*
X4312658Y-8999174D01*
X4312658Y-8999174D02*
X4331705Y-8989650D01*
X4331705Y-8989650D02*
X4360277Y-8989650D01*
X4360277Y-8989650D02*
X4379325Y-8999174D01*
X4379325Y-8999174D02*
X4388848Y-9018222D01*
X4388848Y-9018222D02*
X4388848Y-9122984D01*
X4484086Y-9122984D02*
X4484086Y-8989650D01*
X4484086Y-9008698D02*
X4493610Y-8999174D01*
X4493610Y-8999174D02*
X4512658Y-8989650D01*
X4512658Y-8989650D02*
X4541229Y-8989650D01*
X4541229Y-8989650D02*
X4560277Y-8999174D01*
X4560277Y-8999174D02*
X4569801Y-9018222D01*
X4569801Y-9018222D02*
X4569801Y-9122984D01*
X4569801Y-9018222D02*
X4579325Y-8999174D01*
X4579325Y-8999174D02*
X4598372Y-8989650D01*
X4598372Y-8989650D02*
X4626944Y-8989650D01*
X4626944Y-8989650D02*
X4645991Y-8999174D01*
X4645991Y-8999174D02*
X4655515Y-9018222D01*
X4655515Y-9018222D02*
X4655515Y-9122984D01*
X5045991Y-8913460D02*
X4874563Y-9170603D01*
X5303134Y-8922984D02*
X5322182Y-8922984D01*
X5322182Y-8922984D02*
X5341229Y-8932508D01*
X5341229Y-8932508D02*
X5350753Y-8942031D01*
X5350753Y-8942031D02*
X5360277Y-8961079D01*
X5360277Y-8961079D02*
X5369801Y-8999174D01*
X5369801Y-8999174D02*
X5369801Y-9046793D01*
X5369801Y-9046793D02*
X5360277Y-9084889D01*
X5360277Y-9084889D02*
X5350753Y-9103936D01*
X5350753Y-9103936D02*
X5341229Y-9113460D01*
X5341229Y-9113460D02*
X5322182Y-9122984D01*
X5322182Y-9122984D02*
X5303134Y-9122984D01*
X5303134Y-9122984D02*
X5284087Y-9113460D01*
X5284087Y-9113460D02*
X5274563Y-9103936D01*
X5274563Y-9103936D02*
X5265039Y-9084889D01*
X5265039Y-9084889D02*
X5255515Y-9046793D01*
X5255515Y-9046793D02*
X5255515Y-8999174D01*
X5255515Y-8999174D02*
X5265039Y-8961079D01*
X5265039Y-8961079D02*
X5274563Y-8942031D01*
X5274563Y-8942031D02*
X5284087Y-8932508D01*
X5284087Y-8932508D02*
X5303134Y-8922984D01*
X5455515Y-9103936D02*
X5465039Y-9113460D01*
X5465039Y-9113460D02*
X5455515Y-9122984D01*
X5455515Y-9122984D02*
X5445991Y-9113460D01*
X5445991Y-9113460D02*
X5455515Y-9103936D01*
X5455515Y-9103936D02*
X5455515Y-9122984D01*
X5588848Y-8922984D02*
X5607896Y-8922984D01*
X5607896Y-8922984D02*
X5626944Y-8932508D01*
X5626944Y-8932508D02*
X5636467Y-8942031D01*
X5636467Y-8942031D02*
X5645991Y-8961079D01*
X5645991Y-8961079D02*
X5655515Y-8999174D01*
X5655515Y-8999174D02*
X5655515Y-9046793D01*
X5655515Y-9046793D02*
X5645991Y-9084889D01*
X5645991Y-9084889D02*
X5636467Y-9103936D01*
X5636467Y-9103936D02*
X5626944Y-9113460D01*
X5626944Y-9113460D02*
X5607896Y-9122984D01*
X5607896Y-9122984D02*
X5588848Y-9122984D01*
X5588848Y-9122984D02*
X5569801Y-9113460D01*
X5569801Y-9113460D02*
X5560277Y-9103936D01*
X5560277Y-9103936D02*
X5550753Y-9084889D01*
X5550753Y-9084889D02*
X5541229Y-9046793D01*
X5541229Y-9046793D02*
X5541229Y-8999174D01*
X5541229Y-8999174D02*
X5550753Y-8961079D01*
X5550753Y-8961079D02*
X5560277Y-8942031D01*
X5560277Y-8942031D02*
X5569801Y-8932508D01*
X5569801Y-8932508D02*
X5588848Y-8922984D01*
X5731706Y-8942031D02*
X5741229Y-8932508D01*
X5741229Y-8932508D02*
X5760277Y-8922984D01*
X5760277Y-8922984D02*
X5807896Y-8922984D01*
X5807896Y-8922984D02*
X5826944Y-8932508D01*
X5826944Y-8932508D02*
X5836467Y-8942031D01*
X5836467Y-8942031D02*
X5845991Y-8961079D01*
X5845991Y-8961079D02*
X5845991Y-8980127D01*
X5845991Y-8980127D02*
X5836467Y-9008698D01*
X5836467Y-9008698D02*
X5722182Y-9122984D01*
X5722182Y-9122984D02*
X5845991Y-9122984D01*
X5912658Y-8922984D02*
X6036467Y-8922984D01*
X6036467Y-8922984D02*
X5969801Y-8999174D01*
X5969801Y-8999174D02*
X5998372Y-8999174D01*
X5998372Y-8999174D02*
X6017420Y-9008698D01*
X6017420Y-9008698D02*
X6026944Y-9018222D01*
X6026944Y-9018222D02*
X6036467Y-9037270D01*
X6036467Y-9037270D02*
X6036467Y-9084889D01*
X6036467Y-9084889D02*
X6026944Y-9103936D01*
X6026944Y-9103936D02*
X6017420Y-9113460D01*
X6017420Y-9113460D02*
X5998372Y-9122984D01*
X5998372Y-9122984D02*
X5941229Y-9122984D01*
X5941229Y-9122984D02*
X5922182Y-9113460D01*
X5922182Y-9113460D02*
X5912658Y-9103936D01*
X6207896Y-8922984D02*
X6169801Y-8922984D01*
X6169801Y-8922984D02*
X6150753Y-8932508D01*
X6150753Y-8932508D02*
X6141229Y-8942031D01*
X6141229Y-8942031D02*
X6122182Y-8970603D01*
X6122182Y-8970603D02*
X6112658Y-9008698D01*
X6112658Y-9008698D02*
X6112658Y-9084889D01*
X6112658Y-9084889D02*
X6122182Y-9103936D01*
X6122182Y-9103936D02*
X6131706Y-9113460D01*
X6131706Y-9113460D02*
X6150753Y-9122984D01*
X6150753Y-9122984D02*
X6188848Y-9122984D01*
X6188848Y-9122984D02*
X6207896Y-9113460D01*
X6207896Y-9113460D02*
X6217420Y-9103936D01*
X6217420Y-9103936D02*
X6226944Y-9084889D01*
X6226944Y-9084889D02*
X6226944Y-9037270D01*
X6226944Y-9037270D02*
X6217420Y-9018222D01*
X6217420Y-9018222D02*
X6207896Y-9008698D01*
X6207896Y-9008698D02*
X6188848Y-8999174D01*
X6188848Y-8999174D02*
X6150753Y-8999174D01*
X6150753Y-8999174D02*
X6131706Y-9008698D01*
X6131706Y-9008698D02*
X6122182Y-9018222D01*
X6122182Y-9018222D02*
X6112658Y-9037270D01*
X6303134Y-8922984D02*
X6303134Y-8961079D01*
X6379325Y-8922984D02*
X6379325Y-8961079D01*
X6674563Y-9199174D02*
X6665039Y-9189650D01*
X6665039Y-9189650D02*
X6645991Y-9161079D01*
X6645991Y-9161079D02*
X6636468Y-9142031D01*
X6636468Y-9142031D02*
X6626944Y-9113460D01*
X6626944Y-9113460D02*
X6617420Y-9065841D01*
X6617420Y-9065841D02*
X6617420Y-9027746D01*
X6617420Y-9027746D02*
X6626944Y-8980127D01*
X6626944Y-8980127D02*
X6636468Y-8951555D01*
X6636468Y-8951555D02*
X6645991Y-8932508D01*
X6645991Y-8932508D02*
X6665039Y-8903936D01*
X6665039Y-8903936D02*
X6674563Y-8894412D01*
X6731706Y-8922984D02*
X6855515Y-8922984D01*
X6855515Y-8922984D02*
X6788848Y-8999174D01*
X6788848Y-8999174D02*
X6817420Y-8999174D01*
X6817420Y-8999174D02*
X6836468Y-9008698D01*
X6836468Y-9008698D02*
X6845991Y-9018222D01*
X6845991Y-9018222D02*
X6855515Y-9037270D01*
X6855515Y-9037270D02*
X6855515Y-9084889D01*
X6855515Y-9084889D02*
X6845991Y-9103936D01*
X6845991Y-9103936D02*
X6836468Y-9113460D01*
X6836468Y-9113460D02*
X6817420Y-9122984D01*
X6817420Y-9122984D02*
X6760277Y-9122984D01*
X6760277Y-9122984D02*
X6741229Y-9113460D01*
X6741229Y-9113460D02*
X6731706Y-9103936D01*
X7093610Y-9122984D02*
X7093610Y-8922984D01*
X7179325Y-9122984D02*
X7179325Y-9018222D01*
X7179325Y-9018222D02*
X7169801Y-8999174D01*
X7169801Y-8999174D02*
X7150753Y-8989650D01*
X7150753Y-8989650D02*
X7122182Y-8989650D01*
X7122182Y-8989650D02*
X7103134Y-8999174D01*
X7103134Y-8999174D02*
X7093610Y-9008698D01*
X7303134Y-9122984D02*
X7284087Y-9113460D01*
X7284087Y-9113460D02*
X7274563Y-9103936D01*
X7274563Y-9103936D02*
X7265039Y-9084889D01*
X7265039Y-9084889D02*
X7265039Y-9027746D01*
X7265039Y-9027746D02*
X7274563Y-9008698D01*
X7274563Y-9008698D02*
X7284087Y-8999174D01*
X7284087Y-8999174D02*
X7303134Y-8989650D01*
X7303134Y-8989650D02*
X7331706Y-8989650D01*
X7331706Y-8989650D02*
X7350753Y-8999174D01*
X7350753Y-8999174D02*
X7360277Y-9008698D01*
X7360277Y-9008698D02*
X7369801Y-9027746D01*
X7369801Y-9027746D02*
X7369801Y-9084889D01*
X7369801Y-9084889D02*
X7360277Y-9103936D01*
X7360277Y-9103936D02*
X7350753Y-9113460D01*
X7350753Y-9113460D02*
X7331706Y-9122984D01*
X7331706Y-9122984D02*
X7303134Y-9122984D01*
X7484087Y-9122984D02*
X7465039Y-9113460D01*
X7465039Y-9113460D02*
X7455515Y-9094412D01*
X7455515Y-9094412D02*
X7455515Y-8922984D01*
X7636468Y-9113460D02*
X7617420Y-9122984D01*
X7617420Y-9122984D02*
X7579325Y-9122984D01*
X7579325Y-9122984D02*
X7560277Y-9113460D01*
X7560277Y-9113460D02*
X7550753Y-9094412D01*
X7550753Y-9094412D02*
X7550753Y-9018222D01*
X7550753Y-9018222D02*
X7560277Y-8999174D01*
X7560277Y-8999174D02*
X7579325Y-8989650D01*
X7579325Y-8989650D02*
X7617420Y-8989650D01*
X7617420Y-8989650D02*
X7636468Y-8999174D01*
X7636468Y-8999174D02*
X7645991Y-9018222D01*
X7645991Y-9018222D02*
X7645991Y-9037270D01*
X7645991Y-9037270D02*
X7550753Y-9056317D01*
X7722182Y-9113460D02*
X7741230Y-9122984D01*
X7741230Y-9122984D02*
X7779325Y-9122984D01*
X7779325Y-9122984D02*
X7798372Y-9113460D01*
X7798372Y-9113460D02*
X7807896Y-9094412D01*
X7807896Y-9094412D02*
X7807896Y-9084889D01*
X7807896Y-9084889D02*
X7798372Y-9065841D01*
X7798372Y-9065841D02*
X7779325Y-9056317D01*
X7779325Y-9056317D02*
X7750753Y-9056317D01*
X7750753Y-9056317D02*
X7731706Y-9046793D01*
X7731706Y-9046793D02*
X7722182Y-9027746D01*
X7722182Y-9027746D02*
X7722182Y-9018222D01*
X7722182Y-9018222D02*
X7731706Y-8999174D01*
X7731706Y-8999174D02*
X7750753Y-8989650D01*
X7750753Y-8989650D02*
X7779325Y-8989650D01*
X7779325Y-8989650D02*
X7798372Y-8999174D01*
X7874563Y-9199174D02*
X7884087Y-9189650D01*
X7884087Y-9189650D02*
X7903134Y-9161079D01*
X7903134Y-9161079D02*
X7912658Y-9142031D01*
X7912658Y-9142031D02*
X7922182Y-9113460D01*
X7922182Y-9113460D02*
X7931706Y-9065841D01*
X7931706Y-9065841D02*
X7931706Y-9027746D01*
X7931706Y-9027746D02*
X7922182Y-8980127D01*
X7922182Y-8980127D02*
X7912658Y-8951555D01*
X7912658Y-8951555D02*
X7903134Y-8932508D01*
X7903134Y-8932508D02*
X7884087Y-8903936D01*
X7884087Y-8903936D02*
X7874563Y-8894412D01*
D12*
X3064500Y-9260500D02*
X3064500Y-9330500D01*
X3029500Y-9295500D02*
X3099500Y-9295500D01*
D11*
X3398372Y-9186984D02*
X3417420Y-9186984D01*
X3417420Y-9186984D02*
X3436467Y-9196508D01*
X3436467Y-9196508D02*
X3445991Y-9206031D01*
X3445991Y-9206031D02*
X3455515Y-9225079D01*
X3455515Y-9225079D02*
X3465039Y-9263174D01*
X3465039Y-9263174D02*
X3465039Y-9310793D01*
X3465039Y-9310793D02*
X3455515Y-9348889D01*
X3455515Y-9348889D02*
X3445991Y-9367936D01*
X3445991Y-9367936D02*
X3436467Y-9377460D01*
X3436467Y-9377460D02*
X3417420Y-9386984D01*
X3417420Y-9386984D02*
X3398372Y-9386984D01*
X3398372Y-9386984D02*
X3379324Y-9377460D01*
X3379324Y-9377460D02*
X3369801Y-9367936D01*
X3369801Y-9367936D02*
X3360277Y-9348889D01*
X3360277Y-9348889D02*
X3350753Y-9310793D01*
X3350753Y-9310793D02*
X3350753Y-9263174D01*
X3350753Y-9263174D02*
X3360277Y-9225079D01*
X3360277Y-9225079D02*
X3369801Y-9206031D01*
X3369801Y-9206031D02*
X3379324Y-9196508D01*
X3379324Y-9196508D02*
X3398372Y-9186984D01*
X3550753Y-9367936D02*
X3560277Y-9377460D01*
X3560277Y-9377460D02*
X3550753Y-9386984D01*
X3550753Y-9386984D02*
X3541229Y-9377460D01*
X3541229Y-9377460D02*
X3550753Y-9367936D01*
X3550753Y-9367936D02*
X3550753Y-9386984D01*
X3626943Y-9186984D02*
X3760277Y-9186984D01*
X3760277Y-9186984D02*
X3674562Y-9386984D01*
X3874562Y-9186984D02*
X3893610Y-9186984D01*
X3893610Y-9186984D02*
X3912658Y-9196508D01*
X3912658Y-9196508D02*
X3922182Y-9206031D01*
X3922182Y-9206031D02*
X3931705Y-9225079D01*
X3931705Y-9225079D02*
X3941229Y-9263174D01*
X3941229Y-9263174D02*
X3941229Y-9310793D01*
X3941229Y-9310793D02*
X3931705Y-9348889D01*
X3931705Y-9348889D02*
X3922182Y-9367936D01*
X3922182Y-9367936D02*
X3912658Y-9377460D01*
X3912658Y-9377460D02*
X3893610Y-9386984D01*
X3893610Y-9386984D02*
X3874562Y-9386984D01*
X3874562Y-9386984D02*
X3855515Y-9377460D01*
X3855515Y-9377460D02*
X3845991Y-9367936D01*
X3845991Y-9367936D02*
X3836467Y-9348889D01*
X3836467Y-9348889D02*
X3826943Y-9310793D01*
X3826943Y-9310793D02*
X3826943Y-9263174D01*
X3826943Y-9263174D02*
X3836467Y-9225079D01*
X3836467Y-9225079D02*
X3845991Y-9206031D01*
X3845991Y-9206031D02*
X3855515Y-9196508D01*
X3855515Y-9196508D02*
X3874562Y-9186984D01*
X4065039Y-9186984D02*
X4084086Y-9186984D01*
X4084086Y-9186984D02*
X4103134Y-9196508D01*
X4103134Y-9196508D02*
X4112658Y-9206031D01*
X4112658Y-9206031D02*
X4122182Y-9225079D01*
X4122182Y-9225079D02*
X4131705Y-9263174D01*
X4131705Y-9263174D02*
X4131705Y-9310793D01*
X4131705Y-9310793D02*
X4122182Y-9348889D01*
X4122182Y-9348889D02*
X4112658Y-9367936D01*
X4112658Y-9367936D02*
X4103134Y-9377460D01*
X4103134Y-9377460D02*
X4084086Y-9386984D01*
X4084086Y-9386984D02*
X4065039Y-9386984D01*
X4065039Y-9386984D02*
X4045991Y-9377460D01*
X4045991Y-9377460D02*
X4036467Y-9367936D01*
X4036467Y-9367936D02*
X4026943Y-9348889D01*
X4026943Y-9348889D02*
X4017420Y-9310793D01*
X4017420Y-9310793D02*
X4017420Y-9263174D01*
X4017420Y-9263174D02*
X4026943Y-9225079D01*
X4026943Y-9225079D02*
X4036467Y-9206031D01*
X4036467Y-9206031D02*
X4045991Y-9196508D01*
X4045991Y-9196508D02*
X4065039Y-9186984D01*
X4217420Y-9386984D02*
X4217420Y-9253650D01*
X4217420Y-9272698D02*
X4226944Y-9263174D01*
X4226944Y-9263174D02*
X4245991Y-9253650D01*
X4245991Y-9253650D02*
X4274563Y-9253650D01*
X4274563Y-9253650D02*
X4293610Y-9263174D01*
X4293610Y-9263174D02*
X4303134Y-9282222D01*
X4303134Y-9282222D02*
X4303134Y-9386984D01*
X4303134Y-9282222D02*
X4312658Y-9263174D01*
X4312658Y-9263174D02*
X4331705Y-9253650D01*
X4331705Y-9253650D02*
X4360277Y-9253650D01*
X4360277Y-9253650D02*
X4379325Y-9263174D01*
X4379325Y-9263174D02*
X4388848Y-9282222D01*
X4388848Y-9282222D02*
X4388848Y-9386984D01*
X4484086Y-9386984D02*
X4484086Y-9253650D01*
X4484086Y-9272698D02*
X4493610Y-9263174D01*
X4493610Y-9263174D02*
X4512658Y-9253650D01*
X4512658Y-9253650D02*
X4541229Y-9253650D01*
X4541229Y-9253650D02*
X4560277Y-9263174D01*
X4560277Y-9263174D02*
X4569801Y-9282222D01*
X4569801Y-9282222D02*
X4569801Y-9386984D01*
X4569801Y-9282222D02*
X4579325Y-9263174D01*
X4579325Y-9263174D02*
X4598372Y-9253650D01*
X4598372Y-9253650D02*
X4626944Y-9253650D01*
X4626944Y-9253650D02*
X4645991Y-9263174D01*
X4645991Y-9263174D02*
X4655515Y-9282222D01*
X4655515Y-9282222D02*
X4655515Y-9386984D01*
X5045991Y-9177460D02*
X4874563Y-9434603D01*
X5303134Y-9186984D02*
X5322182Y-9186984D01*
X5322182Y-9186984D02*
X5341229Y-9196508D01*
X5341229Y-9196508D02*
X5350753Y-9206031D01*
X5350753Y-9206031D02*
X5360277Y-9225079D01*
X5360277Y-9225079D02*
X5369801Y-9263174D01*
X5369801Y-9263174D02*
X5369801Y-9310793D01*
X5369801Y-9310793D02*
X5360277Y-9348889D01*
X5360277Y-9348889D02*
X5350753Y-9367936D01*
X5350753Y-9367936D02*
X5341229Y-9377460D01*
X5341229Y-9377460D02*
X5322182Y-9386984D01*
X5322182Y-9386984D02*
X5303134Y-9386984D01*
X5303134Y-9386984D02*
X5284087Y-9377460D01*
X5284087Y-9377460D02*
X5274563Y-9367936D01*
X5274563Y-9367936D02*
X5265039Y-9348889D01*
X5265039Y-9348889D02*
X5255515Y-9310793D01*
X5255515Y-9310793D02*
X5255515Y-9263174D01*
X5255515Y-9263174D02*
X5265039Y-9225079D01*
X5265039Y-9225079D02*
X5274563Y-9206031D01*
X5274563Y-9206031D02*
X5284087Y-9196508D01*
X5284087Y-9196508D02*
X5303134Y-9186984D01*
X5455515Y-9367936D02*
X5465039Y-9377460D01*
X5465039Y-9377460D02*
X5455515Y-9386984D01*
X5455515Y-9386984D02*
X5445991Y-9377460D01*
X5445991Y-9377460D02*
X5455515Y-9367936D01*
X5455515Y-9367936D02*
X5455515Y-9386984D01*
X5588848Y-9186984D02*
X5607896Y-9186984D01*
X5607896Y-9186984D02*
X5626944Y-9196508D01*
X5626944Y-9196508D02*
X5636467Y-9206031D01*
X5636467Y-9206031D02*
X5645991Y-9225079D01*
X5645991Y-9225079D02*
X5655515Y-9263174D01*
X5655515Y-9263174D02*
X5655515Y-9310793D01*
X5655515Y-9310793D02*
X5645991Y-9348889D01*
X5645991Y-9348889D02*
X5636467Y-9367936D01*
X5636467Y-9367936D02*
X5626944Y-9377460D01*
X5626944Y-9377460D02*
X5607896Y-9386984D01*
X5607896Y-9386984D02*
X5588848Y-9386984D01*
X5588848Y-9386984D02*
X5569801Y-9377460D01*
X5569801Y-9377460D02*
X5560277Y-9367936D01*
X5560277Y-9367936D02*
X5550753Y-9348889D01*
X5550753Y-9348889D02*
X5541229Y-9310793D01*
X5541229Y-9310793D02*
X5541229Y-9263174D01*
X5541229Y-9263174D02*
X5550753Y-9225079D01*
X5550753Y-9225079D02*
X5560277Y-9206031D01*
X5560277Y-9206031D02*
X5569801Y-9196508D01*
X5569801Y-9196508D02*
X5588848Y-9186984D01*
X5731706Y-9206031D02*
X5741229Y-9196508D01*
X5741229Y-9196508D02*
X5760277Y-9186984D01*
X5760277Y-9186984D02*
X5807896Y-9186984D01*
X5807896Y-9186984D02*
X5826944Y-9196508D01*
X5826944Y-9196508D02*
X5836467Y-9206031D01*
X5836467Y-9206031D02*
X5845991Y-9225079D01*
X5845991Y-9225079D02*
X5845991Y-9244127D01*
X5845991Y-9244127D02*
X5836467Y-9272698D01*
X5836467Y-9272698D02*
X5722182Y-9386984D01*
X5722182Y-9386984D02*
X5845991Y-9386984D01*
X5912658Y-9186984D02*
X6045991Y-9186984D01*
X6045991Y-9186984D02*
X5960277Y-9386984D01*
X6207896Y-9186984D02*
X6169801Y-9186984D01*
X6169801Y-9186984D02*
X6150753Y-9196508D01*
X6150753Y-9196508D02*
X6141229Y-9206031D01*
X6141229Y-9206031D02*
X6122182Y-9234603D01*
X6122182Y-9234603D02*
X6112658Y-9272698D01*
X6112658Y-9272698D02*
X6112658Y-9348889D01*
X6112658Y-9348889D02*
X6122182Y-9367936D01*
X6122182Y-9367936D02*
X6131706Y-9377460D01*
X6131706Y-9377460D02*
X6150753Y-9386984D01*
X6150753Y-9386984D02*
X6188848Y-9386984D01*
X6188848Y-9386984D02*
X6207896Y-9377460D01*
X6207896Y-9377460D02*
X6217420Y-9367936D01*
X6217420Y-9367936D02*
X6226944Y-9348889D01*
X6226944Y-9348889D02*
X6226944Y-9301270D01*
X6226944Y-9301270D02*
X6217420Y-9282222D01*
X6217420Y-9282222D02*
X6207896Y-9272698D01*
X6207896Y-9272698D02*
X6188848Y-9263174D01*
X6188848Y-9263174D02*
X6150753Y-9263174D01*
X6150753Y-9263174D02*
X6131706Y-9272698D01*
X6131706Y-9272698D02*
X6122182Y-9282222D01*
X6122182Y-9282222D02*
X6112658Y-9301270D01*
X6303134Y-9186984D02*
X6303134Y-9225079D01*
X6379325Y-9186984D02*
X6379325Y-9225079D01*
X6674563Y-9463174D02*
X6665039Y-9453650D01*
X6665039Y-9453650D02*
X6645991Y-9425079D01*
X6645991Y-9425079D02*
X6636468Y-9406031D01*
X6636468Y-9406031D02*
X6626944Y-9377460D01*
X6626944Y-9377460D02*
X6617420Y-9329841D01*
X6617420Y-9329841D02*
X6617420Y-9291746D01*
X6617420Y-9291746D02*
X6626944Y-9244127D01*
X6626944Y-9244127D02*
X6636468Y-9215555D01*
X6636468Y-9215555D02*
X6645991Y-9196508D01*
X6645991Y-9196508D02*
X6665039Y-9167936D01*
X6665039Y-9167936D02*
X6674563Y-9158412D01*
X6731706Y-9186984D02*
X6855515Y-9186984D01*
X6855515Y-9186984D02*
X6788848Y-9263174D01*
X6788848Y-9263174D02*
X6817420Y-9263174D01*
X6817420Y-9263174D02*
X6836468Y-9272698D01*
X6836468Y-9272698D02*
X6845991Y-9282222D01*
X6845991Y-9282222D02*
X6855515Y-9301270D01*
X6855515Y-9301270D02*
X6855515Y-9348889D01*
X6855515Y-9348889D02*
X6845991Y-9367936D01*
X6845991Y-9367936D02*
X6836468Y-9377460D01*
X6836468Y-9377460D02*
X6817420Y-9386984D01*
X6817420Y-9386984D02*
X6760277Y-9386984D01*
X6760277Y-9386984D02*
X6741229Y-9377460D01*
X6741229Y-9377460D02*
X6731706Y-9367936D01*
X7093610Y-9386984D02*
X7093610Y-9186984D01*
X7179325Y-9386984D02*
X7179325Y-9282222D01*
X7179325Y-9282222D02*
X7169801Y-9263174D01*
X7169801Y-9263174D02*
X7150753Y-9253650D01*
X7150753Y-9253650D02*
X7122182Y-9253650D01*
X7122182Y-9253650D02*
X7103134Y-9263174D01*
X7103134Y-9263174D02*
X7093610Y-9272698D01*
X7303134Y-9386984D02*
X7284087Y-9377460D01*
X7284087Y-9377460D02*
X7274563Y-9367936D01*
X7274563Y-9367936D02*
X7265039Y-9348889D01*
X7265039Y-9348889D02*
X7265039Y-9291746D01*
X7265039Y-9291746D02*
X7274563Y-9272698D01*
X7274563Y-9272698D02*
X7284087Y-9263174D01*
X7284087Y-9263174D02*
X7303134Y-9253650D01*
X7303134Y-9253650D02*
X7331706Y-9253650D01*
X7331706Y-9253650D02*
X7350753Y-9263174D01*
X7350753Y-9263174D02*
X7360277Y-9272698D01*
X7360277Y-9272698D02*
X7369801Y-9291746D01*
X7369801Y-9291746D02*
X7369801Y-9348889D01*
X7369801Y-9348889D02*
X7360277Y-9367936D01*
X7360277Y-9367936D02*
X7350753Y-9377460D01*
X7350753Y-9377460D02*
X7331706Y-9386984D01*
X7331706Y-9386984D02*
X7303134Y-9386984D01*
X7484087Y-9386984D02*
X7465039Y-9377460D01*
X7465039Y-9377460D02*
X7455515Y-9358412D01*
X7455515Y-9358412D02*
X7455515Y-9186984D01*
X7636468Y-9377460D02*
X7617420Y-9386984D01*
X7617420Y-9386984D02*
X7579325Y-9386984D01*
X7579325Y-9386984D02*
X7560277Y-9377460D01*
X7560277Y-9377460D02*
X7550753Y-9358412D01*
X7550753Y-9358412D02*
X7550753Y-9282222D01*
X7550753Y-9282222D02*
X7560277Y-9263174D01*
X7560277Y-9263174D02*
X7579325Y-9253650D01*
X7579325Y-9253650D02*
X7617420Y-9253650D01*
X7617420Y-9253650D02*
X7636468Y-9263174D01*
X7636468Y-9263174D02*
X7645991Y-9282222D01*
X7645991Y-9282222D02*
X7645991Y-9301270D01*
X7645991Y-9301270D02*
X7550753Y-9320317D01*
X7722182Y-9377460D02*
X7741230Y-9386984D01*
X7741230Y-9386984D02*
X7779325Y-9386984D01*
X7779325Y-9386984D02*
X7798372Y-9377460D01*
X7798372Y-9377460D02*
X7807896Y-9358412D01*
X7807896Y-9358412D02*
X7807896Y-9348889D01*
X7807896Y-9348889D02*
X7798372Y-9329841D01*
X7798372Y-9329841D02*
X7779325Y-9320317D01*
X7779325Y-9320317D02*
X7750753Y-9320317D01*
X7750753Y-9320317D02*
X7731706Y-9310793D01*
X7731706Y-9310793D02*
X7722182Y-9291746D01*
X7722182Y-9291746D02*
X7722182Y-9282222D01*
X7722182Y-9282222D02*
X7731706Y-9263174D01*
X7731706Y-9263174D02*
X7750753Y-9253650D01*
X7750753Y-9253650D02*
X7779325Y-9253650D01*
X7779325Y-9253650D02*
X7798372Y-9263174D01*
X7874563Y-9463174D02*
X7884087Y-9453650D01*
X7884087Y-9453650D02*
X7903134Y-9425079D01*
X7903134Y-9425079D02*
X7912658Y-9406031D01*
X7912658Y-9406031D02*
X7922182Y-9377460D01*
X7922182Y-9377460D02*
X7931706Y-9329841D01*
X7931706Y-9329841D02*
X7931706Y-9291746D01*
X7931706Y-9291746D02*
X7922182Y-9244127D01*
X7922182Y-9244127D02*
X7912658Y-9215555D01*
X7912658Y-9215555D02*
X7903134Y-9196508D01*
X7903134Y-9196508D02*
X7884087Y-9167936D01*
X7884087Y-9167936D02*
X7874563Y-9158412D01*
D12*
X3084856Y-9594856D02*
X3084856Y-9524144D01*
X3014144Y-9524144D01*
X3014144Y-9594856D01*
X3084856Y-9594856D01*
D11*
X3465039Y-9650984D02*
X3350753Y-9650984D01*
X3407896Y-9650984D02*
X3407896Y-9450984D01*
X3407896Y-9450984D02*
X3388848Y-9479555D01*
X3388848Y-9479555D02*
X3369801Y-9498603D01*
X3369801Y-9498603D02*
X3350753Y-9508127D01*
X3550753Y-9631936D02*
X3560277Y-9641460D01*
X3560277Y-9641460D02*
X3550753Y-9650984D01*
X3550753Y-9650984D02*
X3541229Y-9641460D01*
X3541229Y-9641460D02*
X3550753Y-9631936D01*
X3550753Y-9631936D02*
X3550753Y-9650984D01*
X3684086Y-9450984D02*
X3703134Y-9450984D01*
X3703134Y-9450984D02*
X3722182Y-9460508D01*
X3722182Y-9460508D02*
X3731705Y-9470031D01*
X3731705Y-9470031D02*
X3741229Y-9489079D01*
X3741229Y-9489079D02*
X3750753Y-9527174D01*
X3750753Y-9527174D02*
X3750753Y-9574793D01*
X3750753Y-9574793D02*
X3741229Y-9612889D01*
X3741229Y-9612889D02*
X3731705Y-9631936D01*
X3731705Y-9631936D02*
X3722182Y-9641460D01*
X3722182Y-9641460D02*
X3703134Y-9650984D01*
X3703134Y-9650984D02*
X3684086Y-9650984D01*
X3684086Y-9650984D02*
X3665039Y-9641460D01*
X3665039Y-9641460D02*
X3655515Y-9631936D01*
X3655515Y-9631936D02*
X3645991Y-9612889D01*
X3645991Y-9612889D02*
X3636467Y-9574793D01*
X3636467Y-9574793D02*
X3636467Y-9527174D01*
X3636467Y-9527174D02*
X3645991Y-9489079D01*
X3645991Y-9489079D02*
X3655515Y-9470031D01*
X3655515Y-9470031D02*
X3665039Y-9460508D01*
X3665039Y-9460508D02*
X3684086Y-9450984D01*
X3874562Y-9450984D02*
X3893610Y-9450984D01*
X3893610Y-9450984D02*
X3912658Y-9460508D01*
X3912658Y-9460508D02*
X3922182Y-9470031D01*
X3922182Y-9470031D02*
X3931705Y-9489079D01*
X3931705Y-9489079D02*
X3941229Y-9527174D01*
X3941229Y-9527174D02*
X3941229Y-9574793D01*
X3941229Y-9574793D02*
X3931705Y-9612889D01*
X3931705Y-9612889D02*
X3922182Y-9631936D01*
X3922182Y-9631936D02*
X3912658Y-9641460D01*
X3912658Y-9641460D02*
X3893610Y-9650984D01*
X3893610Y-9650984D02*
X3874562Y-9650984D01*
X3874562Y-9650984D02*
X3855515Y-9641460D01*
X3855515Y-9641460D02*
X3845991Y-9631936D01*
X3845991Y-9631936D02*
X3836467Y-9612889D01*
X3836467Y-9612889D02*
X3826943Y-9574793D01*
X3826943Y-9574793D02*
X3826943Y-9527174D01*
X3826943Y-9527174D02*
X3836467Y-9489079D01*
X3836467Y-9489079D02*
X3845991Y-9470031D01*
X3845991Y-9470031D02*
X3855515Y-9460508D01*
X3855515Y-9460508D02*
X3874562Y-9450984D01*
X4065039Y-9450984D02*
X4084086Y-9450984D01*
X4084086Y-9450984D02*
X4103134Y-9460508D01*
X4103134Y-9460508D02*
X4112658Y-9470031D01*
X4112658Y-9470031D02*
X4122182Y-9489079D01*
X4122182Y-9489079D02*
X4131705Y-9527174D01*
X4131705Y-9527174D02*
X4131705Y-9574793D01*
X4131705Y-9574793D02*
X4122182Y-9612889D01*
X4122182Y-9612889D02*
X4112658Y-9631936D01*
X4112658Y-9631936D02*
X4103134Y-9641460D01*
X4103134Y-9641460D02*
X4084086Y-9650984D01*
X4084086Y-9650984D02*
X4065039Y-9650984D01*
X4065039Y-9650984D02*
X4045991Y-9641460D01*
X4045991Y-9641460D02*
X4036467Y-9631936D01*
X4036467Y-9631936D02*
X4026943Y-9612889D01*
X4026943Y-9612889D02*
X4017420Y-9574793D01*
X4017420Y-9574793D02*
X4017420Y-9527174D01*
X4017420Y-9527174D02*
X4026943Y-9489079D01*
X4026943Y-9489079D02*
X4036467Y-9470031D01*
X4036467Y-9470031D02*
X4045991Y-9460508D01*
X4045991Y-9460508D02*
X4065039Y-9450984D01*
X4217420Y-9650984D02*
X4217420Y-9517650D01*
X4217420Y-9536698D02*
X4226944Y-9527174D01*
X4226944Y-9527174D02*
X4245991Y-9517650D01*
X4245991Y-9517650D02*
X4274563Y-9517650D01*
X4274563Y-9517650D02*
X4293610Y-9527174D01*
X4293610Y-9527174D02*
X4303134Y-9546222D01*
X4303134Y-9546222D02*
X4303134Y-9650984D01*
X4303134Y-9546222D02*
X4312658Y-9527174D01*
X4312658Y-9527174D02*
X4331705Y-9517650D01*
X4331705Y-9517650D02*
X4360277Y-9517650D01*
X4360277Y-9517650D02*
X4379325Y-9527174D01*
X4379325Y-9527174D02*
X4388848Y-9546222D01*
X4388848Y-9546222D02*
X4388848Y-9650984D01*
X4484086Y-9650984D02*
X4484086Y-9517650D01*
X4484086Y-9536698D02*
X4493610Y-9527174D01*
X4493610Y-9527174D02*
X4512658Y-9517650D01*
X4512658Y-9517650D02*
X4541229Y-9517650D01*
X4541229Y-9517650D02*
X4560277Y-9527174D01*
X4560277Y-9527174D02*
X4569801Y-9546222D01*
X4569801Y-9546222D02*
X4569801Y-9650984D01*
X4569801Y-9546222D02*
X4579325Y-9527174D01*
X4579325Y-9527174D02*
X4598372Y-9517650D01*
X4598372Y-9517650D02*
X4626944Y-9517650D01*
X4626944Y-9517650D02*
X4645991Y-9527174D01*
X4645991Y-9527174D02*
X4655515Y-9546222D01*
X4655515Y-9546222D02*
X4655515Y-9650984D01*
X5045991Y-9441460D02*
X4874563Y-9698603D01*
X5303134Y-9450984D02*
X5322182Y-9450984D01*
X5322182Y-9450984D02*
X5341229Y-9460508D01*
X5341229Y-9460508D02*
X5350753Y-9470031D01*
X5350753Y-9470031D02*
X5360277Y-9489079D01*
X5360277Y-9489079D02*
X5369801Y-9527174D01*
X5369801Y-9527174D02*
X5369801Y-9574793D01*
X5369801Y-9574793D02*
X5360277Y-9612889D01*
X5360277Y-9612889D02*
X5350753Y-9631936D01*
X5350753Y-9631936D02*
X5341229Y-9641460D01*
X5341229Y-9641460D02*
X5322182Y-9650984D01*
X5322182Y-9650984D02*
X5303134Y-9650984D01*
X5303134Y-9650984D02*
X5284087Y-9641460D01*
X5284087Y-9641460D02*
X5274563Y-9631936D01*
X5274563Y-9631936D02*
X5265039Y-9612889D01*
X5265039Y-9612889D02*
X5255515Y-9574793D01*
X5255515Y-9574793D02*
X5255515Y-9527174D01*
X5255515Y-9527174D02*
X5265039Y-9489079D01*
X5265039Y-9489079D02*
X5274563Y-9470031D01*
X5274563Y-9470031D02*
X5284087Y-9460508D01*
X5284087Y-9460508D02*
X5303134Y-9450984D01*
X5455515Y-9631936D02*
X5465039Y-9641460D01*
X5465039Y-9641460D02*
X5455515Y-9650984D01*
X5455515Y-9650984D02*
X5445991Y-9641460D01*
X5445991Y-9641460D02*
X5455515Y-9631936D01*
X5455515Y-9631936D02*
X5455515Y-9650984D01*
X5588848Y-9450984D02*
X5607896Y-9450984D01*
X5607896Y-9450984D02*
X5626944Y-9460508D01*
X5626944Y-9460508D02*
X5636467Y-9470031D01*
X5636467Y-9470031D02*
X5645991Y-9489079D01*
X5645991Y-9489079D02*
X5655515Y-9527174D01*
X5655515Y-9527174D02*
X5655515Y-9574793D01*
X5655515Y-9574793D02*
X5645991Y-9612889D01*
X5645991Y-9612889D02*
X5636467Y-9631936D01*
X5636467Y-9631936D02*
X5626944Y-9641460D01*
X5626944Y-9641460D02*
X5607896Y-9650984D01*
X5607896Y-9650984D02*
X5588848Y-9650984D01*
X5588848Y-9650984D02*
X5569801Y-9641460D01*
X5569801Y-9641460D02*
X5560277Y-9631936D01*
X5560277Y-9631936D02*
X5550753Y-9612889D01*
X5550753Y-9612889D02*
X5541229Y-9574793D01*
X5541229Y-9574793D02*
X5541229Y-9527174D01*
X5541229Y-9527174D02*
X5550753Y-9489079D01*
X5550753Y-9489079D02*
X5560277Y-9470031D01*
X5560277Y-9470031D02*
X5569801Y-9460508D01*
X5569801Y-9460508D02*
X5588848Y-9450984D01*
X5722182Y-9450984D02*
X5845991Y-9450984D01*
X5845991Y-9450984D02*
X5779325Y-9527174D01*
X5779325Y-9527174D02*
X5807896Y-9527174D01*
X5807896Y-9527174D02*
X5826944Y-9536698D01*
X5826944Y-9536698D02*
X5836467Y-9546222D01*
X5836467Y-9546222D02*
X5845991Y-9565270D01*
X5845991Y-9565270D02*
X5845991Y-9612889D01*
X5845991Y-9612889D02*
X5836467Y-9631936D01*
X5836467Y-9631936D02*
X5826944Y-9641460D01*
X5826944Y-9641460D02*
X5807896Y-9650984D01*
X5807896Y-9650984D02*
X5750753Y-9650984D01*
X5750753Y-9650984D02*
X5731706Y-9641460D01*
X5731706Y-9641460D02*
X5722182Y-9631936D01*
X5941229Y-9650984D02*
X5979325Y-9650984D01*
X5979325Y-9650984D02*
X5998372Y-9641460D01*
X5998372Y-9641460D02*
X6007896Y-9631936D01*
X6007896Y-9631936D02*
X6026944Y-9603365D01*
X6026944Y-9603365D02*
X6036467Y-9565270D01*
X6036467Y-9565270D02*
X6036467Y-9489079D01*
X6036467Y-9489079D02*
X6026944Y-9470031D01*
X6026944Y-9470031D02*
X6017420Y-9460508D01*
X6017420Y-9460508D02*
X5998372Y-9450984D01*
X5998372Y-9450984D02*
X5960277Y-9450984D01*
X5960277Y-9450984D02*
X5941229Y-9460508D01*
X5941229Y-9460508D02*
X5931706Y-9470031D01*
X5931706Y-9470031D02*
X5922182Y-9489079D01*
X5922182Y-9489079D02*
X5922182Y-9536698D01*
X5922182Y-9536698D02*
X5931706Y-9555746D01*
X5931706Y-9555746D02*
X5941229Y-9565270D01*
X5941229Y-9565270D02*
X5960277Y-9574793D01*
X5960277Y-9574793D02*
X5998372Y-9574793D01*
X5998372Y-9574793D02*
X6017420Y-9565270D01*
X6017420Y-9565270D02*
X6026944Y-9555746D01*
X6026944Y-9555746D02*
X6036467Y-9536698D01*
X6207896Y-9517650D02*
X6207896Y-9650984D01*
X6160277Y-9441460D02*
X6112658Y-9584317D01*
X6112658Y-9584317D02*
X6236467Y-9584317D01*
X6303134Y-9450984D02*
X6303134Y-9489079D01*
X6379325Y-9450984D02*
X6379325Y-9489079D01*
X6674563Y-9727174D02*
X6665039Y-9717650D01*
X6665039Y-9717650D02*
X6645991Y-9689079D01*
X6645991Y-9689079D02*
X6636468Y-9670031D01*
X6636468Y-9670031D02*
X6626944Y-9641460D01*
X6626944Y-9641460D02*
X6617420Y-9593841D01*
X6617420Y-9593841D02*
X6617420Y-9555746D01*
X6617420Y-9555746D02*
X6626944Y-9508127D01*
X6626944Y-9508127D02*
X6636468Y-9479555D01*
X6636468Y-9479555D02*
X6645991Y-9460508D01*
X6645991Y-9460508D02*
X6665039Y-9431936D01*
X6665039Y-9431936D02*
X6674563Y-9422412D01*
X6741229Y-9470031D02*
X6750753Y-9460508D01*
X6750753Y-9460508D02*
X6769801Y-9450984D01*
X6769801Y-9450984D02*
X6817420Y-9450984D01*
X6817420Y-9450984D02*
X6836468Y-9460508D01*
X6836468Y-9460508D02*
X6845991Y-9470031D01*
X6845991Y-9470031D02*
X6855515Y-9489079D01*
X6855515Y-9489079D02*
X6855515Y-9508127D01*
X6855515Y-9508127D02*
X6845991Y-9536698D01*
X6845991Y-9536698D02*
X6731706Y-9650984D01*
X6731706Y-9650984D02*
X6855515Y-9650984D01*
X6979325Y-9450984D02*
X6998372Y-9450984D01*
X6998372Y-9450984D02*
X7017420Y-9460508D01*
X7017420Y-9460508D02*
X7026944Y-9470031D01*
X7026944Y-9470031D02*
X7036468Y-9489079D01*
X7036468Y-9489079D02*
X7045991Y-9527174D01*
X7045991Y-9527174D02*
X7045991Y-9574793D01*
X7045991Y-9574793D02*
X7036468Y-9612889D01*
X7036468Y-9612889D02*
X7026944Y-9631936D01*
X7026944Y-9631936D02*
X7017420Y-9641460D01*
X7017420Y-9641460D02*
X6998372Y-9650984D01*
X6998372Y-9650984D02*
X6979325Y-9650984D01*
X6979325Y-9650984D02*
X6960277Y-9641460D01*
X6960277Y-9641460D02*
X6950753Y-9631936D01*
X6950753Y-9631936D02*
X6941229Y-9612889D01*
X6941229Y-9612889D02*
X6931706Y-9574793D01*
X6931706Y-9574793D02*
X6931706Y-9527174D01*
X6931706Y-9527174D02*
X6941229Y-9489079D01*
X6941229Y-9489079D02*
X6950753Y-9470031D01*
X6950753Y-9470031D02*
X6960277Y-9460508D01*
X6960277Y-9460508D02*
X6979325Y-9450984D01*
X7284087Y-9650984D02*
X7284087Y-9450984D01*
X7369801Y-9650984D02*
X7369801Y-9546222D01*
X7369801Y-9546222D02*
X7360277Y-9527174D01*
X7360277Y-9527174D02*
X7341230Y-9517650D01*
X7341230Y-9517650D02*
X7312658Y-9517650D01*
X7312658Y-9517650D02*
X7293610Y-9527174D01*
X7293610Y-9527174D02*
X7284087Y-9536698D01*
X7493610Y-9650984D02*
X7474563Y-9641460D01*
X7474563Y-9641460D02*
X7465039Y-9631936D01*
X7465039Y-9631936D02*
X7455515Y-9612889D01*
X7455515Y-9612889D02*
X7455515Y-9555746D01*
X7455515Y-9555746D02*
X7465039Y-9536698D01*
X7465039Y-9536698D02*
X7474563Y-9527174D01*
X7474563Y-9527174D02*
X7493610Y-9517650D01*
X7493610Y-9517650D02*
X7522182Y-9517650D01*
X7522182Y-9517650D02*
X7541230Y-9527174D01*
X7541230Y-9527174D02*
X7550753Y-9536698D01*
X7550753Y-9536698D02*
X7560277Y-9555746D01*
X7560277Y-9555746D02*
X7560277Y-9612889D01*
X7560277Y-9612889D02*
X7550753Y-9631936D01*
X7550753Y-9631936D02*
X7541230Y-9641460D01*
X7541230Y-9641460D02*
X7522182Y-9650984D01*
X7522182Y-9650984D02*
X7493610Y-9650984D01*
X7674563Y-9650984D02*
X7655515Y-9641460D01*
X7655515Y-9641460D02*
X7645991Y-9622412D01*
X7645991Y-9622412D02*
X7645991Y-9450984D01*
X7826944Y-9641460D02*
X7807896Y-9650984D01*
X7807896Y-9650984D02*
X7769801Y-9650984D01*
X7769801Y-9650984D02*
X7750753Y-9641460D01*
X7750753Y-9641460D02*
X7741230Y-9622412D01*
X7741230Y-9622412D02*
X7741230Y-9546222D01*
X7741230Y-9546222D02*
X7750753Y-9527174D01*
X7750753Y-9527174D02*
X7769801Y-9517650D01*
X7769801Y-9517650D02*
X7807896Y-9517650D01*
X7807896Y-9517650D02*
X7826944Y-9527174D01*
X7826944Y-9527174D02*
X7836468Y-9546222D01*
X7836468Y-9546222D02*
X7836468Y-9565270D01*
X7836468Y-9565270D02*
X7741230Y-9584317D01*
X7912658Y-9641460D02*
X7931706Y-9650984D01*
X7931706Y-9650984D02*
X7969801Y-9650984D01*
X7969801Y-9650984D02*
X7988849Y-9641460D01*
X7988849Y-9641460D02*
X7998372Y-9622412D01*
X7998372Y-9622412D02*
X7998372Y-9612889D01*
X7998372Y-9612889D02*
X7988849Y-9593841D01*
X7988849Y-9593841D02*
X7969801Y-9584317D01*
X7969801Y-9584317D02*
X7941230Y-9584317D01*
X7941230Y-9584317D02*
X7922182Y-9574793D01*
X7922182Y-9574793D02*
X7912658Y-9555746D01*
X7912658Y-9555746D02*
X7912658Y-9546222D01*
X7912658Y-9546222D02*
X7922182Y-9527174D01*
X7922182Y-9527174D02*
X7941230Y-9517650D01*
X7941230Y-9517650D02*
X7969801Y-9517650D01*
X7969801Y-9517650D02*
X7988849Y-9527174D01*
X8065039Y-9727174D02*
X8074563Y-9717650D01*
X8074563Y-9717650D02*
X8093611Y-9689079D01*
X8093611Y-9689079D02*
X8103134Y-9670031D01*
X8103134Y-9670031D02*
X8112658Y-9641460D01*
X8112658Y-9641460D02*
X8122182Y-9593841D01*
X8122182Y-9593841D02*
X8122182Y-9555746D01*
X8122182Y-9555746D02*
X8112658Y-9508127D01*
X8112658Y-9508127D02*
X8103134Y-9479555D01*
X8103134Y-9479555D02*
X8093611Y-9460508D01*
X8093611Y-9460508D02*
X8074563Y-9431936D01*
X8074563Y-9431936D02*
X8065039Y-9422412D01*
M02*
