%TF.GenerationSoftware,KiCad,Pcbnew,8.0.6*%
%TF.CreationDate,2024-12-17T20:27:32+00:00*%
%TF.ProjectId,003-UART-1602,3030332d-5541-4525-942d-313630322e6b,MkI*%
%TF.SameCoordinates,Original*%
%TF.FileFunction,Legend,Top*%
%TF.FilePolarity,Positive*%
%FSLAX46Y46*%
G04 Gerber Fmt 4.6, Leading zero omitted, Abs format (unit mm)*
G04 Created by KiCad (PCBNEW 8.0.6) date 2024-12-17 20:27:32*
%MOMM*%
%LPD*%
G01*
G04 APERTURE LIST*
%ADD10C,0.150000*%
%ADD11C,0.120000*%
G04 APERTURE END LIST*
D10*
G36*
X39237549Y-69401453D02*
G01*
X39289581Y-69407330D01*
X39336845Y-69420687D01*
X39343212Y-69423185D01*
X39388102Y-69445446D01*
X39427948Y-69473932D01*
X39430380Y-69476050D01*
X39466436Y-69513122D01*
X39495359Y-69553311D01*
X39498892Y-69559045D01*
X39522895Y-69603631D01*
X39542498Y-69651008D01*
X39545764Y-69660847D01*
X39559774Y-69711200D01*
X39569364Y-69759940D01*
X39570984Y-69770550D01*
X39576554Y-69819664D01*
X39578890Y-69871559D01*
X39578890Y-69959487D01*
X39578634Y-69973420D01*
X39575636Y-70022367D01*
X39569364Y-70071594D01*
X39567593Y-70082093D01*
X39557281Y-70130178D01*
X39542498Y-70180038D01*
X39540138Y-70186546D01*
X39519949Y-70233711D01*
X39495359Y-70277979D01*
X39493577Y-70280822D01*
X39464157Y-70320661D01*
X39427215Y-70357358D01*
X39599651Y-70500973D01*
X39512456Y-70584016D01*
X39314619Y-70416465D01*
X39270167Y-70425502D01*
X39222540Y-70428677D01*
X39210657Y-70428505D01*
X39158271Y-70423163D01*
X39107745Y-70409138D01*
X39104582Y-70407903D01*
X39059874Y-70386057D01*
X39017864Y-70355893D01*
X39012901Y-70351633D01*
X38978476Y-70316703D01*
X38948988Y-70276514D01*
X38945425Y-70270779D01*
X38921261Y-70226125D01*
X38901605Y-70178572D01*
X38898208Y-70168784D01*
X38883736Y-70118809D01*
X38874005Y-70070617D01*
X38872427Y-70060095D01*
X38866938Y-70011275D01*
X38864480Y-69959487D01*
X38864480Y-69871559D01*
X38864505Y-69870338D01*
X38990997Y-69870338D01*
X38990997Y-69959487D01*
X38991616Y-69987880D01*
X38995394Y-70037644D01*
X38999550Y-70068098D01*
X39010293Y-70118244D01*
X39018914Y-70147554D01*
X39037404Y-70193960D01*
X39050000Y-70217494D01*
X39079658Y-70256974D01*
X39098275Y-70274593D01*
X39140230Y-70300694D01*
X39173415Y-70311713D01*
X39222540Y-70316814D01*
X39256360Y-70314547D01*
X39305094Y-70300694D01*
X39328287Y-70288255D01*
X39366154Y-70256974D01*
X39382550Y-70237465D01*
X39407920Y-70194448D01*
X39419483Y-70167120D01*
X39434787Y-70118977D01*
X39441106Y-70088981D01*
X39447976Y-70038377D01*
X39450287Y-70010542D01*
X39452616Y-69959487D01*
X39452616Y-69870338D01*
X39451620Y-69841533D01*
X39447976Y-69791692D01*
X39444404Y-69761089D01*
X39434787Y-69710847D01*
X39426166Y-69682019D01*
X39407676Y-69636109D01*
X39395079Y-69612435D01*
X39365422Y-69572850D01*
X39346775Y-69555707D01*
X39304605Y-69530352D01*
X39271326Y-69519499D01*
X39221807Y-69514476D01*
X39188433Y-69516743D01*
X39139986Y-69530596D01*
X39119087Y-69541721D01*
X39079658Y-69573583D01*
X39063204Y-69593400D01*
X39037404Y-69636842D01*
X39025691Y-69664067D01*
X39010293Y-69711580D01*
X39002767Y-69744129D01*
X38995394Y-69792424D01*
X38992891Y-69820034D01*
X38990997Y-69870338D01*
X38864505Y-69870338D01*
X38864688Y-69861244D01*
X38867854Y-69809349D01*
X38874005Y-69760429D01*
X38875783Y-69749886D01*
X38886295Y-69701654D01*
X38901605Y-69651741D01*
X38903962Y-69645262D01*
X38924015Y-69598258D01*
X38948255Y-69554043D01*
X38951841Y-69548350D01*
X38981598Y-69508565D01*
X39016399Y-69473932D01*
X39018853Y-69471839D01*
X39061298Y-69442118D01*
X39106524Y-69420687D01*
X39122863Y-69415058D01*
X39171910Y-69404372D01*
X39221807Y-69401147D01*
X39237549Y-69401453D01*
G37*
G36*
X40171912Y-70415000D02*
G01*
X40171912Y-69414825D01*
X40161653Y-69414825D01*
X39783077Y-69560394D01*
X39783077Y-69676653D01*
X40044905Y-69577002D01*
X40044905Y-70415000D01*
X40171912Y-70415000D01*
G37*
G36*
X45814825Y-78452616D02*
G01*
X45814825Y-78575471D01*
X46492110Y-78577669D01*
X46541312Y-78582829D01*
X46578084Y-78592079D01*
X46623538Y-78611670D01*
X46650868Y-78629937D01*
X46686016Y-78666268D01*
X46702159Y-78692463D01*
X46717862Y-78740478D01*
X46720966Y-78778192D01*
X46715520Y-78826854D01*
X46701671Y-78864410D01*
X46672781Y-78906255D01*
X46650868Y-78926692D01*
X46607553Y-78953768D01*
X46578084Y-78965526D01*
X46527862Y-78976797D01*
X46492110Y-78979448D01*
X45814825Y-78982135D01*
X45814825Y-79103035D01*
X46492110Y-79104501D01*
X46543482Y-79100688D01*
X46592448Y-79090350D01*
X46623757Y-79079832D01*
X46670948Y-79057163D01*
X46712897Y-79028447D01*
X46730491Y-79013154D01*
X46764534Y-78975762D01*
X46792047Y-78932646D01*
X46802543Y-78910816D01*
X46818469Y-78864116D01*
X46827044Y-78813775D01*
X46828677Y-78778192D01*
X46824968Y-78726317D01*
X46813839Y-78677671D01*
X46802299Y-78647034D01*
X46777601Y-78601155D01*
X46746374Y-78560759D01*
X46729759Y-78543963D01*
X46690426Y-78511902D01*
X46645853Y-78485967D01*
X46623513Y-78476064D01*
X46576298Y-78460882D01*
X46526610Y-78452708D01*
X46492110Y-78451151D01*
X45814825Y-78452616D01*
G37*
G36*
X46815000Y-77828087D02*
G01*
X45814825Y-77828087D01*
X45814825Y-77838346D01*
X45960394Y-78216922D01*
X46076653Y-78216922D01*
X45977002Y-77955094D01*
X46815000Y-77955094D01*
X46815000Y-77828087D01*
G37*
G36*
X43476404Y-78420090D02*
G01*
X43527814Y-78424121D01*
X43576967Y-78432344D01*
X43591595Y-78435695D01*
X43640449Y-78450187D01*
X43685655Y-78468981D01*
X43698390Y-78475411D01*
X43740619Y-78501103D01*
X43779200Y-78531751D01*
X43784373Y-78536488D01*
X43820130Y-78574266D01*
X43850519Y-78616015D01*
X43859791Y-78631819D01*
X43882070Y-78679370D01*
X43897903Y-78727878D01*
X43905108Y-78759523D01*
X43912252Y-78809337D01*
X43915000Y-78861967D01*
X43915000Y-79093510D01*
X42914825Y-79093510D01*
X42914825Y-78861967D01*
X43019117Y-78861967D01*
X43019117Y-78964305D01*
X43811196Y-78964305D01*
X43811196Y-78861967D01*
X43807826Y-78812648D01*
X43797519Y-78762072D01*
X43785147Y-78727170D01*
X43760394Y-78681960D01*
X43736658Y-78651393D01*
X43699822Y-78617725D01*
X43664055Y-78594830D01*
X43618977Y-78574982D01*
X43588441Y-78564840D01*
X43540331Y-78554221D01*
X43502611Y-78549406D01*
X43451915Y-78546650D01*
X43377177Y-78546650D01*
X43337059Y-78548553D01*
X43287540Y-78554710D01*
X43256124Y-78561053D01*
X43207428Y-78576203D01*
X43161632Y-78597941D01*
X43120478Y-78626029D01*
X43085368Y-78660833D01*
X43057707Y-78702721D01*
X43045434Y-78727966D01*
X43029863Y-78774773D01*
X43022878Y-78811057D01*
X43019117Y-78861967D01*
X42914825Y-78861967D01*
X42915057Y-78851080D01*
X42918637Y-78801806D01*
X42927037Y-78751814D01*
X42940593Y-78701805D01*
X42958789Y-78655826D01*
X42973932Y-78626181D01*
X43000768Y-78585034D01*
X43032550Y-78547871D01*
X43053210Y-78528159D01*
X43095175Y-78496389D01*
X43138063Y-78472644D01*
X43154177Y-78464934D01*
X43201835Y-78446582D01*
X43249438Y-78433810D01*
X43276229Y-78428540D01*
X43328092Y-78421979D01*
X43378398Y-78419644D01*
X43451915Y-78419644D01*
X43476404Y-78420090D01*
G37*
G36*
X43915000Y-77828087D02*
G01*
X42914825Y-77828087D01*
X42914825Y-77838346D01*
X43060394Y-78216922D01*
X43176653Y-78216922D01*
X43077002Y-77955094D01*
X43915000Y-77955094D01*
X43915000Y-77828087D01*
G37*
G36*
X57084654Y-73515000D02*
G01*
X57195296Y-73515000D01*
X57510614Y-72514825D01*
X57375303Y-72514825D01*
X57154263Y-73260254D01*
X57139120Y-73310324D01*
X57124710Y-73261475D01*
X56904891Y-72514825D01*
X56768848Y-72514825D01*
X57084654Y-73515000D01*
G37*
G36*
X57679630Y-72514825D02*
G01*
X57679630Y-72625467D01*
X57913859Y-72625467D01*
X57913859Y-73405090D01*
X57679630Y-73405090D01*
X57679630Y-73515000D01*
X58284131Y-73515000D01*
X58284131Y-73405090D01*
X58044528Y-73405090D01*
X58044528Y-72625467D01*
X58284131Y-72625467D01*
X58284131Y-72514825D01*
X57679630Y-72514825D01*
G37*
G36*
X59146308Y-73515000D02*
G01*
X59146308Y-72514825D01*
X59017836Y-72514825D01*
X59015882Y-73260743D01*
X58627780Y-72514825D01*
X58498576Y-72514825D01*
X58498576Y-73515000D01*
X58627048Y-73515000D01*
X58629246Y-72767616D01*
X59017348Y-73515000D01*
X59146308Y-73515000D01*
G37*
G36*
X68584016Y-67327738D02*
G01*
X68416465Y-67525575D01*
X68425502Y-67570027D01*
X68428677Y-67617654D01*
X68428505Y-67629537D01*
X68423163Y-67681923D01*
X68409138Y-67732449D01*
X68407903Y-67735612D01*
X68386057Y-67780320D01*
X68355893Y-67822330D01*
X68351633Y-67827293D01*
X68316703Y-67861718D01*
X68276514Y-67891206D01*
X68270779Y-67894769D01*
X68226125Y-67918933D01*
X68178572Y-67938589D01*
X68168784Y-67941986D01*
X68118809Y-67956458D01*
X68070617Y-67966189D01*
X68060095Y-67967767D01*
X68011275Y-67973256D01*
X67959487Y-67975714D01*
X67871559Y-67975714D01*
X67861244Y-67975506D01*
X67809349Y-67972340D01*
X67760429Y-67966189D01*
X67749886Y-67964411D01*
X67701654Y-67953899D01*
X67651741Y-67938589D01*
X67645262Y-67936232D01*
X67598258Y-67916179D01*
X67554043Y-67891939D01*
X67548350Y-67888353D01*
X67508565Y-67858596D01*
X67473932Y-67823795D01*
X67471839Y-67821341D01*
X67442118Y-67778896D01*
X67420687Y-67733670D01*
X67415058Y-67717331D01*
X67404372Y-67668284D01*
X67401147Y-67618387D01*
X67514476Y-67618387D01*
X67516743Y-67651761D01*
X67530596Y-67700208D01*
X67541721Y-67721107D01*
X67573583Y-67760536D01*
X67593400Y-67776990D01*
X67636842Y-67802790D01*
X67664067Y-67814503D01*
X67711580Y-67829901D01*
X67744129Y-67837427D01*
X67792424Y-67844800D01*
X67820034Y-67847303D01*
X67870338Y-67849197D01*
X67959487Y-67849197D01*
X67987880Y-67848578D01*
X68037644Y-67844800D01*
X68068098Y-67840644D01*
X68118244Y-67829901D01*
X68147554Y-67821280D01*
X68193960Y-67802790D01*
X68217494Y-67790194D01*
X68256974Y-67760536D01*
X68274593Y-67741919D01*
X68300694Y-67699964D01*
X68311713Y-67666779D01*
X68316814Y-67617654D01*
X68314547Y-67583834D01*
X68300694Y-67535100D01*
X68288255Y-67511907D01*
X68256974Y-67474040D01*
X68237465Y-67457644D01*
X68194448Y-67432274D01*
X68167120Y-67420711D01*
X68118977Y-67405407D01*
X68088981Y-67399088D01*
X68038377Y-67392218D01*
X68010542Y-67389907D01*
X67959487Y-67387578D01*
X67870338Y-67387578D01*
X67841533Y-67388574D01*
X67791692Y-67392218D01*
X67761089Y-67395790D01*
X67710847Y-67405407D01*
X67682019Y-67414028D01*
X67636109Y-67432518D01*
X67612435Y-67445115D01*
X67572850Y-67474772D01*
X67555707Y-67493419D01*
X67530352Y-67535589D01*
X67519499Y-67568868D01*
X67514476Y-67618387D01*
X67401147Y-67618387D01*
X67401453Y-67602645D01*
X67407330Y-67550613D01*
X67420687Y-67503349D01*
X67423185Y-67496982D01*
X67445446Y-67452092D01*
X67473932Y-67412246D01*
X67476050Y-67409814D01*
X67513122Y-67373758D01*
X67553311Y-67344835D01*
X67559045Y-67341302D01*
X67603631Y-67317299D01*
X67651008Y-67297696D01*
X67660847Y-67294430D01*
X67711200Y-67280420D01*
X67759940Y-67270830D01*
X67770550Y-67269210D01*
X67819664Y-67263640D01*
X67871559Y-67261304D01*
X67959487Y-67261304D01*
X67973420Y-67261560D01*
X68022367Y-67264558D01*
X68071594Y-67270830D01*
X68082093Y-67272601D01*
X68130178Y-67282913D01*
X68180038Y-67297696D01*
X68186546Y-67300056D01*
X68233711Y-67320245D01*
X68277979Y-67344835D01*
X68280822Y-67346617D01*
X68320661Y-67376037D01*
X68357358Y-67412979D01*
X68500973Y-67240543D01*
X68584016Y-67327738D01*
G37*
G36*
X68415000Y-66467026D02*
G01*
X68311196Y-66467026D01*
X68311196Y-66969190D01*
X68020059Y-66700522D01*
X67981308Y-66666065D01*
X67942450Y-66633217D01*
X67937260Y-66628959D01*
X67898066Y-66598673D01*
X67855667Y-66570273D01*
X67852997Y-66568631D01*
X67807567Y-66544538D01*
X67767023Y-66528087D01*
X67717530Y-66515842D01*
X67678607Y-66512944D01*
X67627977Y-66516964D01*
X67577570Y-66530195D01*
X67567965Y-66533949D01*
X67523343Y-66557612D01*
X67484732Y-66589218D01*
X67480038Y-66594033D01*
X67448829Y-66634708D01*
X67426189Y-66679548D01*
X67422152Y-66690020D01*
X67408552Y-66738357D01*
X67402153Y-66787055D01*
X67401147Y-66817271D01*
X67404062Y-66868202D01*
X67413891Y-66919287D01*
X67425816Y-66954535D01*
X67448721Y-67000209D01*
X67479790Y-67042364D01*
X67492494Y-67055652D01*
X67531797Y-67088577D01*
X67576617Y-67113835D01*
X67590436Y-67119643D01*
X67640778Y-67134670D01*
X67690037Y-67141088D01*
X67709626Y-67141625D01*
X67709626Y-67013886D01*
X67659806Y-67010099D01*
X67625118Y-67001918D01*
X67580163Y-66980525D01*
X67560394Y-66965037D01*
X67530001Y-66926123D01*
X67519849Y-66904465D01*
X67507817Y-66855934D01*
X67505439Y-66817271D01*
X67511540Y-66766991D01*
X67519605Y-66743509D01*
X67545016Y-66701383D01*
X67557707Y-66687578D01*
X67598557Y-66659551D01*
X67614371Y-66652895D01*
X67663564Y-66641874D01*
X67683981Y-66640927D01*
X67733871Y-66646318D01*
X67742843Y-66648499D01*
X67789283Y-66666507D01*
X67802927Y-66673900D01*
X67845421Y-66700767D01*
X67873025Y-66721283D01*
X67913569Y-66754439D01*
X67950468Y-66786684D01*
X67959487Y-66794800D01*
X68323653Y-67122330D01*
X68415000Y-67122330D01*
X68415000Y-66467026D01*
G37*
G36*
X51568110Y-70854092D02*
G01*
X51440859Y-70854092D01*
X51431130Y-70903114D01*
X51419610Y-70938356D01*
X51396674Y-70982701D01*
X51379066Y-71005279D01*
X51340783Y-71037531D01*
X51316784Y-71049975D01*
X51268542Y-71063027D01*
X51230077Y-71065607D01*
X51179393Y-71060440D01*
X51149477Y-71050952D01*
X51106616Y-71025271D01*
X51089882Y-71010163D01*
X51059111Y-70971207D01*
X51047872Y-70951057D01*
X51029024Y-70904715D01*
X51021250Y-70878761D01*
X51010621Y-70830981D01*
X51006351Y-70801580D01*
X51002474Y-70750700D01*
X51001955Y-70724888D01*
X51001955Y-70584204D01*
X51003848Y-70534426D01*
X51006351Y-70507512D01*
X51014346Y-70458816D01*
X51021250Y-70430331D01*
X51037554Y-70382431D01*
X51048361Y-70358768D01*
X51075574Y-70316348D01*
X51090615Y-70299661D01*
X51131249Y-70268698D01*
X51149966Y-70259605D01*
X51197517Y-70246802D01*
X51230077Y-70244706D01*
X51279485Y-70249463D01*
X51316784Y-70261559D01*
X51358400Y-70287586D01*
X51379066Y-70307965D01*
X51406810Y-70348723D01*
X51419610Y-70376842D01*
X51434406Y-70425401D01*
X51440859Y-70461106D01*
X51568110Y-70461106D01*
X51559408Y-70409334D01*
X51545761Y-70360997D01*
X51533916Y-70330680D01*
X51510297Y-70285397D01*
X51481116Y-70245596D01*
X51465772Y-70229075D01*
X51425240Y-70195963D01*
X51381994Y-70171746D01*
X51363923Y-70164106D01*
X51313318Y-70149241D01*
X51262027Y-70142246D01*
X51230077Y-70141147D01*
X51181290Y-70144050D01*
X51133259Y-70153667D01*
X51117237Y-70158733D01*
X51069915Y-70179494D01*
X51028089Y-70207093D01*
X50991086Y-70240737D01*
X50959701Y-70280122D01*
X50933628Y-70324207D01*
X50913732Y-70368865D01*
X50912562Y-70371957D01*
X50896848Y-70419337D01*
X50885428Y-70468972D01*
X50884230Y-70475760D01*
X50877407Y-70526862D01*
X50874341Y-70578500D01*
X50874216Y-70585425D01*
X50874216Y-70724888D01*
X50876781Y-70776826D01*
X50883103Y-70828228D01*
X50884230Y-70835041D01*
X50895077Y-70884801D01*
X50910219Y-70932414D01*
X50912562Y-70938600D01*
X50932164Y-70983419D01*
X50957924Y-71027558D01*
X50959701Y-71030191D01*
X50991086Y-71069209D01*
X51028089Y-71102732D01*
X51070037Y-71130392D01*
X51117726Y-71151336D01*
X51167593Y-71163783D01*
X51218590Y-71168525D01*
X51230077Y-71168677D01*
X51282227Y-71165449D01*
X51330599Y-71155763D01*
X51360747Y-71145718D01*
X51405993Y-71123920D01*
X51446080Y-71095834D01*
X51462841Y-71080750D01*
X51497155Y-71041453D01*
X51523493Y-70999271D01*
X51532206Y-70981587D01*
X51551092Y-70932502D01*
X51563303Y-70883902D01*
X51568110Y-70854092D01*
G37*
G36*
X51908828Y-70593729D02*
G01*
X51908828Y-70696800D01*
X51999442Y-70696800D01*
X52050275Y-70700278D01*
X52086393Y-70707791D01*
X52133381Y-70727265D01*
X52154048Y-70741496D01*
X52187189Y-70779953D01*
X52196791Y-70798161D01*
X52210224Y-70845559D01*
X52212422Y-70878761D01*
X52208172Y-70928048D01*
X52198989Y-70960826D01*
X52173874Y-71004878D01*
X52160887Y-71018956D01*
X52120000Y-71046479D01*
X52101047Y-71053883D01*
X52051630Y-71063791D01*
X52022890Y-71065118D01*
X51971904Y-71060252D01*
X51944244Y-71052662D01*
X51898886Y-71029456D01*
X51884160Y-71017491D01*
X51853248Y-70978290D01*
X51845814Y-70962780D01*
X51833913Y-70914998D01*
X51832625Y-70891217D01*
X51705374Y-70891217D01*
X51709526Y-70942420D01*
X51723284Y-70992241D01*
X51730531Y-71008698D01*
X51755863Y-71050753D01*
X51790370Y-71089067D01*
X51798186Y-71095893D01*
X51838364Y-71123822D01*
X51884526Y-71145207D01*
X51898814Y-71150115D01*
X51947335Y-71162133D01*
X51998435Y-71168025D01*
X52022890Y-71168677D01*
X52071994Y-71165929D01*
X52122322Y-71156751D01*
X52148186Y-71149138D01*
X52196058Y-71128534D01*
X52237946Y-71100919D01*
X52248814Y-71091741D01*
X52282447Y-71055984D01*
X52308974Y-71013682D01*
X52315248Y-71000394D01*
X52330904Y-70953718D01*
X52338578Y-70901803D01*
X52339428Y-70876074D01*
X52335391Y-70826317D01*
X52331613Y-70806709D01*
X52315440Y-70760186D01*
X52304502Y-70740031D01*
X52272745Y-70701307D01*
X52251745Y-70683122D01*
X52210023Y-70657560D01*
X52170412Y-70641845D01*
X52214512Y-70618529D01*
X52240022Y-70599103D01*
X52273862Y-70563545D01*
X52287893Y-70543660D01*
X52310241Y-70499330D01*
X52315248Y-70484064D01*
X52323968Y-70434949D01*
X52324285Y-70423981D01*
X52321194Y-70374293D01*
X52310869Y-70325735D01*
X52302304Y-70301859D01*
X52277778Y-70255981D01*
X52245417Y-70217724D01*
X52240510Y-70213199D01*
X52199698Y-70183632D01*
X52155313Y-70163009D01*
X52145011Y-70159466D01*
X52094208Y-70146943D01*
X52042931Y-70141595D01*
X52022157Y-70141147D01*
X51971919Y-70144204D01*
X51921526Y-70154415D01*
X51896128Y-70162885D01*
X51849632Y-70184684D01*
X51809307Y-70212466D01*
X51798919Y-70221503D01*
X51764880Y-70259610D01*
X51738784Y-70303406D01*
X51735904Y-70309675D01*
X51719951Y-70358469D01*
X51713765Y-70410053D01*
X51713678Y-70417142D01*
X51841417Y-70417142D01*
X51847536Y-70366987D01*
X51854362Y-70346556D01*
X51880328Y-70304012D01*
X51891731Y-70292090D01*
X51932169Y-70264292D01*
X51948151Y-70257651D01*
X51997508Y-70246632D01*
X52022157Y-70245439D01*
X52070948Y-70249637D01*
X52096651Y-70256186D01*
X52141230Y-70279304D01*
X52151361Y-70288182D01*
X52179996Y-70329386D01*
X52185555Y-70343381D01*
X52195894Y-70391922D01*
X52197279Y-70421294D01*
X52191045Y-70470462D01*
X52184090Y-70490903D01*
X52158078Y-70533081D01*
X52146477Y-70544881D01*
X52104032Y-70572612D01*
X52084195Y-70580785D01*
X52033915Y-70591909D01*
X51999442Y-70593729D01*
X51908828Y-70593729D01*
G37*
G36*
X45114092Y-78432588D02*
G01*
X45114092Y-78559839D01*
X45163114Y-78569568D01*
X45198356Y-78581088D01*
X45242701Y-78604024D01*
X45265279Y-78621632D01*
X45297531Y-78659915D01*
X45309975Y-78683914D01*
X45323027Y-78732156D01*
X45325607Y-78770621D01*
X45320440Y-78821305D01*
X45310952Y-78851221D01*
X45285271Y-78894082D01*
X45270163Y-78910816D01*
X45231207Y-78941587D01*
X45211057Y-78952826D01*
X45164715Y-78971674D01*
X45138761Y-78979448D01*
X45090981Y-78990077D01*
X45061580Y-78994347D01*
X45010700Y-78998224D01*
X44984888Y-78998743D01*
X44844204Y-78998743D01*
X44794426Y-78996850D01*
X44767512Y-78994347D01*
X44718816Y-78986352D01*
X44690331Y-78979448D01*
X44642431Y-78963144D01*
X44618768Y-78952337D01*
X44576348Y-78925124D01*
X44559661Y-78910083D01*
X44528698Y-78869449D01*
X44519605Y-78850732D01*
X44506802Y-78803181D01*
X44504706Y-78770621D01*
X44509463Y-78721213D01*
X44521559Y-78683914D01*
X44547586Y-78642298D01*
X44567965Y-78621632D01*
X44608723Y-78593888D01*
X44636842Y-78581088D01*
X44685401Y-78566292D01*
X44721106Y-78559839D01*
X44721106Y-78432588D01*
X44669334Y-78441290D01*
X44620997Y-78454937D01*
X44590680Y-78466782D01*
X44545397Y-78490401D01*
X44505596Y-78519582D01*
X44489075Y-78534926D01*
X44455963Y-78575458D01*
X44431746Y-78618704D01*
X44424106Y-78636775D01*
X44409241Y-78687380D01*
X44402246Y-78738671D01*
X44401147Y-78770621D01*
X44404050Y-78819408D01*
X44413667Y-78867439D01*
X44418733Y-78883461D01*
X44439494Y-78930783D01*
X44467093Y-78972609D01*
X44500737Y-79009612D01*
X44540122Y-79040997D01*
X44584207Y-79067070D01*
X44628865Y-79086966D01*
X44631957Y-79088136D01*
X44679337Y-79103850D01*
X44728972Y-79115270D01*
X44735760Y-79116468D01*
X44786862Y-79123291D01*
X44838500Y-79126357D01*
X44845425Y-79126482D01*
X44984888Y-79126482D01*
X45036826Y-79123917D01*
X45088228Y-79117595D01*
X45095041Y-79116468D01*
X45144801Y-79105621D01*
X45192414Y-79090479D01*
X45198600Y-79088136D01*
X45243419Y-79068534D01*
X45287558Y-79042774D01*
X45290191Y-79040997D01*
X45329209Y-79009612D01*
X45362732Y-78972609D01*
X45390392Y-78930661D01*
X45411336Y-78882972D01*
X45423783Y-78833105D01*
X45428525Y-78782108D01*
X45428677Y-78770621D01*
X45425449Y-78718471D01*
X45415763Y-78670099D01*
X45405718Y-78639951D01*
X45383920Y-78594705D01*
X45355834Y-78554618D01*
X45340750Y-78537857D01*
X45301453Y-78503543D01*
X45259271Y-78477205D01*
X45241587Y-78468492D01*
X45192502Y-78449606D01*
X45143902Y-78437395D01*
X45114092Y-78432588D01*
G37*
G36*
X45415000Y-77626831D02*
G01*
X45311196Y-77626831D01*
X45311196Y-78128995D01*
X45020059Y-77860327D01*
X44981308Y-77825870D01*
X44942450Y-77793022D01*
X44937260Y-77788764D01*
X44898066Y-77758478D01*
X44855667Y-77730078D01*
X44852997Y-77728436D01*
X44807567Y-77704343D01*
X44767023Y-77687892D01*
X44717530Y-77675647D01*
X44678607Y-77672749D01*
X44627977Y-77676769D01*
X44577570Y-77690000D01*
X44567965Y-77693754D01*
X44523343Y-77717417D01*
X44484732Y-77749023D01*
X44480038Y-77753838D01*
X44448829Y-77794513D01*
X44426189Y-77839353D01*
X44422152Y-77849825D01*
X44408552Y-77898162D01*
X44402153Y-77946860D01*
X44401147Y-77977076D01*
X44404062Y-78028007D01*
X44413891Y-78079092D01*
X44425816Y-78114340D01*
X44448721Y-78160014D01*
X44479790Y-78202169D01*
X44492494Y-78215457D01*
X44531797Y-78248382D01*
X44576617Y-78273640D01*
X44590436Y-78279448D01*
X44640778Y-78294475D01*
X44690037Y-78300893D01*
X44709626Y-78301430D01*
X44709626Y-78173691D01*
X44659806Y-78169904D01*
X44625118Y-78161723D01*
X44580163Y-78140330D01*
X44560394Y-78124842D01*
X44530001Y-78085928D01*
X44519849Y-78064270D01*
X44507817Y-78015739D01*
X44505439Y-77977076D01*
X44511540Y-77926796D01*
X44519605Y-77903314D01*
X44545016Y-77861188D01*
X44557707Y-77847383D01*
X44598557Y-77819356D01*
X44614371Y-77812700D01*
X44663564Y-77801679D01*
X44683981Y-77800732D01*
X44733871Y-77806123D01*
X44742843Y-77808304D01*
X44789283Y-77826312D01*
X44802927Y-77833705D01*
X44845421Y-77860572D01*
X44873025Y-77881088D01*
X44913569Y-77914244D01*
X44950468Y-77946489D01*
X44959487Y-77954605D01*
X45323653Y-78282135D01*
X45415000Y-78282135D01*
X45415000Y-77626831D01*
G37*
G36*
X39252185Y-67716626D02*
G01*
X39302033Y-67723335D01*
X39349546Y-67734853D01*
X39368487Y-67741037D01*
X39414272Y-67761412D01*
X39457990Y-67790296D01*
X39471932Y-67802363D01*
X39505832Y-67841098D01*
X39530530Y-67883597D01*
X39543281Y-67916604D01*
X39553791Y-67965422D01*
X39556908Y-68015000D01*
X39554197Y-68056153D01*
X39542742Y-68104392D01*
X39529657Y-68136085D01*
X39504152Y-68177909D01*
X39482496Y-68203450D01*
X39445045Y-68236284D01*
X39413649Y-68257060D01*
X39369574Y-68279515D01*
X39581821Y-68706695D01*
X39581088Y-68715000D01*
X39446999Y-68715000D01*
X39250628Y-68306870D01*
X39050837Y-68306870D01*
X39050837Y-68715000D01*
X38924319Y-68715000D01*
X38924319Y-68202578D01*
X39050837Y-68202578D01*
X39221074Y-68202578D01*
X39252295Y-68200345D01*
X39301430Y-68189145D01*
X39326389Y-68179085D01*
X39368108Y-68152508D01*
X39384518Y-68136370D01*
X39412561Y-68093646D01*
X39423314Y-68063693D01*
X39429169Y-68013534D01*
X39426549Y-67976573D01*
X39413293Y-67929515D01*
X39402307Y-67908043D01*
X39369574Y-67868698D01*
X39348854Y-67853599D01*
X39302407Y-67832306D01*
X39267071Y-67823650D01*
X39217655Y-67819117D01*
X39050837Y-67819117D01*
X39050837Y-68202578D01*
X38924319Y-68202578D01*
X38924319Y-67714825D01*
X39217655Y-67714825D01*
X39252185Y-67716626D01*
G37*
G36*
X40373168Y-68715000D02*
G01*
X40373168Y-68611196D01*
X39871004Y-68611196D01*
X40139672Y-68320059D01*
X40174129Y-68281308D01*
X40206977Y-68242450D01*
X40211235Y-68237260D01*
X40241521Y-68198066D01*
X40269921Y-68155667D01*
X40271563Y-68152997D01*
X40295656Y-68107567D01*
X40312107Y-68067023D01*
X40324352Y-68017530D01*
X40327250Y-67978607D01*
X40323230Y-67927977D01*
X40309999Y-67877570D01*
X40306245Y-67867965D01*
X40282582Y-67823343D01*
X40250976Y-67784732D01*
X40246161Y-67780038D01*
X40205486Y-67748829D01*
X40160646Y-67726189D01*
X40150174Y-67722152D01*
X40101837Y-67708552D01*
X40053139Y-67702153D01*
X40022923Y-67701147D01*
X39971992Y-67704062D01*
X39920907Y-67713891D01*
X39885659Y-67725816D01*
X39839985Y-67748721D01*
X39797830Y-67779790D01*
X39784542Y-67792494D01*
X39751617Y-67831797D01*
X39726359Y-67876617D01*
X39720551Y-67890436D01*
X39705524Y-67940778D01*
X39699106Y-67990037D01*
X39698569Y-68009626D01*
X39826308Y-68009626D01*
X39830095Y-67959806D01*
X39838276Y-67925118D01*
X39859669Y-67880163D01*
X39875157Y-67860394D01*
X39914071Y-67830001D01*
X39935729Y-67819849D01*
X39984260Y-67807817D01*
X40022923Y-67805439D01*
X40073203Y-67811540D01*
X40096685Y-67819605D01*
X40138811Y-67845016D01*
X40152616Y-67857707D01*
X40180643Y-67898557D01*
X40187299Y-67914371D01*
X40198320Y-67963564D01*
X40199267Y-67983981D01*
X40193876Y-68033871D01*
X40191695Y-68042843D01*
X40173687Y-68089283D01*
X40166294Y-68102927D01*
X40139427Y-68145421D01*
X40118911Y-68173025D01*
X40085755Y-68213569D01*
X40053510Y-68250468D01*
X40045394Y-68259487D01*
X39717864Y-68623653D01*
X39717864Y-68715000D01*
X40373168Y-68715000D01*
G37*
G36*
X42114092Y-78432588D02*
G01*
X42114092Y-78559839D01*
X42163114Y-78569568D01*
X42198356Y-78581088D01*
X42242701Y-78604024D01*
X42265279Y-78621632D01*
X42297531Y-78659915D01*
X42309975Y-78683914D01*
X42323027Y-78732156D01*
X42325607Y-78770621D01*
X42320440Y-78821305D01*
X42310952Y-78851221D01*
X42285271Y-78894082D01*
X42270163Y-78910816D01*
X42231207Y-78941587D01*
X42211057Y-78952826D01*
X42164715Y-78971674D01*
X42138761Y-78979448D01*
X42090981Y-78990077D01*
X42061580Y-78994347D01*
X42010700Y-78998224D01*
X41984888Y-78998743D01*
X41844204Y-78998743D01*
X41794426Y-78996850D01*
X41767512Y-78994347D01*
X41718816Y-78986352D01*
X41690331Y-78979448D01*
X41642431Y-78963144D01*
X41618768Y-78952337D01*
X41576348Y-78925124D01*
X41559661Y-78910083D01*
X41528698Y-78869449D01*
X41519605Y-78850732D01*
X41506802Y-78803181D01*
X41504706Y-78770621D01*
X41509463Y-78721213D01*
X41521559Y-78683914D01*
X41547586Y-78642298D01*
X41567965Y-78621632D01*
X41608723Y-78593888D01*
X41636842Y-78581088D01*
X41685401Y-78566292D01*
X41721106Y-78559839D01*
X41721106Y-78432588D01*
X41669334Y-78441290D01*
X41620997Y-78454937D01*
X41590680Y-78466782D01*
X41545397Y-78490401D01*
X41505596Y-78519582D01*
X41489075Y-78534926D01*
X41455963Y-78575458D01*
X41431746Y-78618704D01*
X41424106Y-78636775D01*
X41409241Y-78687380D01*
X41402246Y-78738671D01*
X41401147Y-78770621D01*
X41404050Y-78819408D01*
X41413667Y-78867439D01*
X41418733Y-78883461D01*
X41439494Y-78930783D01*
X41467093Y-78972609D01*
X41500737Y-79009612D01*
X41540122Y-79040997D01*
X41584207Y-79067070D01*
X41628865Y-79086966D01*
X41631957Y-79088136D01*
X41679337Y-79103850D01*
X41728972Y-79115270D01*
X41735760Y-79116468D01*
X41786862Y-79123291D01*
X41838500Y-79126357D01*
X41845425Y-79126482D01*
X41984888Y-79126482D01*
X42036826Y-79123917D01*
X42088228Y-79117595D01*
X42095041Y-79116468D01*
X42144801Y-79105621D01*
X42192414Y-79090479D01*
X42198600Y-79088136D01*
X42243419Y-79068534D01*
X42287558Y-79042774D01*
X42290191Y-79040997D01*
X42329209Y-79009612D01*
X42362732Y-78972609D01*
X42390392Y-78930661D01*
X42411336Y-78882972D01*
X42423783Y-78833105D01*
X42428525Y-78782108D01*
X42428677Y-78770621D01*
X42425449Y-78718471D01*
X42415763Y-78670099D01*
X42405718Y-78639951D01*
X42383920Y-78594705D01*
X42355834Y-78554618D01*
X42340750Y-78537857D01*
X42301453Y-78503543D01*
X42259271Y-78477205D01*
X42241587Y-78468492D01*
X42192502Y-78449606D01*
X42143902Y-78437395D01*
X42114092Y-78432588D01*
G37*
G36*
X42415000Y-77828087D02*
G01*
X41414825Y-77828087D01*
X41414825Y-77838346D01*
X41560394Y-78216922D01*
X41676653Y-78216922D01*
X41577002Y-77955094D01*
X42415000Y-77955094D01*
X42415000Y-77828087D01*
G37*
G36*
X57486678Y-75983841D02*
G01*
X57484480Y-75616988D01*
X57160369Y-75616988D01*
X57160369Y-75724211D01*
X57363579Y-75724211D01*
X57362358Y-75948670D01*
X57327365Y-75982820D01*
X57323035Y-75985551D01*
X57277971Y-76006170D01*
X57272965Y-76007777D01*
X57224640Y-76018008D01*
X57217522Y-76018768D01*
X57167975Y-76021030D01*
X57163056Y-76020966D01*
X57112553Y-76014930D01*
X57081967Y-76004846D01*
X57038951Y-75979807D01*
X57019441Y-75963080D01*
X56987009Y-75925419D01*
X56972791Y-75902752D01*
X56951439Y-75858178D01*
X56941284Y-75829968D01*
X56928289Y-75781158D01*
X56922965Y-75751322D01*
X56917642Y-75701996D01*
X56916371Y-75673408D01*
X56916371Y-75555928D01*
X56918474Y-75506044D01*
X56921256Y-75478991D01*
X56929747Y-75429589D01*
X56937131Y-75400589D01*
X56953255Y-75353878D01*
X56965219Y-75327316D01*
X56991551Y-75285582D01*
X57008450Y-75266744D01*
X57048540Y-75235889D01*
X57069511Y-75225223D01*
X57117482Y-75211789D01*
X57150111Y-75209591D01*
X57199708Y-75214305D01*
X57233154Y-75224490D01*
X57275854Y-75248668D01*
X57294947Y-75265279D01*
X57325372Y-75306292D01*
X57336224Y-75328293D01*
X57352730Y-75376665D01*
X57359427Y-75408161D01*
X57485212Y-75408161D01*
X57477713Y-75357476D01*
X57463000Y-75306832D01*
X57452240Y-75281399D01*
X57427589Y-75238019D01*
X57394730Y-75197254D01*
X57381409Y-75184190D01*
X57340042Y-75152861D01*
X57296440Y-75130049D01*
X57278339Y-75122885D01*
X57228659Y-75108811D01*
X57179509Y-75102188D01*
X57149378Y-75101147D01*
X57100036Y-75104211D01*
X57051497Y-75114362D01*
X57035317Y-75119710D01*
X56990105Y-75139957D01*
X56947202Y-75167823D01*
X56944703Y-75169780D01*
X56907090Y-75204890D01*
X56875338Y-75245739D01*
X56850412Y-75288107D01*
X56829671Y-75333695D01*
X56827222Y-75340017D01*
X56811333Y-75388786D01*
X56799845Y-75439379D01*
X56798646Y-75446263D01*
X56791823Y-75498119D01*
X56788757Y-75550190D01*
X56788632Y-75557149D01*
X56788632Y-75673408D01*
X56791143Y-75722422D01*
X56797394Y-75771155D01*
X56799867Y-75785027D01*
X56812250Y-75835649D01*
X56829248Y-75884017D01*
X56831863Y-75890296D01*
X56853526Y-75936313D01*
X56879590Y-75979111D01*
X56883398Y-75984574D01*
X56914732Y-76022527D01*
X56953124Y-76057331D01*
X56955694Y-76059312D01*
X56996523Y-76086478D01*
X57042076Y-76107526D01*
X57048506Y-76109870D01*
X57095897Y-76122366D01*
X57147028Y-76128223D01*
X57162323Y-76128677D01*
X57211166Y-76126814D01*
X57261602Y-76119307D01*
X57279071Y-76115244D01*
X57326349Y-76100210D01*
X57370727Y-76079474D01*
X57382875Y-76072501D01*
X57423907Y-76044429D01*
X57437096Y-76033667D01*
X57473276Y-75998842D01*
X57486678Y-75983841D01*
G37*
G36*
X58306113Y-76115000D02*
G01*
X58306113Y-75114825D01*
X58177641Y-75114825D01*
X58175687Y-75860743D01*
X57787585Y-75114825D01*
X57658381Y-75114825D01*
X57658381Y-76115000D01*
X57786852Y-76115000D01*
X57789050Y-75367616D01*
X58177152Y-76115000D01*
X58306113Y-76115000D01*
G37*
G36*
X58749310Y-75115057D02*
G01*
X58798584Y-75118637D01*
X58848576Y-75127037D01*
X58898585Y-75140593D01*
X58944563Y-75158789D01*
X58974208Y-75173932D01*
X59015356Y-75200768D01*
X59052519Y-75232550D01*
X59072230Y-75253210D01*
X59104001Y-75295175D01*
X59127745Y-75338063D01*
X59135456Y-75354177D01*
X59153808Y-75401835D01*
X59166580Y-75449438D01*
X59171849Y-75476229D01*
X59178411Y-75528092D01*
X59180746Y-75578398D01*
X59180746Y-75651915D01*
X59180300Y-75676404D01*
X59176269Y-75727814D01*
X59168046Y-75776967D01*
X59164695Y-75791595D01*
X59150202Y-75840449D01*
X59131409Y-75885655D01*
X59124979Y-75898390D01*
X59099286Y-75940619D01*
X59068639Y-75979200D01*
X59063902Y-75984373D01*
X59026124Y-76020130D01*
X58984375Y-76050519D01*
X58968571Y-76059791D01*
X58921020Y-76082070D01*
X58872512Y-76097903D01*
X58840867Y-76105108D01*
X58791053Y-76112252D01*
X58738422Y-76115000D01*
X58506880Y-76115000D01*
X58506880Y-76011196D01*
X58636085Y-76011196D01*
X58738422Y-76011196D01*
X58787742Y-76007826D01*
X58838318Y-75997519D01*
X58873220Y-75985147D01*
X58918429Y-75960394D01*
X58948997Y-75936658D01*
X58982665Y-75899822D01*
X59005559Y-75864055D01*
X59025408Y-75818977D01*
X59035550Y-75788441D01*
X59046168Y-75740331D01*
X59050984Y-75702611D01*
X59053740Y-75651915D01*
X59053740Y-75577177D01*
X59051837Y-75537059D01*
X59045680Y-75487540D01*
X59039337Y-75456124D01*
X59024187Y-75407428D01*
X59002449Y-75361632D01*
X58974361Y-75320478D01*
X58939556Y-75285368D01*
X58897669Y-75257707D01*
X58872424Y-75245434D01*
X58825617Y-75229863D01*
X58789333Y-75222878D01*
X58738422Y-75219117D01*
X58636085Y-75219117D01*
X58636085Y-76011196D01*
X58506880Y-76011196D01*
X58506880Y-75114825D01*
X58738422Y-75114825D01*
X58749310Y-75115057D01*
G37*
G36*
X57363091Y-78462208D02*
G01*
X57355307Y-78511440D01*
X57345017Y-78533283D01*
X57312502Y-78572072D01*
X57299099Y-78582376D01*
X57254559Y-78605614D01*
X57234863Y-78611685D01*
X57184698Y-78620060D01*
X57161591Y-78620966D01*
X57111350Y-78616947D01*
X57075373Y-78608265D01*
X57029749Y-78587428D01*
X57005764Y-78570163D01*
X56970747Y-78532732D01*
X56956182Y-78509347D01*
X56938037Y-78462719D01*
X56930781Y-78426549D01*
X56801088Y-78426549D01*
X56806707Y-78476964D01*
X56821773Y-78526839D01*
X56829420Y-78543541D01*
X56856315Y-78586965D01*
X56890408Y-78625339D01*
X56901472Y-78635376D01*
X56942115Y-78666311D01*
X56987842Y-78691338D01*
X57021151Y-78704741D01*
X57068931Y-78718369D01*
X57117231Y-78726340D01*
X57161591Y-78728677D01*
X57213950Y-78725451D01*
X57262570Y-78716679D01*
X57281270Y-78711824D01*
X57327833Y-78695390D01*
X57373381Y-78671561D01*
X57388492Y-78661510D01*
X57426586Y-78629387D01*
X57457949Y-78590718D01*
X57465673Y-78578468D01*
X57486042Y-78531171D01*
X57494743Y-78481391D01*
X57495471Y-78460743D01*
X57490875Y-78409345D01*
X57475648Y-78359764D01*
X57467627Y-78343506D01*
X57440065Y-78301926D01*
X57405677Y-78266516D01*
X57394598Y-78257533D01*
X57352383Y-78226978D01*
X57306522Y-78201567D01*
X57292749Y-78195251D01*
X57244189Y-78175282D01*
X57195537Y-78158118D01*
X57181618Y-78153729D01*
X57133195Y-78138008D01*
X57109811Y-78129794D01*
X57064474Y-78109815D01*
X57039469Y-78095355D01*
X57001136Y-78064431D01*
X56985003Y-78045041D01*
X56966054Y-77999931D01*
X56963265Y-77971769D01*
X56970885Y-77921530D01*
X56979385Y-77901671D01*
X57009885Y-77861737D01*
X57022861Y-77850868D01*
X57065519Y-77826450D01*
X57084410Y-77819849D01*
X57132906Y-77810593D01*
X57155484Y-77809591D01*
X57206074Y-77814585D01*
X57236817Y-77823757D01*
X57279949Y-77846974D01*
X57299099Y-77863080D01*
X57330069Y-77902961D01*
X57340865Y-77924141D01*
X57356702Y-77971253D01*
X57362358Y-78002543D01*
X57492784Y-78002543D01*
X57487941Y-77952924D01*
X57474245Y-77903355D01*
X57463230Y-77878468D01*
X57437346Y-77835923D01*
X57405333Y-77798779D01*
X57388492Y-77783457D01*
X57348133Y-77754608D01*
X57303259Y-77731563D01*
X57281025Y-77722885D01*
X57231203Y-77708811D01*
X57179768Y-77701912D01*
X57155484Y-77701147D01*
X57103906Y-77704654D01*
X57052609Y-77715172D01*
X57038004Y-77719466D01*
X56989311Y-77738506D01*
X56945386Y-77763998D01*
X56933712Y-77772466D01*
X56896686Y-77806233D01*
X56866393Y-77845983D01*
X56858974Y-77858440D01*
X56839606Y-77905510D01*
X56831333Y-77953906D01*
X56830642Y-77973722D01*
X56835317Y-78023530D01*
X56850812Y-78070947D01*
X56858974Y-78086318D01*
X56889467Y-78128178D01*
X56924609Y-78162212D01*
X56932979Y-78168872D01*
X56973959Y-78197089D01*
X57018678Y-78221472D01*
X57032142Y-78227735D01*
X57079639Y-78247584D01*
X57126389Y-78264814D01*
X57139609Y-78269256D01*
X57186454Y-78284846D01*
X57215568Y-78295390D01*
X57262451Y-78316075D01*
X57288108Y-78331050D01*
X57326231Y-78364108D01*
X57342086Y-78384783D01*
X57360609Y-78432343D01*
X57363091Y-78462208D01*
G37*
G36*
X57731898Y-78715000D02*
G01*
X57862568Y-78715000D01*
X57984689Y-78004009D01*
X57992260Y-77961510D01*
X57999099Y-78003276D01*
X58120732Y-78715000D01*
X58250669Y-78715000D01*
X58372058Y-77714825D01*
X58251891Y-77714825D01*
X58179839Y-78403101D01*
X58175687Y-78444378D01*
X58168115Y-78403834D01*
X58046482Y-77714825D01*
X57935840Y-77714825D01*
X57814940Y-78403101D01*
X57807613Y-78444378D01*
X57803461Y-78404567D01*
X57731165Y-77714825D01*
X57610265Y-77714825D01*
X57731898Y-78715000D01*
G37*
G36*
X58519825Y-77714825D02*
G01*
X58519825Y-77825467D01*
X58754054Y-77825467D01*
X58754054Y-78605090D01*
X58519825Y-78605090D01*
X58519825Y-78715000D01*
X59124326Y-78715000D01*
X59124326Y-78605090D01*
X58884724Y-78605090D01*
X58884724Y-77825467D01*
X59124326Y-77825467D01*
X59124326Y-77714825D01*
X58519825Y-77714825D01*
G37*
G36*
X59673144Y-77701313D02*
G01*
X59724007Y-77706455D01*
X59773524Y-77719954D01*
X59776657Y-77721143D01*
X59820846Y-77742302D01*
X59862184Y-77771734D01*
X59898087Y-77807576D01*
X59928618Y-77849159D01*
X59932062Y-77854710D01*
X59955582Y-77897991D01*
X59975024Y-77944169D01*
X59977216Y-77950536D01*
X59991349Y-77999319D01*
X60001402Y-78049926D01*
X60002440Y-78056791D01*
X60008279Y-78107971D01*
X60010683Y-78158614D01*
X60010683Y-78272676D01*
X60010561Y-78279367D01*
X60007699Y-78329853D01*
X60001402Y-78380875D01*
X60000297Y-78387669D01*
X59989700Y-78437712D01*
X59975024Y-78486144D01*
X59972727Y-78492497D01*
X59953063Y-78538382D01*
X59929106Y-78581154D01*
X59898759Y-78622370D01*
X59862916Y-78658091D01*
X59821700Y-78687522D01*
X59774745Y-78709870D01*
X59765297Y-78713231D01*
X59714904Y-78725077D01*
X59663126Y-78728677D01*
X59651645Y-78728512D01*
X59600848Y-78723369D01*
X59551507Y-78709870D01*
X59504490Y-78687522D01*
X59463091Y-78658091D01*
X59427248Y-78622309D01*
X59396413Y-78580910D01*
X59392942Y-78575329D01*
X59369464Y-78531887D01*
X59350495Y-78485655D01*
X59348212Y-78479262D01*
X59333461Y-78430522D01*
X59322896Y-78380387D01*
X59321828Y-78373612D01*
X59315828Y-78322983D01*
X59313370Y-78272676D01*
X59313370Y-78158614D01*
X59313397Y-78157149D01*
X59438422Y-78157149D01*
X59438422Y-78272676D01*
X59439359Y-78297207D01*
X59443551Y-78346926D01*
X59447296Y-78373619D01*
X59458450Y-78423618D01*
X59466224Y-78449745D01*
X59485073Y-78497379D01*
X59496240Y-78518350D01*
X59526350Y-78558440D01*
X59542650Y-78574029D01*
X59584724Y-78600938D01*
X59613924Y-78611217D01*
X59663126Y-78616814D01*
X59692585Y-78614938D01*
X59741772Y-78600938D01*
X59762084Y-78589966D01*
X59800390Y-78558440D01*
X59814716Y-78541271D01*
X59840690Y-78497623D01*
X59851956Y-78471062D01*
X59867069Y-78424351D01*
X59872925Y-78398318D01*
X59880258Y-78347658D01*
X59882390Y-78323439D01*
X59884898Y-78272676D01*
X59884898Y-78157149D01*
X59883991Y-78132258D01*
X59880013Y-78082655D01*
X59876258Y-78053598D01*
X59866336Y-78005474D01*
X59858533Y-77979822D01*
X59839469Y-77932934D01*
X59828431Y-77912021D01*
X59798436Y-77871385D01*
X59782136Y-77856100D01*
X59740062Y-77829863D01*
X59710863Y-77819901D01*
X59661660Y-77814476D01*
X59632647Y-77816352D01*
X59583991Y-77830352D01*
X59563808Y-77841147D01*
X59525617Y-77872117D01*
X59509610Y-77891512D01*
X59484340Y-77933667D01*
X59473898Y-77957857D01*
X59458450Y-78005963D01*
X59451432Y-78034940D01*
X59443551Y-78083387D01*
X59441162Y-78107278D01*
X59438422Y-78157149D01*
X59313397Y-78157149D01*
X59313492Y-78151895D01*
X59316354Y-78101316D01*
X59322651Y-78050415D01*
X59323759Y-78043591D01*
X59334560Y-77993388D01*
X59349762Y-77944902D01*
X59352030Y-77938577D01*
X59371533Y-77892785D01*
X59395436Y-77849891D01*
X59425966Y-77808126D01*
X59461870Y-77771734D01*
X59503086Y-77742302D01*
X59550041Y-77719954D01*
X59559489Y-77716593D01*
X59609882Y-77704747D01*
X59661660Y-77701147D01*
X59673144Y-77701313D01*
G37*
D11*
%TO.C,Q1*%
X38230000Y-70977500D02*
X38230000Y-70327500D01*
X38230000Y-70977500D02*
X38230000Y-71627500D01*
X35110000Y-70977500D02*
X35110000Y-70327500D01*
X35110000Y-70977500D02*
X35110000Y-71627500D01*
X38510000Y-70055000D02*
X38180000Y-69815000D01*
X38510000Y-69575000D01*
X38510000Y-70055000D01*
G36*
X38510000Y-70055000D02*
G01*
X38180000Y-69815000D01*
X38510000Y-69575000D01*
X38510000Y-70055000D01*
G37*
%TO.C,U1*%
X54060699Y-75715520D02*
X54060699Y-73515520D01*
X54060699Y-75715520D02*
X54060699Y-77915520D01*
X47290699Y-75715520D02*
X47290699Y-73515520D01*
X47290699Y-75715520D02*
X47290699Y-77915520D01*
X53600699Y-71855520D02*
X53360699Y-71525520D01*
X53840699Y-71525520D01*
X53600699Y-71855520D01*
G36*
X53600699Y-71855520D02*
G01*
X53360699Y-71525520D01*
X53840699Y-71525520D01*
X53600699Y-71855520D01*
G37*
%TO.C,D1*%
X44280000Y-74740000D02*
X44280000Y-74090000D01*
X44280000Y-74740000D02*
X44280000Y-75390000D01*
X41160000Y-74740000D02*
X41160000Y-74090000D01*
X41160000Y-74740000D02*
X41160000Y-75390000D01*
X44560000Y-73817500D02*
X44230000Y-73577500D01*
X44560000Y-73337500D01*
X44560000Y-73817500D01*
G36*
X44560000Y-73817500D02*
G01*
X44230000Y-73577500D01*
X44560000Y-73337500D01*
X44560000Y-73817500D01*
G37*
%TO.C,TP1*%
X56320000Y-73160000D02*
G75*
G02*
X54920000Y-73160000I-700000J0D01*
G01*
X54920000Y-73160000D02*
G75*
G02*
X56320000Y-73160000I700000J0D01*
G01*
%TO.C,Q2*%
X69678200Y-65337501D02*
X69438200Y-65667500D01*
X69198200Y-65337500D01*
X69678200Y-65337501D01*
G36*
X69678200Y-65337501D02*
G01*
X69438200Y-65667500D01*
X69198200Y-65337500D01*
X69678200Y-65337501D01*
G37*
X70600700Y-68737501D02*
X71250700Y-68737500D01*
X70600700Y-68737501D02*
X69950700Y-68737500D01*
X70600700Y-65617499D02*
X71250700Y-65617500D01*
X70600700Y-65617499D02*
X69950700Y-65617500D01*
%TO.C,DS1*%
X31690000Y-64830000D02*
X31690000Y-63500000D01*
X33020000Y-64830000D02*
X31690000Y-64830000D01*
X34290001Y-62170000D02*
X72449999Y-62170000D01*
X34290001Y-64830000D02*
X34290001Y-62170000D01*
X34290001Y-64830000D02*
X72449999Y-64830000D01*
X72449999Y-64830000D02*
X72449999Y-62170000D01*
%TO.C,C3*%
X49331252Y-70005000D02*
X48808746Y-70005000D01*
X49331252Y-71475000D02*
X48808746Y-71475000D01*
%TO.C,C2*%
X44785000Y-74478747D02*
X44785000Y-75001253D01*
X46255000Y-74478747D02*
X46255000Y-75001253D01*
%TO.C,J2*%
X31690000Y-74870000D02*
X33020000Y-74870000D01*
X31690000Y-76200000D02*
X31690000Y-74870000D01*
X31690000Y-77470000D02*
X31690000Y-80070000D01*
X31690000Y-77470000D02*
X34350000Y-77470000D01*
X31690000Y-80070000D02*
X34350000Y-80070000D01*
X34350000Y-77470000D02*
X34350000Y-80070000D01*
%TO.C,J1*%
X31690000Y-67250000D02*
X33020000Y-67250000D01*
X31690000Y-68580000D02*
X31690000Y-67250000D01*
X31690000Y-69850000D02*
X31690000Y-72450000D01*
X31690000Y-69850000D02*
X34350000Y-69850000D01*
X31690000Y-72450000D02*
X34350000Y-72450000D01*
X34350000Y-69850000D02*
X34350000Y-72450000D01*
%TO.C,R2*%
X36405436Y-67005000D02*
X36859564Y-67005000D01*
X36405436Y-68475000D02*
X36859564Y-68475000D01*
%TO.C,C1*%
X39185000Y-74478747D02*
X39185000Y-75001253D01*
X40655000Y-74478747D02*
X40655000Y-75001253D01*
%TO.C,TP2*%
X56320000Y-75700000D02*
G75*
G02*
X54920000Y-75700000I-700000J0D01*
G01*
X54920000Y-75700000D02*
G75*
G02*
X56320000Y-75700000I700000J0D01*
G01*
%TO.C,TP3*%
X56320000Y-78240001D02*
G75*
G02*
X54920000Y-78240001I-700000J0D01*
G01*
X54920000Y-78240001D02*
G75*
G02*
X56320000Y-78240001I700000J0D01*
G01*
%TD*%
M02*
