M48
; DRILL file {KiCad 8.0.6} date 2024-12-18T19:44:44+0000
; FORMAT={-:-/ absolute / inch / decimal}
; #@! TF.CreationDate,2024-12-18T19:44:44+00:00
; #@! TF.GenerationSoftware,Kicad,Pcbnew,8.0.6
; #@! TF.FileFunction,Plated,1,2,PTH
FMAT,2
INCH
; #@! TA.AperFunction,Plated,PTH,ViaDrill
T1C0.0118
; #@! TA.AperFunction,Plated,PTH,ViaDrill
T2C0.0236
; #@! TA.AperFunction,Plated,PTH,ComponentDrill
T3C0.0276
; #@! TA.AperFunction,Plated,PTH,ComponentDrill
T4C0.0394
%
G90
G05
T1
X1.275Y-2.7
X1.275Y-3.0
X1.325Y-2.65
X1.3577Y-2.8575
X1.375Y-2.95
X1.375Y-3.1
X1.375Y-3.25
X1.425Y-2.65
X1.475Y-2.95
X1.475Y-3.1
X1.475Y-3.25
X1.5152Y-3.0252
X1.5152Y-3.1704
X1.6195Y-3.1157
X1.6412Y-3.0055
X1.675Y-2.75
X1.6943Y-3.1157
X1.825Y-2.65
X1.825Y-2.85
X1.825Y-2.95
X1.825Y-3.05
X1.855Y-3.1547
X1.8806Y-3.1389
X1.9062Y-3.1547
X1.925Y-2.65
X1.925Y-2.75
X1.9317Y-3.1389
X1.9573Y-3.1547
X1.9829Y-3.1389
X2.0085Y-3.1547
X2.025Y-2.65
X2.125Y-2.65
X2.164Y-2.8043
X2.325Y-2.8
X2.325Y-2.95
X2.325Y-3.25
X2.525Y-2.8
X2.525Y-2.95
X2.525Y-3.1
X2.625Y-2.65
X2.6982Y-2.8874
X2.7172Y-2.8038
X2.725Y-2.65
X2.7494Y-2.8874
X2.8126Y-2.7275
T2
X2.1648Y-2.9803
X2.1648Y-3.0803
X2.1648Y-3.1803
T3
X1.5565Y-2.9362
X1.6565Y-2.8362
X1.7565Y-2.9362
T4
X1.275Y-2.6
X1.275Y-2.8
X1.275Y-2.9
X1.275Y-3.1
X1.275Y-3.2
X1.375Y-2.6
X1.475Y-2.6
X1.575Y-2.6
X1.675Y-2.6
X1.775Y-2.6
X1.875Y-2.6
X1.975Y-2.6
X2.075Y-2.6
X2.175Y-2.6
X2.275Y-2.6
X2.375Y-2.6
X2.475Y-2.6
X2.575Y-2.6
X2.675Y-2.6
X2.775Y-2.6
M30
