%TF.GenerationSoftware,KiCad,Pcbnew,8.0.6*%
%TF.CreationDate,2024-12-17T20:27:38+00:00*%
%TF.ProjectId,003-UART-1602,3030332d-5541-4525-942d-313630322e6b,MkI*%
%TF.SameCoordinates,Original*%
%TF.FileFunction,Drillmap*%
%TF.FilePolarity,Positive*%
%FSLAX45Y45*%
G04 Gerber Fmt 4.5, Leading zero omitted, Abs format (unit mm)*
G04 Created by KiCad (PCBNEW 8.0.6) date 2024-12-17 20:27:38*
%MOMM*%
%LPD*%
G01*
G04 APERTURE LIST*
%ADD10C,0.050000*%
%ADD11C,0.200000*%
G04 APERTURE END LIST*
D10*
X7202000Y-6125000D02*
G75*
G02*
X7302000Y-6225000I0J-100000D01*
G01*
X7302000Y-8025000D02*
G75*
G02*
X7202000Y-8125000I-100000J0D01*
G01*
X3102000Y-6225000D02*
G75*
G02*
X3202000Y-6125000I100000J0D01*
G01*
X3202000Y-8125000D02*
G75*
G02*
X3102000Y-8025000I0J100000D01*
G01*
X7202000Y-6125000D02*
X3202000Y-6125000D01*
X7302000Y-8025000D02*
X7302000Y-6225000D01*
X3202000Y-8125000D02*
X7202000Y-8125000D01*
X3102000Y-6225000D02*
X3102000Y-8025000D01*
D11*
X3360277Y-8438984D02*
X3360277Y-8238984D01*
X3360277Y-8238984D02*
X3407896Y-8238984D01*
X3407896Y-8238984D02*
X3436467Y-8248508D01*
X3436467Y-8248508D02*
X3455515Y-8267555D01*
X3455515Y-8267555D02*
X3465039Y-8286603D01*
X3465039Y-8286603D02*
X3474562Y-8324698D01*
X3474562Y-8324698D02*
X3474562Y-8353269D01*
X3474562Y-8353269D02*
X3465039Y-8391365D01*
X3465039Y-8391365D02*
X3455515Y-8410412D01*
X3455515Y-8410412D02*
X3436467Y-8429460D01*
X3436467Y-8429460D02*
X3407896Y-8438984D01*
X3407896Y-8438984D02*
X3360277Y-8438984D01*
X3560277Y-8438984D02*
X3560277Y-8305650D01*
X3560277Y-8343746D02*
X3569801Y-8324698D01*
X3569801Y-8324698D02*
X3579324Y-8315174D01*
X3579324Y-8315174D02*
X3598372Y-8305650D01*
X3598372Y-8305650D02*
X3617420Y-8305650D01*
X3684086Y-8438984D02*
X3684086Y-8305650D01*
X3684086Y-8238984D02*
X3674562Y-8248508D01*
X3674562Y-8248508D02*
X3684086Y-8258031D01*
X3684086Y-8258031D02*
X3693610Y-8248508D01*
X3693610Y-8248508D02*
X3684086Y-8238984D01*
X3684086Y-8238984D02*
X3684086Y-8258031D01*
X3807896Y-8438984D02*
X3788848Y-8429460D01*
X3788848Y-8429460D02*
X3779324Y-8410412D01*
X3779324Y-8410412D02*
X3779324Y-8238984D01*
X3912658Y-8438984D02*
X3893610Y-8429460D01*
X3893610Y-8429460D02*
X3884086Y-8410412D01*
X3884086Y-8410412D02*
X3884086Y-8238984D01*
X4141229Y-8438984D02*
X4141229Y-8238984D01*
X4141229Y-8238984D02*
X4207896Y-8381841D01*
X4207896Y-8381841D02*
X4274563Y-8238984D01*
X4274563Y-8238984D02*
X4274563Y-8438984D01*
X4455515Y-8438984D02*
X4455515Y-8334222D01*
X4455515Y-8334222D02*
X4445991Y-8315174D01*
X4445991Y-8315174D02*
X4426944Y-8305650D01*
X4426944Y-8305650D02*
X4388848Y-8305650D01*
X4388848Y-8305650D02*
X4369801Y-8315174D01*
X4455515Y-8429460D02*
X4436467Y-8438984D01*
X4436467Y-8438984D02*
X4388848Y-8438984D01*
X4388848Y-8438984D02*
X4369801Y-8429460D01*
X4369801Y-8429460D02*
X4360277Y-8410412D01*
X4360277Y-8410412D02*
X4360277Y-8391365D01*
X4360277Y-8391365D02*
X4369801Y-8372317D01*
X4369801Y-8372317D02*
X4388848Y-8362793D01*
X4388848Y-8362793D02*
X4436467Y-8362793D01*
X4436467Y-8362793D02*
X4455515Y-8353269D01*
X4550753Y-8305650D02*
X4550753Y-8505650D01*
X4550753Y-8315174D02*
X4569801Y-8305650D01*
X4569801Y-8305650D02*
X4607896Y-8305650D01*
X4607896Y-8305650D02*
X4626944Y-8315174D01*
X4626944Y-8315174D02*
X4636467Y-8324698D01*
X4636467Y-8324698D02*
X4645991Y-8343746D01*
X4645991Y-8343746D02*
X4645991Y-8400889D01*
X4645991Y-8400889D02*
X4636467Y-8419936D01*
X4636467Y-8419936D02*
X4626944Y-8429460D01*
X4626944Y-8429460D02*
X4607896Y-8438984D01*
X4607896Y-8438984D02*
X4569801Y-8438984D01*
X4569801Y-8438984D02*
X4550753Y-8429460D01*
X4731705Y-8419936D02*
X4741229Y-8429460D01*
X4741229Y-8429460D02*
X4731705Y-8438984D01*
X4731705Y-8438984D02*
X4722182Y-8429460D01*
X4722182Y-8429460D02*
X4731705Y-8419936D01*
X4731705Y-8419936D02*
X4731705Y-8438984D01*
X4731705Y-8315174D02*
X4741229Y-8324698D01*
X4741229Y-8324698D02*
X4731705Y-8334222D01*
X4731705Y-8334222D02*
X4722182Y-8324698D01*
X4722182Y-8324698D02*
X4731705Y-8315174D01*
X4731705Y-8315174D02*
X4731705Y-8334222D01*
M02*
