%TF.GenerationSoftware,KiCad,Pcbnew,8.0.6*%
%TF.CreationDate,2024-12-18T19:44:49+00:00*%
%TF.ProjectId,003-UART-1602,3030332d-5541-4525-942d-313630322e6b,MkI*%
%TF.SameCoordinates,Original*%
%TF.FileFunction,Soldermask,Top*%
%TF.FilePolarity,Negative*%
%FSLAX46Y46*%
G04 Gerber Fmt 4.6, Leading zero omitted, Abs format (unit mm)*
G04 Created by KiCad (PCBNEW 8.0.6) date 2024-12-18 19:44:49*
%MOMM*%
%LPD*%
G01*
G04 APERTURE LIST*
G04 Aperture macros list*
%AMRoundRect*
0 Rectangle with rounded corners*
0 $1 Rounding radius*
0 $2 $3 $4 $5 $6 $7 $8 $9 X,Y pos of 4 corners*
0 Add a 4 corners polygon primitive as box body*
4,1,4,$2,$3,$4,$5,$6,$7,$8,$9,$2,$3,0*
0 Add four circle primitives for the rounded corners*
1,1,$1+$1,$2,$3*
1,1,$1+$1,$4,$5*
1,1,$1+$1,$6,$7*
1,1,$1+$1,$8,$9*
0 Add four rect primitives between the rounded corners*
20,1,$1+$1,$2,$3,$4,$5,0*
20,1,$1+$1,$4,$5,$6,$7,0*
20,1,$1+$1,$6,$7,$8,$9,0*
20,1,$1+$1,$8,$9,$2,$3,0*%
G04 Aperture macros list end*
%ADD10C,1.000000*%
%ADD11RoundRect,0.150000X-0.587500X-0.150000X0.587500X-0.150000X0.587500X0.150000X-0.587500X0.150000X0*%
%ADD12R,1.700000X1.700000*%
%ADD13O,1.700000X1.700000*%
%ADD14RoundRect,0.150000X-0.150000X0.587500X-0.150000X-0.587500X0.150000X-0.587500X0.150000X0.587500X0*%
%ADD15RoundRect,0.250000X0.250000X0.475000X-0.250000X0.475000X-0.250000X-0.475000X0.250000X-0.475000X0*%
%ADD16RoundRect,0.100000X-0.100000X0.637500X-0.100000X-0.637500X0.100000X-0.637500X0.100000X0.637500X0*%
%ADD17RoundRect,0.250000X-0.475000X0.250000X-0.475000X-0.250000X0.475000X-0.250000X0.475000X0.250000X0*%
%ADD18RoundRect,0.250000X-0.262500X-0.450000X0.262500X-0.450000X0.262500X0.450000X-0.262500X0.450000X0*%
%ADD19C,1.260000*%
G04 APERTURE END LIST*
D10*
%TO.C,TP1*%
X54985520Y-75699300D03*
%TD*%
D11*
%TO.C,Q2*%
X69028720Y-68766800D03*
X69028720Y-70666800D03*
X70903721Y-69716800D03*
%TD*%
D12*
%TO.C,DS1*%
X32385520Y-66039300D03*
D13*
X34925520Y-66039300D03*
X37465519Y-66039300D03*
X40005520Y-66039300D03*
X42545520Y-66039300D03*
X45085520Y-66039300D03*
X47625520Y-66039300D03*
X50165521Y-66039300D03*
X52705520Y-66039300D03*
X55245520Y-66039300D03*
X57785520Y-66039300D03*
X60325519Y-66039300D03*
X62865520Y-66039300D03*
X65405520Y-66039300D03*
X67945520Y-66039300D03*
X70485519Y-66039300D03*
%TD*%
D14*
%TO.C,D1*%
X43035520Y-76341800D03*
X41135520Y-76341800D03*
X42085520Y-78216800D03*
%TD*%
D15*
%TO.C,C3*%
X49385518Y-73279300D03*
X47485520Y-73279300D03*
%TD*%
D16*
%TO.C,U1*%
X52966219Y-75392320D03*
X52316219Y-75392320D03*
X51666219Y-75392320D03*
X51016219Y-75392320D03*
X50366219Y-75392320D03*
X49716219Y-75392320D03*
X49066219Y-75392320D03*
X48416219Y-75392320D03*
X47766219Y-75392320D03*
X47116219Y-75392320D03*
X47116219Y-81117320D03*
X47766219Y-81117320D03*
X48416219Y-81117320D03*
X49066219Y-81117320D03*
X49716219Y-81117320D03*
X50366219Y-81117320D03*
X51016219Y-81117320D03*
X51666219Y-81117320D03*
X52316219Y-81117320D03*
X52966219Y-81117320D03*
%TD*%
D17*
%TO.C,C2*%
X44885520Y-76329301D03*
X44885520Y-78229299D03*
%TD*%
D12*
%TO.C,J2*%
X32385520Y-78739300D03*
D13*
X32385520Y-81279300D03*
%TD*%
D12*
%TO.C,J1*%
X32385520Y-71119300D03*
D13*
X32385520Y-73659300D03*
%TD*%
D18*
%TO.C,R2*%
X35085520Y-70279300D03*
X36910520Y-70279300D03*
%TD*%
D17*
%TO.C,C1*%
X39285520Y-76329301D03*
X39285520Y-78229299D03*
%TD*%
D10*
%TO.C,TP2*%
X54985520Y-78239300D03*
%TD*%
%TO.C,TP3*%
X54985520Y-80779301D03*
%TD*%
D14*
%TO.C,Q1*%
X36985520Y-72579300D03*
X35085520Y-72579300D03*
X36035520Y-74454300D03*
%TD*%
D19*
%TO.C,RV1*%
X44615519Y-74579300D03*
X42075519Y-72039300D03*
X39535520Y-74579300D03*
%TD*%
M02*
