%TF.GenerationSoftware,KiCad,Pcbnew,8.0.6*%
%TF.CreationDate,2024-12-18T19:44:48+00:00*%
%TF.ProjectId,003-UART-1602,3030332d-5541-4525-942d-313630322e6b,MkI*%
%TF.SameCoordinates,Original*%
%TF.FileFunction,Copper,L2,Bot*%
%TF.FilePolarity,Positive*%
%FSLAX46Y46*%
G04 Gerber Fmt 4.6, Leading zero omitted, Abs format (unit mm)*
G04 Created by KiCad (PCBNEW 8.0.6) date 2024-12-18 19:44:48*
%MOMM*%
%LPD*%
G01*
G04 APERTURE LIST*
G04 Aperture macros list*
%AMFreePoly0*
4,1,19,0.500000,-0.750000,0.000000,-0.750000,0.000000,-0.744911,-0.071157,-0.744911,-0.207708,-0.704816,-0.327430,-0.627875,-0.420627,-0.520320,-0.479746,-0.390866,-0.500000,-0.250000,-0.500000,0.250000,-0.479746,0.390866,-0.420627,0.520320,-0.327430,0.627875,-0.207708,0.704816,-0.071157,0.744911,0.000000,0.744911,0.000000,0.750000,0.500000,0.750000,0.500000,-0.750000,0.500000,-0.750000,
$1*%
%AMFreePoly1*
4,1,19,0.000000,0.744911,0.071157,0.744911,0.207708,0.704816,0.327430,0.627875,0.420627,0.520320,0.479746,0.390866,0.500000,0.250000,0.500000,-0.250000,0.479746,-0.390866,0.420627,-0.520320,0.327430,-0.627875,0.207708,-0.704816,0.071157,-0.744911,0.000000,-0.744911,0.000000,-0.750000,-0.500000,-0.750000,-0.500000,0.750000,0.000000,0.750000,0.000000,0.744911,0.000000,0.744911,
$1*%
G04 Aperture macros list end*
%TA.AperFunction,ComponentPad*%
%ADD10R,1.700000X1.700000*%
%TD*%
%TA.AperFunction,ComponentPad*%
%ADD11O,1.700000X1.700000*%
%TD*%
%TA.AperFunction,SMDPad,CuDef*%
%ADD12FreePoly0,0.000000*%
%TD*%
%TA.AperFunction,SMDPad,CuDef*%
%ADD13FreePoly1,0.000000*%
%TD*%
%TA.AperFunction,SMDPad,CuDef*%
%ADD14R,0.760000X1.600000*%
%TD*%
%TA.AperFunction,ComponentPad*%
%ADD15C,1.260000*%
%TD*%
%TA.AperFunction,ViaPad*%
%ADD16C,0.500000*%
%TD*%
%TA.AperFunction,ViaPad*%
%ADD17C,0.800000*%
%TD*%
%TA.AperFunction,Conductor*%
%ADD18C,0.250000*%
%TD*%
%TA.AperFunction,Conductor*%
%ADD19C,0.400000*%
%TD*%
G04 APERTURE END LIST*
D10*
%TO.P,DS1,1,VSS*%
%TO.N,GND*%
X32385520Y-66039300D03*
D11*
%TO.P,DS1,2,VDD*%
%TO.N,/VBUS_VIN*%
X34925520Y-66039300D03*
%TO.P,DS1,3,VO*%
%TO.N,/LCD_CONTRAST*%
X37465519Y-66039300D03*
%TO.P,DS1,4,RS*%
%TO.N,/LCD_RS*%
X40005520Y-66039300D03*
%TO.P,DS1,5,R/W*%
%TO.N,/LCD_RW*%
X42545520Y-66039300D03*
%TO.P,DS1,6,E*%
%TO.N,/LCD_EN*%
X45085520Y-66039300D03*
%TO.P,DS1,7,D0*%
%TO.N,unconnected-(DS1-D0-Pad7)*%
X47625520Y-66039300D03*
%TO.P,DS1,8,D1*%
%TO.N,unconnected-(DS1-D1-Pad8)*%
X50165521Y-66039300D03*
%TO.P,DS1,9,D2*%
%TO.N,unconnected-(DS1-D2-Pad9)*%
X52705520Y-66039300D03*
%TO.P,DS1,10,D3*%
%TO.N,unconnected-(DS1-D3-Pad10)*%
X55245520Y-66039300D03*
%TO.P,DS1,11,D4*%
%TO.N,/LCD_DA_0*%
X57785520Y-66039300D03*
%TO.P,DS1,12,D5*%
%TO.N,/LCD_DA_1*%
X60325519Y-66039300D03*
%TO.P,DS1,13,D6*%
%TO.N,/LCD_DA_2*%
X62865520Y-66039300D03*
%TO.P,DS1,14,D7*%
%TO.N,/LCD_DA_3*%
X65405520Y-66039300D03*
%TO.P,DS1,15,LED(+)*%
%TO.N,/VBUS_VIN*%
X67945520Y-66039300D03*
%TO.P,DS1,16,LED(-)*%
%TO.N,Net-(DS1-LED(-))*%
X70485519Y-66039300D03*
%TD*%
D10*
%TO.P,J2,1,Pin_1*%
%TO.N,/UART_RX*%
X32385520Y-78739300D03*
D11*
%TO.P,J2,2,Pin_2*%
%TO.N,GND*%
X32385520Y-81279300D03*
%TD*%
D10*
%TO.P,J1,1,Pin_1*%
%TO.N,/VBUS_VIN*%
X32385520Y-71119300D03*
D11*
%TO.P,J1,2,Pin_2*%
%TO.N,/VBUS_GND*%
X32385520Y-73659300D03*
%TD*%
D12*
%TO.P,JP2,1,A*%
%TO.N,GND*%
X68915521Y-69279300D03*
D13*
%TO.P,JP2,2,B*%
%TO.N,Net-(DS1-LED(-))*%
X70215519Y-69279300D03*
%TD*%
D14*
%TO.P,SW1,1*%
%TO.N,/BAUD_SEL0*%
X68550520Y-74429300D03*
%TO.P,SW1,2*%
%TO.N,/BAUD_SEL1*%
X69820520Y-74429300D03*
%TO.P,SW1,3*%
%TO.N,/VBUS_VIN*%
X69820520Y-82049300D03*
%TO.P,SW1,4*%
X68550520Y-82049300D03*
%TD*%
D15*
%TO.P,RV1,1,1*%
%TO.N,Net-(D1-A)*%
X44615519Y-74579300D03*
%TO.P,RV1,2,2*%
%TO.N,/LCD_CONTRAST*%
X42075519Y-72039300D03*
%TO.P,RV1,3,3*%
%TO.N,/VBUS_VIN*%
X39535520Y-74579300D03*
%TD*%
D12*
%TO.P,JP1,1,A*%
%TO.N,GND*%
X41435521Y-80079300D03*
D13*
%TO.P,JP1,2,B*%
%TO.N,Net-(D1-A)*%
X42735519Y-80079300D03*
%TD*%
D16*
%TO.N,/CHRGPMP*%
X38485520Y-76839300D03*
X38485520Y-80529300D03*
%TO.N,Net-(D1-A)*%
X43035520Y-79139300D03*
%TO.N,GND*%
X69215520Y-67309300D03*
X36195520Y-67309300D03*
X46355520Y-72389300D03*
X37465520Y-82549300D03*
X51435520Y-67309300D03*
X64135520Y-74929300D03*
X59055520Y-74929300D03*
X48895520Y-67309300D03*
X34485520Y-72579300D03*
X32385520Y-68579300D03*
X59055520Y-82549300D03*
X59055520Y-71119300D03*
X41135520Y-79139300D03*
X66675520Y-67309300D03*
X69016220Y-71216800D03*
X34925520Y-74929300D03*
X37465520Y-74929300D03*
X32385520Y-76199300D03*
D17*
X54985520Y-78239300D03*
D16*
X42545520Y-69849300D03*
X41685520Y-76339300D03*
X64135520Y-71119300D03*
X37465520Y-78739300D03*
X46355520Y-67309300D03*
X46355520Y-74929300D03*
X33655520Y-67309300D03*
X34925520Y-82549300D03*
X34925520Y-78739300D03*
X53975520Y-67309300D03*
X46355520Y-77469300D03*
X48895520Y-69849300D03*
X64135520Y-78739300D03*
%TO.N,/VBUS_VIN*%
X54966219Y-71229300D03*
D17*
X54985520Y-75699300D03*
D16*
%TO.N,/LCD_DA_2*%
X50366219Y-79729300D03*
%TO.N,/LCD_RS*%
X47116219Y-80129300D03*
%TO.N,/LCD_DA_0*%
X49066219Y-79729300D03*
%TO.N,/LCD_DA_1*%
X49716219Y-80129300D03*
%TO.N,/LCD_RW*%
X47766219Y-79729300D03*
%TO.N,/LCD_DA_3*%
X51016219Y-80129300D03*
%TO.N,Net-(DS1-LED(-))*%
X71441220Y-69279300D03*
%TO.N,/LCD_EN*%
X48416219Y-80129300D03*
D17*
%TO.N,/SWIO*%
X54985520Y-80779301D03*
D16*
%TO.N,/BAUD_SEL1*%
X69835520Y-73339300D03*
%TO.N,/BAUD_SEL0*%
X68535520Y-73339300D03*
%TD*%
D18*
%TO.N,/CHRGPMP*%
X38485520Y-80529300D02*
X38485520Y-76839300D01*
D19*
%TO.N,Net-(D1-A)*%
X43035520Y-79779299D02*
X42735519Y-80079300D01*
X43035520Y-79139300D02*
X43035520Y-79779299D01*
%TO.N,GND*%
X41135520Y-79139300D02*
X41135520Y-79779298D01*
X41135520Y-79779298D02*
X41435522Y-80079300D01*
%TO.N,/VBUS_VIN*%
X37495366Y-64539300D02*
X65311840Y-64539300D01*
X54985520Y-71248601D02*
X54985520Y-75699300D01*
X54985520Y-75699300D02*
X60379951Y-81093731D01*
X34925520Y-66039300D02*
X35669025Y-65295795D01*
X64147499Y-82654300D02*
X69816219Y-82654300D01*
X69816219Y-82654300D02*
X69820520Y-82649999D01*
X54966219Y-71229300D02*
X54985520Y-71248601D01*
X67247153Y-65340933D02*
X67945520Y-66039300D01*
X69820520Y-82649999D02*
X69820520Y-82049300D01*
X64147499Y-82654300D02*
G75*
G02*
X60379955Y-81093727I1J5328100D01*
G01*
X37495366Y-64539300D02*
G75*
G03*
X35669050Y-65295820I34J-2582800D01*
G01*
X65311840Y-64539300D02*
G75*
G02*
X67247124Y-65340962I-40J-2736900D01*
G01*
D18*
%TO.N,/LCD_DA_2*%
X54162809Y-69329300D02*
X57551775Y-69329300D01*
X61006523Y-67898297D02*
X62865520Y-66039300D01*
X50366219Y-79729300D02*
X50366219Y-73143997D01*
X61006523Y-67898297D02*
G75*
G02*
X57551775Y-69329298I-3454723J3454697D01*
G01*
X54162809Y-69329300D02*
G75*
G03*
X51487253Y-70437545I-9J-3783800D01*
G01*
X51487264Y-70437556D02*
G75*
G03*
X50366216Y-73143997I2706436J-2706444D01*
G01*
%TO.N,/LCD_RS*%
X41577606Y-67611386D02*
X40005520Y-66039300D01*
X47116219Y-80129300D02*
X47116219Y-72646099D01*
X46355301Y-70809081D02*
X44274797Y-68728577D01*
X42827962Y-68129300D02*
G75*
G02*
X44274798Y-68728576I38J-2046100D01*
G01*
X46355301Y-70809081D02*
G75*
G02*
X47116224Y-72646099I-1837001J-1837019D01*
G01*
X42827962Y-68129300D02*
G75*
G02*
X41577619Y-67611373I38J1768300D01*
G01*
%TO.N,/LCD_DA_0*%
X54376214Y-68129300D02*
X54427222Y-68129300D01*
X56592342Y-67232478D02*
X57785520Y-66039300D01*
X49066219Y-79729300D02*
X49066219Y-72818810D01*
X50169453Y-70155367D02*
X50653537Y-69671283D01*
X56592342Y-67232478D02*
G75*
G02*
X54427222Y-68129299I-2165142J2165178D01*
G01*
X54376214Y-68129300D02*
G75*
G03*
X50653522Y-69671268I-14J-5264700D01*
G01*
X49066219Y-72818810D02*
G75*
G02*
X50169447Y-70155361I3766681J10D01*
G01*
%TO.N,/LCD_DA_1*%
X58935443Y-67429376D02*
X60325519Y-66039300D01*
X50710598Y-70414222D02*
X51109638Y-70015182D01*
X49716219Y-80129300D02*
X49716219Y-72814865D01*
X54214032Y-68729300D02*
X55797148Y-68729300D01*
X55797148Y-68729300D02*
G75*
G03*
X58935415Y-67429348I-48J4438200D01*
G01*
X49716219Y-72814865D02*
G75*
G02*
X50710624Y-70414248I3394981J-35D01*
G01*
X51109638Y-70015182D02*
G75*
G02*
X54214032Y-68729330I3104362J-3104418D01*
G01*
%TO.N,/LCD_RW*%
X47766219Y-79729300D02*
X47766219Y-72710671D01*
X42545520Y-66199300D02*
X42545520Y-66039300D01*
X46853576Y-70507356D02*
X42545520Y-66199300D01*
X46853576Y-70507356D02*
G75*
G02*
X47766251Y-72710671I-2203276J-2203344D01*
G01*
%TO.N,/LCD_DA_3*%
X51016219Y-80129300D02*
X51016219Y-72902704D01*
X63573533Y-67871287D02*
X65405520Y-66039300D01*
X54117753Y-69929300D02*
X58605051Y-69929300D01*
X58605051Y-69929300D02*
G75*
G03*
X63573559Y-67871313I49J7026500D01*
G01*
X54117753Y-69929300D02*
G75*
G03*
X51860611Y-70864277I47J-3192100D01*
G01*
X51860577Y-70864243D02*
G75*
G03*
X51016211Y-72902704I2038423J-2038457D01*
G01*
D19*
%TO.N,Net-(DS1-LED(-))*%
X71441220Y-69279300D02*
X70215519Y-69279300D01*
D18*
%TO.N,/LCD_EN*%
X47249268Y-70103048D02*
X45812313Y-68666093D01*
X45085520Y-66911458D02*
X45085520Y-66039300D01*
X48416219Y-80129300D02*
X48416219Y-72920317D01*
X47249268Y-70103048D02*
G75*
G02*
X48416207Y-72920317I-2817268J-2817252D01*
G01*
X45085520Y-66911458D02*
G75*
G03*
X45812302Y-68666104I2481380J-42D01*
G01*
%TO.N,/BAUD_SEL1*%
X69835520Y-73339300D02*
X69835520Y-74414300D01*
X69835520Y-74414300D02*
X69820520Y-74429300D01*
%TO.N,/BAUD_SEL0*%
X68550520Y-73354300D02*
X68550520Y-74429300D01*
X68535520Y-73339300D02*
X68550520Y-73354300D01*
%TD*%
%TA.AperFunction,Conductor*%
%TO.N,GND*%
G36*
X36459071Y-64211474D02*
G01*
X36480745Y-64263800D01*
X36459071Y-64316126D01*
X36435067Y-64332165D01*
X36248079Y-64409622D01*
X36218272Y-64421969D01*
X35959769Y-64560148D01*
X35959759Y-64560154D01*
X35716050Y-64723000D01*
X35716047Y-64723002D01*
X35489459Y-64908965D01*
X35489458Y-64908965D01*
X35412704Y-64985722D01*
X35412702Y-64985724D01*
X35412701Y-64985724D01*
X35364583Y-65033841D01*
X35312257Y-65055515D01*
X35290778Y-65052329D01*
X35131457Y-65004000D01*
X34925520Y-64983717D01*
X34719584Y-65004000D01*
X34578567Y-65046777D01*
X34527583Y-65062243D01*
X34521563Y-65064069D01*
X34339069Y-65161615D01*
X34179110Y-65292889D01*
X34179109Y-65292890D01*
X34047835Y-65452849D01*
X33950289Y-65635343D01*
X33890220Y-65833364D01*
X33869937Y-66039300D01*
X33890220Y-66245235D01*
X33950289Y-66443256D01*
X33983412Y-66505225D01*
X34047835Y-66625750D01*
X34179110Y-66785710D01*
X34339070Y-66916985D01*
X34521566Y-67014532D01*
X34719586Y-67074600D01*
X34925520Y-67094883D01*
X35131454Y-67074600D01*
X35329474Y-67014532D01*
X35511970Y-66916985D01*
X35671930Y-66785710D01*
X35803205Y-66625750D01*
X35900752Y-66443254D01*
X35960820Y-66245234D01*
X35981103Y-66039300D01*
X35960820Y-65833366D01*
X35912489Y-65674039D01*
X35918041Y-65617678D01*
X35930972Y-65600240D01*
X35950773Y-65580439D01*
X35953750Y-65577624D01*
X36131614Y-65418669D01*
X36138089Y-65413506D01*
X36330924Y-65276676D01*
X36337920Y-65272281D01*
X36544859Y-65157906D01*
X36552309Y-65154317D01*
X36769124Y-65064505D01*
X36825760Y-65064505D01*
X36865810Y-65104553D01*
X36865811Y-65161190D01*
X36844388Y-65190076D01*
X36719109Y-65292889D01*
X36719108Y-65292890D01*
X36587834Y-65452849D01*
X36490288Y-65635343D01*
X36430219Y-65833364D01*
X36409936Y-66039300D01*
X36430219Y-66245235D01*
X36490288Y-66443256D01*
X36523411Y-66505225D01*
X36587834Y-66625750D01*
X36719109Y-66785710D01*
X36879069Y-66916985D01*
X37061565Y-67014532D01*
X37259585Y-67074600D01*
X37465519Y-67094883D01*
X37671453Y-67074600D01*
X37869473Y-67014532D01*
X38051969Y-66916985D01*
X38211929Y-66785710D01*
X38343204Y-66625750D01*
X38440751Y-66443254D01*
X38500819Y-66245234D01*
X38521102Y-66039300D01*
X38500819Y-65833366D01*
X38440751Y-65635346D01*
X38343204Y-65452850D01*
X38211929Y-65292890D01*
X38192185Y-65276687D01*
X38051969Y-65161615D01*
X37973049Y-65119431D01*
X37897523Y-65079061D01*
X37861594Y-65035281D01*
X37867146Y-64978916D01*
X37910927Y-64942986D01*
X37932408Y-64939800D01*
X39538631Y-64939800D01*
X39590957Y-64961474D01*
X39612631Y-65013800D01*
X39590957Y-65066126D01*
X39573516Y-65079060D01*
X39525825Y-65104553D01*
X39419069Y-65161615D01*
X39259110Y-65292889D01*
X39259109Y-65292890D01*
X39127835Y-65452849D01*
X39030289Y-65635343D01*
X38970220Y-65833364D01*
X38949937Y-66039300D01*
X38970220Y-66245235D01*
X39030289Y-66443256D01*
X39063412Y-66505225D01*
X39127835Y-66625750D01*
X39259110Y-66785710D01*
X39419070Y-66916985D01*
X39601566Y-67014532D01*
X39799586Y-67074600D01*
X40005520Y-67094883D01*
X40211454Y-67074600D01*
X40409474Y-67014532D01*
X40409482Y-67014527D01*
X40409484Y-67014527D01*
X40433374Y-67001757D01*
X40489738Y-66996204D01*
X40520585Y-67014692D01*
X41381135Y-67875242D01*
X41381349Y-67875430D01*
X41430595Y-67924677D01*
X41430602Y-67924683D01*
X41614451Y-68071299D01*
X41614461Y-68071306D01*
X41813569Y-68196416D01*
X41813578Y-68196421D01*
X42025444Y-68298454D01*
X42025446Y-68298454D01*
X42025451Y-68298457D01*
X42247418Y-68376130D01*
X42476687Y-68428463D01*
X42710372Y-68454798D01*
X42770448Y-68454798D01*
X42770463Y-68454800D01*
X42776411Y-68454800D01*
X42776414Y-68454801D01*
X42825541Y-68454800D01*
X42830379Y-68454958D01*
X43047717Y-68469199D01*
X43057314Y-68470463D01*
X43162926Y-68491468D01*
X43268541Y-68512474D01*
X43277887Y-68514978D01*
X43481834Y-68584206D01*
X43490766Y-68587905D01*
X43683934Y-68683161D01*
X43692308Y-68687996D01*
X43753354Y-68728785D01*
X43871386Y-68807650D01*
X43879065Y-68813542D01*
X44042791Y-68957122D01*
X44046326Y-68960433D01*
X46123674Y-71037781D01*
X46126525Y-71040797D01*
X46290726Y-71224536D01*
X46292178Y-71226160D01*
X46297340Y-71232632D01*
X46440016Y-71433714D01*
X46444420Y-71440724D01*
X46563673Y-71656495D01*
X46567265Y-71663954D01*
X46650823Y-71865678D01*
X46661610Y-71891720D01*
X46664351Y-71899553D01*
X46732600Y-72136446D01*
X46734446Y-72144537D01*
X46775737Y-72387562D01*
X46776667Y-72395807D01*
X46790603Y-72643942D01*
X46790719Y-72648092D01*
X46790719Y-79789413D01*
X46772645Y-79837872D01*
X46733338Y-79883235D01*
X46733337Y-79883236D01*
X46679521Y-80001076D01*
X46661086Y-80129300D01*
X46679521Y-80257523D01*
X46679521Y-80257524D01*
X46679522Y-80257526D01*
X46733337Y-80375363D01*
X46818170Y-80473267D01*
X46927150Y-80543304D01*
X47051447Y-80579800D01*
X47180991Y-80579800D01*
X47305288Y-80543304D01*
X47414268Y-80473267D01*
X47499101Y-80375363D01*
X47552916Y-80257526D01*
X47557501Y-80225634D01*
X47586400Y-80176926D01*
X47641278Y-80162918D01*
X47651597Y-80165163D01*
X47701445Y-80179800D01*
X47701447Y-80179800D01*
X47830993Y-80179800D01*
X47861548Y-80170827D01*
X47880840Y-80165163D01*
X47937153Y-80171216D01*
X47972691Y-80215316D01*
X47974936Y-80225633D01*
X47979521Y-80257523D01*
X47979521Y-80257524D01*
X47979522Y-80257526D01*
X48033337Y-80375363D01*
X48118170Y-80473267D01*
X48227150Y-80543304D01*
X48351447Y-80579800D01*
X48480991Y-80579800D01*
X48605288Y-80543304D01*
X48714268Y-80473267D01*
X48799101Y-80375363D01*
X48852916Y-80257526D01*
X48857501Y-80225634D01*
X48886400Y-80176926D01*
X48941278Y-80162918D01*
X48951597Y-80165163D01*
X49001445Y-80179800D01*
X49001447Y-80179800D01*
X49130993Y-80179800D01*
X49161548Y-80170827D01*
X49180840Y-80165163D01*
X49237153Y-80171216D01*
X49272691Y-80215316D01*
X49274936Y-80225633D01*
X49279521Y-80257523D01*
X49279521Y-80257524D01*
X49279522Y-80257526D01*
X49333337Y-80375363D01*
X49418170Y-80473267D01*
X49527150Y-80543304D01*
X49651447Y-80579800D01*
X49780991Y-80579800D01*
X49905288Y-80543304D01*
X50014268Y-80473267D01*
X50099101Y-80375363D01*
X50152916Y-80257526D01*
X50157501Y-80225634D01*
X50186400Y-80176926D01*
X50241278Y-80162918D01*
X50251597Y-80165163D01*
X50301445Y-80179800D01*
X50301447Y-80179800D01*
X50430993Y-80179800D01*
X50461548Y-80170827D01*
X50480840Y-80165163D01*
X50537153Y-80171216D01*
X50572691Y-80215316D01*
X50574936Y-80225633D01*
X50579521Y-80257523D01*
X50579521Y-80257524D01*
X50579522Y-80257526D01*
X50633337Y-80375363D01*
X50718170Y-80473267D01*
X50827150Y-80543304D01*
X50951447Y-80579800D01*
X51080991Y-80579800D01*
X51205288Y-80543304D01*
X51314268Y-80473267D01*
X51399101Y-80375363D01*
X51452916Y-80257526D01*
X51471352Y-80129300D01*
X51452916Y-80001074D01*
X51399101Y-79883237D01*
X51359793Y-79837872D01*
X51341719Y-79789413D01*
X51341719Y-75699300D01*
X54379838Y-75699300D01*
X54400475Y-75856060D01*
X54400475Y-75856061D01*
X54460984Y-76002141D01*
X54557235Y-76127579D01*
X54557240Y-76127584D01*
X54640865Y-76191751D01*
X54682679Y-76223836D01*
X54828758Y-76284344D01*
X54985520Y-76304982D01*
X54985520Y-76304981D01*
X54985521Y-76304982D01*
X54990371Y-76304982D01*
X54990371Y-76306870D01*
X55038754Y-76319825D01*
X55046042Y-76326215D01*
X60137708Y-81417881D01*
X60137776Y-81417940D01*
X60255910Y-81536075D01*
X60598214Y-81828431D01*
X60962387Y-82093020D01*
X60962403Y-82093031D01*
X61346207Y-82328228D01*
X61346228Y-82328239D01*
X61747293Y-82532593D01*
X61747306Y-82532599D01*
X61747308Y-82532600D01*
X62163198Y-82704867D01*
X62591321Y-82843974D01*
X62591338Y-82843978D01*
X63029020Y-82949057D01*
X63029034Y-82949059D01*
X63029039Y-82949061D01*
X63473653Y-83019481D01*
X63922421Y-83054800D01*
X69868945Y-83054800D01*
X69868946Y-83054800D01*
X69873877Y-83053478D01*
X69878199Y-83052321D01*
X69897350Y-83049800D01*
X70220266Y-83049800D01*
X70220268Y-83049800D01*
X70278751Y-83038167D01*
X70345072Y-82993852D01*
X70389387Y-82927531D01*
X70401020Y-82869048D01*
X70401020Y-81229552D01*
X70389387Y-81171069D01*
X70345072Y-81104748D01*
X70317474Y-81086307D01*
X70278752Y-81060433D01*
X70278753Y-81060433D01*
X70249509Y-81054616D01*
X70220268Y-81048800D01*
X69420772Y-81048800D01*
X69391530Y-81054616D01*
X69362287Y-81060433D01*
X69295969Y-81104747D01*
X69295967Y-81104749D01*
X69247603Y-81177129D01*
X69244503Y-81175057D01*
X69213841Y-81205722D01*
X69157203Y-81205724D01*
X69126535Y-81175058D01*
X69123437Y-81177129D01*
X69091476Y-81129298D01*
X69075072Y-81104748D01*
X69047474Y-81086307D01*
X69008752Y-81060433D01*
X69008753Y-81060433D01*
X68979509Y-81054616D01*
X68950268Y-81048800D01*
X68150772Y-81048800D01*
X68121530Y-81054616D01*
X68092287Y-81060433D01*
X68025969Y-81104747D01*
X68025967Y-81104749D01*
X67981653Y-81171067D01*
X67970020Y-81229553D01*
X67970020Y-82179800D01*
X67948346Y-82232126D01*
X67896020Y-82253800D01*
X64148953Y-82253800D01*
X64146048Y-82253743D01*
X63763787Y-82238724D01*
X63757994Y-82238268D01*
X63379537Y-82193474D01*
X63373798Y-82192565D01*
X63000028Y-82118217D01*
X62994378Y-82116861D01*
X62627575Y-82013411D01*
X62622049Y-82011615D01*
X62264516Y-81879714D01*
X62259148Y-81877491D01*
X61913048Y-81717936D01*
X61907871Y-81715298D01*
X61575364Y-81529084D01*
X61570410Y-81526048D01*
X61253535Y-81314318D01*
X61248834Y-81310902D01*
X60949557Y-81074970D01*
X60945139Y-81071197D01*
X60737439Y-80879201D01*
X60664114Y-80811421D01*
X60662025Y-80809412D01*
X55612435Y-75759822D01*
X55590761Y-75707496D01*
X55591202Y-75700778D01*
X55591202Y-75699300D01*
X55570564Y-75542539D01*
X55570564Y-75542538D01*
X55523866Y-75429800D01*
X55510056Y-75396459D01*
X55490805Y-75371370D01*
X55413806Y-75271022D01*
X55410376Y-75267593D01*
X55411703Y-75266265D01*
X55386651Y-75222847D01*
X55386020Y-75213207D01*
X55386020Y-73609553D01*
X67970020Y-73609553D01*
X67970020Y-75249046D01*
X67981653Y-75307532D01*
X68011128Y-75351643D01*
X68025968Y-75373852D01*
X68059800Y-75396458D01*
X68092287Y-75418166D01*
X68092288Y-75418166D01*
X68092289Y-75418167D01*
X68150772Y-75429800D01*
X68150774Y-75429800D01*
X68950266Y-75429800D01*
X68950268Y-75429800D01*
X69008751Y-75418167D01*
X69075072Y-75373852D01*
X69105738Y-75327956D01*
X69123437Y-75301471D01*
X69126539Y-75303544D01*
X69157181Y-75272884D01*
X69213819Y-75272868D01*
X69244508Y-75303538D01*
X69247603Y-75301471D01*
X69281279Y-75351868D01*
X69295968Y-75373852D01*
X69329800Y-75396458D01*
X69362287Y-75418166D01*
X69362288Y-75418166D01*
X69362289Y-75418167D01*
X69420772Y-75429800D01*
X69420774Y-75429800D01*
X70220266Y-75429800D01*
X70220268Y-75429800D01*
X70278751Y-75418167D01*
X70345072Y-75373852D01*
X70389387Y-75307531D01*
X70401020Y-75249048D01*
X70401020Y-73609552D01*
X70389387Y-73551069D01*
X70345072Y-73484748D01*
X70315112Y-73464729D01*
X70283648Y-73417638D01*
X70282979Y-73392670D01*
X70290653Y-73339300D01*
X70272217Y-73211074D01*
X70218402Y-73093237D01*
X70133569Y-72995333D01*
X70064982Y-72951255D01*
X70024588Y-72925295D01*
X69900292Y-72888800D01*
X69770748Y-72888800D01*
X69646451Y-72925295D01*
X69537474Y-72995331D01*
X69537470Y-72995334D01*
X69452639Y-73093235D01*
X69398822Y-73211076D01*
X69380387Y-73339299D01*
X69385431Y-73374381D01*
X69371424Y-73429259D01*
X69353298Y-73446440D01*
X69295968Y-73484748D01*
X69295967Y-73484749D01*
X69247603Y-73557129D01*
X69244503Y-73555057D01*
X69213841Y-73585722D01*
X69157203Y-73585724D01*
X69126535Y-73555058D01*
X69123437Y-73557129D01*
X69097523Y-73518347D01*
X69075072Y-73484748D01*
X69074693Y-73484494D01*
X69017742Y-73446440D01*
X68986277Y-73399347D01*
X68985608Y-73374385D01*
X68990653Y-73339300D01*
X68972217Y-73211074D01*
X68918402Y-73093237D01*
X68833569Y-72995333D01*
X68764982Y-72951255D01*
X68724588Y-72925295D01*
X68600292Y-72888800D01*
X68470748Y-72888800D01*
X68346451Y-72925295D01*
X68237474Y-72995331D01*
X68237470Y-72995334D01*
X68152639Y-73093235D01*
X68098822Y-73211076D01*
X68080387Y-73339300D01*
X68088060Y-73392672D01*
X68074052Y-73447549D01*
X68055927Y-73464730D01*
X68025968Y-73484748D01*
X68025967Y-73484749D01*
X67981653Y-73551067D01*
X67970020Y-73609553D01*
X55386020Y-73609553D01*
X55386020Y-71410619D01*
X55392708Y-71379877D01*
X55402916Y-71357526D01*
X55421352Y-71229300D01*
X55402916Y-71101074D01*
X55349101Y-70983237D01*
X55264268Y-70885333D01*
X55197251Y-70842264D01*
X55155287Y-70815295D01*
X55030991Y-70778800D01*
X54901447Y-70778800D01*
X54777150Y-70815295D01*
X54668173Y-70885331D01*
X54668169Y-70885334D01*
X54583338Y-70983235D01*
X54529521Y-71101076D01*
X54511086Y-71229300D01*
X54529521Y-71357526D01*
X54578332Y-71464403D01*
X54585020Y-71495144D01*
X54585020Y-75213207D01*
X54563346Y-75265533D01*
X54558278Y-75269978D01*
X54557233Y-75271022D01*
X54460984Y-75396458D01*
X54400475Y-75542538D01*
X54400475Y-75542539D01*
X54379838Y-75699300D01*
X51341719Y-75699300D01*
X51341719Y-72904787D01*
X51341835Y-72900638D01*
X51353997Y-72684068D01*
X51357566Y-72620508D01*
X51358496Y-72612270D01*
X51405141Y-72337735D01*
X51406980Y-72329675D01*
X51484081Y-72062054D01*
X51486811Y-72054251D01*
X51593394Y-71796941D01*
X51596972Y-71789511D01*
X51731690Y-71545760D01*
X51736099Y-71538745D01*
X51767036Y-71495144D01*
X51897254Y-71311620D01*
X51902403Y-71305163D01*
X52088206Y-71097253D01*
X52093671Y-71091749D01*
X52296495Y-70907915D01*
X52302095Y-70903319D01*
X52522234Y-70740048D01*
X52528253Y-70736027D01*
X52763332Y-70595121D01*
X52769697Y-70591718D01*
X53017459Y-70474531D01*
X53024165Y-70471754D01*
X53282208Y-70379420D01*
X53289128Y-70377321D01*
X53554990Y-70310722D01*
X53562084Y-70309310D01*
X53833192Y-70269091D01*
X53840394Y-70268382D01*
X54114970Y-70254889D01*
X54118602Y-70254800D01*
X58652511Y-70254800D01*
X58653068Y-70254763D01*
X58845728Y-70254764D01*
X59326055Y-70223285D01*
X59803295Y-70160459D01*
X60275404Y-70066554D01*
X60740360Y-69941972D01*
X61196173Y-69787248D01*
X61640891Y-69603043D01*
X62072609Y-69390146D01*
X62489478Y-69149470D01*
X62889714Y-68882044D01*
X63271602Y-68589015D01*
X63272864Y-68587909D01*
X63602924Y-68298457D01*
X63633508Y-68271636D01*
X63766279Y-68138865D01*
X63766287Y-68138859D01*
X63773393Y-68131752D01*
X63773395Y-68131752D01*
X64890454Y-67014691D01*
X64942779Y-66993018D01*
X64977662Y-67001756D01*
X65001554Y-67014526D01*
X65001557Y-67014527D01*
X65001566Y-67014532D01*
X65199586Y-67074600D01*
X65405520Y-67094883D01*
X65611454Y-67074600D01*
X65809474Y-67014532D01*
X65991970Y-66916985D01*
X66151930Y-66785710D01*
X66283205Y-66625750D01*
X66380752Y-66443254D01*
X66440820Y-66245234D01*
X66461103Y-66039300D01*
X66440820Y-65833366D01*
X66380752Y-65635346D01*
X66283205Y-65452850D01*
X66151930Y-65292890D01*
X66132186Y-65276687D01*
X66061208Y-65218437D01*
X66034509Y-65168488D01*
X66050950Y-65114289D01*
X66100899Y-65087590D01*
X66136472Y-65092866D01*
X66321737Y-65169609D01*
X66329201Y-65173205D01*
X66411039Y-65218437D01*
X66551237Y-65295925D01*
X66558264Y-65300340D01*
X66765169Y-65447154D01*
X66771657Y-65452328D01*
X66936390Y-65599548D01*
X66960963Y-65650576D01*
X66957893Y-65676204D01*
X66910220Y-65833362D01*
X66889937Y-66039300D01*
X66910220Y-66245235D01*
X66970289Y-66443256D01*
X67003412Y-66505225D01*
X67067835Y-66625750D01*
X67199110Y-66785710D01*
X67359070Y-66916985D01*
X67541566Y-67014532D01*
X67739586Y-67074600D01*
X67945520Y-67094883D01*
X68151454Y-67074600D01*
X68349474Y-67014532D01*
X68531970Y-66916985D01*
X68691930Y-66785710D01*
X68823205Y-66625750D01*
X68920752Y-66443254D01*
X68980820Y-66245234D01*
X69001103Y-66039300D01*
X69429936Y-66039300D01*
X69450219Y-66245235D01*
X69510288Y-66443256D01*
X69543411Y-66505225D01*
X69607834Y-66625750D01*
X69739109Y-66785710D01*
X69899069Y-66916985D01*
X70081565Y-67014532D01*
X70279585Y-67074600D01*
X70485519Y-67094883D01*
X70691453Y-67074600D01*
X70889473Y-67014532D01*
X71071969Y-66916985D01*
X71231929Y-66785710D01*
X71363204Y-66625750D01*
X71460751Y-66443254D01*
X71520819Y-66245234D01*
X71541102Y-66039300D01*
X71520819Y-65833366D01*
X71460751Y-65635346D01*
X71363204Y-65452850D01*
X71231929Y-65292890D01*
X71212185Y-65276687D01*
X71071969Y-65161615D01*
X70889475Y-65064069D01*
X70889474Y-65064068D01*
X70889473Y-65064068D01*
X70745692Y-65020453D01*
X70691454Y-65004000D01*
X70485519Y-64983717D01*
X70279583Y-65004000D01*
X70138566Y-65046777D01*
X70087582Y-65062243D01*
X70081562Y-65064069D01*
X69899068Y-65161615D01*
X69739109Y-65292889D01*
X69739108Y-65292890D01*
X69607834Y-65452849D01*
X69510288Y-65635343D01*
X69450219Y-65833364D01*
X69429936Y-66039300D01*
X69001103Y-66039300D01*
X68980820Y-65833366D01*
X68920752Y-65635346D01*
X68823205Y-65452850D01*
X68691930Y-65292890D01*
X68672186Y-65276687D01*
X68531970Y-65161615D01*
X68349476Y-65064069D01*
X68349475Y-65064068D01*
X68349474Y-65064068D01*
X68205693Y-65020453D01*
X68151455Y-65004000D01*
X67945520Y-64983717D01*
X67739582Y-65004000D01*
X67580260Y-65052329D01*
X67523896Y-65046777D01*
X67506454Y-65033841D01*
X67489890Y-65017277D01*
X67489423Y-65016867D01*
X67456274Y-64983717D01*
X67421341Y-64948782D01*
X67407610Y-64937513D01*
X67183049Y-64753212D01*
X67183046Y-64753210D01*
X66926750Y-64581952D01*
X66926733Y-64581942D01*
X66654903Y-64436639D01*
X66654892Y-64436634D01*
X66654883Y-64436629D01*
X66620963Y-64422578D01*
X66402702Y-64332166D01*
X66362654Y-64292117D01*
X66362656Y-64235480D01*
X66402705Y-64195432D01*
X66431022Y-64189800D01*
X71381351Y-64189800D01*
X71389637Y-64190265D01*
X71425397Y-64194294D01*
X71510629Y-64203899D01*
X71526779Y-64207586D01*
X71637754Y-64246420D01*
X71652679Y-64253608D01*
X71752230Y-64316161D01*
X71765177Y-64326486D01*
X71848320Y-64409631D01*
X71858642Y-64422575D01*
X71883008Y-64461353D01*
X71921197Y-64522131D01*
X71928385Y-64537058D01*
X71936467Y-64560154D01*
X71967215Y-64648027D01*
X71970903Y-64664183D01*
X71984535Y-64785174D01*
X71984555Y-64785347D01*
X71985020Y-64793632D01*
X71985020Y-69045425D01*
X71963346Y-69097751D01*
X71911020Y-69119425D01*
X71858694Y-69097751D01*
X71843708Y-69076166D01*
X71824104Y-69033240D01*
X71824101Y-69033236D01*
X71798534Y-69003730D01*
X71739269Y-68935333D01*
X71672252Y-68892264D01*
X71630288Y-68865295D01*
X71505992Y-68828800D01*
X71376448Y-68828800D01*
X71252149Y-68865296D01*
X71249416Y-68867053D01*
X71209410Y-68878800D01*
X70965187Y-68878800D01*
X70912861Y-68857126D01*
X70894185Y-68825649D01*
X70887129Y-68801619D01*
X70887128Y-68801617D01*
X70860060Y-68742347D01*
X70827400Y-68670832D01*
X70827396Y-68670825D01*
X70795780Y-68621629D01*
X70701625Y-68512967D01*
X70701622Y-68512964D01*
X70657415Y-68474658D01*
X70536470Y-68396932D01*
X70536462Y-68396928D01*
X70490921Y-68376130D01*
X70483259Y-68372631D01*
X70345304Y-68332124D01*
X70345300Y-68332123D01*
X70345299Y-68332123D01*
X70287412Y-68323800D01*
X70287408Y-68323800D01*
X69715519Y-68323800D01*
X69681223Y-68327664D01*
X69669790Y-68328952D01*
X69669788Y-68328952D01*
X69587393Y-68368632D01*
X69587390Y-68368635D01*
X69530372Y-68440132D01*
X69530371Y-68440134D01*
X69530370Y-68440136D01*
X69530370Y-68440137D01*
X69510019Y-68529300D01*
X69510019Y-68529303D01*
X69510019Y-68973547D01*
X69509266Y-68984078D01*
X69506969Y-69000049D01*
X69506969Y-69058549D01*
X69509266Y-69074520D01*
X69510019Y-69085051D01*
X69510019Y-69473547D01*
X69509266Y-69484077D01*
X69506969Y-69500048D01*
X69506969Y-69558548D01*
X69509266Y-69574520D01*
X69510019Y-69585052D01*
X69510019Y-70029300D01*
X69512524Y-70051535D01*
X69515171Y-70075028D01*
X69515171Y-70075030D01*
X69554851Y-70157425D01*
X69554854Y-70157428D01*
X69626351Y-70214446D01*
X69626354Y-70214447D01*
X69626356Y-70214449D01*
X69715519Y-70234800D01*
X69715523Y-70234800D01*
X70287402Y-70234800D01*
X70287408Y-70234800D01*
X70345304Y-70226476D01*
X70483259Y-70185969D01*
X70536464Y-70161671D01*
X70657418Y-70083939D01*
X70701624Y-70045634D01*
X70795778Y-69936973D01*
X70827400Y-69887768D01*
X70887128Y-69756983D01*
X70887129Y-69756980D01*
X70894185Y-69732951D01*
X70929723Y-69688851D01*
X70965187Y-69679800D01*
X71209410Y-69679800D01*
X71249416Y-69691547D01*
X71252149Y-69693303D01*
X71252150Y-69693303D01*
X71252151Y-69693304D01*
X71376448Y-69729800D01*
X71505992Y-69729800D01*
X71630289Y-69693304D01*
X71739269Y-69623267D01*
X71824102Y-69525363D01*
X71843708Y-69482431D01*
X71885160Y-69443840D01*
X71941761Y-69445861D01*
X71980354Y-69487314D01*
X71985020Y-69513174D01*
X71985020Y-82785141D01*
X71984555Y-82793426D01*
X71970922Y-82914421D01*
X71967234Y-82930577D01*
X71928404Y-83041547D01*
X71921215Y-83056476D01*
X71858662Y-83156031D01*
X71848330Y-83168987D01*
X71765194Y-83252124D01*
X71752239Y-83262455D01*
X71652690Y-83325008D01*
X71637761Y-83332198D01*
X71526787Y-83371031D01*
X71510632Y-83374718D01*
X71389815Y-83388334D01*
X71381528Y-83388800D01*
X31449065Y-83388800D01*
X31449053Y-83388799D01*
X31389667Y-83388799D01*
X31381384Y-83388334D01*
X31260394Y-83374705D01*
X31244238Y-83371018D01*
X31133265Y-83332189D01*
X31118334Y-83324999D01*
X31018780Y-83262446D01*
X31005829Y-83252118D01*
X30922687Y-83168978D01*
X30912361Y-83156030D01*
X30849806Y-83056474D01*
X30842617Y-83041546D01*
X30834896Y-83019481D01*
X30803783Y-82930568D01*
X30800098Y-82914424D01*
X30786485Y-82793603D01*
X30786020Y-82785318D01*
X30786020Y-81129298D01*
X31244492Y-81129298D01*
X31244494Y-81129300D01*
X31908075Y-81129300D01*
X31885520Y-81213474D01*
X31885520Y-81345126D01*
X31908075Y-81429300D01*
X31244494Y-81429300D01*
X31244492Y-81429301D01*
X31250256Y-81491504D01*
X31250258Y-81491518D01*
X31308581Y-81696502D01*
X31308584Y-81696512D01*
X31403579Y-81887288D01*
X31403583Y-81887294D01*
X31532021Y-82057371D01*
X31689523Y-82200953D01*
X31870720Y-82313144D01*
X31870730Y-82313149D01*
X32069455Y-82390136D01*
X32235519Y-82421179D01*
X32235520Y-82421179D01*
X32235520Y-81756745D01*
X32319694Y-81779300D01*
X32451346Y-81779300D01*
X32535520Y-81756745D01*
X32535520Y-82421179D01*
X32701584Y-82390136D01*
X32900309Y-82313149D01*
X32900319Y-82313144D01*
X33081516Y-82200953D01*
X33239018Y-82057371D01*
X33367456Y-81887294D01*
X33367460Y-81887288D01*
X33462455Y-81696512D01*
X33462458Y-81696502D01*
X33520781Y-81491518D01*
X33520783Y-81491504D01*
X33526547Y-81429301D01*
X33526546Y-81429300D01*
X32862965Y-81429300D01*
X32885520Y-81345126D01*
X32885520Y-81213474D01*
X32862965Y-81129300D01*
X33526546Y-81129300D01*
X33526547Y-81129298D01*
X33520783Y-81067095D01*
X33520781Y-81067081D01*
X33462458Y-80862097D01*
X33462455Y-80862087D01*
X33367460Y-80671311D01*
X33367456Y-80671305D01*
X33239018Y-80501228D01*
X33081516Y-80357646D01*
X32900319Y-80245455D01*
X32900309Y-80245450D01*
X32701583Y-80168462D01*
X32535520Y-80137419D01*
X32535520Y-80801854D01*
X32451346Y-80779300D01*
X32319694Y-80779300D01*
X32235520Y-80801854D01*
X32235520Y-80137419D01*
X32235519Y-80137419D01*
X32069456Y-80168462D01*
X31870730Y-80245450D01*
X31870720Y-80245455D01*
X31689523Y-80357646D01*
X31532021Y-80501228D01*
X31403583Y-80671305D01*
X31403579Y-80671311D01*
X31308584Y-80862087D01*
X31308581Y-80862097D01*
X31250258Y-81067081D01*
X31250256Y-81067095D01*
X31244492Y-81129298D01*
X30786020Y-81129298D01*
X30786020Y-77869553D01*
X31335020Y-77869553D01*
X31335020Y-79609046D01*
X31346653Y-79667532D01*
X31376128Y-79711643D01*
X31390968Y-79733852D01*
X31414101Y-79749309D01*
X31457287Y-79778166D01*
X31457288Y-79778166D01*
X31457289Y-79778167D01*
X31515772Y-79789800D01*
X31515774Y-79789800D01*
X33255266Y-79789800D01*
X33255268Y-79789800D01*
X33313751Y-79778167D01*
X33380072Y-79733852D01*
X33424387Y-79667531D01*
X33436020Y-79609048D01*
X33436020Y-77869552D01*
X33424387Y-77811069D01*
X33380072Y-77744748D01*
X33357863Y-77729908D01*
X33313752Y-77700433D01*
X33313753Y-77700433D01*
X33284509Y-77694616D01*
X33255268Y-77688800D01*
X31515772Y-77688800D01*
X31486530Y-77694616D01*
X31457287Y-77700433D01*
X31390969Y-77744747D01*
X31390967Y-77744749D01*
X31346653Y-77811067D01*
X31335020Y-77869553D01*
X30786020Y-77869553D01*
X30786020Y-76839300D01*
X38030387Y-76839300D01*
X38048822Y-76967523D01*
X38048822Y-76967524D01*
X38048823Y-76967526D01*
X38102638Y-77085363D01*
X38141946Y-77130728D01*
X38160020Y-77179186D01*
X38160020Y-80189413D01*
X38141946Y-80237872D01*
X38102639Y-80283235D01*
X38102638Y-80283236D01*
X38048822Y-80401076D01*
X38030387Y-80529300D01*
X38048822Y-80657523D01*
X38048822Y-80657524D01*
X38048823Y-80657526D01*
X38102638Y-80775363D01*
X38187471Y-80873267D01*
X38296451Y-80943304D01*
X38420748Y-80979800D01*
X38550292Y-80979800D01*
X38674589Y-80943304D01*
X38783569Y-80873267D01*
X38868402Y-80775363D01*
X38922217Y-80657526D01*
X38940653Y-80529300D01*
X38922217Y-80401074D01*
X38868402Y-80283237D01*
X38829094Y-80237872D01*
X38811020Y-80189413D01*
X38811020Y-79800049D01*
X42026969Y-79800049D01*
X42026969Y-79858549D01*
X42029266Y-79874520D01*
X42030019Y-79885051D01*
X42030019Y-80273547D01*
X42029266Y-80284077D01*
X42026969Y-80300048D01*
X42026969Y-80358548D01*
X42029266Y-80374520D01*
X42030019Y-80385052D01*
X42030019Y-80829300D01*
X42033713Y-80862087D01*
X42035171Y-80875028D01*
X42035171Y-80875030D01*
X42074851Y-80957425D01*
X42074854Y-80957428D01*
X42146351Y-81014446D01*
X42146354Y-81014447D01*
X42146356Y-81014449D01*
X42235519Y-81034800D01*
X42235523Y-81034800D01*
X42807402Y-81034800D01*
X42807408Y-81034800D01*
X42865304Y-81026476D01*
X43003259Y-80985969D01*
X43056464Y-80961671D01*
X43177418Y-80883939D01*
X43221624Y-80845634D01*
X43279101Y-80779301D01*
X54379838Y-80779301D01*
X54400475Y-80936061D01*
X54400475Y-80936062D01*
X54460984Y-81082142D01*
X54557235Y-81207580D01*
X54557240Y-81207585D01*
X54585870Y-81229553D01*
X54682679Y-81303837D01*
X54828758Y-81364345D01*
X54985520Y-81384983D01*
X55142282Y-81364345D01*
X55288361Y-81303837D01*
X55413802Y-81207583D01*
X55510056Y-81082142D01*
X55570564Y-80936063D01*
X55591202Y-80779301D01*
X55570564Y-80622539D01*
X55510056Y-80476460D01*
X55452212Y-80401076D01*
X55413804Y-80351021D01*
X55413799Y-80351016D01*
X55288361Y-80254765D01*
X55142281Y-80194256D01*
X54985520Y-80173619D01*
X54828759Y-80194256D01*
X54828758Y-80194256D01*
X54682678Y-80254765D01*
X54557240Y-80351016D01*
X54557235Y-80351021D01*
X54460984Y-80476459D01*
X54400475Y-80622539D01*
X54400475Y-80622540D01*
X54379838Y-80779301D01*
X43279101Y-80779301D01*
X43315778Y-80736973D01*
X43347400Y-80687768D01*
X43407128Y-80556983D01*
X43423607Y-80500861D01*
X43444069Y-80358546D01*
X43444069Y-80300055D01*
X43441772Y-80284077D01*
X43441019Y-80273547D01*
X43441019Y-79885051D01*
X43441772Y-79874520D01*
X43444068Y-79858549D01*
X43444069Y-79858545D01*
X43444069Y-79800054D01*
X43436773Y-79749309D01*
X43436020Y-79738778D01*
X43436020Y-79362883D01*
X43442707Y-79332142D01*
X43444005Y-79329300D01*
X43472217Y-79267526D01*
X43490653Y-79139300D01*
X43472217Y-79011074D01*
X43418402Y-78893237D01*
X43333569Y-78795333D01*
X43266552Y-78752264D01*
X43224588Y-78725295D01*
X43100292Y-78688800D01*
X42970748Y-78688800D01*
X42846451Y-78725295D01*
X42737474Y-78795331D01*
X42737470Y-78795334D01*
X42652639Y-78893235D01*
X42598822Y-79011076D01*
X42591741Y-79060331D01*
X42562841Y-79109040D01*
X42518494Y-79123800D01*
X42235519Y-79123800D01*
X42201223Y-79127664D01*
X42189790Y-79128952D01*
X42189788Y-79128952D01*
X42107393Y-79168632D01*
X42107390Y-79168635D01*
X42050372Y-79240132D01*
X42050371Y-79240134D01*
X42050370Y-79240136D01*
X42050370Y-79240137D01*
X42030019Y-79329300D01*
X42030019Y-79329303D01*
X42030019Y-79773547D01*
X42029266Y-79784078D01*
X42026969Y-79800049D01*
X38811020Y-79800049D01*
X38811020Y-77179186D01*
X38829093Y-77130728D01*
X38868402Y-77085363D01*
X38922217Y-76967526D01*
X38940653Y-76839300D01*
X38922217Y-76711074D01*
X38868402Y-76593237D01*
X38783569Y-76495333D01*
X38716552Y-76452264D01*
X38674588Y-76425295D01*
X38550292Y-76388800D01*
X38420748Y-76388800D01*
X38296451Y-76425295D01*
X38187474Y-76495331D01*
X38187470Y-76495334D01*
X38102639Y-76593235D01*
X38048822Y-76711076D01*
X38030387Y-76839300D01*
X30786020Y-76839300D01*
X30786020Y-73659300D01*
X31329937Y-73659300D01*
X31349320Y-73856102D01*
X31350220Y-73865234D01*
X31410288Y-74063254D01*
X31507835Y-74245750D01*
X31639110Y-74405710D01*
X31799070Y-74536985D01*
X31981566Y-74634532D01*
X32179586Y-74694600D01*
X32385520Y-74714883D01*
X32591454Y-74694600D01*
X32789474Y-74634532D01*
X32892805Y-74579300D01*
X38700445Y-74579300D01*
X38712563Y-74694600D01*
X38718694Y-74752927D01*
X38772639Y-74918952D01*
X38859927Y-75070142D01*
X38859930Y-75070145D01*
X38976748Y-75199884D01*
X39117975Y-75302492D01*
X39117982Y-75302496D01*
X39277468Y-75373504D01*
X39448231Y-75409800D01*
X39448232Y-75409800D01*
X39622808Y-75409800D01*
X39622809Y-75409800D01*
X39793572Y-75373504D01*
X39953058Y-75302496D01*
X39993816Y-75272884D01*
X40094291Y-75199884D01*
X40094290Y-75199884D01*
X40094294Y-75199882D01*
X40211110Y-75070145D01*
X40298399Y-74918956D01*
X40352347Y-74752922D01*
X40370595Y-74579300D01*
X43780444Y-74579300D01*
X43792562Y-74694600D01*
X43798693Y-74752927D01*
X43852638Y-74918952D01*
X43939926Y-75070142D01*
X43939929Y-75070145D01*
X44056747Y-75199884D01*
X44197974Y-75302492D01*
X44197981Y-75302496D01*
X44357467Y-75373504D01*
X44528230Y-75409800D01*
X44528231Y-75409800D01*
X44702807Y-75409800D01*
X44702808Y-75409800D01*
X44873571Y-75373504D01*
X45033057Y-75302496D01*
X45073815Y-75272884D01*
X45174290Y-75199884D01*
X45174289Y-75199884D01*
X45174293Y-75199882D01*
X45291109Y-75070145D01*
X45378398Y-74918956D01*
X45432346Y-74752922D01*
X45450594Y-74579300D01*
X45432346Y-74405678D01*
X45378398Y-74239644D01*
X45337888Y-74169479D01*
X45291111Y-74088457D01*
X45291108Y-74088454D01*
X45174290Y-73958715D01*
X45033063Y-73856107D01*
X45033056Y-73856103D01*
X44873572Y-73785096D01*
X44873570Y-73785095D01*
X44739103Y-73756514D01*
X44702808Y-73748800D01*
X44528230Y-73748800D01*
X44498297Y-73755162D01*
X44357467Y-73785095D01*
X44357465Y-73785096D01*
X44197983Y-73856102D01*
X44197978Y-73856105D01*
X44056745Y-73958717D01*
X43939929Y-74088454D01*
X43939926Y-74088457D01*
X43852638Y-74239647D01*
X43798693Y-74405672D01*
X43798692Y-74405676D01*
X43798692Y-74405678D01*
X43780444Y-74579300D01*
X40370595Y-74579300D01*
X40352347Y-74405678D01*
X40298399Y-74239644D01*
X40257889Y-74169479D01*
X40211112Y-74088457D01*
X40211109Y-74088454D01*
X40094291Y-73958715D01*
X39953064Y-73856107D01*
X39953057Y-73856103D01*
X39793573Y-73785096D01*
X39793571Y-73785095D01*
X39659104Y-73756514D01*
X39622809Y-73748800D01*
X39448231Y-73748800D01*
X39418298Y-73755162D01*
X39277468Y-73785095D01*
X39277466Y-73785096D01*
X39117984Y-73856102D01*
X39117979Y-73856105D01*
X38976746Y-73958717D01*
X38859930Y-74088454D01*
X38859927Y-74088457D01*
X38772639Y-74239647D01*
X38718694Y-74405672D01*
X38718693Y-74405676D01*
X38718693Y-74405678D01*
X38700445Y-74579300D01*
X32892805Y-74579300D01*
X32971970Y-74536985D01*
X33131930Y-74405710D01*
X33263205Y-74245750D01*
X33360752Y-74063254D01*
X33420820Y-73865234D01*
X33441103Y-73659300D01*
X33420820Y-73453366D01*
X33360752Y-73255346D01*
X33263205Y-73072850D01*
X33131930Y-72912890D01*
X33122056Y-72904787D01*
X32971970Y-72781615D01*
X32789476Y-72684069D01*
X32789475Y-72684068D01*
X32789474Y-72684068D01*
X32644668Y-72640142D01*
X32591455Y-72624000D01*
X32385520Y-72603717D01*
X32179584Y-72624000D01*
X31981563Y-72684069D01*
X31799069Y-72781615D01*
X31639110Y-72912889D01*
X31639109Y-72912890D01*
X31507835Y-73072849D01*
X31410289Y-73255343D01*
X31350220Y-73453364D01*
X31329937Y-73659300D01*
X30786020Y-73659300D01*
X30786020Y-70249553D01*
X31335020Y-70249553D01*
X31335020Y-71989046D01*
X31346653Y-72047532D01*
X31356367Y-72062069D01*
X31390968Y-72113852D01*
X31424782Y-72136446D01*
X31457287Y-72158166D01*
X31457288Y-72158166D01*
X31457289Y-72158167D01*
X31515772Y-72169800D01*
X31515774Y-72169800D01*
X33255266Y-72169800D01*
X33255268Y-72169800D01*
X33313751Y-72158167D01*
X33380072Y-72113852D01*
X33424387Y-72047531D01*
X33426024Y-72039300D01*
X41240444Y-72039300D01*
X41251073Y-72140434D01*
X41258693Y-72212927D01*
X41312638Y-72378952D01*
X41399926Y-72530142D01*
X41399929Y-72530145D01*
X41516747Y-72659884D01*
X41657974Y-72762492D01*
X41657981Y-72762496D01*
X41817467Y-72833504D01*
X41988230Y-72869800D01*
X41988231Y-72869800D01*
X42162807Y-72869800D01*
X42162808Y-72869800D01*
X42333571Y-72833504D01*
X42493057Y-72762496D01*
X42634293Y-72659882D01*
X42751109Y-72530145D01*
X42760428Y-72514005D01*
X42765938Y-72504458D01*
X42838398Y-72378956D01*
X42892346Y-72212922D01*
X42910594Y-72039300D01*
X42892346Y-71865678D01*
X42838398Y-71699644D01*
X42773418Y-71587095D01*
X42751111Y-71548457D01*
X42751108Y-71548454D01*
X42687045Y-71477305D01*
X42634293Y-71418718D01*
X42634292Y-71418717D01*
X42634290Y-71418715D01*
X42493063Y-71316107D01*
X42493056Y-71316103D01*
X42333572Y-71245096D01*
X42333570Y-71245095D01*
X42199103Y-71216514D01*
X42162808Y-71208800D01*
X41988230Y-71208800D01*
X41958297Y-71215162D01*
X41817467Y-71245095D01*
X41817465Y-71245096D01*
X41657983Y-71316102D01*
X41657978Y-71316105D01*
X41516745Y-71418717D01*
X41399929Y-71548454D01*
X41399926Y-71548457D01*
X41312638Y-71699647D01*
X41258693Y-71865672D01*
X41258692Y-71865676D01*
X41258692Y-71865678D01*
X41240444Y-72039300D01*
X33426024Y-72039300D01*
X33436020Y-71989048D01*
X33436020Y-70249552D01*
X33424387Y-70191069D01*
X33380072Y-70124748D01*
X33357863Y-70109908D01*
X33313752Y-70080433D01*
X33313753Y-70080433D01*
X33284509Y-70074616D01*
X33255268Y-70068800D01*
X31515772Y-70068800D01*
X31486530Y-70074616D01*
X31457287Y-70080433D01*
X31390969Y-70124747D01*
X31390967Y-70124749D01*
X31346653Y-70191067D01*
X31335020Y-70249553D01*
X30786020Y-70249553D01*
X30786020Y-65144510D01*
X31235520Y-65144510D01*
X31235520Y-65889300D01*
X31908075Y-65889300D01*
X31885520Y-65973474D01*
X31885520Y-66105126D01*
X31908075Y-66189300D01*
X31235521Y-66189300D01*
X31235521Y-66934092D01*
X31238428Y-66959168D01*
X31238430Y-66959174D01*
X31283733Y-67061778D01*
X31363041Y-67141086D01*
X31465644Y-67186389D01*
X31465643Y-67186389D01*
X31490730Y-67189299D01*
X32235520Y-67189299D01*
X32235520Y-66516745D01*
X32319694Y-66539300D01*
X32451346Y-66539300D01*
X32535520Y-66516745D01*
X32535520Y-67189299D01*
X33280312Y-67189299D01*
X33305388Y-67186391D01*
X33305394Y-67186389D01*
X33407998Y-67141086D01*
X33487306Y-67061778D01*
X33532609Y-66959175D01*
X33535520Y-66934089D01*
X33535520Y-66189300D01*
X32862965Y-66189300D01*
X32885520Y-66105126D01*
X32885520Y-65973474D01*
X32862965Y-65889300D01*
X33535519Y-65889300D01*
X33535519Y-65144507D01*
X33532611Y-65119431D01*
X33532609Y-65119425D01*
X33487306Y-65016821D01*
X33407998Y-64937513D01*
X33305395Y-64892210D01*
X33305396Y-64892210D01*
X33280309Y-64889300D01*
X32535520Y-64889300D01*
X32535520Y-65561854D01*
X32451346Y-65539300D01*
X32319694Y-65539300D01*
X32235520Y-65561854D01*
X32235520Y-64889300D01*
X31490727Y-64889300D01*
X31465651Y-64892208D01*
X31465645Y-64892210D01*
X31363041Y-64937513D01*
X31283733Y-65016821D01*
X31238430Y-65119424D01*
X31235520Y-65144510D01*
X30786020Y-65144510D01*
X30786020Y-64793459D01*
X30786485Y-64785174D01*
X30790086Y-64753212D01*
X30800118Y-64664177D01*
X30803803Y-64648035D01*
X30842636Y-64537060D01*
X30849825Y-64522132D01*
X30888016Y-64461353D01*
X30912376Y-64422583D01*
X30922702Y-64409634D01*
X31005850Y-64326488D01*
X31018782Y-64316175D01*
X31118352Y-64253612D01*
X31133262Y-64246432D01*
X31244250Y-64207599D01*
X31260390Y-64203915D01*
X31381562Y-64190265D01*
X31389845Y-64189800D01*
X31443095Y-64189801D01*
X31443098Y-64189800D01*
X36406745Y-64189800D01*
X36459071Y-64211474D01*
G37*
%TD.AperFunction*%
%TA.AperFunction,Conductor*%
G36*
X47210957Y-64961474D02*
G01*
X47232631Y-65013800D01*
X47210957Y-65066126D01*
X47193516Y-65079060D01*
X47145825Y-65104553D01*
X47039069Y-65161615D01*
X46879110Y-65292889D01*
X46879109Y-65292890D01*
X46747835Y-65452849D01*
X46650289Y-65635343D01*
X46590220Y-65833364D01*
X46569937Y-66039300D01*
X46590220Y-66245235D01*
X46650289Y-66443256D01*
X46683412Y-66505225D01*
X46747835Y-66625750D01*
X46879110Y-66785710D01*
X47039070Y-66916985D01*
X47221566Y-67014532D01*
X47419586Y-67074600D01*
X47625520Y-67094883D01*
X47831454Y-67074600D01*
X48029474Y-67014532D01*
X48211970Y-66916985D01*
X48371930Y-66785710D01*
X48503205Y-66625750D01*
X48600752Y-66443254D01*
X48660820Y-66245234D01*
X48681103Y-66039300D01*
X48660820Y-65833366D01*
X48600752Y-65635346D01*
X48503205Y-65452850D01*
X48371930Y-65292890D01*
X48352186Y-65276687D01*
X48211970Y-65161615D01*
X48133050Y-65119431D01*
X48057524Y-65079061D01*
X48021595Y-65035281D01*
X48027147Y-64978916D01*
X48070928Y-64942986D01*
X48092409Y-64939800D01*
X49698632Y-64939800D01*
X49750958Y-64961474D01*
X49772632Y-65013800D01*
X49750958Y-65066126D01*
X49733517Y-65079060D01*
X49685826Y-65104553D01*
X49579070Y-65161615D01*
X49419111Y-65292889D01*
X49419110Y-65292890D01*
X49287836Y-65452849D01*
X49190290Y-65635343D01*
X49130221Y-65833364D01*
X49109938Y-66039300D01*
X49130221Y-66245235D01*
X49190290Y-66443256D01*
X49223413Y-66505225D01*
X49287836Y-66625750D01*
X49419111Y-66785710D01*
X49579071Y-66916985D01*
X49761567Y-67014532D01*
X49959587Y-67074600D01*
X50165521Y-67094883D01*
X50371455Y-67074600D01*
X50569475Y-67014532D01*
X50751971Y-66916985D01*
X50911931Y-66785710D01*
X51043206Y-66625750D01*
X51140753Y-66443254D01*
X51200821Y-66245234D01*
X51221104Y-66039300D01*
X51200821Y-65833366D01*
X51140753Y-65635346D01*
X51043206Y-65452850D01*
X50911931Y-65292890D01*
X50892187Y-65276687D01*
X50751971Y-65161615D01*
X50673051Y-65119431D01*
X50597525Y-65079061D01*
X50561596Y-65035281D01*
X50567148Y-64978916D01*
X50610929Y-64942986D01*
X50632410Y-64939800D01*
X52238631Y-64939800D01*
X52290957Y-64961474D01*
X52312631Y-65013800D01*
X52290957Y-65066126D01*
X52273516Y-65079060D01*
X52225825Y-65104553D01*
X52119069Y-65161615D01*
X51959110Y-65292889D01*
X51959109Y-65292890D01*
X51827835Y-65452849D01*
X51730289Y-65635343D01*
X51670220Y-65833364D01*
X51649937Y-66039300D01*
X51670220Y-66245235D01*
X51730289Y-66443256D01*
X51763412Y-66505225D01*
X51827835Y-66625750D01*
X51959110Y-66785710D01*
X52119070Y-66916985D01*
X52301566Y-67014532D01*
X52499586Y-67074600D01*
X52705520Y-67094883D01*
X52911454Y-67074600D01*
X53109474Y-67014532D01*
X53291970Y-66916985D01*
X53451930Y-66785710D01*
X53583205Y-66625750D01*
X53680752Y-66443254D01*
X53740820Y-66245234D01*
X53761103Y-66039300D01*
X53740820Y-65833366D01*
X53680752Y-65635346D01*
X53583205Y-65452850D01*
X53451930Y-65292890D01*
X53432186Y-65276687D01*
X53291970Y-65161615D01*
X53213050Y-65119431D01*
X53137524Y-65079061D01*
X53101595Y-65035281D01*
X53107147Y-64978916D01*
X53150928Y-64942986D01*
X53172409Y-64939800D01*
X54778631Y-64939800D01*
X54830957Y-64961474D01*
X54852631Y-65013800D01*
X54830957Y-65066126D01*
X54813516Y-65079060D01*
X54765825Y-65104553D01*
X54659069Y-65161615D01*
X54499110Y-65292889D01*
X54499109Y-65292890D01*
X54367835Y-65452849D01*
X54270289Y-65635343D01*
X54210220Y-65833364D01*
X54189937Y-66039300D01*
X54210220Y-66245235D01*
X54270289Y-66443256D01*
X54303412Y-66505225D01*
X54367835Y-66625750D01*
X54499110Y-66785710D01*
X54659070Y-66916985D01*
X54841566Y-67014532D01*
X55039586Y-67074600D01*
X55245520Y-67094883D01*
X55451454Y-67074600D01*
X55649474Y-67014532D01*
X55831970Y-66916985D01*
X55991930Y-66785710D01*
X56123205Y-66625750D01*
X56220752Y-66443254D01*
X56280820Y-66245234D01*
X56301103Y-66039300D01*
X56280820Y-65833366D01*
X56220752Y-65635346D01*
X56123205Y-65452850D01*
X55991930Y-65292890D01*
X55972186Y-65276687D01*
X55831970Y-65161615D01*
X55753050Y-65119431D01*
X55677524Y-65079061D01*
X55641595Y-65035281D01*
X55647147Y-64978916D01*
X55690928Y-64942986D01*
X55712409Y-64939800D01*
X57318631Y-64939800D01*
X57370957Y-64961474D01*
X57392631Y-65013800D01*
X57370957Y-65066126D01*
X57353516Y-65079060D01*
X57305825Y-65104553D01*
X57199069Y-65161615D01*
X57039110Y-65292889D01*
X57039109Y-65292890D01*
X56907835Y-65452849D01*
X56810289Y-65635343D01*
X56750220Y-65833364D01*
X56750220Y-65833366D01*
X56729937Y-66039300D01*
X56750220Y-66245234D01*
X56810288Y-66443254D01*
X56810289Y-66443255D01*
X56810290Y-66443258D01*
X56823063Y-66467155D01*
X56828615Y-66523519D01*
X56810127Y-66554364D01*
X56363645Y-67000846D01*
X56360628Y-67003698D01*
X56136464Y-67204021D01*
X56129976Y-67209195D01*
X55886487Y-67381958D01*
X55879461Y-67386373D01*
X55618153Y-67530791D01*
X55610677Y-67534391D01*
X55334849Y-67648643D01*
X55327016Y-67651384D01*
X55040123Y-67734037D01*
X55032033Y-67735883D01*
X54737708Y-67785892D01*
X54729462Y-67786822D01*
X54429249Y-67803684D01*
X54425099Y-67803800D01*
X54328673Y-67803800D01*
X54328338Y-67803822D01*
X54156577Y-67803822D01*
X53718659Y-67838284D01*
X53284796Y-67906999D01*
X53284771Y-67907004D01*
X52857669Y-68009541D01*
X52857641Y-68009549D01*
X52439895Y-68145281D01*
X52439855Y-68145296D01*
X52034052Y-68313382D01*
X52034046Y-68313385D01*
X51642640Y-68512813D01*
X51268094Y-68742333D01*
X51268074Y-68742347D01*
X50912714Y-69000527D01*
X50912702Y-69000537D01*
X50578688Y-69285808D01*
X50455131Y-69409362D01*
X50455123Y-69409370D01*
X49959591Y-69904901D01*
X49959572Y-69904909D01*
X49812946Y-70051535D01*
X49720532Y-70161671D01*
X49609302Y-70294232D01*
X49583252Y-70325277D01*
X49378295Y-70617986D01*
X49378290Y-70617995D01*
X49199628Y-70927450D01*
X49121772Y-71094414D01*
X49048606Y-71251318D01*
X49048606Y-71251320D01*
X48926400Y-71587079D01*
X48926396Y-71587092D01*
X48842674Y-71899553D01*
X48833911Y-71932257D01*
X48813586Y-72047531D01*
X48806818Y-72085913D01*
X48776387Y-72133680D01*
X48721092Y-72145939D01*
X48673325Y-72115508D01*
X48661067Y-72085916D01*
X48643562Y-71986636D01*
X48546161Y-71623127D01*
X48546160Y-71623124D01*
X48546156Y-71623111D01*
X48417450Y-71269492D01*
X48408976Y-71251320D01*
X48258406Y-70928416D01*
X48070240Y-70602502D01*
X48070238Y-70602498D01*
X48070237Y-70602497D01*
X47912565Y-70377317D01*
X47854386Y-70294228D01*
X47612485Y-70005939D01*
X47513953Y-69907407D01*
X47513951Y-69907404D01*
X46043947Y-68437400D01*
X46041096Y-68434384D01*
X46035803Y-68428461D01*
X45884143Y-68258754D01*
X45878971Y-68252269D01*
X45839345Y-68196421D01*
X45743879Y-68061872D01*
X45739465Y-68054847D01*
X45728496Y-68035000D01*
X45626532Y-67850509D01*
X45622935Y-67843037D01*
X45620967Y-67838285D01*
X45533597Y-67627350D01*
X45530862Y-67619536D01*
X45466232Y-67395192D01*
X45464386Y-67387105D01*
X45463920Y-67384365D01*
X45425283Y-67156946D01*
X45424355Y-67148702D01*
X45421299Y-67094276D01*
X45440006Y-67040819D01*
X45473702Y-67019316D01*
X45489474Y-67014532D01*
X45671970Y-66916985D01*
X45831930Y-66785710D01*
X45963205Y-66625750D01*
X46060752Y-66443254D01*
X46120820Y-66245234D01*
X46141103Y-66039300D01*
X46120820Y-65833366D01*
X46060752Y-65635346D01*
X45963205Y-65452850D01*
X45831930Y-65292890D01*
X45812186Y-65276687D01*
X45671970Y-65161615D01*
X45593050Y-65119431D01*
X45517524Y-65079061D01*
X45481595Y-65035281D01*
X45487147Y-64978916D01*
X45530928Y-64942986D01*
X45552409Y-64939800D01*
X47158631Y-64939800D01*
X47210957Y-64961474D01*
G37*
%TD.AperFunction*%
%TD*%
M02*
