%TF.GenerationSoftware,KiCad,Pcbnew,8.0.6*%
%TF.CreationDate,2024-12-17T20:27:32+00:00*%
%TF.ProjectId,003-UART-1602,3030332d-5541-4525-942d-313630322e6b,MkI*%
%TF.SameCoordinates,Original*%
%TF.FileFunction,Legend,Bot*%
%TF.FilePolarity,Positive*%
%FSLAX46Y46*%
G04 Gerber Fmt 4.6, Leading zero omitted, Abs format (unit mm)*
G04 Created by KiCad (PCBNEW 8.0.6) date 2024-12-17 20:27:32*
%MOMM*%
%LPD*%
G01*
G04 APERTURE LIST*
%ADD10C,0.150000*%
%ADD11C,0.000000*%
%ADD12C,0.100000*%
%ADD13C,0.120000*%
G04 APERTURE END LIST*
D10*
G36*
X54727351Y-65123532D02*
G01*
X54778167Y-65134042D01*
X54813258Y-65146793D01*
X54858973Y-65172297D01*
X54898479Y-65205943D01*
X54914619Y-65224218D01*
X54943161Y-65265548D01*
X54966139Y-65313336D01*
X54978367Y-65348782D01*
X54989959Y-65397005D01*
X54997257Y-65449475D01*
X55000155Y-65500327D01*
X55000348Y-65518042D01*
X55000348Y-65752271D01*
X54998610Y-65804289D01*
X54993393Y-65852907D01*
X54983519Y-65902938D01*
X54978367Y-65921775D01*
X54960916Y-65969687D01*
X54936547Y-66015568D01*
X54914619Y-66045607D01*
X54880536Y-66080652D01*
X54837798Y-66110478D01*
X54812281Y-66123032D01*
X54764654Y-66138659D01*
X54712630Y-66147074D01*
X54675505Y-66148677D01*
X54624632Y-66145589D01*
X54573742Y-66135176D01*
X54538729Y-66122543D01*
X54493214Y-66097238D01*
X54453906Y-66063790D01*
X54437857Y-66045607D01*
X54409613Y-66004723D01*
X54386795Y-65957175D01*
X54374598Y-65921775D01*
X54363006Y-65873423D01*
X54355708Y-65820873D01*
X54352810Y-65769988D01*
X54352616Y-65752271D01*
X54352616Y-65598154D01*
X54480355Y-65598154D01*
X54480355Y-65637721D01*
X54480355Y-65779138D01*
X54482451Y-65831562D01*
X54489449Y-65882231D01*
X54495254Y-65906877D01*
X54512696Y-65953202D01*
X54541416Y-65994804D01*
X54580421Y-66024335D01*
X54598569Y-66032662D01*
X54646910Y-66044077D01*
X54675505Y-66045607D01*
X54726105Y-66040452D01*
X54749755Y-66033639D01*
X54793719Y-66009230D01*
X54805931Y-65998224D01*
X54836356Y-65957955D01*
X54847208Y-65935453D01*
X54861977Y-65888802D01*
X54869190Y-65847281D01*
X54480355Y-65549794D01*
X54480355Y-65598154D01*
X54352616Y-65598154D01*
X54352616Y-65518042D01*
X54354355Y-65466043D01*
X54358592Y-65428161D01*
X54483042Y-65428161D01*
X54872609Y-65726870D01*
X54872609Y-65691943D01*
X54872609Y-65657505D01*
X54872609Y-65489954D01*
X54870652Y-65439751D01*
X54864112Y-65390713D01*
X54858688Y-65366612D01*
X54840858Y-65318251D01*
X54815701Y-65279661D01*
X54777489Y-65248943D01*
X54756838Y-65238872D01*
X54709287Y-65226699D01*
X54676727Y-65224706D01*
X54627642Y-65229356D01*
X54598325Y-65237896D01*
X54554849Y-65263317D01*
X54540928Y-65276974D01*
X54512529Y-65317904D01*
X54502826Y-65340478D01*
X54489017Y-65389770D01*
X54483042Y-65428161D01*
X54358592Y-65428161D01*
X54360366Y-65412300D01*
X54370670Y-65362803D01*
X54374598Y-65348782D01*
X54391991Y-65300784D01*
X54416165Y-65254610D01*
X54437857Y-65224218D01*
X54474815Y-65186814D01*
X54517819Y-65157552D01*
X54539706Y-65146793D01*
X54587139Y-65130719D01*
X54639312Y-65122063D01*
X54676727Y-65120415D01*
X54727351Y-65123532D01*
G37*
G36*
X53887156Y-65123532D02*
G01*
X53937971Y-65134042D01*
X53973063Y-65146793D01*
X54018777Y-65172297D01*
X54058284Y-65205943D01*
X54074424Y-65224218D01*
X54102966Y-65265548D01*
X54125944Y-65313336D01*
X54138171Y-65348782D01*
X54149763Y-65397005D01*
X54157062Y-65449475D01*
X54159960Y-65500327D01*
X54160153Y-65518042D01*
X54160153Y-65752271D01*
X54158414Y-65804289D01*
X54153198Y-65852907D01*
X54143323Y-65902938D01*
X54138171Y-65921775D01*
X54120721Y-65969687D01*
X54096352Y-66015568D01*
X54074424Y-66045607D01*
X54040340Y-66080652D01*
X53997603Y-66110478D01*
X53972086Y-66123032D01*
X53924459Y-66138659D01*
X53872435Y-66147074D01*
X53835310Y-66148677D01*
X53784436Y-66145589D01*
X53733546Y-66135176D01*
X53698534Y-66122543D01*
X53653018Y-66097238D01*
X53613710Y-66063790D01*
X53597662Y-66045607D01*
X53569417Y-66004723D01*
X53546600Y-65957175D01*
X53534403Y-65921775D01*
X53522811Y-65873423D01*
X53515512Y-65820873D01*
X53512614Y-65769988D01*
X53512421Y-65752271D01*
X53512421Y-65598154D01*
X53640160Y-65598154D01*
X53640160Y-65637721D01*
X53640160Y-65779138D01*
X53642255Y-65831562D01*
X53649254Y-65882231D01*
X53655059Y-65906877D01*
X53672500Y-65953202D01*
X53701221Y-65994804D01*
X53740226Y-66024335D01*
X53758374Y-66032662D01*
X53806714Y-66044077D01*
X53835310Y-66045607D01*
X53885910Y-66040452D01*
X53909560Y-66033639D01*
X53953524Y-66009230D01*
X53965736Y-65998224D01*
X53996160Y-65957955D01*
X54007013Y-65935453D01*
X54021782Y-65888802D01*
X54028995Y-65847281D01*
X53640160Y-65549794D01*
X53640160Y-65598154D01*
X53512421Y-65598154D01*
X53512421Y-65518042D01*
X53514160Y-65466043D01*
X53518396Y-65428161D01*
X53642847Y-65428161D01*
X54032414Y-65726870D01*
X54032414Y-65691943D01*
X54032414Y-65657505D01*
X54032414Y-65489954D01*
X54030456Y-65439751D01*
X54023917Y-65390713D01*
X54018492Y-65366612D01*
X54000662Y-65318251D01*
X53975505Y-65279661D01*
X53937294Y-65248943D01*
X53916643Y-65238872D01*
X53869092Y-65226699D01*
X53836531Y-65224706D01*
X53787447Y-65229356D01*
X53758129Y-65237896D01*
X53714653Y-65263317D01*
X53700732Y-65276974D01*
X53672333Y-65317904D01*
X53662630Y-65340478D01*
X53648822Y-65389770D01*
X53642847Y-65428161D01*
X53518396Y-65428161D01*
X53520170Y-65412300D01*
X53530474Y-65362803D01*
X53534403Y-65348782D01*
X53551795Y-65300784D01*
X53575970Y-65254610D01*
X53597662Y-65224218D01*
X53634619Y-65186814D01*
X53677624Y-65157552D01*
X53699511Y-65146793D01*
X53746944Y-65130719D01*
X53799116Y-65122063D01*
X53836531Y-65120415D01*
X53887156Y-65123532D01*
G37*
G36*
X53151674Y-65573729D02*
G01*
X53151674Y-65676800D01*
X53061060Y-65676800D01*
X53010227Y-65680278D01*
X52974110Y-65687791D01*
X52927121Y-65707265D01*
X52906454Y-65721496D01*
X52873314Y-65759953D01*
X52863712Y-65778161D01*
X52850279Y-65825559D01*
X52848080Y-65858761D01*
X52852331Y-65908048D01*
X52861514Y-65940826D01*
X52886628Y-65984878D01*
X52899616Y-65998956D01*
X52940502Y-66026479D01*
X52959455Y-66033883D01*
X53008873Y-66043791D01*
X53037613Y-66045118D01*
X53088599Y-66040252D01*
X53116259Y-66032662D01*
X53161617Y-66009456D01*
X53176343Y-65997491D01*
X53207255Y-65958290D01*
X53214689Y-65942780D01*
X53226590Y-65894998D01*
X53227878Y-65871217D01*
X53355129Y-65871217D01*
X53350977Y-65922420D01*
X53337219Y-65972241D01*
X53329972Y-65988698D01*
X53304640Y-66030753D01*
X53270132Y-66069067D01*
X53262316Y-66075893D01*
X53222138Y-66103822D01*
X53175976Y-66125207D01*
X53161688Y-66130115D01*
X53113168Y-66142133D01*
X53062068Y-66148025D01*
X53037613Y-66148677D01*
X52988509Y-66145929D01*
X52938181Y-66136751D01*
X52912316Y-66129138D01*
X52864445Y-66108534D01*
X52822557Y-66080919D01*
X52811688Y-66071741D01*
X52778055Y-66035984D01*
X52751528Y-65993682D01*
X52745254Y-65980394D01*
X52729599Y-65933718D01*
X52721924Y-65881803D01*
X52721074Y-65856074D01*
X52725112Y-65806317D01*
X52728890Y-65786709D01*
X52745062Y-65740186D01*
X52756001Y-65720031D01*
X52787757Y-65681307D01*
X52808757Y-65663122D01*
X52850480Y-65637560D01*
X52890090Y-65621845D01*
X52845991Y-65598529D01*
X52820481Y-65579103D01*
X52786641Y-65543545D01*
X52772609Y-65523660D01*
X52750261Y-65479330D01*
X52745254Y-65464064D01*
X52736535Y-65414949D01*
X52736217Y-65403981D01*
X52739308Y-65354293D01*
X52749634Y-65305735D01*
X52758199Y-65281859D01*
X52782725Y-65235981D01*
X52815086Y-65197724D01*
X52819993Y-65193199D01*
X52860804Y-65163632D01*
X52905190Y-65143009D01*
X52915491Y-65139466D01*
X52966295Y-65126943D01*
X53017572Y-65121595D01*
X53038346Y-65121147D01*
X53088583Y-65124204D01*
X53138977Y-65134415D01*
X53164375Y-65142885D01*
X53210871Y-65164684D01*
X53251196Y-65192466D01*
X53261584Y-65201503D01*
X53295623Y-65239610D01*
X53321719Y-65283406D01*
X53324598Y-65289675D01*
X53340552Y-65338469D01*
X53346738Y-65390053D01*
X53346824Y-65397142D01*
X53219085Y-65397142D01*
X53212967Y-65346987D01*
X53206140Y-65326556D01*
X53180174Y-65284012D01*
X53168771Y-65272090D01*
X53128334Y-65244292D01*
X53112351Y-65237651D01*
X53062994Y-65226632D01*
X53038346Y-65225439D01*
X52989554Y-65229637D01*
X52963852Y-65236186D01*
X52919272Y-65259304D01*
X52909141Y-65268182D01*
X52880507Y-65309386D01*
X52874947Y-65323381D01*
X52864609Y-65371922D01*
X52863224Y-65401294D01*
X52869457Y-65450462D01*
X52876413Y-65470903D01*
X52902424Y-65513081D01*
X52914026Y-65524881D01*
X52956471Y-65552612D01*
X52976308Y-65560785D01*
X53026588Y-65571909D01*
X53061060Y-65573729D01*
X53151674Y-65573729D01*
G37*
G36*
X51904082Y-65749584D02*
G01*
X51904082Y-65645293D01*
X52429692Y-65645293D01*
X52429692Y-65749584D01*
X51904082Y-65749584D01*
G37*
G36*
X50991835Y-65134825D02*
G01*
X51114689Y-65134825D01*
X51116887Y-65812110D01*
X51122048Y-65861312D01*
X51131297Y-65898084D01*
X51150889Y-65943538D01*
X51169155Y-65970868D01*
X51205486Y-66006016D01*
X51231681Y-66022159D01*
X51279696Y-66037862D01*
X51317411Y-66040966D01*
X51366072Y-66035520D01*
X51403628Y-66021671D01*
X51445474Y-65992781D01*
X51465910Y-65970868D01*
X51492987Y-65927553D01*
X51504745Y-65898084D01*
X51516015Y-65847862D01*
X51518667Y-65812110D01*
X51521353Y-65134825D01*
X51642254Y-65134825D01*
X51643719Y-65812110D01*
X51639906Y-65863482D01*
X51629568Y-65912448D01*
X51619050Y-65943757D01*
X51596381Y-65990948D01*
X51567665Y-66032897D01*
X51552372Y-66050491D01*
X51514980Y-66084534D01*
X51471865Y-66112047D01*
X51450034Y-66122543D01*
X51403334Y-66138469D01*
X51352994Y-66147044D01*
X51317411Y-66148677D01*
X51265536Y-66144968D01*
X51216889Y-66133839D01*
X51186252Y-66122299D01*
X51140374Y-66097601D01*
X51099977Y-66066374D01*
X51083182Y-66049759D01*
X51051120Y-66010426D01*
X51025185Y-65965853D01*
X51015282Y-65943513D01*
X51000101Y-65896298D01*
X50991926Y-65846610D01*
X50990369Y-65812110D01*
X50991835Y-65134825D01*
G37*
G36*
X50843335Y-66135000D02*
G01*
X50716329Y-66135000D01*
X50635973Y-65876102D01*
X50302093Y-65876102D01*
X50222958Y-66135000D01*
X50096685Y-66135000D01*
X50213909Y-65765460D01*
X50335799Y-65765460D01*
X50601535Y-65765460D01*
X50467690Y-65331196D01*
X50335799Y-65765460D01*
X50213909Y-65765460D01*
X50413956Y-65134825D01*
X50520446Y-65134825D01*
X50843335Y-66135000D01*
G37*
G36*
X49934508Y-66135000D02*
G01*
X49807990Y-66135000D01*
X49807990Y-65726870D01*
X49608199Y-65726870D01*
X49411828Y-66135000D01*
X49277739Y-66135000D01*
X49277006Y-66126695D01*
X49489253Y-65699515D01*
X49445177Y-65677060D01*
X49413782Y-65656284D01*
X49376331Y-65623450D01*
X49354675Y-65597909D01*
X49329170Y-65556085D01*
X49316085Y-65524392D01*
X49304630Y-65476153D01*
X49301919Y-65435000D01*
X49302011Y-65433534D01*
X49429658Y-65433534D01*
X49435513Y-65483693D01*
X49446266Y-65513646D01*
X49474308Y-65556370D01*
X49490718Y-65572508D01*
X49532437Y-65599085D01*
X49557397Y-65609145D01*
X49606531Y-65620345D01*
X49637752Y-65622578D01*
X49807990Y-65622578D01*
X49807990Y-65239117D01*
X49641172Y-65239117D01*
X49591756Y-65243650D01*
X49556420Y-65252306D01*
X49509972Y-65273599D01*
X49489253Y-65288698D01*
X49456520Y-65328043D01*
X49445533Y-65349515D01*
X49432278Y-65396573D01*
X49429658Y-65433534D01*
X49302011Y-65433534D01*
X49305036Y-65385422D01*
X49315546Y-65336604D01*
X49328297Y-65303597D01*
X49352994Y-65261098D01*
X49386894Y-65222363D01*
X49400837Y-65210296D01*
X49444554Y-65181412D01*
X49490340Y-65161037D01*
X49509281Y-65154853D01*
X49556794Y-65143335D01*
X49606642Y-65136626D01*
X49641172Y-65134825D01*
X49934508Y-65134825D01*
X49934508Y-66135000D01*
G37*
G36*
X48424598Y-65243269D02*
G01*
X48424598Y-65134825D01*
X49166364Y-65134825D01*
X49166364Y-65243269D01*
X48857397Y-65243269D01*
X48857397Y-66135000D01*
X48733565Y-66135000D01*
X48733565Y-65243269D01*
X48424598Y-65243269D01*
G37*
G36*
X47703105Y-65749584D02*
G01*
X47703105Y-65645293D01*
X48228715Y-65645293D01*
X48228715Y-65749584D01*
X47703105Y-65749584D01*
G37*
G36*
X47006524Y-66135000D02*
G01*
X47006524Y-65134825D01*
X47016782Y-65134825D01*
X47395359Y-65280394D01*
X47395359Y-65396653D01*
X47133531Y-65297002D01*
X47133531Y-66135000D01*
X47006524Y-66135000D01*
G37*
G36*
X46173091Y-65135970D02*
G01*
X46222444Y-65141603D01*
X46274571Y-65152428D01*
X46312630Y-65164134D01*
X46358157Y-65183214D01*
X46404029Y-65209851D01*
X46444939Y-65242214D01*
X46456245Y-65253039D01*
X46491159Y-65292228D01*
X46520673Y-65334784D01*
X46544787Y-65380705D01*
X46563502Y-65429993D01*
X46571772Y-65459668D01*
X46583192Y-65512761D01*
X46591808Y-65566250D01*
X46597618Y-65620138D01*
X46600623Y-65674422D01*
X46601081Y-65705621D01*
X46601081Y-65765460D01*
X46598484Y-65815470D01*
X46590691Y-65865423D01*
X46579099Y-65910785D01*
X46561332Y-65958381D01*
X46538253Y-66001764D01*
X46512665Y-66037547D01*
X46477097Y-66074610D01*
X46435482Y-66105626D01*
X46414235Y-66117903D01*
X46367844Y-66136656D01*
X46316233Y-66146754D01*
X46278925Y-66148677D01*
X46228699Y-66145531D01*
X46178845Y-66134924D01*
X46144836Y-66122055D01*
X46100749Y-66096960D01*
X46062951Y-66065336D01*
X46047627Y-66048538D01*
X46018942Y-66008451D01*
X45996787Y-65963205D01*
X45988764Y-65940582D01*
X45976857Y-65893069D01*
X45970446Y-65843221D01*
X45969441Y-65814797D01*
X46094277Y-65814797D01*
X46097655Y-65865409D01*
X46106245Y-65906632D01*
X46124504Y-65952590D01*
X46141660Y-65979173D01*
X46177599Y-66013133D01*
X46200034Y-66026556D01*
X46246994Y-66041248D01*
X46278925Y-66043653D01*
X46328102Y-66035869D01*
X46352686Y-66025579D01*
X46393101Y-65996098D01*
X46414235Y-65972090D01*
X46440983Y-65927696D01*
X46456978Y-65886116D01*
X46467663Y-65838431D01*
X46472228Y-65789130D01*
X46472609Y-65768879D01*
X46472609Y-65726381D01*
X46450719Y-65681914D01*
X46441346Y-65668496D01*
X46406326Y-65632283D01*
X46395184Y-65623799D01*
X46351816Y-65600096D01*
X46338764Y-65595223D01*
X46290250Y-65585223D01*
X46276238Y-65584720D01*
X46225758Y-65591523D01*
X46195882Y-65604016D01*
X46155836Y-65634915D01*
X46138974Y-65655551D01*
X46115160Y-65699476D01*
X46105268Y-65729312D01*
X46096091Y-65779480D01*
X46094277Y-65814797D01*
X45969441Y-65814797D01*
X45969225Y-65808691D01*
X45971966Y-65759402D01*
X45980189Y-65710757D01*
X45985833Y-65688524D01*
X46003705Y-65639189D01*
X46028683Y-65594624D01*
X46037124Y-65582766D01*
X46071545Y-65545287D01*
X46113259Y-65514913D01*
X46126517Y-65507540D01*
X46173999Y-65489038D01*
X46223910Y-65480331D01*
X46255722Y-65478963D01*
X46305364Y-65483497D01*
X46321179Y-65487023D01*
X46369079Y-65503110D01*
X46379309Y-65507784D01*
X46421181Y-65533073D01*
X46430111Y-65539780D01*
X46466843Y-65574027D01*
X46471388Y-65579347D01*
X46465732Y-65530369D01*
X46454993Y-65482352D01*
X46445010Y-65450875D01*
X46423326Y-65402894D01*
X46394790Y-65360557D01*
X46379309Y-65342920D01*
X46342183Y-65310697D01*
X46297883Y-65284279D01*
X46275017Y-65274043D01*
X46228265Y-65259304D01*
X46174991Y-65250682D01*
X46120900Y-65248154D01*
X46109909Y-65248154D01*
X46109909Y-65134092D01*
X46120900Y-65134092D01*
X46173091Y-65135970D01*
G37*
G36*
X45485202Y-65123532D02*
G01*
X45536018Y-65134042D01*
X45571109Y-65146793D01*
X45616823Y-65172297D01*
X45656330Y-65205943D01*
X45672470Y-65224218D01*
X45701012Y-65265548D01*
X45723990Y-65313336D01*
X45736217Y-65348782D01*
X45747809Y-65397005D01*
X45755108Y-65449475D01*
X45758006Y-65500327D01*
X45758199Y-65518042D01*
X45758199Y-65752271D01*
X45756460Y-65804289D01*
X45751244Y-65852907D01*
X45741369Y-65902938D01*
X45736217Y-65921775D01*
X45718767Y-65969687D01*
X45694398Y-66015568D01*
X45672470Y-66045607D01*
X45638387Y-66080652D01*
X45595649Y-66110478D01*
X45570132Y-66123032D01*
X45522505Y-66138659D01*
X45470481Y-66147074D01*
X45433356Y-66148677D01*
X45382483Y-66145589D01*
X45331592Y-66135176D01*
X45296580Y-66122543D01*
X45251064Y-66097238D01*
X45211756Y-66063790D01*
X45195708Y-66045607D01*
X45167463Y-66004723D01*
X45144646Y-65957175D01*
X45132449Y-65921775D01*
X45120857Y-65873423D01*
X45113558Y-65820873D01*
X45110660Y-65769988D01*
X45110467Y-65752271D01*
X45110467Y-65598154D01*
X45238206Y-65598154D01*
X45238206Y-65637721D01*
X45238206Y-65779138D01*
X45240301Y-65831562D01*
X45247300Y-65882231D01*
X45253105Y-65906877D01*
X45270547Y-65953202D01*
X45299267Y-65994804D01*
X45338272Y-66024335D01*
X45356420Y-66032662D01*
X45404760Y-66044077D01*
X45433356Y-66045607D01*
X45483956Y-66040452D01*
X45507606Y-66033639D01*
X45551570Y-66009230D01*
X45563782Y-65998224D01*
X45594206Y-65957955D01*
X45605059Y-65935453D01*
X45619828Y-65888802D01*
X45627041Y-65847281D01*
X45238206Y-65549794D01*
X45238206Y-65598154D01*
X45110467Y-65598154D01*
X45110467Y-65518042D01*
X45112206Y-65466043D01*
X45116443Y-65428161D01*
X45240893Y-65428161D01*
X45630460Y-65726870D01*
X45630460Y-65691943D01*
X45630460Y-65657505D01*
X45630460Y-65489954D01*
X45628502Y-65439751D01*
X45621963Y-65390713D01*
X45616538Y-65366612D01*
X45598709Y-65318251D01*
X45573551Y-65279661D01*
X45535340Y-65248943D01*
X45514689Y-65238872D01*
X45467138Y-65226699D01*
X45434577Y-65224706D01*
X45385493Y-65229356D01*
X45356175Y-65237896D01*
X45312699Y-65263317D01*
X45298778Y-65276974D01*
X45270379Y-65317904D01*
X45260676Y-65340478D01*
X45246868Y-65389770D01*
X45240893Y-65428161D01*
X45116443Y-65428161D01*
X45118217Y-65412300D01*
X45128521Y-65362803D01*
X45132449Y-65348782D01*
X45149841Y-65300784D01*
X45174016Y-65254610D01*
X45195708Y-65224218D01*
X45232666Y-65186814D01*
X45275670Y-65157552D01*
X45297557Y-65146793D01*
X45344990Y-65130719D01*
X45397162Y-65122063D01*
X45434577Y-65120415D01*
X45485202Y-65123532D01*
G37*
G36*
X44284682Y-66135000D02*
G01*
X44284682Y-66031196D01*
X44786845Y-66031196D01*
X44518178Y-65740059D01*
X44483721Y-65701308D01*
X44450873Y-65662450D01*
X44446615Y-65657260D01*
X44416329Y-65618066D01*
X44387928Y-65575667D01*
X44386287Y-65572997D01*
X44362193Y-65527567D01*
X44345743Y-65487023D01*
X44333498Y-65437530D01*
X44330600Y-65398607D01*
X44334620Y-65347977D01*
X44347851Y-65297570D01*
X44351605Y-65287965D01*
X44375268Y-65243343D01*
X44406874Y-65204732D01*
X44411688Y-65200038D01*
X44452364Y-65168829D01*
X44497204Y-65146189D01*
X44507676Y-65142152D01*
X44556013Y-65128552D01*
X44604711Y-65122153D01*
X44634926Y-65121147D01*
X44685858Y-65124062D01*
X44736942Y-65133891D01*
X44772191Y-65145816D01*
X44817865Y-65168721D01*
X44860019Y-65199790D01*
X44873307Y-65212494D01*
X44906232Y-65251797D01*
X44931490Y-65296617D01*
X44937299Y-65310436D01*
X44952326Y-65360778D01*
X44958744Y-65410037D01*
X44959281Y-65429626D01*
X44831542Y-65429626D01*
X44827755Y-65379806D01*
X44819574Y-65345118D01*
X44798181Y-65300163D01*
X44782693Y-65280394D01*
X44743778Y-65250001D01*
X44722121Y-65239849D01*
X44673589Y-65227817D01*
X44634926Y-65225439D01*
X44584647Y-65231540D01*
X44561165Y-65239605D01*
X44519038Y-65265016D01*
X44505233Y-65277707D01*
X44477206Y-65318557D01*
X44470551Y-65334371D01*
X44459530Y-65383564D01*
X44458583Y-65403981D01*
X44463973Y-65453871D01*
X44466154Y-65462843D01*
X44484163Y-65509283D01*
X44491556Y-65522927D01*
X44518422Y-65565421D01*
X44538939Y-65593025D01*
X44572095Y-65633569D01*
X44604339Y-65670468D01*
X44612456Y-65679487D01*
X44939986Y-66043653D01*
X44939986Y-66135000D01*
X44284682Y-66135000D01*
G37*
G36*
X54568283Y-67815000D02*
G01*
X54568283Y-66814825D01*
X54578541Y-66814825D01*
X54957117Y-66960394D01*
X54957117Y-67076653D01*
X54695289Y-66977002D01*
X54695289Y-67815000D01*
X54568283Y-67815000D01*
G37*
G36*
X53506803Y-66886144D02*
G01*
X53506803Y-66814825D01*
X54182868Y-66814825D01*
X54182868Y-66926200D01*
X53641625Y-66926200D01*
X54054396Y-67815000D01*
X53921039Y-67815000D01*
X53506803Y-66886144D01*
G37*
G36*
X52472923Y-67815000D02*
G01*
X52241381Y-67815000D01*
X52188751Y-67812252D01*
X52138937Y-67805108D01*
X52107292Y-67797903D01*
X52058784Y-67782070D01*
X52011233Y-67759791D01*
X51995429Y-67750519D01*
X51953680Y-67720130D01*
X51915902Y-67684373D01*
X51911165Y-67679200D01*
X51880517Y-67640619D01*
X51854825Y-67598390D01*
X51848394Y-67585655D01*
X51829601Y-67540449D01*
X51815109Y-67491595D01*
X51811758Y-67476967D01*
X51803535Y-67427814D01*
X51799504Y-67376404D01*
X51799057Y-67351915D01*
X51799057Y-67278398D01*
X51799114Y-67277177D01*
X51926064Y-67277177D01*
X51926064Y-67351915D01*
X51928820Y-67402611D01*
X51933635Y-67440331D01*
X51944253Y-67488441D01*
X51954396Y-67518977D01*
X51974244Y-67564055D01*
X51997138Y-67599822D01*
X52030807Y-67636658D01*
X52061374Y-67660394D01*
X52106584Y-67685147D01*
X52141486Y-67697519D01*
X52192062Y-67707826D01*
X52241381Y-67711196D01*
X52343719Y-67711196D01*
X52343719Y-66919117D01*
X52241381Y-66919117D01*
X52190471Y-66922878D01*
X52154187Y-66929863D01*
X52107380Y-66945434D01*
X52082135Y-66957707D01*
X52040247Y-66985368D01*
X52005443Y-67020478D01*
X51977355Y-67061632D01*
X51955617Y-67107428D01*
X51940466Y-67156124D01*
X51934124Y-67187540D01*
X51927967Y-67237059D01*
X51926064Y-67277177D01*
X51799114Y-67277177D01*
X51801393Y-67228092D01*
X51807954Y-67176229D01*
X51813224Y-67149438D01*
X51825995Y-67101835D01*
X51844348Y-67054177D01*
X51852058Y-67038063D01*
X51875803Y-66995175D01*
X51907573Y-66953210D01*
X51927285Y-66932550D01*
X51964448Y-66900768D01*
X52005595Y-66873932D01*
X52035240Y-66858789D01*
X52081219Y-66840593D01*
X52131228Y-66827037D01*
X52181220Y-66818637D01*
X52230494Y-66815057D01*
X52241381Y-66814825D01*
X52472923Y-66814825D01*
X52472923Y-67815000D01*
G37*
G36*
X51359196Y-67062404D02*
G01*
X51409540Y-67075343D01*
X51432449Y-67084225D01*
X51476172Y-67106871D01*
X51516117Y-67135974D01*
X51540648Y-67158963D01*
X51574022Y-67199172D01*
X51599847Y-67241340D01*
X51617585Y-67279619D01*
X51633994Y-67330705D01*
X51643000Y-67381004D01*
X51646377Y-67434976D01*
X51646406Y-67440575D01*
X51646406Y-67469396D01*
X51643346Y-67521408D01*
X51634169Y-67570650D01*
X51620516Y-67613011D01*
X51597996Y-67659963D01*
X51569637Y-67701900D01*
X51547487Y-67727072D01*
X51509855Y-67760171D01*
X51466933Y-67787293D01*
X51435380Y-67802055D01*
X51388709Y-67817212D01*
X51339037Y-67826077D01*
X51291277Y-67828677D01*
X51239222Y-67825960D01*
X51185843Y-67816407D01*
X51137951Y-67799977D01*
X51109071Y-67785202D01*
X51066420Y-67756637D01*
X51027822Y-67722350D01*
X50997941Y-67685062D01*
X51075610Y-67624734D01*
X51109797Y-67661072D01*
X51150810Y-67690584D01*
X51163782Y-67697763D01*
X51212842Y-67716463D01*
X51263589Y-67724450D01*
X51284438Y-67725118D01*
X51333775Y-67720294D01*
X51378715Y-67705823D01*
X51422662Y-67679556D01*
X51451500Y-67652822D01*
X51481913Y-67611963D01*
X51497662Y-67580038D01*
X51512190Y-67532528D01*
X51519399Y-67484539D01*
X51519399Y-67479654D01*
X50988415Y-67479654D01*
X50988415Y-67422745D01*
X50990724Y-67370675D01*
X50990923Y-67369256D01*
X51115422Y-67369256D01*
X51115422Y-67375362D01*
X51515247Y-67375362D01*
X51504867Y-67326880D01*
X51488869Y-67284504D01*
X51463318Y-67241737D01*
X51442463Y-67217337D01*
X51403399Y-67187650D01*
X51380669Y-67176549D01*
X51331470Y-67163766D01*
X51307885Y-67162383D01*
X51257181Y-67168024D01*
X51223621Y-67180212D01*
X51182398Y-67208347D01*
X51165003Y-67226863D01*
X51138751Y-67269533D01*
X51128611Y-67295495D01*
X51116980Y-67345003D01*
X51115422Y-67369256D01*
X50990923Y-67369256D01*
X50997651Y-67321261D01*
X51007955Y-67278642D01*
X51025460Y-67231038D01*
X51050858Y-67184893D01*
X51067306Y-67162383D01*
X51103039Y-67126200D01*
X51145544Y-67097031D01*
X51167445Y-67085935D01*
X51215359Y-67068967D01*
X51264288Y-67060293D01*
X51307885Y-67058091D01*
X51359196Y-67062404D01*
G37*
G36*
X50462805Y-67725607D02*
G01*
X50514611Y-67720401D01*
X50560407Y-67703373D01*
X50562944Y-67701915D01*
X50602907Y-67670625D01*
X50626936Y-67639877D01*
X50650283Y-67594196D01*
X50662351Y-67554392D01*
X50670737Y-67503253D01*
X50673098Y-67457672D01*
X50673098Y-67428852D01*
X50670065Y-67377935D01*
X50662351Y-67333353D01*
X50647004Y-67285559D01*
X50626936Y-67247623D01*
X50594315Y-67209516D01*
X50562212Y-67186074D01*
X50514085Y-67167588D01*
X50462805Y-67162383D01*
X50412503Y-67168617D01*
X50391242Y-67175572D01*
X50347936Y-67199227D01*
X50333600Y-67211231D01*
X50302313Y-67251046D01*
X50295743Y-67263743D01*
X50282050Y-67310638D01*
X50280844Y-67327247D01*
X50160676Y-67327247D01*
X50165667Y-67275909D01*
X50180640Y-67227684D01*
X50183391Y-67221489D01*
X50208267Y-67177905D01*
X50240764Y-67140116D01*
X50245673Y-67135516D01*
X50286957Y-67105359D01*
X50331396Y-67083119D01*
X50341660Y-67079096D01*
X50392016Y-67064737D01*
X50442459Y-67058604D01*
X50462805Y-67058091D01*
X50513547Y-67061049D01*
X50564570Y-67071134D01*
X50610572Y-67088377D01*
X50654879Y-67113828D01*
X50693278Y-67145118D01*
X50715596Y-67169221D01*
X50744516Y-67210105D01*
X50767528Y-67255454D01*
X50779588Y-67288168D01*
X50792536Y-67339436D01*
X50799156Y-67388001D01*
X50800837Y-67428852D01*
X50800837Y-67457672D01*
X50798326Y-67507882D01*
X50790793Y-67556418D01*
X50779588Y-67599089D01*
X50760514Y-67647014D01*
X50735532Y-67690405D01*
X50715596Y-67716814D01*
X50681135Y-67752477D01*
X50640766Y-67782164D01*
X50610572Y-67798635D01*
X50564570Y-67815739D01*
X50513547Y-67825743D01*
X50462805Y-67828677D01*
X50412021Y-67824797D01*
X50363108Y-67813156D01*
X50349476Y-67808405D01*
X50304369Y-67788002D01*
X50261229Y-67760228D01*
X50253244Y-67753939D01*
X50217739Y-67719871D01*
X50187910Y-67678090D01*
X50186322Y-67675293D01*
X50167332Y-67629070D01*
X50160676Y-67580771D01*
X50280844Y-67580771D01*
X50292513Y-67629747D01*
X50296964Y-67638168D01*
X50328579Y-67676356D01*
X50337752Y-67683841D01*
X50379976Y-67708571D01*
X50395882Y-67714616D01*
X50445708Y-67724920D01*
X50462805Y-67725607D01*
G37*
G36*
X48485659Y-67815000D02*
G01*
X48485659Y-67711196D01*
X48987822Y-67711196D01*
X48719155Y-67420059D01*
X48684698Y-67381308D01*
X48651850Y-67342450D01*
X48647592Y-67337260D01*
X48617306Y-67298066D01*
X48588905Y-67255667D01*
X48587264Y-67252997D01*
X48563170Y-67207567D01*
X48546720Y-67167023D01*
X48534475Y-67117530D01*
X48531577Y-67078607D01*
X48535597Y-67027977D01*
X48548828Y-66977570D01*
X48552581Y-66967965D01*
X48576245Y-66923343D01*
X48607851Y-66884732D01*
X48612665Y-66880038D01*
X48653341Y-66848829D01*
X48698181Y-66826189D01*
X48708653Y-66822152D01*
X48756990Y-66808552D01*
X48805688Y-66802153D01*
X48835903Y-66801147D01*
X48886835Y-66804062D01*
X48937919Y-66813891D01*
X48973168Y-66825816D01*
X49018842Y-66848721D01*
X49060996Y-66879790D01*
X49074284Y-66892494D01*
X49107209Y-66931797D01*
X49132467Y-66976617D01*
X49138276Y-66990436D01*
X49153303Y-67040778D01*
X49159721Y-67090037D01*
X49160258Y-67109626D01*
X49032519Y-67109626D01*
X49028732Y-67059806D01*
X49020551Y-67025118D01*
X48999158Y-66980163D01*
X48983670Y-66960394D01*
X48944755Y-66930001D01*
X48923098Y-66919849D01*
X48874566Y-66907817D01*
X48835903Y-66905439D01*
X48785624Y-66911540D01*
X48762142Y-66919605D01*
X48720015Y-66945016D01*
X48706210Y-66957707D01*
X48678183Y-66998557D01*
X48671528Y-67014371D01*
X48660507Y-67063564D01*
X48659560Y-67083981D01*
X48664950Y-67133871D01*
X48667131Y-67142843D01*
X48685140Y-67189283D01*
X48692533Y-67202927D01*
X48719399Y-67245421D01*
X48739916Y-67273025D01*
X48773072Y-67313569D01*
X48805316Y-67350468D01*
X48813433Y-67359487D01*
X49140963Y-67723653D01*
X49140963Y-67815000D01*
X48485659Y-67815000D01*
G37*
G36*
X48005788Y-66803532D02*
G01*
X48056604Y-66814042D01*
X48091695Y-66826793D01*
X48137409Y-66852297D01*
X48176916Y-66885943D01*
X48193056Y-66904218D01*
X48221598Y-66945548D01*
X48244576Y-66993336D01*
X48256803Y-67028782D01*
X48268395Y-67077005D01*
X48275694Y-67129475D01*
X48278592Y-67180327D01*
X48278785Y-67198042D01*
X48278785Y-67432271D01*
X48277046Y-67484289D01*
X48271830Y-67532907D01*
X48261955Y-67582938D01*
X48256803Y-67601775D01*
X48239353Y-67649687D01*
X48214984Y-67695568D01*
X48193056Y-67725607D01*
X48158973Y-67760652D01*
X48116235Y-67790478D01*
X48090718Y-67803032D01*
X48043091Y-67818659D01*
X47991067Y-67827074D01*
X47953942Y-67828677D01*
X47903069Y-67825589D01*
X47852178Y-67815176D01*
X47817166Y-67802543D01*
X47771651Y-67777238D01*
X47732342Y-67743790D01*
X47716294Y-67725607D01*
X47688050Y-67684723D01*
X47665232Y-67637175D01*
X47653035Y-67601775D01*
X47641443Y-67553423D01*
X47634144Y-67500873D01*
X47631246Y-67449988D01*
X47631053Y-67432271D01*
X47631053Y-67278154D01*
X47758792Y-67278154D01*
X47758792Y-67317721D01*
X47758792Y-67459138D01*
X47760887Y-67511562D01*
X47767886Y-67562231D01*
X47773691Y-67586877D01*
X47791133Y-67633202D01*
X47819853Y-67674804D01*
X47858858Y-67704335D01*
X47877006Y-67712662D01*
X47925347Y-67724077D01*
X47953942Y-67725607D01*
X48004542Y-67720452D01*
X48028192Y-67713639D01*
X48072156Y-67689230D01*
X48084368Y-67678224D01*
X48114792Y-67637955D01*
X48125645Y-67615453D01*
X48140414Y-67568802D01*
X48147627Y-67527281D01*
X47758792Y-67229794D01*
X47758792Y-67278154D01*
X47631053Y-67278154D01*
X47631053Y-67198042D01*
X47632792Y-67146043D01*
X47637029Y-67108161D01*
X47761479Y-67108161D01*
X48151046Y-67406870D01*
X48151046Y-67371943D01*
X48151046Y-67337505D01*
X48151046Y-67169954D01*
X48149088Y-67119751D01*
X48142549Y-67070713D01*
X48137124Y-67046612D01*
X48119295Y-66998251D01*
X48094138Y-66959661D01*
X48055926Y-66928943D01*
X48035275Y-66918872D01*
X47987724Y-66906699D01*
X47955163Y-66904706D01*
X47906079Y-66909356D01*
X47876762Y-66917896D01*
X47833286Y-66943317D01*
X47819364Y-66956974D01*
X47790966Y-66997904D01*
X47781263Y-67020478D01*
X47767454Y-67069770D01*
X47761479Y-67108161D01*
X47637029Y-67108161D01*
X47638803Y-67092300D01*
X47649107Y-67042803D01*
X47653035Y-67028782D01*
X47670428Y-66980784D01*
X47694602Y-66934610D01*
X47716294Y-66904218D01*
X47753252Y-66866814D01*
X47796256Y-66837552D01*
X47818143Y-66826793D01*
X47865576Y-66810719D01*
X47917749Y-66802063D01*
X47955163Y-66800415D01*
X48005788Y-66803532D01*
G37*
G36*
X46805268Y-67815000D02*
G01*
X46805268Y-67711196D01*
X47307431Y-67711196D01*
X47038764Y-67420059D01*
X47004307Y-67381308D01*
X46971459Y-67342450D01*
X46967201Y-67337260D01*
X46936915Y-67298066D01*
X46908514Y-67255667D01*
X46906873Y-67252997D01*
X46882779Y-67207567D01*
X46866329Y-67167023D01*
X46854084Y-67117530D01*
X46851186Y-67078607D01*
X46855206Y-67027977D01*
X46868437Y-66977570D01*
X46872191Y-66967965D01*
X46895854Y-66923343D01*
X46927460Y-66884732D01*
X46932274Y-66880038D01*
X46972950Y-66848829D01*
X47017790Y-66826189D01*
X47028262Y-66822152D01*
X47076599Y-66808552D01*
X47125297Y-66802153D01*
X47155512Y-66801147D01*
X47206444Y-66804062D01*
X47257529Y-66813891D01*
X47292777Y-66825816D01*
X47338451Y-66848721D01*
X47380606Y-66879790D01*
X47393893Y-66892494D01*
X47426819Y-66931797D01*
X47452077Y-66976617D01*
X47457885Y-66990436D01*
X47472912Y-67040778D01*
X47479330Y-67090037D01*
X47479867Y-67109626D01*
X47352128Y-67109626D01*
X47348341Y-67059806D01*
X47340160Y-67025118D01*
X47318767Y-66980163D01*
X47303279Y-66960394D01*
X47264365Y-66930001D01*
X47242707Y-66919849D01*
X47194176Y-66907817D01*
X47155512Y-66905439D01*
X47105233Y-66911540D01*
X47081751Y-66919605D01*
X47039625Y-66945016D01*
X47025819Y-66957707D01*
X46997793Y-66998557D01*
X46991137Y-67014371D01*
X46980116Y-67063564D01*
X46979169Y-67083981D01*
X46984559Y-67133871D01*
X46986741Y-67142843D01*
X47004749Y-67189283D01*
X47012142Y-67202927D01*
X47039009Y-67245421D01*
X47059525Y-67273025D01*
X47092681Y-67313569D01*
X47124926Y-67350468D01*
X47133042Y-67359487D01*
X47460572Y-67723653D01*
X47460572Y-67815000D01*
X46805268Y-67815000D01*
G37*
G36*
X46646510Y-67507986D02*
G01*
X46646510Y-67582725D01*
X46190509Y-67582725D01*
X46190509Y-67815000D01*
X46063258Y-67815000D01*
X46063258Y-67582725D01*
X45923796Y-67582725D01*
X45923796Y-67479166D01*
X46063258Y-67479166D01*
X46190509Y-67479166D01*
X46505582Y-67479166D01*
X46211025Y-67022187D01*
X46190509Y-66983841D01*
X46190509Y-67479166D01*
X46063258Y-67479166D01*
X46063258Y-66814825D01*
X46198569Y-66814825D01*
X46646510Y-67507986D01*
G37*
G36*
X54841102Y-68494825D02*
G01*
X54998394Y-68494825D01*
X54998394Y-69495000D01*
X54874563Y-69495000D01*
X54874563Y-69095907D01*
X54885066Y-68692662D01*
X54715317Y-69216807D01*
X54642533Y-69216807D01*
X54457641Y-68678251D01*
X54467899Y-69095907D01*
X54467899Y-69495000D01*
X54344312Y-69495000D01*
X54344312Y-68494825D01*
X54502337Y-68494825D01*
X54678192Y-68994790D01*
X54841102Y-68494825D01*
G37*
G36*
X53917620Y-69148175D02*
G01*
X53645045Y-69495000D01*
X53483600Y-69495000D01*
X53830425Y-69061468D01*
X53529518Y-68751769D01*
X53684124Y-68751769D01*
X53928122Y-68996256D01*
X54011165Y-69085648D01*
X54011165Y-68439870D01*
X54138904Y-68439870D01*
X54138904Y-69495000D01*
X54011165Y-69495000D01*
X54011165Y-69238056D01*
X53917620Y-69148175D01*
G37*
G36*
X53300174Y-68494825D02*
G01*
X53300174Y-68605467D01*
X53065945Y-68605467D01*
X53065945Y-69385090D01*
X53300174Y-69385090D01*
X53300174Y-69495000D01*
X52695673Y-69495000D01*
X52695673Y-69385090D01*
X52935275Y-69385090D01*
X52935275Y-68605467D01*
X52695673Y-68605467D01*
X52695673Y-68494825D01*
X53300174Y-68494825D01*
G37*
D11*
G36*
X61485191Y-67262243D02*
G01*
X61484223Y-67279815D01*
X61482713Y-67296487D01*
X61480582Y-67312226D01*
X61477753Y-67327000D01*
X61474148Y-67340780D01*
X61469690Y-67353532D01*
X61467116Y-67359514D01*
X61464300Y-67365227D01*
X61461231Y-67370667D01*
X61457901Y-67375832D01*
X61454299Y-67380716D01*
X61450415Y-67385316D01*
X61446241Y-67389628D01*
X61441765Y-67393647D01*
X61436980Y-67397371D01*
X61431873Y-67400796D01*
X61426437Y-67403916D01*
X61420662Y-67406729D01*
X61414537Y-67409230D01*
X61408053Y-67411416D01*
X61401200Y-67413282D01*
X61393969Y-67414825D01*
X61386349Y-67416041D01*
X61378332Y-67416925D01*
X61369906Y-67417475D01*
X61361064Y-67417685D01*
X59758785Y-67421819D01*
X58922454Y-67417995D01*
X58902601Y-67417328D01*
X58881781Y-67415306D01*
X58860173Y-67411932D01*
X58837957Y-67407207D01*
X58815316Y-67401134D01*
X58792428Y-67393715D01*
X58769475Y-67384951D01*
X58746637Y-67374845D01*
X58724096Y-67363399D01*
X58702031Y-67350615D01*
X58680623Y-67336494D01*
X58660053Y-67321039D01*
X58640501Y-67304251D01*
X58622148Y-67286134D01*
X58605175Y-67266688D01*
X58589762Y-67245916D01*
X58576090Y-67223820D01*
X58564340Y-67200401D01*
X58554691Y-67175662D01*
X58547325Y-67149605D01*
X58542423Y-67122232D01*
X58540164Y-67093545D01*
X58540730Y-67063545D01*
X58542983Y-67043789D01*
X58868505Y-67043789D01*
X58869001Y-67051761D01*
X58870042Y-67059581D01*
X58871615Y-67067231D01*
X58873707Y-67074690D01*
X58876304Y-67081938D01*
X58879392Y-67088955D01*
X58882959Y-67095720D01*
X58886990Y-67102214D01*
X58891473Y-67108417D01*
X58896393Y-67114309D01*
X58901737Y-67119868D01*
X58907493Y-67125077D01*
X58913645Y-67129914D01*
X58920181Y-67134359D01*
X58927088Y-67138392D01*
X58934352Y-67141993D01*
X58941959Y-67145143D01*
X58949895Y-67147820D01*
X58958149Y-67150006D01*
X58966705Y-67151679D01*
X58975551Y-67152820D01*
X58984673Y-67153409D01*
X60632995Y-67147211D01*
X60627672Y-65676706D01*
X60323454Y-65673551D01*
X60251447Y-65674110D01*
X60218118Y-65675218D01*
X60186380Y-65677126D01*
X60156091Y-65680020D01*
X60127109Y-65684084D01*
X60099289Y-65689504D01*
X60072489Y-65696465D01*
X60046565Y-65705152D01*
X60021376Y-65715752D01*
X59996777Y-65728448D01*
X59972627Y-65743427D01*
X59948781Y-65760873D01*
X59925097Y-65780973D01*
X59901431Y-65803911D01*
X59877642Y-65829872D01*
X58896513Y-66960191D01*
X58890813Y-66968567D01*
X58885793Y-66976993D01*
X58881440Y-66985449D01*
X58877740Y-66993915D01*
X58874680Y-67002370D01*
X58872246Y-67010795D01*
X58870425Y-67019169D01*
X58869204Y-67027473D01*
X58868568Y-67035686D01*
X58868505Y-67043789D01*
X58542983Y-67043789D01*
X58544301Y-67032236D01*
X58551057Y-66999618D01*
X58561180Y-66965694D01*
X58574850Y-66930466D01*
X58592248Y-66893935D01*
X58613553Y-66856105D01*
X58638948Y-66816976D01*
X58668612Y-66776552D01*
X58702725Y-66734833D01*
X59636312Y-65692468D01*
X59692252Y-65631052D01*
X59717222Y-65603627D01*
X59741033Y-65578362D01*
X59764316Y-65555237D01*
X59787704Y-65534231D01*
X59799633Y-65524515D01*
X59811826Y-65515321D01*
X59824360Y-65506647D01*
X59837314Y-65498489D01*
X59850768Y-65490844D01*
X59864800Y-65483711D01*
X59879490Y-65477086D01*
X59894915Y-65470968D01*
X59911155Y-65465352D01*
X59928289Y-65460238D01*
X59946396Y-65455621D01*
X59965555Y-65451500D01*
X59985844Y-65447871D01*
X60007342Y-65444733D01*
X60030129Y-65442082D01*
X60054283Y-65439917D01*
X60079884Y-65438233D01*
X60107009Y-65437029D01*
X60166151Y-65436049D01*
X61462660Y-65435378D01*
X61464358Y-65435413D01*
X61465936Y-65435519D01*
X61467398Y-65435698D01*
X61468749Y-65435948D01*
X61469993Y-65436269D01*
X61471134Y-65436662D01*
X61472177Y-65437126D01*
X61473126Y-65437661D01*
X61473985Y-65438267D01*
X61474759Y-65438945D01*
X61475453Y-65439693D01*
X61476069Y-65440512D01*
X61476614Y-65441401D01*
X61477091Y-65442361D01*
X61477504Y-65443392D01*
X61477858Y-65444493D01*
X61478157Y-65445664D01*
X61478407Y-65446906D01*
X61478610Y-65448218D01*
X61478771Y-65449599D01*
X61478895Y-65451051D01*
X61478986Y-65452572D01*
X61479087Y-65455824D01*
X61479042Y-65471603D01*
X61484796Y-67147211D01*
X61485191Y-67262243D01*
G37*
G36*
X64564279Y-67207621D02*
G01*
X64568864Y-67213821D01*
X64573099Y-67219971D01*
X64576992Y-67226089D01*
X64580550Y-67232191D01*
X64583780Y-67238291D01*
X64586691Y-67244408D01*
X64589288Y-67250557D01*
X64591581Y-67256755D01*
X64593576Y-67263018D01*
X64595281Y-67269362D01*
X64596703Y-67275803D01*
X64597849Y-67282358D01*
X64598728Y-67289044D01*
X64599347Y-67295875D01*
X64599712Y-67302870D01*
X64599833Y-67310043D01*
X64599649Y-67318228D01*
X64599105Y-67326169D01*
X64598213Y-67333865D01*
X64596986Y-67341314D01*
X64595435Y-67348516D01*
X64593573Y-67355469D01*
X64591411Y-67362174D01*
X64588962Y-67368627D01*
X64586237Y-67374830D01*
X64583250Y-67380780D01*
X64580011Y-67386476D01*
X64576533Y-67391919D01*
X64572829Y-67397105D01*
X64568909Y-67402035D01*
X64564787Y-67406708D01*
X64560474Y-67411122D01*
X64555983Y-67415276D01*
X64551325Y-67419170D01*
X64546512Y-67422802D01*
X64541557Y-67426171D01*
X64536472Y-67429277D01*
X64531269Y-67432118D01*
X64525960Y-67434694D01*
X64520556Y-67437002D01*
X64515071Y-67439043D01*
X64509516Y-67440815D01*
X64503903Y-67442317D01*
X64498245Y-67443549D01*
X64492553Y-67444508D01*
X64486839Y-67445195D01*
X64481116Y-67445608D01*
X64475396Y-67445746D01*
X64468815Y-67445615D01*
X64462402Y-67445216D01*
X64456144Y-67444542D01*
X64450031Y-67443584D01*
X64444052Y-67442334D01*
X64438195Y-67440783D01*
X64432450Y-67438925D01*
X64426805Y-67436750D01*
X64421249Y-67434251D01*
X64415771Y-67431419D01*
X64410361Y-67428247D01*
X64405007Y-67424726D01*
X64399697Y-67420847D01*
X64394422Y-67416603D01*
X64389169Y-67411987D01*
X64383928Y-67406988D01*
X63738800Y-66698143D01*
X63736361Y-66695581D01*
X63733814Y-66693095D01*
X63731170Y-66690698D01*
X63728439Y-66688402D01*
X63725635Y-66686219D01*
X63722767Y-66684161D01*
X63719847Y-66682241D01*
X63716886Y-66680471D01*
X63713895Y-66678863D01*
X63710885Y-66677430D01*
X63707869Y-66676184D01*
X63704856Y-66675136D01*
X63701858Y-66674300D01*
X63698886Y-66673688D01*
X63695952Y-66673311D01*
X63694502Y-66673215D01*
X63693066Y-66673183D01*
X62522130Y-66673183D01*
X62520493Y-66673216D01*
X62518915Y-66673313D01*
X62517395Y-66673474D01*
X62515933Y-66673698D01*
X62514529Y-66673986D01*
X62513182Y-66674336D01*
X62511891Y-66674748D01*
X62510657Y-66675221D01*
X62509478Y-66675756D01*
X62508355Y-66676351D01*
X62507287Y-66677005D01*
X62506272Y-66677719D01*
X62505312Y-66678492D01*
X62504405Y-66679324D01*
X62503552Y-66680213D01*
X62502750Y-66681159D01*
X62502001Y-66682162D01*
X62501304Y-66683222D01*
X62500658Y-66684337D01*
X62500062Y-66685507D01*
X62499517Y-66686733D01*
X62499021Y-66688012D01*
X62498575Y-66689345D01*
X62498178Y-66690731D01*
X62497829Y-66692170D01*
X62497528Y-66693661D01*
X62497275Y-66695204D01*
X62497069Y-66696797D01*
X62496796Y-66700136D01*
X62496705Y-66703672D01*
X62496705Y-67384819D01*
X62496587Y-67387899D01*
X62496439Y-67389409D01*
X62496231Y-67390897D01*
X62495964Y-67392360D01*
X62495638Y-67393797D01*
X62495252Y-67395206D01*
X62494807Y-67396584D01*
X62494303Y-67397929D01*
X62493739Y-67399240D01*
X62493115Y-67400515D01*
X62492433Y-67401751D01*
X62491690Y-67402946D01*
X62490889Y-67404099D01*
X62490028Y-67405207D01*
X62489107Y-67406268D01*
X62488127Y-67407281D01*
X62487087Y-67408243D01*
X62485987Y-67409152D01*
X62484828Y-67410007D01*
X62483610Y-67410804D01*
X62482332Y-67411543D01*
X62480994Y-67412222D01*
X62479596Y-67412837D01*
X62478139Y-67413388D01*
X62476623Y-67413871D01*
X62475046Y-67414286D01*
X62473410Y-67414630D01*
X62471714Y-67414901D01*
X62469958Y-67415097D01*
X62468143Y-67415216D01*
X62466268Y-67415257D01*
X61780418Y-67415257D01*
X61771237Y-67414992D01*
X61762269Y-67414209D01*
X61753519Y-67412926D01*
X61744994Y-67411159D01*
X61736698Y-67408926D01*
X61728635Y-67406244D01*
X61720812Y-67403130D01*
X61713233Y-67399602D01*
X61705904Y-67395676D01*
X61698829Y-67391370D01*
X61692014Y-67386701D01*
X61685463Y-67381686D01*
X61679182Y-67376343D01*
X61673176Y-67370689D01*
X61667450Y-67364740D01*
X61662010Y-67358515D01*
X61656859Y-67352030D01*
X61652004Y-67345303D01*
X61647449Y-67338351D01*
X61643200Y-67331191D01*
X61639261Y-67323840D01*
X61635638Y-67316315D01*
X61632336Y-67308635D01*
X61629360Y-67300815D01*
X61626714Y-67292874D01*
X61624405Y-67284828D01*
X61622438Y-67276694D01*
X61620816Y-67268491D01*
X61619546Y-67260234D01*
X61618633Y-67251942D01*
X61618081Y-67243631D01*
X61617896Y-67235319D01*
X61617896Y-65776077D01*
X62496705Y-65776077D01*
X62496705Y-66429525D01*
X62496796Y-66434005D01*
X62497069Y-66438108D01*
X62497528Y-66441846D01*
X62498178Y-66445230D01*
X62498575Y-66446794D01*
X62499021Y-66448275D01*
X62499517Y-66449673D01*
X62500062Y-66450990D01*
X62500658Y-66452229D01*
X62501304Y-66453389D01*
X62502001Y-66454474D01*
X62502750Y-66455484D01*
X62503552Y-66456422D01*
X62504405Y-66457287D01*
X62505312Y-66458083D01*
X62506272Y-66458811D01*
X62507287Y-66459471D01*
X62508355Y-66460066D01*
X62509478Y-66460597D01*
X62510657Y-66461066D01*
X62511891Y-66461474D01*
X62513182Y-66461822D01*
X62515933Y-66462348D01*
X62518915Y-66462654D01*
X62522130Y-66462753D01*
X63124109Y-66462753D01*
X63128276Y-66462687D01*
X63132200Y-66462478D01*
X63135879Y-66462116D01*
X63139308Y-66461587D01*
X63142485Y-66460880D01*
X63145404Y-66459983D01*
X63146767Y-66459459D01*
X63148063Y-66458883D01*
X63149294Y-66458253D01*
X63150458Y-66457568D01*
X63151556Y-66456826D01*
X63152585Y-66456025D01*
X63153547Y-66455165D01*
X63154441Y-66454244D01*
X63155265Y-66453260D01*
X63156021Y-66452211D01*
X63156707Y-66451096D01*
X63157322Y-66449914D01*
X63157867Y-66448663D01*
X63158340Y-66447341D01*
X63158742Y-66445948D01*
X63159072Y-66444480D01*
X63159330Y-66442938D01*
X63159514Y-66441319D01*
X63159625Y-66439622D01*
X63159662Y-66437845D01*
X63159603Y-66435769D01*
X63159424Y-66433692D01*
X63159126Y-66431615D01*
X63158709Y-66429538D01*
X63158173Y-66427462D01*
X63157518Y-66425385D01*
X63156743Y-66423308D01*
X63155850Y-66421231D01*
X63154838Y-66419155D01*
X63153706Y-66417078D01*
X63152455Y-66415001D01*
X63151086Y-66412924D01*
X63149597Y-66410848D01*
X63147990Y-66408771D01*
X63146263Y-66406694D01*
X63144418Y-66404617D01*
X62542439Y-65748378D01*
X62541948Y-65747364D01*
X62541429Y-65746398D01*
X62540883Y-65745478D01*
X62540312Y-65744603D01*
X62539716Y-65743774D01*
X62539098Y-65742987D01*
X62538458Y-65742244D01*
X62537799Y-65741542D01*
X62537121Y-65740880D01*
X62536425Y-65740258D01*
X62535714Y-65739675D01*
X62534989Y-65739129D01*
X62534250Y-65738620D01*
X62533500Y-65738146D01*
X62532740Y-65737706D01*
X62531971Y-65737300D01*
X62531195Y-65736927D01*
X62530412Y-65736585D01*
X62528834Y-65735991D01*
X62527249Y-65735510D01*
X62525667Y-65735136D01*
X62524100Y-65734858D01*
X62522559Y-65734670D01*
X62521055Y-65734563D01*
X62519598Y-65734529D01*
X62518192Y-65734578D01*
X62516830Y-65734722D01*
X62515512Y-65734961D01*
X62514239Y-65735292D01*
X62513010Y-65735715D01*
X62511826Y-65736228D01*
X62510687Y-65736829D01*
X62509592Y-65737517D01*
X62508541Y-65738289D01*
X62507536Y-65739146D01*
X62506574Y-65740085D01*
X62505658Y-65741104D01*
X62504785Y-65742203D01*
X62503958Y-65743379D01*
X62503175Y-65744631D01*
X62502437Y-65745958D01*
X62501743Y-65747358D01*
X62501094Y-65748829D01*
X62500490Y-65750370D01*
X62499931Y-65751980D01*
X62499416Y-65753656D01*
X62498945Y-65755398D01*
X62498520Y-65757204D01*
X62498139Y-65759072D01*
X62497803Y-65761001D01*
X62497512Y-65762989D01*
X62497266Y-65765035D01*
X62497064Y-65767137D01*
X62496907Y-65769294D01*
X62496795Y-65771504D01*
X62496728Y-65773765D01*
X62496705Y-65776077D01*
X61617896Y-65776077D01*
X61617896Y-65615470D01*
X61618096Y-65604965D01*
X61618694Y-65594740D01*
X61619685Y-65584798D01*
X61621066Y-65575142D01*
X61622832Y-65565775D01*
X61624978Y-65556703D01*
X61627502Y-65547927D01*
X61630398Y-65539453D01*
X61633662Y-65531282D01*
X61637291Y-65523419D01*
X61641279Y-65515868D01*
X61645623Y-65508631D01*
X61650319Y-65501712D01*
X61655363Y-65495116D01*
X61660749Y-65488845D01*
X61666475Y-65482903D01*
X61672535Y-65477294D01*
X61678926Y-65472021D01*
X61685644Y-65467087D01*
X61692684Y-65462497D01*
X61700042Y-65458253D01*
X61707714Y-65454360D01*
X61715696Y-65450821D01*
X61723983Y-65447640D01*
X61732572Y-65444819D01*
X61741457Y-65442363D01*
X61750636Y-65440275D01*
X61760104Y-65438559D01*
X61769856Y-65437217D01*
X61779889Y-65436255D01*
X61790198Y-65435675D01*
X61800779Y-65435481D01*
X62793897Y-65435478D01*
X62814272Y-65435838D01*
X62833545Y-65436932D01*
X62851808Y-65438781D01*
X62869148Y-65441404D01*
X62885654Y-65444822D01*
X62901417Y-65449055D01*
X62916525Y-65454124D01*
X62931067Y-65460049D01*
X62945134Y-65466850D01*
X62958813Y-65474547D01*
X62972194Y-65483161D01*
X62985367Y-65492711D01*
X62998421Y-65503220D01*
X63011444Y-65514705D01*
X63024527Y-65527189D01*
X63037758Y-65540691D01*
X63859343Y-66437845D01*
X64564279Y-67207621D01*
G37*
G36*
X60612738Y-67553885D02*
G01*
X60614056Y-67553981D01*
X60615300Y-67554141D01*
X60616473Y-67554363D01*
X60617575Y-67554646D01*
X60618609Y-67554991D01*
X60619578Y-67555396D01*
X60620483Y-67555859D01*
X60621326Y-67556381D01*
X60622110Y-67556961D01*
X60622836Y-67557598D01*
X60623508Y-67558290D01*
X60624126Y-67559037D01*
X60624692Y-67559839D01*
X60625210Y-67560695D01*
X60625681Y-67561603D01*
X60626107Y-67562563D01*
X60626491Y-67563574D01*
X60626834Y-67564635D01*
X60627138Y-67565746D01*
X60627406Y-67566905D01*
X60627640Y-67568112D01*
X60627841Y-67569367D01*
X60628013Y-67570667D01*
X60628273Y-67573403D01*
X60628439Y-67576314D01*
X60628526Y-67579394D01*
X60628551Y-67582636D01*
X60628551Y-67744228D01*
X60628461Y-67747860D01*
X60628192Y-67751281D01*
X60627744Y-67754489D01*
X60627117Y-67757479D01*
X60626310Y-67760249D01*
X60625839Y-67761550D01*
X60625324Y-67762795D01*
X60624763Y-67763983D01*
X60624158Y-67765114D01*
X60623508Y-67766188D01*
X60622814Y-67767203D01*
X60622074Y-67768160D01*
X60621290Y-67769059D01*
X60620461Y-67769898D01*
X60619587Y-67770677D01*
X60618668Y-67771397D01*
X60617705Y-67772056D01*
X60616697Y-67772654D01*
X60615644Y-67773192D01*
X60614546Y-67773667D01*
X60613403Y-67774080D01*
X60612216Y-67774431D01*
X60610983Y-67774719D01*
X60609706Y-67774944D01*
X60608385Y-67775105D01*
X60607018Y-67775202D01*
X60605607Y-67775234D01*
X60236688Y-67775234D01*
X60234247Y-67775312D01*
X60231943Y-67775544D01*
X60230843Y-67775719D01*
X60229779Y-67775932D01*
X60228750Y-67776184D01*
X60227757Y-67776475D01*
X60226801Y-67776804D01*
X60225881Y-67777173D01*
X60224999Y-67777580D01*
X60224153Y-67778026D01*
X60223346Y-67778511D01*
X60222577Y-67779035D01*
X60221846Y-67779598D01*
X60221155Y-67780200D01*
X60220502Y-67780841D01*
X60219889Y-67781520D01*
X60219316Y-67782239D01*
X60218783Y-67782996D01*
X60218290Y-67783793D01*
X60217839Y-67784628D01*
X60217429Y-67785503D01*
X60217061Y-67786416D01*
X60216734Y-67787369D01*
X60216450Y-67788360D01*
X60216209Y-67789391D01*
X60216011Y-67790460D01*
X60215856Y-67791569D01*
X60215745Y-67792717D01*
X60215678Y-67793904D01*
X60215656Y-67795130D01*
X60215656Y-68992782D01*
X60215081Y-69006073D01*
X60213383Y-69019305D01*
X60210605Y-69032370D01*
X60206788Y-69045155D01*
X60201975Y-69057552D01*
X60196207Y-69069450D01*
X60189526Y-69080739D01*
X60181975Y-69091307D01*
X60177886Y-69096287D01*
X60173595Y-69101045D01*
X60169107Y-69105569D01*
X60164428Y-69109843D01*
X60159562Y-69113855D01*
X60154516Y-69117590D01*
X60149293Y-69121035D01*
X60143901Y-69124176D01*
X60138343Y-69126999D01*
X60132625Y-69129490D01*
X60126752Y-69131636D01*
X60120730Y-69133423D01*
X60114563Y-69134837D01*
X60108257Y-69135863D01*
X60101818Y-69136490D01*
X60095250Y-69136701D01*
X59581018Y-69136701D01*
X59579260Y-69136669D01*
X59577568Y-69136573D01*
X59575943Y-69136416D01*
X59574383Y-69136198D01*
X59572887Y-69135922D01*
X59571455Y-69135589D01*
X59570086Y-69135200D01*
X59568780Y-69134758D01*
X59567536Y-69134264D01*
X59566352Y-69133719D01*
X59565229Y-69133126D01*
X59564165Y-69132486D01*
X59563161Y-69131800D01*
X59562214Y-69131070D01*
X59561325Y-69130299D01*
X59560492Y-69129486D01*
X59559716Y-69128635D01*
X59558995Y-69127747D01*
X59558328Y-69126822D01*
X59557715Y-69125864D01*
X59557156Y-69124874D01*
X59556648Y-69123853D01*
X59556193Y-69122802D01*
X59555788Y-69121724D01*
X59555434Y-69120621D01*
X59555129Y-69119493D01*
X59554666Y-69117171D01*
X59554392Y-69114773D01*
X59554302Y-69112310D01*
X59554302Y-67795130D01*
X59554274Y-67793904D01*
X59554192Y-67792718D01*
X59554056Y-67791570D01*
X59553868Y-67790462D01*
X59553631Y-67789392D01*
X59553344Y-67788362D01*
X59553009Y-67787370D01*
X59552628Y-67786418D01*
X59552203Y-67785505D01*
X59551734Y-67784630D01*
X59551223Y-67783795D01*
X59550671Y-67782998D01*
X59550080Y-67782241D01*
X59549452Y-67781522D01*
X59548787Y-67780842D01*
X59548087Y-67780202D01*
X59547353Y-67779600D01*
X59546587Y-67779037D01*
X59545790Y-67778513D01*
X59544964Y-67778028D01*
X59544110Y-67777581D01*
X59543230Y-67777174D01*
X59542324Y-67776805D01*
X59541394Y-67776475D01*
X59540442Y-67776185D01*
X59539469Y-67775932D01*
X59538477Y-67775719D01*
X59537466Y-67775545D01*
X59536438Y-67775409D01*
X59535395Y-67775312D01*
X59533269Y-67775235D01*
X59160527Y-67775235D01*
X59159289Y-67775202D01*
X59158085Y-67775105D01*
X59156916Y-67774944D01*
X59155781Y-67774719D01*
X59154681Y-67774431D01*
X59153617Y-67774081D01*
X59152588Y-67773667D01*
X59151595Y-67773192D01*
X59150639Y-67772655D01*
X59149719Y-67772056D01*
X59148837Y-67771397D01*
X59147992Y-67770678D01*
X59147185Y-67769898D01*
X59146415Y-67769059D01*
X59145685Y-67768161D01*
X59144993Y-67767203D01*
X59144340Y-67766188D01*
X59143727Y-67765114D01*
X59143154Y-67763983D01*
X59142621Y-67762795D01*
X59142129Y-67761550D01*
X59141678Y-67760249D01*
X59141268Y-67758892D01*
X59140899Y-67757479D01*
X59140573Y-67756011D01*
X59140289Y-67754489D01*
X59140048Y-67752912D01*
X59139849Y-67751282D01*
X59139695Y-67749597D01*
X59139584Y-67747860D01*
X59139517Y-67746071D01*
X59139495Y-67744229D01*
X59139495Y-67582636D01*
X59139541Y-67579394D01*
X59139689Y-67576315D01*
X59139949Y-67573403D01*
X59140331Y-67570667D01*
X59140849Y-67568112D01*
X59141512Y-67565746D01*
X59142332Y-67563574D01*
X59142804Y-67562563D01*
X59143320Y-67561603D01*
X59143880Y-67560695D01*
X59144487Y-67559839D01*
X59145141Y-67559038D01*
X59145844Y-67558290D01*
X59146598Y-67557598D01*
X59147403Y-67556961D01*
X59148262Y-67556382D01*
X59149175Y-67555859D01*
X59150145Y-67555396D01*
X59151171Y-67554991D01*
X59152257Y-67554647D01*
X59153402Y-67554363D01*
X59154609Y-67554141D01*
X59155880Y-67553981D01*
X59157214Y-67553885D01*
X59158615Y-67553853D01*
X60611343Y-67553852D01*
X60612738Y-67553885D01*
G37*
G36*
X62856257Y-67554070D02*
G01*
X62864440Y-67554715D01*
X62872343Y-67555771D01*
X62879969Y-67557224D01*
X62887318Y-67559060D01*
X62894389Y-67561264D01*
X62901186Y-67563821D01*
X62907706Y-67566717D01*
X62913953Y-67569937D01*
X62919926Y-67573467D01*
X62925625Y-67577292D01*
X62931053Y-67581397D01*
X62936209Y-67585769D01*
X62941093Y-67590391D01*
X62945708Y-67595250D01*
X62950053Y-67600332D01*
X62954130Y-67605621D01*
X62957938Y-67611103D01*
X62961479Y-67616763D01*
X62964753Y-67622587D01*
X62967761Y-67628560D01*
X62970504Y-67634668D01*
X62972982Y-67640896D01*
X62975197Y-67647229D01*
X62977148Y-67653654D01*
X62978837Y-67660154D01*
X62981430Y-67673326D01*
X62982982Y-67686627D01*
X62983497Y-67699942D01*
X62983497Y-68992782D01*
X62982960Y-69007897D01*
X62981351Y-69022483D01*
X62980146Y-69029559D01*
X62978673Y-69036480D01*
X62976933Y-69043238D01*
X62974928Y-69049825D01*
X62972656Y-69056234D01*
X62970119Y-69062457D01*
X62967316Y-69068487D01*
X62964249Y-69074314D01*
X62960917Y-69079933D01*
X62957320Y-69085335D01*
X62953460Y-69090513D01*
X62949336Y-69095458D01*
X62944949Y-69100163D01*
X62940300Y-69104620D01*
X62935387Y-69108823D01*
X62930213Y-69112762D01*
X62924776Y-69116430D01*
X62919079Y-69119819D01*
X62913120Y-69122923D01*
X62906900Y-69125732D01*
X62900420Y-69128240D01*
X62893680Y-69130439D01*
X62886680Y-69132320D01*
X62879420Y-69133877D01*
X62871902Y-69135101D01*
X62864125Y-69135985D01*
X62856089Y-69136521D01*
X62847795Y-69136701D01*
X60750869Y-69136701D01*
X60749626Y-69136669D01*
X60748407Y-69136573D01*
X60747213Y-69136416D01*
X60746044Y-69136198D01*
X60744902Y-69135922D01*
X60743788Y-69135589D01*
X60742703Y-69135200D01*
X60741648Y-69134758D01*
X60740623Y-69134264D01*
X60739631Y-69133719D01*
X60738671Y-69133126D01*
X60737746Y-69132486D01*
X60736856Y-69131800D01*
X60736001Y-69131070D01*
X60735184Y-69130299D01*
X60734405Y-69129486D01*
X60733666Y-69128635D01*
X60732966Y-69127747D01*
X60732308Y-69126822D01*
X60731692Y-69125864D01*
X60731119Y-69124874D01*
X60730591Y-69123853D01*
X60730108Y-69122802D01*
X60729672Y-69121724D01*
X60729283Y-69120621D01*
X60728943Y-69119493D01*
X60728652Y-69118343D01*
X60728411Y-69117171D01*
X60728223Y-69115981D01*
X60728087Y-69114773D01*
X60728004Y-69113549D01*
X60727976Y-69112310D01*
X60727976Y-68941881D01*
X60728004Y-68940442D01*
X60728087Y-68939029D01*
X60728223Y-68937645D01*
X60728411Y-68936291D01*
X60728652Y-68934967D01*
X60728943Y-68933675D01*
X60729283Y-68932417D01*
X60729672Y-68931193D01*
X60730108Y-68930005D01*
X60730591Y-68928854D01*
X60731119Y-68927741D01*
X60731692Y-68926667D01*
X60732308Y-68925634D01*
X60732966Y-68924642D01*
X60733666Y-68923693D01*
X60734405Y-68922789D01*
X60735184Y-68921930D01*
X60736002Y-68921118D01*
X60736856Y-68920353D01*
X60737746Y-68919638D01*
X60738671Y-68918973D01*
X60739631Y-68918359D01*
X60740623Y-68917798D01*
X60741648Y-68917291D01*
X60742703Y-68916839D01*
X60743788Y-68916443D01*
X60744902Y-68916105D01*
X60746044Y-68915825D01*
X60747213Y-68915606D01*
X60748407Y-68915448D01*
X60749626Y-68915352D01*
X60750869Y-68915320D01*
X62169232Y-68915320D01*
X62188947Y-68914747D01*
X62198272Y-68914030D01*
X62207247Y-68913023D01*
X62215872Y-68911727D01*
X62224151Y-68910139D01*
X62232086Y-68908258D01*
X62239679Y-68906083D01*
X62246934Y-68903613D01*
X62253852Y-68900847D01*
X62260436Y-68897783D01*
X62266688Y-68894421D01*
X62272611Y-68890759D01*
X62278208Y-68886795D01*
X62283481Y-68882529D01*
X62288432Y-68877959D01*
X62293063Y-68873085D01*
X62297378Y-68867904D01*
X62301379Y-68862417D01*
X62305068Y-68856620D01*
X62308448Y-68850515D01*
X62311520Y-68844098D01*
X62314289Y-68837369D01*
X62316755Y-68830327D01*
X62318922Y-68822970D01*
X62320792Y-68815298D01*
X62322368Y-68807308D01*
X62323651Y-68799000D01*
X62324645Y-68790373D01*
X62325352Y-68781426D01*
X62325915Y-68762564D01*
X62325915Y-68477000D01*
X62325887Y-68475761D01*
X62325805Y-68474537D01*
X62325669Y-68473329D01*
X62325480Y-68472138D01*
X62325240Y-68470967D01*
X62324949Y-68469817D01*
X62324608Y-68468689D01*
X62324220Y-68467585D01*
X62323783Y-68466507D01*
X62323300Y-68465457D01*
X62322772Y-68464436D01*
X62322199Y-68463445D01*
X62321583Y-68462487D01*
X62320925Y-68461563D01*
X62320226Y-68460674D01*
X62319486Y-68459823D01*
X62318707Y-68459011D01*
X62317890Y-68458239D01*
X62317036Y-68457510D01*
X62316145Y-68456824D01*
X62315220Y-68456184D01*
X62314261Y-68455590D01*
X62313268Y-68455046D01*
X62312244Y-68454552D01*
X62311188Y-68454110D01*
X62310103Y-68453721D01*
X62308989Y-68453388D01*
X62307847Y-68453112D01*
X62306679Y-68452894D01*
X62305484Y-68452737D01*
X62304265Y-68452641D01*
X62303022Y-68452609D01*
X61517385Y-68452609D01*
X61516327Y-68452583D01*
X61515302Y-68452506D01*
X61514311Y-68452377D01*
X61513353Y-68452198D01*
X61512429Y-68451969D01*
X61511538Y-68451690D01*
X61510681Y-68451362D01*
X61509858Y-68450985D01*
X61509068Y-68450559D01*
X61508312Y-68450085D01*
X61507589Y-68449563D01*
X61506900Y-68448993D01*
X61506245Y-68448377D01*
X61505623Y-68447714D01*
X61505035Y-68447005D01*
X61504480Y-68446250D01*
X61503959Y-68445450D01*
X61503472Y-68444604D01*
X61503018Y-68443714D01*
X61502598Y-68442780D01*
X61502211Y-68441802D01*
X61501858Y-68440781D01*
X61501539Y-68439717D01*
X61501253Y-68438610D01*
X61501001Y-68437461D01*
X61500782Y-68436270D01*
X61500597Y-68435037D01*
X61500446Y-68433764D01*
X61500328Y-68432450D01*
X61500244Y-68431096D01*
X61500194Y-68429702D01*
X61500177Y-68428269D01*
X61500177Y-68220168D01*
X61500244Y-68216586D01*
X61500446Y-68213306D01*
X61500782Y-68210318D01*
X61501253Y-68207612D01*
X61501858Y-68205179D01*
X61502597Y-68203008D01*
X61503017Y-68202018D01*
X61503471Y-68201090D01*
X61503958Y-68200223D01*
X61504479Y-68199416D01*
X61505034Y-68198666D01*
X61505622Y-68197974D01*
X61506244Y-68197338D01*
X61506899Y-68196757D01*
X61507588Y-68196229D01*
X61508311Y-68195754D01*
X61509067Y-68195329D01*
X61509857Y-68194955D01*
X61510680Y-68194629D01*
X61511537Y-68194350D01*
X61513352Y-68193930D01*
X61515302Y-68193686D01*
X61517385Y-68193606D01*
X62303022Y-68193606D01*
X62304265Y-68193574D01*
X62305484Y-68193478D01*
X62306679Y-68193320D01*
X62307847Y-68193100D01*
X62308989Y-68192821D01*
X62310103Y-68192483D01*
X62311189Y-68192087D01*
X62312244Y-68191635D01*
X62313268Y-68191128D01*
X62314261Y-68190567D01*
X62315220Y-68189953D01*
X62316146Y-68189288D01*
X62317036Y-68188572D01*
X62317890Y-68187808D01*
X62318707Y-68186996D01*
X62319486Y-68186137D01*
X62320226Y-68185232D01*
X62320925Y-68184284D01*
X62321584Y-68183292D01*
X62322200Y-68182259D01*
X62322772Y-68181185D01*
X62323300Y-68180072D01*
X62323783Y-68178921D01*
X62324220Y-68177732D01*
X62324609Y-68176509D01*
X62324949Y-68175250D01*
X62325240Y-68173959D01*
X62325480Y-68172635D01*
X62325669Y-68171281D01*
X62325805Y-68169896D01*
X62325887Y-68168484D01*
X62325915Y-68167044D01*
X62325915Y-67770790D01*
X62325805Y-67767183D01*
X62325669Y-67765476D01*
X62325480Y-67763833D01*
X62325240Y-67762253D01*
X62324949Y-67760735D01*
X62324608Y-67759280D01*
X62324220Y-67757887D01*
X62323783Y-67756556D01*
X62323300Y-67755286D01*
X62322772Y-67754076D01*
X62322199Y-67752927D01*
X62321583Y-67751838D01*
X62320925Y-67750809D01*
X62320226Y-67749838D01*
X62319486Y-67748927D01*
X62318707Y-67748074D01*
X62317890Y-67747278D01*
X62317036Y-67746541D01*
X62316145Y-67745860D01*
X62315220Y-67745237D01*
X62314261Y-67744669D01*
X62313268Y-67744158D01*
X62312244Y-67743702D01*
X62311188Y-67743301D01*
X62310103Y-67742955D01*
X62308989Y-67742664D01*
X62307847Y-67742426D01*
X62305484Y-67742111D01*
X62303022Y-67742006D01*
X60750869Y-67742006D01*
X60749626Y-67741981D01*
X60748407Y-67741903D01*
X60747213Y-67741775D01*
X60746044Y-67741596D01*
X60744902Y-67741367D01*
X60743788Y-67741088D01*
X60742703Y-67740760D01*
X60741648Y-67740383D01*
X60740623Y-67739957D01*
X60739631Y-67739483D01*
X60738671Y-67738961D01*
X60737746Y-67738391D01*
X60736856Y-67737775D01*
X60736001Y-67737112D01*
X60735184Y-67736403D01*
X60734405Y-67735648D01*
X60733666Y-67734848D01*
X60732966Y-67734003D01*
X60732308Y-67733113D01*
X60731692Y-67732178D01*
X60731119Y-67731200D01*
X60730591Y-67730179D01*
X60730108Y-67729115D01*
X60729672Y-67728008D01*
X60729283Y-67726859D01*
X60728943Y-67725668D01*
X60728652Y-67724435D01*
X60728411Y-67723162D01*
X60728223Y-67721848D01*
X60728087Y-67720494D01*
X60728004Y-67719100D01*
X60727976Y-67717667D01*
X60727976Y-67582636D01*
X60728087Y-67579394D01*
X60728411Y-67576314D01*
X60728943Y-67573403D01*
X60729283Y-67572013D01*
X60729672Y-67570667D01*
X60730108Y-67569367D01*
X60730591Y-67568112D01*
X60731119Y-67566905D01*
X60731692Y-67565746D01*
X60732308Y-67564635D01*
X60732966Y-67563574D01*
X60733666Y-67562563D01*
X60734405Y-67561603D01*
X60735184Y-67560695D01*
X60736002Y-67559839D01*
X60736856Y-67559037D01*
X60737746Y-67558290D01*
X60738671Y-67557598D01*
X60739631Y-67556961D01*
X60740623Y-67556381D01*
X60741648Y-67555859D01*
X60742703Y-67555396D01*
X60743788Y-67554991D01*
X60744902Y-67554646D01*
X60746044Y-67554363D01*
X60747213Y-67554141D01*
X60748407Y-67553981D01*
X60749626Y-67553885D01*
X60750869Y-67553852D01*
X62847795Y-67553852D01*
X62856257Y-67554070D01*
G37*
G36*
X66066634Y-68881551D02*
G01*
X66146043Y-68968391D01*
X66150083Y-68973961D01*
X66153642Y-68979817D01*
X66156728Y-68985930D01*
X66159350Y-68992269D01*
X66161516Y-68998804D01*
X66163235Y-69005504D01*
X66164515Y-69012339D01*
X66165364Y-69019279D01*
X66165793Y-69026292D01*
X66165808Y-69033349D01*
X66165418Y-69040420D01*
X66164633Y-69047473D01*
X66163460Y-69054479D01*
X66161908Y-69061407D01*
X66159986Y-69068226D01*
X66157702Y-69074907D01*
X66155064Y-69081418D01*
X66152082Y-69087730D01*
X66148764Y-69093812D01*
X66145118Y-69099633D01*
X66141153Y-69105163D01*
X66136877Y-69110372D01*
X66132299Y-69115229D01*
X66127428Y-69119704D01*
X66122271Y-69123766D01*
X66116839Y-69127386D01*
X66111138Y-69130532D01*
X66105178Y-69133174D01*
X66098967Y-69135282D01*
X66092514Y-69136826D01*
X66085827Y-69137774D01*
X66078915Y-69138097D01*
X63522224Y-69138457D01*
X63499568Y-69137962D01*
X63477481Y-69136493D01*
X63455973Y-69134071D01*
X63435055Y-69130716D01*
X63414735Y-69126452D01*
X63395025Y-69121298D01*
X63375932Y-69115277D01*
X63357469Y-69108411D01*
X63339643Y-69100719D01*
X63322466Y-69092224D01*
X63305946Y-69082948D01*
X63290094Y-69072911D01*
X63274920Y-69062135D01*
X63260433Y-69050642D01*
X63246643Y-69038453D01*
X63233560Y-69025589D01*
X63221194Y-69012072D01*
X63209554Y-68997924D01*
X63198651Y-68983165D01*
X63188494Y-68967817D01*
X63179094Y-68951901D01*
X63170459Y-68935440D01*
X63162600Y-68918454D01*
X63155527Y-68900965D01*
X63149249Y-68882994D01*
X63143776Y-68864563D01*
X63139118Y-68845693D01*
X63135285Y-68826405D01*
X63132287Y-68806722D01*
X63130133Y-68786663D01*
X63128833Y-68766252D01*
X63128398Y-68745509D01*
X63128937Y-68713795D01*
X63130554Y-68683226D01*
X63131321Y-68674869D01*
X63726759Y-68674869D01*
X63727393Y-68701607D01*
X63729318Y-68727139D01*
X63732576Y-68751394D01*
X63737205Y-68774299D01*
X63743245Y-68795782D01*
X63750734Y-68815772D01*
X63755035Y-68825184D01*
X63759713Y-68834196D01*
X63764773Y-68842799D01*
X63770221Y-68850983D01*
X63776060Y-68858740D01*
X63782296Y-68866060D01*
X63788934Y-68872935D01*
X63795979Y-68879356D01*
X63803436Y-68885314D01*
X63811309Y-68890799D01*
X63819603Y-68895803D01*
X63828324Y-68900317D01*
X63837477Y-68904331D01*
X63847065Y-68907837D01*
X63857095Y-68910826D01*
X63867571Y-68913289D01*
X63878498Y-68915216D01*
X63889881Y-68916599D01*
X63901725Y-68917429D01*
X63914035Y-68917696D01*
X65579773Y-68917026D01*
X65582277Y-68916761D01*
X65584707Y-68916315D01*
X65587058Y-68915694D01*
X65589326Y-68914907D01*
X65591508Y-68913962D01*
X65593599Y-68912867D01*
X65595596Y-68911631D01*
X65597495Y-68910260D01*
X65599292Y-68908764D01*
X65600982Y-68907151D01*
X65602562Y-68905428D01*
X65604028Y-68903603D01*
X65605376Y-68901685D01*
X65606602Y-68899682D01*
X65607703Y-68897602D01*
X65608673Y-68895452D01*
X65609510Y-68893241D01*
X65610209Y-68890977D01*
X65610766Y-68888668D01*
X65611178Y-68886321D01*
X65611441Y-68883946D01*
X65611550Y-68881551D01*
X65611502Y-68879142D01*
X65611292Y-68876728D01*
X65610917Y-68874318D01*
X65610373Y-68871920D01*
X65609656Y-68869541D01*
X65608762Y-68867189D01*
X65607687Y-68864873D01*
X65606427Y-68862600D01*
X65604979Y-68860380D01*
X65603337Y-68858219D01*
X65251007Y-68471059D01*
X65248851Y-68468785D01*
X65246575Y-68466597D01*
X65244154Y-68464504D01*
X65241561Y-68462515D01*
X65240192Y-68461562D01*
X65238769Y-68460638D01*
X65237291Y-68459744D01*
X65235752Y-68458882D01*
X65234151Y-68458051D01*
X65232483Y-68457254D01*
X65230746Y-68456492D01*
X65228936Y-68455764D01*
X65227049Y-68455074D01*
X65225083Y-68454421D01*
X65223035Y-68453806D01*
X65220899Y-68453232D01*
X65218675Y-68452698D01*
X65216357Y-68452205D01*
X65213943Y-68451756D01*
X65211430Y-68451351D01*
X65208814Y-68450991D01*
X65206092Y-68450677D01*
X65203260Y-68450410D01*
X65200315Y-68450191D01*
X65197254Y-68450022D01*
X65194074Y-68449903D01*
X65190771Y-68449835D01*
X65187342Y-68449820D01*
X64550687Y-68450911D01*
X63914035Y-68454109D01*
X63914035Y-68454107D01*
X63902734Y-68454412D01*
X63891771Y-68455220D01*
X63881148Y-68456524D01*
X63870864Y-68458316D01*
X63860923Y-68460587D01*
X63851325Y-68463331D01*
X63842071Y-68466539D01*
X63833163Y-68470204D01*
X63824603Y-68474317D01*
X63816391Y-68478872D01*
X63808530Y-68483859D01*
X63801020Y-68489272D01*
X63793862Y-68495103D01*
X63787059Y-68501344D01*
X63780612Y-68507986D01*
X63774522Y-68515023D01*
X63768790Y-68522446D01*
X63763418Y-68530248D01*
X63758407Y-68538421D01*
X63753758Y-68546957D01*
X63749474Y-68555848D01*
X63745555Y-68565086D01*
X63742002Y-68574665D01*
X63738818Y-68584575D01*
X63736003Y-68594809D01*
X63733559Y-68605360D01*
X63731487Y-68616219D01*
X63729789Y-68627379D01*
X63728465Y-68638831D01*
X63727519Y-68650569D01*
X63726949Y-68662584D01*
X63726759Y-68674869D01*
X63131321Y-68674869D01*
X63133253Y-68653808D01*
X63137036Y-68625548D01*
X63141906Y-68598452D01*
X63147865Y-68572526D01*
X63154917Y-68547777D01*
X63163063Y-68524212D01*
X63172308Y-68501837D01*
X63182652Y-68480658D01*
X63194100Y-68460682D01*
X63206653Y-68441915D01*
X63220314Y-68424364D01*
X63235087Y-68408036D01*
X63250973Y-68392936D01*
X63267976Y-68379072D01*
X63270775Y-68376174D01*
X63273434Y-68373273D01*
X63275948Y-68370364D01*
X63278311Y-68367446D01*
X63280517Y-68364515D01*
X63282561Y-68361568D01*
X63284436Y-68358601D01*
X63286139Y-68355612D01*
X63287662Y-68352596D01*
X63289000Y-68349552D01*
X63290147Y-68346475D01*
X63291099Y-68343363D01*
X63291849Y-68340212D01*
X63292391Y-68337020D01*
X63292721Y-68333782D01*
X63292832Y-68330496D01*
X63292722Y-68327964D01*
X63292399Y-68325348D01*
X63291874Y-68322667D01*
X63291159Y-68319941D01*
X63290264Y-68317189D01*
X63289201Y-68314430D01*
X63287982Y-68311684D01*
X63286617Y-68308971D01*
X63285117Y-68306309D01*
X63283494Y-68303719D01*
X63281760Y-68301219D01*
X63279924Y-68298829D01*
X63277999Y-68296568D01*
X63275996Y-68294456D01*
X63273926Y-68292513D01*
X63271800Y-68290757D01*
X63257468Y-68278775D01*
X63243879Y-68265990D01*
X63231057Y-68252371D01*
X63219028Y-68237889D01*
X63207816Y-68222515D01*
X63197447Y-68206220D01*
X63187947Y-68188975D01*
X63179340Y-68170750D01*
X63171651Y-68151516D01*
X63164906Y-68131244D01*
X63159129Y-68109905D01*
X63154347Y-68087469D01*
X63150583Y-68063908D01*
X63147864Y-68039191D01*
X63146214Y-68013290D01*
X63145658Y-67986176D01*
X63146482Y-67953856D01*
X63738087Y-67953856D01*
X63738741Y-67980286D01*
X63740723Y-68005705D01*
X63744060Y-68030016D01*
X63748780Y-68053123D01*
X63754911Y-68074927D01*
X63762481Y-68095331D01*
X63766815Y-68104979D01*
X63771519Y-68114240D01*
X63776597Y-68123103D01*
X63782052Y-68131556D01*
X63787888Y-68139586D01*
X63794108Y-68147181D01*
X63800716Y-68154329D01*
X63807715Y-68161019D01*
X63815110Y-68167237D01*
X63822902Y-68172972D01*
X63831096Y-68178212D01*
X63839696Y-68182944D01*
X63848704Y-68187156D01*
X63858124Y-68190837D01*
X63867961Y-68193974D01*
X63878216Y-68196555D01*
X63888895Y-68198568D01*
X63900000Y-68200000D01*
X63911534Y-68200840D01*
X63923502Y-68201076D01*
X64922459Y-68194668D01*
X64924117Y-68194649D01*
X64925822Y-68194481D01*
X64927562Y-68194166D01*
X64929326Y-68193706D01*
X64931100Y-68193106D01*
X64932874Y-68192367D01*
X64934633Y-68191493D01*
X64936367Y-68190486D01*
X64938063Y-68189349D01*
X64939708Y-68188086D01*
X64941292Y-68186698D01*
X64942800Y-68185189D01*
X64944222Y-68183562D01*
X64945545Y-68181819D01*
X64946757Y-68179964D01*
X64947846Y-68177999D01*
X64948799Y-68175927D01*
X64949604Y-68173750D01*
X64950249Y-68171473D01*
X64950722Y-68169097D01*
X64951011Y-68166625D01*
X64951103Y-68164061D01*
X64950987Y-68161407D01*
X64950649Y-68158666D01*
X64950078Y-68155841D01*
X64949262Y-68152934D01*
X64948189Y-68149949D01*
X64946845Y-68146889D01*
X64945220Y-68143756D01*
X64943300Y-68140553D01*
X64941075Y-68137282D01*
X64938530Y-68133948D01*
X64591937Y-67752421D01*
X64589792Y-67749642D01*
X64588752Y-67748381D01*
X64587726Y-67747201D01*
X64586710Y-67746100D01*
X64585698Y-67745075D01*
X64584685Y-67744124D01*
X64583665Y-67743243D01*
X64582634Y-67742431D01*
X64581585Y-67741684D01*
X64580515Y-67741001D01*
X64579417Y-67740377D01*
X64578286Y-67739811D01*
X64577118Y-67739299D01*
X64575906Y-67738840D01*
X64574646Y-67738430D01*
X64573332Y-67738067D01*
X64571959Y-67737748D01*
X64570522Y-67737470D01*
X64569016Y-67737231D01*
X64567435Y-67737028D01*
X64565775Y-67736858D01*
X64562192Y-67736608D01*
X64558228Y-67736458D01*
X64553839Y-67736388D01*
X64543619Y-67736401D01*
X63923502Y-67735316D01*
X63912375Y-67735569D01*
X63901574Y-67736331D01*
X63891102Y-67737595D01*
X63880960Y-67739350D01*
X63871150Y-67741590D01*
X63861673Y-67744305D01*
X63852532Y-67747487D01*
X63843727Y-67751127D01*
X63835261Y-67755217D01*
X63827136Y-67759748D01*
X63819354Y-67764712D01*
X63811915Y-67770101D01*
X63804822Y-67775905D01*
X63798077Y-67782117D01*
X63791681Y-67788727D01*
X63785636Y-67795727D01*
X63779943Y-67803109D01*
X63774606Y-67810865D01*
X63769624Y-67818985D01*
X63765001Y-67827461D01*
X63760738Y-67836285D01*
X63756836Y-67845448D01*
X63753297Y-67854942D01*
X63750123Y-67864757D01*
X63747317Y-67874887D01*
X63744878Y-67885321D01*
X63742811Y-67896052D01*
X63741115Y-67907071D01*
X63739793Y-67918369D01*
X63738846Y-67929938D01*
X63738277Y-67941770D01*
X63738087Y-67953856D01*
X63146482Y-67953856D01*
X63146764Y-67942787D01*
X63150198Y-67900519D01*
X63156132Y-67859605D01*
X63164740Y-67820276D01*
X63176195Y-67782762D01*
X63183045Y-67764759D01*
X63190670Y-67747297D01*
X63199094Y-67730405D01*
X63208338Y-67714111D01*
X63218424Y-67698445D01*
X63229373Y-67683436D01*
X63241206Y-67669112D01*
X63253946Y-67655503D01*
X63267614Y-67642637D01*
X63282232Y-67630544D01*
X63297821Y-67619252D01*
X63314403Y-67608790D01*
X63332000Y-67599188D01*
X63350633Y-67590473D01*
X63370323Y-67582676D01*
X63391094Y-67575825D01*
X63412965Y-67569949D01*
X63435960Y-67565076D01*
X63460099Y-67561237D01*
X63485403Y-67558459D01*
X63511896Y-67556772D01*
X63539598Y-67556205D01*
X64784059Y-67550855D01*
X64805341Y-67550882D01*
X64814138Y-67550983D01*
X64821869Y-67551204D01*
X64828660Y-67551593D01*
X64834632Y-67552194D01*
X64839911Y-67553056D01*
X64844620Y-67554223D01*
X64848883Y-67555744D01*
X64852823Y-67557663D01*
X64856563Y-67560028D01*
X64860229Y-67562884D01*
X64863943Y-67566279D01*
X64867829Y-67570258D01*
X64872010Y-67574868D01*
X64876611Y-67580156D01*
X65410547Y-68164061D01*
X66066634Y-68881551D01*
G37*
G36*
X58982760Y-68992782D02*
G01*
X58982205Y-69006073D01*
X58980562Y-69019305D01*
X58977860Y-69032370D01*
X58974131Y-69045155D01*
X58969405Y-69057552D01*
X58963714Y-69069450D01*
X58957087Y-69080739D01*
X58953433Y-69086120D01*
X58949556Y-69091307D01*
X58945461Y-69096287D01*
X58941152Y-69101045D01*
X58936631Y-69105569D01*
X58931904Y-69109843D01*
X58926974Y-69113855D01*
X58921845Y-69117590D01*
X58916520Y-69121035D01*
X58911004Y-69124176D01*
X58905300Y-69126999D01*
X58899412Y-69129490D01*
X58893345Y-69131636D01*
X58887101Y-69133423D01*
X58880685Y-69134837D01*
X58874101Y-69135863D01*
X58867352Y-69136490D01*
X58860442Y-69136701D01*
X58344297Y-69136701D01*
X58342886Y-69136669D01*
X58341520Y-69136573D01*
X58340198Y-69136416D01*
X58338921Y-69136198D01*
X58337689Y-69135922D01*
X58336502Y-69135589D01*
X58335359Y-69135200D01*
X58334261Y-69134758D01*
X58333208Y-69134264D01*
X58332200Y-69133719D01*
X58331237Y-69133126D01*
X58330318Y-69132486D01*
X58329444Y-69131800D01*
X58328615Y-69131070D01*
X58327831Y-69130299D01*
X58327091Y-69129486D01*
X58326397Y-69128635D01*
X58325747Y-69127747D01*
X58325142Y-69126822D01*
X58324581Y-69125864D01*
X58324066Y-69124874D01*
X58323595Y-69123853D01*
X58323169Y-69122802D01*
X58322788Y-69121724D01*
X58322452Y-69120621D01*
X58322160Y-69119493D01*
X58321914Y-69118343D01*
X58321712Y-69117171D01*
X58321555Y-69115981D01*
X58321443Y-69114773D01*
X58321353Y-69112310D01*
X58321353Y-68567744D01*
X58321286Y-68564917D01*
X58321081Y-68562249D01*
X58320736Y-68559743D01*
X58320249Y-68557403D01*
X58319616Y-68555232D01*
X58319244Y-68554211D01*
X58318834Y-68553233D01*
X58318387Y-68552299D01*
X58317902Y-68551409D01*
X58317378Y-68550563D01*
X58316815Y-68549763D01*
X58316213Y-68549008D01*
X58315571Y-68548299D01*
X58314889Y-68547636D01*
X58314167Y-68547020D01*
X58313405Y-68546450D01*
X58312601Y-68545928D01*
X58311757Y-68545454D01*
X58310870Y-68545028D01*
X58309941Y-68544651D01*
X58308970Y-68544323D01*
X58307956Y-68544044D01*
X58306899Y-68543815D01*
X58305799Y-68543636D01*
X58304655Y-68543508D01*
X58303466Y-68543430D01*
X58302233Y-68543405D01*
X57421099Y-68543405D01*
X57420018Y-68543430D01*
X57418926Y-68543506D01*
X57416716Y-68543805D01*
X57414477Y-68544292D01*
X57412218Y-68544957D01*
X57409947Y-68545789D01*
X57407672Y-68546781D01*
X57405403Y-68547921D01*
X57403147Y-68549201D01*
X57400914Y-68550611D01*
X57398712Y-68552140D01*
X57396550Y-68553781D01*
X57394435Y-68555521D01*
X57392377Y-68557353D01*
X57390385Y-68559267D01*
X57388467Y-68561252D01*
X57386630Y-68563300D01*
X56901130Y-69130036D01*
X56897186Y-69134032D01*
X56893235Y-69137724D01*
X56889267Y-69141118D01*
X56885275Y-69144220D01*
X56881249Y-69147036D01*
X56877182Y-69149575D01*
X56873065Y-69151840D01*
X56868889Y-69153840D01*
X56864646Y-69155581D01*
X56860327Y-69157068D01*
X56855924Y-69158309D01*
X56851428Y-69159310D01*
X56846831Y-69160077D01*
X56842124Y-69160617D01*
X56837300Y-69160936D01*
X56832348Y-69161041D01*
X56828043Y-69160931D01*
X56823736Y-69160601D01*
X56819436Y-69160053D01*
X56815151Y-69159286D01*
X56810892Y-69158302D01*
X56806667Y-69157102D01*
X56802485Y-69155686D01*
X56798356Y-69154055D01*
X56794288Y-69152210D01*
X56790291Y-69150152D01*
X56786373Y-69147882D01*
X56782545Y-69145399D01*
X56778814Y-69142707D01*
X56775190Y-69139804D01*
X56771683Y-69136692D01*
X56768301Y-69133372D01*
X56765053Y-69129844D01*
X56761949Y-69126109D01*
X56758997Y-69122169D01*
X56756207Y-69118023D01*
X56753588Y-69113673D01*
X56751149Y-69109120D01*
X56748899Y-69104364D01*
X56746847Y-69099406D01*
X56745002Y-69094247D01*
X56743374Y-69088888D01*
X56741971Y-69083329D01*
X56740803Y-69077572D01*
X56739879Y-69071617D01*
X56739207Y-69065465D01*
X56738798Y-69059116D01*
X56738659Y-69052573D01*
X56738750Y-69046837D01*
X56739025Y-69041245D01*
X56739491Y-69035782D01*
X56740153Y-69030435D01*
X56741017Y-69025193D01*
X56742088Y-69020041D01*
X56743372Y-69014968D01*
X56744874Y-69009959D01*
X56746600Y-69005002D01*
X56748556Y-69000084D01*
X56750747Y-68995191D01*
X56753179Y-68990312D01*
X56755857Y-68985433D01*
X56758788Y-68980541D01*
X56761976Y-68975623D01*
X56765427Y-68970665D01*
X57295937Y-68355250D01*
X57822469Y-68355250D01*
X57822497Y-68356671D01*
X57822581Y-68358027D01*
X57822721Y-68359321D01*
X57822916Y-68360554D01*
X57823166Y-68361727D01*
X57823470Y-68362841D01*
X57823828Y-68363897D01*
X57824241Y-68364896D01*
X57824706Y-68365841D01*
X57825225Y-68366731D01*
X57825796Y-68367569D01*
X57826420Y-68368355D01*
X57827095Y-68369091D01*
X57827822Y-68369778D01*
X57828600Y-68370417D01*
X57829429Y-68371009D01*
X57830308Y-68371556D01*
X57831237Y-68372059D01*
X57832216Y-68372518D01*
X57833244Y-68372936D01*
X57834321Y-68373314D01*
X57835447Y-68373652D01*
X57836621Y-68373953D01*
X57837842Y-68374216D01*
X57839111Y-68374444D01*
X57840427Y-68374637D01*
X57843198Y-68374926D01*
X57846153Y-68375092D01*
X57849289Y-68375146D01*
X58302233Y-68375146D01*
X58303465Y-68375126D01*
X58304653Y-68375066D01*
X58305797Y-68374965D01*
X58306896Y-68374822D01*
X58307953Y-68374634D01*
X58308966Y-68374402D01*
X58309937Y-68374124D01*
X58310865Y-68373798D01*
X58311752Y-68373423D01*
X58312597Y-68372999D01*
X58313400Y-68372523D01*
X58314163Y-68371996D01*
X58314885Y-68371415D01*
X58315567Y-68370779D01*
X58316208Y-68370087D01*
X58316811Y-68369338D01*
X58317374Y-68368530D01*
X58317898Y-68367663D01*
X58318384Y-68366735D01*
X58318832Y-68365746D01*
X58319241Y-68364692D01*
X58319614Y-68363575D01*
X58319949Y-68362391D01*
X58320247Y-68361141D01*
X58320509Y-68359823D01*
X58320735Y-68358435D01*
X58320926Y-68356977D01*
X58321081Y-68355447D01*
X58321200Y-68353844D01*
X58321286Y-68352166D01*
X58321353Y-68348584D01*
X58321353Y-67826135D01*
X58321287Y-67822479D01*
X58321087Y-67818990D01*
X58320754Y-67815675D01*
X58320287Y-67812546D01*
X58319686Y-67809612D01*
X58318951Y-67806883D01*
X58318082Y-67804367D01*
X58317079Y-67802076D01*
X58315941Y-67800018D01*
X58314669Y-67798203D01*
X58313982Y-67797390D01*
X58313262Y-67796641D01*
X58312507Y-67795958D01*
X58311719Y-67795341D01*
X58310898Y-67794793D01*
X58310042Y-67794313D01*
X58309153Y-67793905D01*
X58308229Y-67793568D01*
X58307272Y-67793303D01*
X58306281Y-67793113D01*
X58305256Y-67792998D01*
X58304197Y-67792959D01*
X58303102Y-67792986D01*
X58301969Y-67793071D01*
X58300809Y-67793221D01*
X58299628Y-67793442D01*
X58298437Y-67793741D01*
X58297242Y-67794124D01*
X58296053Y-67794598D01*
X58294877Y-67795169D01*
X58293724Y-67795844D01*
X58293159Y-67796222D01*
X58292602Y-67796628D01*
X58292055Y-67797064D01*
X58291519Y-67797530D01*
X58290995Y-67798027D01*
X58290484Y-67798555D01*
X58289987Y-67799116D01*
X58289505Y-67799710D01*
X58289039Y-67800338D01*
X58288590Y-67801001D01*
X58288160Y-67801700D01*
X58287748Y-67802435D01*
X58287358Y-67803207D01*
X58286988Y-67804018D01*
X57833941Y-68328689D01*
X57832553Y-68330349D01*
X57831255Y-68332009D01*
X57830045Y-68333669D01*
X57828925Y-68335329D01*
X57827895Y-68336989D01*
X57826954Y-68338649D01*
X57826102Y-68340309D01*
X57825340Y-68341969D01*
X57824667Y-68343629D01*
X57824084Y-68345289D01*
X57823591Y-68346949D01*
X57823187Y-68348609D01*
X57822873Y-68350270D01*
X57822648Y-68351930D01*
X57822514Y-68353590D01*
X57822469Y-68355250D01*
X57295937Y-68355250D01*
X57914247Y-67637982D01*
X57924203Y-67627187D01*
X57934046Y-67617206D01*
X57943844Y-67608023D01*
X57953663Y-67599621D01*
X57963571Y-67591984D01*
X57973636Y-67585096D01*
X57983924Y-67578941D01*
X57994504Y-67573503D01*
X58005442Y-67568765D01*
X58016805Y-67564712D01*
X58028662Y-67561326D01*
X58041079Y-67558593D01*
X58054124Y-67556495D01*
X58067864Y-67555016D01*
X58082366Y-67554141D01*
X58097698Y-67553853D01*
X58845094Y-67553852D01*
X58853057Y-67554007D01*
X58860815Y-67554471D01*
X58868365Y-67555240D01*
X58875705Y-67556311D01*
X58882831Y-67557683D01*
X58889739Y-67559351D01*
X58896428Y-67561314D01*
X58902892Y-67563568D01*
X58909130Y-67566110D01*
X58915138Y-67568939D01*
X58920913Y-67572050D01*
X58926452Y-67575441D01*
X58931752Y-67579109D01*
X58936809Y-67583052D01*
X58941620Y-67587266D01*
X58946183Y-67591749D01*
X58950494Y-67596498D01*
X58954549Y-67601510D01*
X58958346Y-67606783D01*
X58961882Y-67612313D01*
X58965153Y-67618097D01*
X58968156Y-67624133D01*
X58970888Y-67630418D01*
X58973346Y-67636949D01*
X58975526Y-67643724D01*
X58977427Y-67650739D01*
X58979043Y-67657991D01*
X58980373Y-67665479D01*
X58981412Y-67673198D01*
X58982159Y-67681146D01*
X58982609Y-67689321D01*
X58982760Y-67697720D01*
X58982760Y-67826135D01*
X58982760Y-68992782D01*
G37*
D10*
G36*
X68441507Y-79532000D02*
G01*
X68185540Y-79532000D01*
X68144462Y-79529105D01*
X68104415Y-79521373D01*
X68086280Y-79516173D01*
X68049064Y-79501373D01*
X68013096Y-79480387D01*
X68001283Y-79471623D01*
X67971983Y-79443797D01*
X67948368Y-79410586D01*
X67942665Y-79400108D01*
X67928466Y-79363148D01*
X67921749Y-79321801D01*
X67921199Y-79302216D01*
X68023949Y-79302216D01*
X68028987Y-79341402D01*
X68036845Y-79362202D01*
X68058825Y-79394593D01*
X68071625Y-79406752D01*
X68105032Y-79427951D01*
X68122232Y-79435084D01*
X68161190Y-79444212D01*
X68182805Y-79445635D01*
X68339315Y-79445635D01*
X68339315Y-79157819D01*
X68177138Y-79157819D01*
X68136502Y-79162973D01*
X68116761Y-79168762D01*
X68081667Y-79186250D01*
X68067913Y-79196703D01*
X68042603Y-79227604D01*
X68035282Y-79241839D01*
X68025024Y-79279742D01*
X68023949Y-79302216D01*
X67921199Y-79302216D01*
X67921172Y-79301239D01*
X67924960Y-79260568D01*
X67931918Y-79234805D01*
X67948542Y-79198581D01*
X67961814Y-79179117D01*
X67989956Y-79151308D01*
X68008122Y-79138085D01*
X68043888Y-79119141D01*
X68066154Y-79112097D01*
X68066154Y-79110534D01*
X68030186Y-79092332D01*
X68016524Y-79083570D01*
X67986428Y-79057228D01*
X67978813Y-79048399D01*
X67958040Y-79014840D01*
X67952826Y-79002286D01*
X67943733Y-78964143D01*
X67942470Y-78945035D01*
X67942512Y-78944449D01*
X68044856Y-78944449D01*
X68051136Y-78984010D01*
X68058143Y-78999550D01*
X68082396Y-79030618D01*
X68092532Y-79039020D01*
X68126558Y-79058756D01*
X68141576Y-79064226D01*
X68181505Y-79072266D01*
X68197459Y-79073214D01*
X68339315Y-79073214D01*
X68339315Y-78818615D01*
X68200390Y-78818615D01*
X68160199Y-78822561D01*
X68142358Y-78826431D01*
X68104861Y-78840580D01*
X68091946Y-78848315D01*
X68063796Y-78877443D01*
X68057752Y-78887394D01*
X68045876Y-78926427D01*
X68044856Y-78944449D01*
X67942512Y-78944449D01*
X67945336Y-78905230D01*
X67955574Y-78867192D01*
X67964158Y-78848901D01*
X67986149Y-78816582D01*
X68016020Y-78788015D01*
X68022777Y-78783053D01*
X68057072Y-78762932D01*
X68095332Y-78748047D01*
X68106992Y-78744756D01*
X68145639Y-78736689D01*
X68185061Y-78732492D01*
X68203516Y-78731860D01*
X68441507Y-78731860D01*
X68441507Y-79532000D01*
G37*
G36*
X71791528Y-79532000D02*
G01*
X71689923Y-79532000D01*
X71625638Y-79324882D01*
X71358534Y-79324882D01*
X71295226Y-79532000D01*
X71194207Y-79532000D01*
X71287986Y-79236368D01*
X71385498Y-79236368D01*
X71598087Y-79236368D01*
X71491011Y-78888957D01*
X71385498Y-79236368D01*
X71287986Y-79236368D01*
X71448024Y-78731860D01*
X71533216Y-78731860D01*
X71791528Y-79532000D01*
G37*
D12*
X57710000Y-73414000D02*
X67235000Y-73414000D01*
X62790000Y-71890000D02*
X62790000Y-78875000D01*
X65330000Y-71890000D02*
X65330000Y-78875000D01*
D10*
G36*
X62225239Y-78326389D02*
G01*
X62225239Y-78386180D01*
X61860438Y-78386180D01*
X61860438Y-78572000D01*
X61758638Y-78572000D01*
X61758638Y-78386180D01*
X61647068Y-78386180D01*
X61647068Y-78303332D01*
X61758638Y-78303332D01*
X61860438Y-78303332D01*
X62112497Y-78303332D01*
X61876851Y-77937750D01*
X61860438Y-77907073D01*
X61860438Y-78303332D01*
X61758638Y-78303332D01*
X61758638Y-77771860D01*
X61866886Y-77771860D01*
X62225239Y-78326389D01*
G37*
G36*
X61174348Y-77772776D02*
G01*
X61213830Y-77777282D01*
X61255532Y-77785943D01*
X61285979Y-77795307D01*
X61322400Y-77810571D01*
X61359098Y-77831881D01*
X61391826Y-77857771D01*
X61400871Y-77866431D01*
X61428802Y-77897782D01*
X61452413Y-77931827D01*
X61471705Y-77968564D01*
X61486676Y-78007994D01*
X61493292Y-78031734D01*
X61502429Y-78074208D01*
X61509321Y-78117000D01*
X61513969Y-78160110D01*
X61516373Y-78203538D01*
X61516740Y-78228496D01*
X61516740Y-78276368D01*
X61514662Y-78316376D01*
X61508428Y-78356338D01*
X61499154Y-78392628D01*
X61484940Y-78430705D01*
X61466478Y-78465411D01*
X61446007Y-78494037D01*
X61417552Y-78523688D01*
X61384260Y-78548501D01*
X61367263Y-78558322D01*
X61330150Y-78573325D01*
X61288861Y-78581403D01*
X61259015Y-78582942D01*
X61218834Y-78580425D01*
X61178951Y-78571939D01*
X61151743Y-78561644D01*
X61116474Y-78541568D01*
X61086236Y-78516269D01*
X61073976Y-78502830D01*
X61051028Y-78470761D01*
X61033304Y-78434564D01*
X61026886Y-78416466D01*
X61017361Y-78378455D01*
X61012232Y-78338577D01*
X61011428Y-78315838D01*
X61111297Y-78315838D01*
X61113999Y-78356327D01*
X61120871Y-78389306D01*
X61135478Y-78426072D01*
X61149203Y-78447338D01*
X61177954Y-78474506D01*
X61195902Y-78485244D01*
X61233470Y-78496999D01*
X61259015Y-78498922D01*
X61298356Y-78492695D01*
X61318024Y-78484463D01*
X61350355Y-78460878D01*
X61367263Y-78441672D01*
X61388661Y-78406157D01*
X61401457Y-78372893D01*
X61410006Y-78334745D01*
X61413657Y-78295304D01*
X61413962Y-78279103D01*
X61413962Y-78245105D01*
X61396450Y-78209531D01*
X61388952Y-78198796D01*
X61360935Y-78169826D01*
X61352022Y-78163039D01*
X61317327Y-78144077D01*
X61306886Y-78140178D01*
X61268074Y-78132178D01*
X61256865Y-78131776D01*
X61216481Y-78137218D01*
X61192581Y-78147212D01*
X61160544Y-78171932D01*
X61147054Y-78188441D01*
X61128003Y-78223581D01*
X61120089Y-78247450D01*
X61112748Y-78287584D01*
X61111297Y-78315838D01*
X61011428Y-78315838D01*
X61011255Y-78310953D01*
X61013448Y-78271521D01*
X61020026Y-78232606D01*
X61024541Y-78214819D01*
X61038839Y-78175351D01*
X61058821Y-78139699D01*
X61065574Y-78130213D01*
X61093111Y-78100229D01*
X61126482Y-78075930D01*
X61137089Y-78070032D01*
X61175074Y-78055230D01*
X61215003Y-78048264D01*
X61240452Y-78047170D01*
X61280166Y-78050797D01*
X61292818Y-78053618D01*
X61331138Y-78066488D01*
X61339322Y-78070227D01*
X61372820Y-78090459D01*
X61379964Y-78095824D01*
X61409349Y-78123222D01*
X61412985Y-78127478D01*
X61408461Y-78088295D01*
X61399869Y-78049882D01*
X61391883Y-78024700D01*
X61374536Y-77986315D01*
X61351707Y-77952445D01*
X61339322Y-77938336D01*
X61309622Y-77912558D01*
X61274181Y-77891423D01*
X61255888Y-77883235D01*
X61218487Y-77871443D01*
X61175867Y-77864546D01*
X61132595Y-77862523D01*
X61123802Y-77862523D01*
X61123802Y-77771274D01*
X61132595Y-77771274D01*
X61174348Y-77772776D01*
G37*
G36*
X60624036Y-77762825D02*
G01*
X60664689Y-77771233D01*
X60692762Y-77781434D01*
X60729333Y-77801837D01*
X60760939Y-77828754D01*
X60773851Y-77843374D01*
X60796684Y-77876439D01*
X60815067Y-77914669D01*
X60824849Y-77943025D01*
X60834122Y-77981604D01*
X60839961Y-78023580D01*
X60842279Y-78064262D01*
X60842434Y-78078434D01*
X60842434Y-78265817D01*
X60841043Y-78307431D01*
X60836870Y-78346325D01*
X60828970Y-78386351D01*
X60824849Y-78401420D01*
X60810888Y-78439749D01*
X60791393Y-78476455D01*
X60773851Y-78500485D01*
X60746584Y-78528521D01*
X60712394Y-78552382D01*
X60691980Y-78562425D01*
X60653879Y-78574927D01*
X60612260Y-78581659D01*
X60582560Y-78582942D01*
X60541861Y-78580471D01*
X60501149Y-78572141D01*
X60473139Y-78562034D01*
X60436726Y-78541790D01*
X60405280Y-78515032D01*
X60392441Y-78500485D01*
X60369845Y-78467778D01*
X60351591Y-78429740D01*
X60341834Y-78401420D01*
X60332560Y-78362738D01*
X60326721Y-78320698D01*
X60324403Y-78279990D01*
X60324248Y-78265817D01*
X60324248Y-78142523D01*
X60426440Y-78142523D01*
X60426440Y-78174177D01*
X60426440Y-78287310D01*
X60428116Y-78329250D01*
X60433714Y-78369785D01*
X60438359Y-78389501D01*
X60452312Y-78426561D01*
X60475288Y-78459843D01*
X60506492Y-78483468D01*
X60521010Y-78490129D01*
X60559683Y-78499261D01*
X60582560Y-78500485D01*
X60623039Y-78496362D01*
X60641959Y-78490911D01*
X60677130Y-78471384D01*
X60686900Y-78462579D01*
X60711240Y-78430364D01*
X60719922Y-78412362D01*
X60731737Y-78375041D01*
X60737507Y-78341825D01*
X60426440Y-78103835D01*
X60426440Y-78142523D01*
X60324248Y-78142523D01*
X60324248Y-78078434D01*
X60325639Y-78036835D01*
X60329029Y-78006528D01*
X60428589Y-78006528D01*
X60740243Y-78245496D01*
X60740243Y-78217554D01*
X60740243Y-78190004D01*
X60740243Y-78055963D01*
X60738677Y-78015801D01*
X60733445Y-77976570D01*
X60729105Y-77957289D01*
X60714842Y-77918601D01*
X60694716Y-77887729D01*
X60664147Y-77863154D01*
X60647626Y-77855098D01*
X60609585Y-77845359D01*
X60583537Y-77843765D01*
X60544269Y-77847485D01*
X60520815Y-77854316D01*
X60486034Y-77874654D01*
X60474897Y-77885579D01*
X60452178Y-77918323D01*
X60444416Y-77936382D01*
X60433369Y-77975816D01*
X60428589Y-78006528D01*
X60329029Y-78006528D01*
X60330448Y-77993840D01*
X60338691Y-77954242D01*
X60341834Y-77943025D01*
X60355748Y-77904627D01*
X60375087Y-77867688D01*
X60392441Y-77843374D01*
X60422007Y-77813451D01*
X60456410Y-77790042D01*
X60473920Y-77781434D01*
X60511867Y-77768575D01*
X60553605Y-77761651D01*
X60583537Y-77760332D01*
X60624036Y-77762825D01*
G37*
G36*
X59939607Y-77763369D02*
G01*
X59979956Y-77771490D01*
X59993641Y-77775768D01*
X60031377Y-77792566D01*
X60063617Y-77815118D01*
X60067500Y-77818559D01*
X60093944Y-77847631D01*
X60114292Y-77882455D01*
X60116544Y-77887533D01*
X60128566Y-77925569D01*
X60133700Y-77964705D01*
X60134130Y-77980736D01*
X60130251Y-78020281D01*
X60125923Y-78037401D01*
X60110514Y-78073761D01*
X60102671Y-78086836D01*
X60077993Y-78117557D01*
X60066523Y-78128259D01*
X60034661Y-78151113D01*
X60018652Y-78159913D01*
X60054708Y-78178949D01*
X60074144Y-78192935D01*
X60103600Y-78220940D01*
X60116544Y-78237289D01*
X60136091Y-78272564D01*
X60143509Y-78292586D01*
X60151401Y-78331405D01*
X60152692Y-78356089D01*
X60149917Y-78395510D01*
X60140647Y-78434247D01*
X60132957Y-78453395D01*
X60112810Y-78487707D01*
X60084831Y-78518659D01*
X60078442Y-78524128D01*
X60046337Y-78546872D01*
X60009520Y-78564156D01*
X59998135Y-78568092D01*
X59959126Y-78577706D01*
X59917665Y-78582420D01*
X59897703Y-78582942D01*
X59855934Y-78580459D01*
X59816359Y-78573009D01*
X59798833Y-78567896D01*
X59760653Y-78552001D01*
X59726812Y-78530646D01*
X59717940Y-78523542D01*
X59689157Y-78493792D01*
X59667872Y-78460602D01*
X59664011Y-78452809D01*
X59650253Y-78413427D01*
X59644377Y-78372773D01*
X59643886Y-78356089D01*
X59644103Y-78353744D01*
X59745491Y-78353744D01*
X59749917Y-78394243D01*
X59756823Y-78415684D01*
X59777376Y-78450386D01*
X59787891Y-78461602D01*
X59821140Y-78483844D01*
X59836349Y-78490129D01*
X59875378Y-78498917D01*
X59897703Y-78500094D01*
X59937057Y-78496581D01*
X59961206Y-78490129D01*
X59996099Y-78472364D01*
X60009273Y-78461602D01*
X60032998Y-78430297D01*
X60039754Y-78415684D01*
X60049231Y-78376755D01*
X60050501Y-78353744D01*
X60046303Y-78314116D01*
X60039754Y-78292390D01*
X60020729Y-78257396D01*
X60009273Y-78243933D01*
X59976664Y-78220106D01*
X59961597Y-78213256D01*
X59921890Y-78203434D01*
X59898875Y-78202118D01*
X59859002Y-78206469D01*
X59837130Y-78213256D01*
X59801868Y-78232457D01*
X59788282Y-78243933D01*
X59764681Y-78275568D01*
X59756823Y-78292390D01*
X59746830Y-78331420D01*
X59745491Y-78353744D01*
X59644103Y-78353744D01*
X59647625Y-78315606D01*
X59653460Y-78292781D01*
X59669476Y-78255735D01*
X59680620Y-78237875D01*
X59707415Y-78207233D01*
X59723802Y-78193130D01*
X59757278Y-78171148D01*
X59779489Y-78160304D01*
X59746663Y-78140569D01*
X59718526Y-78116926D01*
X59693753Y-78086528D01*
X59677298Y-78055768D01*
X59665601Y-78017172D01*
X59662209Y-77982300D01*
X59764248Y-77982300D01*
X59768958Y-78022071D01*
X59774213Y-78038378D01*
X59794249Y-78073111D01*
X59801569Y-78081169D01*
X59834017Y-78104434D01*
X59844555Y-78109110D01*
X59884013Y-78118086D01*
X59898289Y-78118685D01*
X59938257Y-78113739D01*
X59952413Y-78109110D01*
X59986402Y-78088717D01*
X59994423Y-78081169D01*
X60017569Y-78049160D01*
X60022169Y-78038573D01*
X60030986Y-77999390D01*
X60031743Y-77982300D01*
X60027218Y-77941991D01*
X60022169Y-77925440D01*
X60002319Y-77889977D01*
X59995009Y-77881672D01*
X59962047Y-77858007D01*
X59953195Y-77854121D01*
X59913884Y-77844962D01*
X59899461Y-77844351D01*
X59859392Y-77849600D01*
X59845142Y-77854512D01*
X59810423Y-77875277D01*
X59802155Y-77882844D01*
X59779209Y-77916089D01*
X59774409Y-77926808D01*
X59765052Y-77965665D01*
X59764248Y-77982300D01*
X59662209Y-77982300D01*
X59662057Y-77980736D01*
X59665056Y-77940186D01*
X59674994Y-77900628D01*
X59680229Y-77887533D01*
X59700130Y-77851942D01*
X59726127Y-77822103D01*
X59730054Y-77818559D01*
X59762489Y-77795241D01*
X59800076Y-77777675D01*
X59805477Y-77775768D01*
X59844816Y-77765616D01*
X59883823Y-77761280D01*
X59899461Y-77760918D01*
X59939607Y-77763369D01*
G37*
G36*
X59279723Y-77762825D02*
G01*
X59320376Y-77771233D01*
X59348449Y-77781434D01*
X59385021Y-77801837D01*
X59416626Y-77828754D01*
X59429538Y-77843374D01*
X59452372Y-77876439D01*
X59470754Y-77914669D01*
X59480536Y-77943025D01*
X59489809Y-77981604D01*
X59495648Y-78023580D01*
X59497967Y-78064262D01*
X59498121Y-78078434D01*
X59498121Y-78265817D01*
X59496730Y-78307431D01*
X59492557Y-78346325D01*
X59484657Y-78386351D01*
X59480536Y-78401420D01*
X59466576Y-78439749D01*
X59447081Y-78476455D01*
X59429538Y-78500485D01*
X59402271Y-78528521D01*
X59368081Y-78552382D01*
X59347668Y-78562425D01*
X59309566Y-78574927D01*
X59267947Y-78581659D01*
X59238247Y-78582942D01*
X59197548Y-78580471D01*
X59156836Y-78572141D01*
X59128826Y-78562034D01*
X59092414Y-78541790D01*
X59060967Y-78515032D01*
X59048128Y-78500485D01*
X59025533Y-78467778D01*
X59007279Y-78429740D01*
X58997521Y-78401420D01*
X58988248Y-78362738D01*
X58982409Y-78320698D01*
X58980090Y-78279990D01*
X58979936Y-78265817D01*
X58979936Y-78142523D01*
X59082127Y-78142523D01*
X59082127Y-78174177D01*
X59082127Y-78287310D01*
X59083803Y-78329250D01*
X59089402Y-78369785D01*
X59094046Y-78389501D01*
X59107999Y-78426561D01*
X59130976Y-78459843D01*
X59162179Y-78483468D01*
X59176698Y-78490129D01*
X59215370Y-78499261D01*
X59238247Y-78500485D01*
X59278727Y-78496362D01*
X59297647Y-78490911D01*
X59332818Y-78471384D01*
X59342588Y-78462579D01*
X59366927Y-78430364D01*
X59375609Y-78412362D01*
X59387424Y-78375041D01*
X59393195Y-78341825D01*
X59082127Y-78103835D01*
X59082127Y-78142523D01*
X58979936Y-78142523D01*
X58979936Y-78078434D01*
X58981327Y-78036835D01*
X58984716Y-78006528D01*
X59084276Y-78006528D01*
X59395930Y-78245496D01*
X59395930Y-78217554D01*
X59395930Y-78190004D01*
X59395930Y-78055963D01*
X59394364Y-78015801D01*
X59389132Y-77976570D01*
X59384793Y-77957289D01*
X59370529Y-77918601D01*
X59350403Y-77887729D01*
X59319834Y-77863154D01*
X59303313Y-77855098D01*
X59265272Y-77845359D01*
X59239224Y-77843765D01*
X59199956Y-77847485D01*
X59176502Y-77854316D01*
X59141722Y-77874654D01*
X59130585Y-77885579D01*
X59107866Y-77918323D01*
X59100103Y-77936382D01*
X59089056Y-77975816D01*
X59084276Y-78006528D01*
X58984716Y-78006528D01*
X58986135Y-77993840D01*
X58994379Y-77954242D01*
X58997521Y-77943025D01*
X59011435Y-77904627D01*
X59030775Y-77867688D01*
X59048128Y-77843374D01*
X59077695Y-77813451D01*
X59112098Y-77790042D01*
X59129608Y-77781434D01*
X59167554Y-77768575D01*
X59209292Y-77761651D01*
X59239224Y-77760332D01*
X59279723Y-77762825D01*
G37*
G36*
X58607567Y-77762825D02*
G01*
X58648220Y-77771233D01*
X58676293Y-77781434D01*
X58712864Y-77801837D01*
X58744470Y-77828754D01*
X58757382Y-77843374D01*
X58780215Y-77876439D01*
X58798598Y-77914669D01*
X58808380Y-77943025D01*
X58817653Y-77981604D01*
X58823492Y-78023580D01*
X58825810Y-78064262D01*
X58825965Y-78078434D01*
X58825965Y-78265817D01*
X58824574Y-78307431D01*
X58820401Y-78346325D01*
X58812501Y-78386351D01*
X58808380Y-78401420D01*
X58794419Y-78439749D01*
X58774924Y-78476455D01*
X58757382Y-78500485D01*
X58730115Y-78528521D01*
X58695925Y-78552382D01*
X58675511Y-78562425D01*
X58637410Y-78574927D01*
X58595791Y-78581659D01*
X58566091Y-78582942D01*
X58525392Y-78580471D01*
X58484680Y-78572141D01*
X58456670Y-78562034D01*
X58420257Y-78541790D01*
X58388811Y-78515032D01*
X58375972Y-78500485D01*
X58353377Y-78467778D01*
X58335122Y-78429740D01*
X58325365Y-78401420D01*
X58316091Y-78362738D01*
X58310252Y-78320698D01*
X58307934Y-78279990D01*
X58307779Y-78265817D01*
X58307779Y-78142523D01*
X58409971Y-78142523D01*
X58409971Y-78174177D01*
X58409971Y-78287310D01*
X58411647Y-78329250D01*
X58417245Y-78369785D01*
X58421890Y-78389501D01*
X58435843Y-78426561D01*
X58458819Y-78459843D01*
X58490023Y-78483468D01*
X58504541Y-78490129D01*
X58543214Y-78499261D01*
X58566091Y-78500485D01*
X58606570Y-78496362D01*
X58625491Y-78490911D01*
X58660661Y-78471384D01*
X58670431Y-78462579D01*
X58694771Y-78430364D01*
X58703453Y-78412362D01*
X58715268Y-78375041D01*
X58721038Y-78341825D01*
X58409971Y-78103835D01*
X58409971Y-78142523D01*
X58307779Y-78142523D01*
X58307779Y-78078434D01*
X58309170Y-78036835D01*
X58312560Y-78006528D01*
X58412120Y-78006528D01*
X58723774Y-78245496D01*
X58723774Y-78217554D01*
X58723774Y-78190004D01*
X58723774Y-78055963D01*
X58722208Y-78015801D01*
X58716976Y-77976570D01*
X58712636Y-77957289D01*
X58698373Y-77918601D01*
X58678247Y-77887729D01*
X58647678Y-77863154D01*
X58631157Y-77855098D01*
X58593116Y-77845359D01*
X58567068Y-77843765D01*
X58527800Y-77847485D01*
X58504346Y-77854316D01*
X58469565Y-77874654D01*
X58458428Y-77885579D01*
X58435709Y-77918323D01*
X58427947Y-77936382D01*
X58416900Y-77975816D01*
X58412120Y-78006528D01*
X58312560Y-78006528D01*
X58313979Y-77993840D01*
X58322222Y-77954242D01*
X58325365Y-77943025D01*
X58339279Y-77904627D01*
X58358618Y-77867688D01*
X58375972Y-77843374D01*
X58405538Y-77813451D01*
X58439942Y-77790042D01*
X58457451Y-77781434D01*
X58495398Y-77768575D01*
X58537136Y-77761651D01*
X58567068Y-77760332D01*
X58607567Y-77762825D01*
G37*
G36*
X61841094Y-77302000D02*
G01*
X61841094Y-76501860D01*
X61849301Y-76501860D01*
X62152162Y-76618315D01*
X62152162Y-76711323D01*
X61942699Y-76631602D01*
X61942699Y-77302000D01*
X61841094Y-77302000D01*
G37*
G36*
X61168938Y-77302000D02*
G01*
X61168938Y-76501860D01*
X61177144Y-76501860D01*
X61480006Y-76618315D01*
X61480006Y-76711323D01*
X61270543Y-76631602D01*
X61270543Y-77302000D01*
X61168938Y-77302000D01*
G37*
G36*
X60790264Y-76900855D02*
G01*
X60708980Y-76921762D01*
X60682211Y-76900269D01*
X60654465Y-76884247D01*
X60621248Y-76874281D01*
X60582341Y-76870602D01*
X60577675Y-76870569D01*
X60537153Y-76874958D01*
X60509482Y-76884442D01*
X60476021Y-76905432D01*
X60459461Y-76921762D01*
X60437800Y-76955086D01*
X60428394Y-76978231D01*
X60419420Y-77018539D01*
X60417647Y-77048182D01*
X60420089Y-77087505D01*
X60427417Y-77123018D01*
X60442895Y-77160968D01*
X60455553Y-77180073D01*
X60484645Y-77206905D01*
X60502839Y-77217198D01*
X60541047Y-77228281D01*
X60567123Y-77230094D01*
X60608572Y-77225938D01*
X60647521Y-77211925D01*
X60672441Y-77194923D01*
X60698645Y-77163902D01*
X60714893Y-77127306D01*
X60722657Y-77091560D01*
X60819377Y-77091560D01*
X60812994Y-77131255D01*
X60800930Y-77169918D01*
X60792218Y-77188866D01*
X60770846Y-77222590D01*
X60742636Y-77252746D01*
X60736335Y-77258036D01*
X60702821Y-77280816D01*
X60664928Y-77297500D01*
X60659545Y-77299264D01*
X60620409Y-77308614D01*
X60579253Y-77312728D01*
X60567123Y-77312942D01*
X60525270Y-77310587D01*
X60484036Y-77302646D01*
X60456140Y-77293011D01*
X60420364Y-77274079D01*
X60387752Y-77247921D01*
X60377591Y-77237129D01*
X60353570Y-77203736D01*
X60336622Y-77168040D01*
X60331478Y-77153109D01*
X60321484Y-77111939D01*
X60316780Y-77071588D01*
X60316042Y-77047010D01*
X60318004Y-77006794D01*
X60324622Y-76965871D01*
X60332650Y-76937198D01*
X60348340Y-76899260D01*
X60370502Y-76863741D01*
X60379740Y-76852397D01*
X60409259Y-76825090D01*
X60443790Y-76803692D01*
X60454576Y-76798664D01*
X60492199Y-76786139D01*
X60533628Y-76780000D01*
X60554032Y-76779320D01*
X60594821Y-76781958D01*
X60630431Y-76789871D01*
X60667877Y-76804114D01*
X60686900Y-76813905D01*
X60664430Y-76600729D01*
X60339685Y-76600729D01*
X60339685Y-76501860D01*
X60750208Y-76501860D01*
X60790264Y-76900855D01*
G37*
G36*
X59663620Y-77302000D02*
G01*
X59663620Y-77218957D01*
X60065351Y-77218957D01*
X59850417Y-76986047D01*
X59822851Y-76955046D01*
X59796573Y-76923960D01*
X59793167Y-76919808D01*
X59768938Y-76888453D01*
X59746217Y-76854533D01*
X59744904Y-76852397D01*
X59725629Y-76816053D01*
X59712469Y-76783618D01*
X59702673Y-76744024D01*
X59700354Y-76712886D01*
X59703571Y-76672382D01*
X59714155Y-76632056D01*
X59717158Y-76624372D01*
X59736089Y-76588675D01*
X59761374Y-76557785D01*
X59765225Y-76554030D01*
X59797766Y-76529063D01*
X59833638Y-76510951D01*
X59842015Y-76507722D01*
X59880685Y-76496842D01*
X59919644Y-76491722D01*
X59943816Y-76490918D01*
X59984561Y-76493250D01*
X60025429Y-76501113D01*
X60053627Y-76510653D01*
X60090166Y-76528977D01*
X60123890Y-76553832D01*
X60134521Y-76563995D01*
X60160861Y-76595438D01*
X60181067Y-76631293D01*
X60185714Y-76642348D01*
X60197735Y-76682623D01*
X60202870Y-76722029D01*
X60203299Y-76737701D01*
X60101108Y-76737701D01*
X60098079Y-76697845D01*
X60091534Y-76670094D01*
X60074419Y-76634131D01*
X60062029Y-76618315D01*
X60030897Y-76594001D01*
X60013571Y-76585879D01*
X59974746Y-76576254D01*
X59943816Y-76574351D01*
X59903592Y-76579232D01*
X59884807Y-76585684D01*
X59851106Y-76606013D01*
X59840061Y-76616166D01*
X59817640Y-76648845D01*
X59812315Y-76661497D01*
X59803498Y-76700851D01*
X59802741Y-76717184D01*
X59807053Y-76757097D01*
X59808798Y-76764274D01*
X59823205Y-76801426D01*
X59829119Y-76812341D01*
X59850613Y-76846337D01*
X59867026Y-76868420D01*
X59893551Y-76900855D01*
X59919346Y-76930374D01*
X59925839Y-76937589D01*
X60187863Y-77228922D01*
X60187863Y-77302000D01*
X59663620Y-77302000D01*
G37*
G36*
X59279723Y-76492825D02*
G01*
X59320376Y-76501233D01*
X59348449Y-76511434D01*
X59385021Y-76531837D01*
X59416626Y-76558754D01*
X59429538Y-76573374D01*
X59452372Y-76606439D01*
X59470754Y-76644669D01*
X59480536Y-76673025D01*
X59489809Y-76711604D01*
X59495648Y-76753580D01*
X59497967Y-76794262D01*
X59498121Y-76808434D01*
X59498121Y-76995817D01*
X59496730Y-77037431D01*
X59492557Y-77076325D01*
X59484657Y-77116351D01*
X59480536Y-77131420D01*
X59466576Y-77169749D01*
X59447081Y-77206455D01*
X59429538Y-77230485D01*
X59402271Y-77258521D01*
X59368081Y-77282382D01*
X59347668Y-77292425D01*
X59309566Y-77304927D01*
X59267947Y-77311659D01*
X59238247Y-77312942D01*
X59197548Y-77310471D01*
X59156836Y-77302141D01*
X59128826Y-77292034D01*
X59092414Y-77271790D01*
X59060967Y-77245032D01*
X59048128Y-77230485D01*
X59025533Y-77197778D01*
X59007279Y-77159740D01*
X58997521Y-77131420D01*
X58988248Y-77092738D01*
X58982409Y-77050698D01*
X58980090Y-77009990D01*
X58979936Y-76995817D01*
X58979936Y-76872523D01*
X59082127Y-76872523D01*
X59082127Y-76904177D01*
X59082127Y-77017310D01*
X59083803Y-77059250D01*
X59089402Y-77099785D01*
X59094046Y-77119501D01*
X59107999Y-77156561D01*
X59130976Y-77189843D01*
X59162179Y-77213468D01*
X59176698Y-77220129D01*
X59215370Y-77229261D01*
X59238247Y-77230485D01*
X59278727Y-77226362D01*
X59297647Y-77220911D01*
X59332818Y-77201384D01*
X59342588Y-77192579D01*
X59366927Y-77160364D01*
X59375609Y-77142362D01*
X59387424Y-77105041D01*
X59393195Y-77071825D01*
X59082127Y-76833835D01*
X59082127Y-76872523D01*
X58979936Y-76872523D01*
X58979936Y-76808434D01*
X58981327Y-76766835D01*
X58984716Y-76736528D01*
X59084276Y-76736528D01*
X59395930Y-76975496D01*
X59395930Y-76947554D01*
X59395930Y-76920004D01*
X59395930Y-76785963D01*
X59394364Y-76745801D01*
X59389132Y-76706570D01*
X59384793Y-76687289D01*
X59370529Y-76648601D01*
X59350403Y-76617729D01*
X59319834Y-76593154D01*
X59303313Y-76585098D01*
X59265272Y-76575359D01*
X59239224Y-76573765D01*
X59199956Y-76577485D01*
X59176502Y-76584316D01*
X59141722Y-76604654D01*
X59130585Y-76615579D01*
X59107866Y-76648323D01*
X59100103Y-76666382D01*
X59089056Y-76705816D01*
X59084276Y-76736528D01*
X58984716Y-76736528D01*
X58986135Y-76723840D01*
X58994379Y-76684242D01*
X58997521Y-76673025D01*
X59011435Y-76634627D01*
X59030775Y-76597688D01*
X59048128Y-76573374D01*
X59077695Y-76543451D01*
X59112098Y-76520042D01*
X59129608Y-76511434D01*
X59167554Y-76498575D01*
X59209292Y-76491651D01*
X59239224Y-76490332D01*
X59279723Y-76492825D01*
G37*
G36*
X58607567Y-76492825D02*
G01*
X58648220Y-76501233D01*
X58676293Y-76511434D01*
X58712864Y-76531837D01*
X58744470Y-76558754D01*
X58757382Y-76573374D01*
X58780215Y-76606439D01*
X58798598Y-76644669D01*
X58808380Y-76673025D01*
X58817653Y-76711604D01*
X58823492Y-76753580D01*
X58825810Y-76794262D01*
X58825965Y-76808434D01*
X58825965Y-76995817D01*
X58824574Y-77037431D01*
X58820401Y-77076325D01*
X58812501Y-77116351D01*
X58808380Y-77131420D01*
X58794419Y-77169749D01*
X58774924Y-77206455D01*
X58757382Y-77230485D01*
X58730115Y-77258521D01*
X58695925Y-77282382D01*
X58675511Y-77292425D01*
X58637410Y-77304927D01*
X58595791Y-77311659D01*
X58566091Y-77312942D01*
X58525392Y-77310471D01*
X58484680Y-77302141D01*
X58456670Y-77292034D01*
X58420257Y-77271790D01*
X58388811Y-77245032D01*
X58375972Y-77230485D01*
X58353377Y-77197778D01*
X58335122Y-77159740D01*
X58325365Y-77131420D01*
X58316091Y-77092738D01*
X58310252Y-77050698D01*
X58307934Y-77009990D01*
X58307779Y-76995817D01*
X58307779Y-76872523D01*
X58409971Y-76872523D01*
X58409971Y-76904177D01*
X58409971Y-77017310D01*
X58411647Y-77059250D01*
X58417245Y-77099785D01*
X58421890Y-77119501D01*
X58435843Y-77156561D01*
X58458819Y-77189843D01*
X58490023Y-77213468D01*
X58504541Y-77220129D01*
X58543214Y-77229261D01*
X58566091Y-77230485D01*
X58606570Y-77226362D01*
X58625491Y-77220911D01*
X58660661Y-77201384D01*
X58670431Y-77192579D01*
X58694771Y-77160364D01*
X58703453Y-77142362D01*
X58715268Y-77105041D01*
X58721038Y-77071825D01*
X58409971Y-76833835D01*
X58409971Y-76872523D01*
X58307779Y-76872523D01*
X58307779Y-76808434D01*
X58309170Y-76766835D01*
X58312560Y-76736528D01*
X58412120Y-76736528D01*
X58723774Y-76975496D01*
X58723774Y-76947554D01*
X58723774Y-76920004D01*
X58723774Y-76785963D01*
X58722208Y-76745801D01*
X58716976Y-76706570D01*
X58712636Y-76687289D01*
X58698373Y-76648601D01*
X58678247Y-76617729D01*
X58647678Y-76593154D01*
X58631157Y-76585098D01*
X58593116Y-76575359D01*
X58567068Y-76573765D01*
X58527800Y-76577485D01*
X58504346Y-76584316D01*
X58469565Y-76604654D01*
X58458428Y-76615579D01*
X58435709Y-76648323D01*
X58427947Y-76666382D01*
X58416900Y-76705816D01*
X58412120Y-76736528D01*
X58312560Y-76736528D01*
X58313979Y-76723840D01*
X58322222Y-76684242D01*
X58325365Y-76673025D01*
X58339279Y-76634627D01*
X58358618Y-76597688D01*
X58375972Y-76573374D01*
X58405538Y-76543451D01*
X58439942Y-76520042D01*
X58457451Y-76511434D01*
X58495398Y-76498575D01*
X58537136Y-76491651D01*
X58567068Y-76490332D01*
X58607567Y-76492825D01*
G37*
G36*
X61305023Y-75223550D02*
G01*
X61345190Y-75232425D01*
X61372539Y-75243193D01*
X61407711Y-75263774D01*
X61437659Y-75289322D01*
X61449720Y-75302788D01*
X61472668Y-75335651D01*
X61490392Y-75372642D01*
X61496810Y-75391106D01*
X61506335Y-75429648D01*
X61511464Y-75469948D01*
X61512441Y-75497792D01*
X61510281Y-75537067D01*
X61503799Y-75576148D01*
X61499350Y-75594121D01*
X61486104Y-75631245D01*
X61466356Y-75667619D01*
X61457926Y-75679704D01*
X61430560Y-75710104D01*
X61397360Y-75734970D01*
X61386803Y-75741057D01*
X61349073Y-75756112D01*
X61309551Y-75763197D01*
X61284416Y-75764309D01*
X61244276Y-75761354D01*
X61227556Y-75758057D01*
X61189508Y-75745306D01*
X61179880Y-75740667D01*
X61145900Y-75718825D01*
X61141583Y-75715265D01*
X61113788Y-75687260D01*
X61111297Y-75684198D01*
X61111297Y-75685175D01*
X61115261Y-75725745D01*
X61122708Y-75765218D01*
X61127319Y-75783067D01*
X61142051Y-75820487D01*
X61164975Y-75855907D01*
X61178317Y-75871581D01*
X61209524Y-75897974D01*
X61245401Y-75917392D01*
X61260969Y-75923556D01*
X61299323Y-75934013D01*
X61339440Y-75939752D01*
X61379820Y-75941851D01*
X61389343Y-75941923D01*
X61399699Y-75941923D01*
X61399699Y-76032586D01*
X61389343Y-76032586D01*
X61347518Y-76031286D01*
X61308554Y-76027387D01*
X61267528Y-76019748D01*
X61225839Y-76007097D01*
X61221499Y-76005426D01*
X61185066Y-75988725D01*
X61150132Y-75967086D01*
X61118448Y-75939538D01*
X61113446Y-75934107D01*
X61087225Y-75901382D01*
X61065323Y-75866638D01*
X61047742Y-75829874D01*
X61034479Y-75791091D01*
X61028840Y-75768022D01*
X61021151Y-75727036D01*
X61015350Y-75686143D01*
X61011438Y-75645344D01*
X61009414Y-75604639D01*
X61009106Y-75581420D01*
X61009106Y-75544491D01*
X61009700Y-75530813D01*
X61110124Y-75530813D01*
X61110124Y-75563835D01*
X61128040Y-75599885D01*
X61135721Y-75610729D01*
X61163566Y-75640244D01*
X61172260Y-75647268D01*
X61207074Y-75667771D01*
X61217591Y-75671888D01*
X61256589Y-75679888D01*
X61267808Y-75680290D01*
X61308217Y-75674572D01*
X61331897Y-75664072D01*
X61363421Y-75638411D01*
X61376642Y-75621476D01*
X61395693Y-75585603D01*
X61403607Y-75561295D01*
X61410716Y-75522833D01*
X61412399Y-75492321D01*
X61409642Y-75451818D01*
X61402630Y-75418461D01*
X61387490Y-75380862D01*
X61373321Y-75358866D01*
X61345086Y-75330840D01*
X61327208Y-75319787D01*
X61289640Y-75307529D01*
X61264095Y-75305524D01*
X61224405Y-75312171D01*
X61204891Y-75320960D01*
X61172727Y-75345277D01*
X61155847Y-75364923D01*
X61136059Y-75399441D01*
X61122630Y-75435852D01*
X61114081Y-75474512D01*
X61110430Y-75514430D01*
X61110124Y-75530813D01*
X61009700Y-75530813D01*
X61010880Y-75503664D01*
X61016204Y-75462761D01*
X61025077Y-75421782D01*
X61027277Y-75413577D01*
X61040306Y-75374559D01*
X61058781Y-75336576D01*
X61081597Y-75303765D01*
X61111244Y-75273915D01*
X61143797Y-75251220D01*
X61157605Y-75243779D01*
X61197114Y-75228977D01*
X61238334Y-75222012D01*
X61264486Y-75220918D01*
X61305023Y-75223550D01*
G37*
G36*
X60502192Y-75232776D02*
G01*
X60541674Y-75237282D01*
X60583376Y-75245943D01*
X60613823Y-75255307D01*
X60650244Y-75270571D01*
X60686942Y-75291881D01*
X60719670Y-75317771D01*
X60728715Y-75326431D01*
X60756646Y-75357782D01*
X60780257Y-75391827D01*
X60799549Y-75428564D01*
X60814520Y-75467994D01*
X60821136Y-75491734D01*
X60830273Y-75534208D01*
X60837165Y-75577000D01*
X60841813Y-75620110D01*
X60844217Y-75663538D01*
X60844584Y-75688496D01*
X60844584Y-75736368D01*
X60842506Y-75776376D01*
X60836272Y-75816338D01*
X60826998Y-75852628D01*
X60812784Y-75890705D01*
X60794322Y-75925411D01*
X60773851Y-75954037D01*
X60745396Y-75983688D01*
X60712104Y-76008501D01*
X60695107Y-76018322D01*
X60657994Y-76033325D01*
X60616705Y-76041403D01*
X60586859Y-76042942D01*
X60546678Y-76040425D01*
X60506795Y-76031939D01*
X60479587Y-76021644D01*
X60444318Y-76001568D01*
X60414080Y-75976269D01*
X60401820Y-75962830D01*
X60378872Y-75930761D01*
X60361148Y-75894564D01*
X60354730Y-75876466D01*
X60345205Y-75838455D01*
X60340076Y-75798577D01*
X60339272Y-75775838D01*
X60439141Y-75775838D01*
X60441843Y-75816327D01*
X60448715Y-75849306D01*
X60463322Y-75886072D01*
X60477047Y-75907338D01*
X60505798Y-75934506D01*
X60523746Y-75945244D01*
X60561314Y-75956999D01*
X60586859Y-75958922D01*
X60626200Y-75952695D01*
X60645868Y-75944463D01*
X60678199Y-75920878D01*
X60695107Y-75901672D01*
X60716505Y-75866157D01*
X60729301Y-75832893D01*
X60737850Y-75794745D01*
X60741501Y-75755304D01*
X60741806Y-75739103D01*
X60741806Y-75705105D01*
X60724294Y-75669531D01*
X60716796Y-75658796D01*
X60688779Y-75629826D01*
X60679866Y-75623039D01*
X60645171Y-75604077D01*
X60634730Y-75600178D01*
X60595918Y-75592178D01*
X60584709Y-75591776D01*
X60544325Y-75597218D01*
X60520425Y-75607212D01*
X60488388Y-75631932D01*
X60474898Y-75648441D01*
X60455847Y-75683581D01*
X60447933Y-75707450D01*
X60440592Y-75747584D01*
X60439141Y-75775838D01*
X60339272Y-75775838D01*
X60339099Y-75770953D01*
X60341292Y-75731521D01*
X60347870Y-75692606D01*
X60352385Y-75674819D01*
X60366683Y-75635351D01*
X60386665Y-75599699D01*
X60393418Y-75590213D01*
X60420955Y-75560229D01*
X60454326Y-75535930D01*
X60464933Y-75530032D01*
X60502918Y-75515230D01*
X60542847Y-75508264D01*
X60568296Y-75507170D01*
X60608010Y-75510797D01*
X60620662Y-75513618D01*
X60658982Y-75526488D01*
X60667166Y-75530227D01*
X60700664Y-75550459D01*
X60707808Y-75555824D01*
X60737193Y-75583222D01*
X60740829Y-75587478D01*
X60736305Y-75548295D01*
X60727713Y-75509882D01*
X60719727Y-75484700D01*
X60702380Y-75446315D01*
X60679551Y-75412445D01*
X60667166Y-75398336D01*
X60637466Y-75372558D01*
X60602025Y-75351423D01*
X60583732Y-75343235D01*
X60546331Y-75331443D01*
X60503711Y-75324546D01*
X60460439Y-75322523D01*
X60451646Y-75322523D01*
X60451646Y-75231274D01*
X60460439Y-75231274D01*
X60502192Y-75232776D01*
G37*
G36*
X59951880Y-75222825D02*
G01*
X59992533Y-75231233D01*
X60020606Y-75241434D01*
X60057177Y-75261837D01*
X60088783Y-75288754D01*
X60101695Y-75303374D01*
X60124528Y-75336439D01*
X60142911Y-75374669D01*
X60152693Y-75403025D01*
X60161966Y-75441604D01*
X60167805Y-75483580D01*
X60170123Y-75524262D01*
X60170278Y-75538434D01*
X60170278Y-75725817D01*
X60168887Y-75767431D01*
X60164714Y-75806325D01*
X60156814Y-75846351D01*
X60152693Y-75861420D01*
X60138732Y-75899749D01*
X60119237Y-75936455D01*
X60101695Y-75960485D01*
X60074428Y-75988521D01*
X60040238Y-76012382D01*
X60019824Y-76022425D01*
X59981723Y-76034927D01*
X59940104Y-76041659D01*
X59910404Y-76042942D01*
X59869705Y-76040471D01*
X59828993Y-76032141D01*
X59800983Y-76022034D01*
X59764570Y-76001790D01*
X59733124Y-75975032D01*
X59720285Y-75960485D01*
X59697689Y-75927778D01*
X59679435Y-75889740D01*
X59669678Y-75861420D01*
X59660404Y-75822738D01*
X59654565Y-75780698D01*
X59652247Y-75739990D01*
X59652092Y-75725817D01*
X59652092Y-75602523D01*
X59754284Y-75602523D01*
X59754284Y-75634177D01*
X59754284Y-75747310D01*
X59755960Y-75789250D01*
X59761558Y-75829785D01*
X59766203Y-75849501D01*
X59780156Y-75886561D01*
X59803132Y-75919843D01*
X59834336Y-75943468D01*
X59848854Y-75950129D01*
X59887527Y-75959261D01*
X59910404Y-75960485D01*
X59950883Y-75956362D01*
X59969803Y-75950911D01*
X60004974Y-75931384D01*
X60014744Y-75922579D01*
X60039084Y-75890364D01*
X60047766Y-75872362D01*
X60059581Y-75835041D01*
X60065351Y-75801825D01*
X59754284Y-75563835D01*
X59754284Y-75602523D01*
X59652092Y-75602523D01*
X59652092Y-75538434D01*
X59653483Y-75496835D01*
X59656873Y-75466528D01*
X59756433Y-75466528D01*
X60068087Y-75705496D01*
X60068087Y-75677554D01*
X60068087Y-75650004D01*
X60068087Y-75515963D01*
X60066521Y-75475801D01*
X60061289Y-75436570D01*
X60056949Y-75417289D01*
X60042686Y-75378601D01*
X60022560Y-75347729D01*
X59991991Y-75323154D01*
X59975470Y-75315098D01*
X59937429Y-75305359D01*
X59911381Y-75303765D01*
X59872113Y-75307485D01*
X59848659Y-75314316D01*
X59813878Y-75334654D01*
X59802741Y-75345579D01*
X59780022Y-75378323D01*
X59772260Y-75396382D01*
X59761213Y-75435816D01*
X59756433Y-75466528D01*
X59656873Y-75466528D01*
X59658292Y-75453840D01*
X59666535Y-75414242D01*
X59669678Y-75403025D01*
X59683592Y-75364627D01*
X59702931Y-75327688D01*
X59720285Y-75303374D01*
X59749851Y-75273451D01*
X59784254Y-75250042D01*
X59801764Y-75241434D01*
X59839711Y-75228575D01*
X59881449Y-75221651D01*
X59911381Y-75220332D01*
X59951880Y-75222825D01*
G37*
G36*
X59279724Y-75222825D02*
G01*
X59320376Y-75231233D01*
X59348450Y-75241434D01*
X59385021Y-75261837D01*
X59416626Y-75288754D01*
X59429538Y-75303374D01*
X59452372Y-75336439D01*
X59470754Y-75374669D01*
X59480536Y-75403025D01*
X59489810Y-75441604D01*
X59495649Y-75483580D01*
X59497967Y-75524262D01*
X59498122Y-75538434D01*
X59498122Y-75725817D01*
X59496731Y-75767431D01*
X59492558Y-75806325D01*
X59484658Y-75846351D01*
X59480536Y-75861420D01*
X59466576Y-75899749D01*
X59447081Y-75936455D01*
X59429538Y-75960485D01*
X59402272Y-75988521D01*
X59368082Y-76012382D01*
X59347668Y-76022425D01*
X59309566Y-76034927D01*
X59267947Y-76041659D01*
X59238247Y-76042942D01*
X59197548Y-76040471D01*
X59156836Y-76032141D01*
X59128827Y-76022034D01*
X59092414Y-76001790D01*
X59060967Y-75975032D01*
X59048129Y-75960485D01*
X59025533Y-75927778D01*
X59007279Y-75889740D01*
X58997522Y-75861420D01*
X58988248Y-75822738D01*
X58982409Y-75780698D01*
X58980091Y-75739990D01*
X58979936Y-75725817D01*
X58979936Y-75602523D01*
X59082127Y-75602523D01*
X59082127Y-75634177D01*
X59082127Y-75747310D01*
X59083803Y-75789250D01*
X59089402Y-75829785D01*
X59094046Y-75849501D01*
X59108000Y-75886561D01*
X59130976Y-75919843D01*
X59162180Y-75943468D01*
X59176698Y-75950129D01*
X59215371Y-75959261D01*
X59238247Y-75960485D01*
X59278727Y-75956362D01*
X59297647Y-75950911D01*
X59332818Y-75931384D01*
X59342588Y-75922579D01*
X59366927Y-75890364D01*
X59375609Y-75872362D01*
X59387425Y-75835041D01*
X59393195Y-75801825D01*
X59082127Y-75563835D01*
X59082127Y-75602523D01*
X58979936Y-75602523D01*
X58979936Y-75538434D01*
X58981327Y-75496835D01*
X58984717Y-75466528D01*
X59084277Y-75466528D01*
X59395930Y-75705496D01*
X59395930Y-75677554D01*
X59395930Y-75650004D01*
X59395930Y-75515963D01*
X59394364Y-75475801D01*
X59389133Y-75436570D01*
X59384793Y-75417289D01*
X59370529Y-75378601D01*
X59350404Y-75347729D01*
X59319834Y-75323154D01*
X59303314Y-75315098D01*
X59265273Y-75305359D01*
X59239224Y-75303765D01*
X59199957Y-75307485D01*
X59176503Y-75314316D01*
X59141722Y-75334654D01*
X59130585Y-75345579D01*
X59107866Y-75378323D01*
X59100104Y-75396382D01*
X59089057Y-75435816D01*
X59084277Y-75466528D01*
X58984717Y-75466528D01*
X58986136Y-75453840D01*
X58994379Y-75414242D01*
X58997522Y-75403025D01*
X59011436Y-75364627D01*
X59030775Y-75327688D01*
X59048129Y-75303374D01*
X59077695Y-75273451D01*
X59112098Y-75250042D01*
X59129608Y-75241434D01*
X59167554Y-75228575D01*
X59209292Y-75221651D01*
X59239224Y-75220332D01*
X59279724Y-75222825D01*
G37*
G36*
X61553083Y-74516389D02*
G01*
X61553083Y-74576180D01*
X61188282Y-74576180D01*
X61188282Y-74762000D01*
X61086482Y-74762000D01*
X61086482Y-74576180D01*
X60974912Y-74576180D01*
X60974912Y-74493332D01*
X61086482Y-74493332D01*
X61188282Y-74493332D01*
X61440341Y-74493332D01*
X61204695Y-74127750D01*
X61188282Y-74097073D01*
X61188282Y-74493332D01*
X61086482Y-74493332D01*
X61086482Y-73961860D01*
X61194730Y-73961860D01*
X61553083Y-74516389D01*
G37*
G36*
X60611764Y-73953369D02*
G01*
X60652113Y-73961490D01*
X60665798Y-73965768D01*
X60703533Y-73982566D01*
X60735773Y-74005118D01*
X60739657Y-74008559D01*
X60766101Y-74037631D01*
X60786449Y-74072455D01*
X60788701Y-74077533D01*
X60800722Y-74115569D01*
X60805857Y-74154705D01*
X60806286Y-74170736D01*
X60802407Y-74210281D01*
X60798080Y-74227401D01*
X60782671Y-74263761D01*
X60774828Y-74276836D01*
X60750150Y-74307557D01*
X60738680Y-74318259D01*
X60706818Y-74341113D01*
X60690808Y-74349913D01*
X60726865Y-74368949D01*
X60746300Y-74382935D01*
X60775757Y-74410940D01*
X60788701Y-74427289D01*
X60808248Y-74462564D01*
X60815665Y-74482586D01*
X60823557Y-74521405D01*
X60824849Y-74546089D01*
X60822074Y-74585510D01*
X60812804Y-74624247D01*
X60805114Y-74643395D01*
X60784966Y-74677707D01*
X60756988Y-74708659D01*
X60750599Y-74714128D01*
X60718494Y-74736872D01*
X60681677Y-74754156D01*
X60670292Y-74758092D01*
X60631282Y-74767706D01*
X60589822Y-74772420D01*
X60569859Y-74772942D01*
X60528091Y-74770459D01*
X60488516Y-74763009D01*
X60470990Y-74757896D01*
X60432810Y-74742001D01*
X60398969Y-74720646D01*
X60390097Y-74713542D01*
X60361314Y-74683792D01*
X60340028Y-74650602D01*
X60336168Y-74642809D01*
X60322410Y-74603427D01*
X60316533Y-74562773D01*
X60316042Y-74546089D01*
X60316259Y-74543744D01*
X60417647Y-74543744D01*
X60422074Y-74584243D01*
X60428980Y-74605684D01*
X60449532Y-74640386D01*
X60460048Y-74651602D01*
X60493297Y-74673844D01*
X60508505Y-74680129D01*
X60547535Y-74688917D01*
X60569859Y-74690094D01*
X60609214Y-74686581D01*
X60633362Y-74680129D01*
X60668256Y-74662364D01*
X60681429Y-74651602D01*
X60705155Y-74620297D01*
X60711911Y-74605684D01*
X60721388Y-74566755D01*
X60722658Y-74543744D01*
X60718460Y-74504116D01*
X60711911Y-74482390D01*
X60692886Y-74447396D01*
X60681429Y-74433933D01*
X60648821Y-74410106D01*
X60633753Y-74403256D01*
X60594047Y-74393434D01*
X60571032Y-74392118D01*
X60531159Y-74396469D01*
X60509287Y-74403256D01*
X60474025Y-74422457D01*
X60460439Y-74433933D01*
X60436838Y-74465568D01*
X60428980Y-74482390D01*
X60418986Y-74521420D01*
X60417647Y-74543744D01*
X60316259Y-74543744D01*
X60319782Y-74505606D01*
X60325616Y-74482781D01*
X60341633Y-74445735D01*
X60352776Y-74427875D01*
X60379572Y-74397233D01*
X60395958Y-74383130D01*
X60429435Y-74361148D01*
X60451646Y-74350304D01*
X60418820Y-74330569D01*
X60390683Y-74306926D01*
X60365909Y-74276528D01*
X60349455Y-74245768D01*
X60337757Y-74207172D01*
X60334366Y-74172300D01*
X60436405Y-74172300D01*
X60441115Y-74212071D01*
X60446370Y-74228378D01*
X60466406Y-74263111D01*
X60473725Y-74271169D01*
X60506173Y-74294434D01*
X60516712Y-74299110D01*
X60556169Y-74308086D01*
X60570445Y-74308685D01*
X60610414Y-74303739D01*
X60624570Y-74299110D01*
X60658559Y-74278717D01*
X60666579Y-74271169D01*
X60689725Y-74239160D01*
X60694325Y-74228573D01*
X60703142Y-74189390D01*
X60703900Y-74172300D01*
X60699374Y-74131991D01*
X60694325Y-74115440D01*
X60674476Y-74079977D01*
X60667166Y-74071672D01*
X60634204Y-74048007D01*
X60625351Y-74044121D01*
X60586040Y-74034962D01*
X60571618Y-74034351D01*
X60531549Y-74039600D01*
X60517298Y-74044512D01*
X60482580Y-74065277D01*
X60474312Y-74072844D01*
X60451366Y-74106089D01*
X60446566Y-74116808D01*
X60437209Y-74155665D01*
X60436405Y-74172300D01*
X60334366Y-74172300D01*
X60334214Y-74170736D01*
X60337213Y-74130186D01*
X60347150Y-74090628D01*
X60352385Y-74077533D01*
X60372286Y-74041942D01*
X60398284Y-74012103D01*
X60402211Y-74008559D01*
X60434646Y-73985241D01*
X60472232Y-73967675D01*
X60477633Y-73965768D01*
X60516972Y-73955616D01*
X60555980Y-73951280D01*
X60571618Y-73950918D01*
X60611764Y-73953369D01*
G37*
G36*
X59951880Y-73952825D02*
G01*
X59992533Y-73961233D01*
X60020606Y-73971434D01*
X60057177Y-73991837D01*
X60088783Y-74018754D01*
X60101695Y-74033374D01*
X60124528Y-74066439D01*
X60142911Y-74104669D01*
X60152693Y-74133025D01*
X60161966Y-74171604D01*
X60167805Y-74213580D01*
X60170123Y-74254262D01*
X60170278Y-74268434D01*
X60170278Y-74455817D01*
X60168887Y-74497431D01*
X60164714Y-74536325D01*
X60156814Y-74576351D01*
X60152693Y-74591420D01*
X60138732Y-74629749D01*
X60119237Y-74666455D01*
X60101695Y-74690485D01*
X60074428Y-74718521D01*
X60040238Y-74742382D01*
X60019824Y-74752425D01*
X59981723Y-74764927D01*
X59940104Y-74771659D01*
X59910404Y-74772942D01*
X59869705Y-74770471D01*
X59828993Y-74762141D01*
X59800983Y-74752034D01*
X59764570Y-74731790D01*
X59733124Y-74705032D01*
X59720285Y-74690485D01*
X59697689Y-74657778D01*
X59679435Y-74619740D01*
X59669678Y-74591420D01*
X59660404Y-74552738D01*
X59654565Y-74510698D01*
X59652247Y-74469990D01*
X59652092Y-74455817D01*
X59652092Y-74332523D01*
X59754284Y-74332523D01*
X59754284Y-74364177D01*
X59754284Y-74477310D01*
X59755960Y-74519250D01*
X59761558Y-74559785D01*
X59766203Y-74579501D01*
X59780156Y-74616561D01*
X59803132Y-74649843D01*
X59834336Y-74673468D01*
X59848854Y-74680129D01*
X59887527Y-74689261D01*
X59910404Y-74690485D01*
X59950883Y-74686362D01*
X59969803Y-74680911D01*
X60004974Y-74661384D01*
X60014744Y-74652579D01*
X60039084Y-74620364D01*
X60047766Y-74602362D01*
X60059581Y-74565041D01*
X60065351Y-74531825D01*
X59754284Y-74293835D01*
X59754284Y-74332523D01*
X59652092Y-74332523D01*
X59652092Y-74268434D01*
X59653483Y-74226835D01*
X59656873Y-74196528D01*
X59756433Y-74196528D01*
X60068087Y-74435496D01*
X60068087Y-74407554D01*
X60068087Y-74380004D01*
X60068087Y-74245963D01*
X60066521Y-74205801D01*
X60061289Y-74166570D01*
X60056949Y-74147289D01*
X60042686Y-74108601D01*
X60022560Y-74077729D01*
X59991991Y-74053154D01*
X59975470Y-74045098D01*
X59937429Y-74035359D01*
X59911381Y-74033765D01*
X59872113Y-74037485D01*
X59848659Y-74044316D01*
X59813878Y-74064654D01*
X59802741Y-74075579D01*
X59780022Y-74108323D01*
X59772260Y-74126382D01*
X59761213Y-74165816D01*
X59756433Y-74196528D01*
X59656873Y-74196528D01*
X59658292Y-74183840D01*
X59666535Y-74144242D01*
X59669678Y-74133025D01*
X59683592Y-74094627D01*
X59702931Y-74057688D01*
X59720285Y-74033374D01*
X59749851Y-74003451D01*
X59784254Y-73980042D01*
X59801764Y-73971434D01*
X59839711Y-73958575D01*
X59881449Y-73951651D01*
X59911381Y-73950332D01*
X59951880Y-73952825D01*
G37*
G36*
X59279724Y-73952825D02*
G01*
X59320376Y-73961233D01*
X59348450Y-73971434D01*
X59385021Y-73991837D01*
X59416626Y-74018754D01*
X59429538Y-74033374D01*
X59452372Y-74066439D01*
X59470754Y-74104669D01*
X59480536Y-74133025D01*
X59489810Y-74171604D01*
X59495649Y-74213580D01*
X59497967Y-74254262D01*
X59498122Y-74268434D01*
X59498122Y-74455817D01*
X59496731Y-74497431D01*
X59492558Y-74536325D01*
X59484658Y-74576351D01*
X59480536Y-74591420D01*
X59466576Y-74629749D01*
X59447081Y-74666455D01*
X59429538Y-74690485D01*
X59402272Y-74718521D01*
X59368082Y-74742382D01*
X59347668Y-74752425D01*
X59309566Y-74764927D01*
X59267947Y-74771659D01*
X59238247Y-74772942D01*
X59197548Y-74770471D01*
X59156836Y-74762141D01*
X59128827Y-74752034D01*
X59092414Y-74731790D01*
X59060967Y-74705032D01*
X59048129Y-74690485D01*
X59025533Y-74657778D01*
X59007279Y-74619740D01*
X58997522Y-74591420D01*
X58988248Y-74552738D01*
X58982409Y-74510698D01*
X58980091Y-74469990D01*
X58979936Y-74455817D01*
X58979936Y-74332523D01*
X59082127Y-74332523D01*
X59082127Y-74364177D01*
X59082127Y-74477310D01*
X59083803Y-74519250D01*
X59089402Y-74559785D01*
X59094046Y-74579501D01*
X59108000Y-74616561D01*
X59130976Y-74649843D01*
X59162180Y-74673468D01*
X59176698Y-74680129D01*
X59215371Y-74689261D01*
X59238247Y-74690485D01*
X59278727Y-74686362D01*
X59297647Y-74680911D01*
X59332818Y-74661384D01*
X59342588Y-74652579D01*
X59366927Y-74620364D01*
X59375609Y-74602362D01*
X59387425Y-74565041D01*
X59393195Y-74531825D01*
X59082127Y-74293835D01*
X59082127Y-74332523D01*
X58979936Y-74332523D01*
X58979936Y-74268434D01*
X58981327Y-74226835D01*
X58984717Y-74196528D01*
X59084277Y-74196528D01*
X59395930Y-74435496D01*
X59395930Y-74407554D01*
X59395930Y-74380004D01*
X59395930Y-74245963D01*
X59394364Y-74205801D01*
X59389133Y-74166570D01*
X59384793Y-74147289D01*
X59370529Y-74108601D01*
X59350404Y-74077729D01*
X59319834Y-74053154D01*
X59303314Y-74045098D01*
X59265273Y-74035359D01*
X59239224Y-74033765D01*
X59199957Y-74037485D01*
X59176503Y-74044316D01*
X59141722Y-74064654D01*
X59130585Y-74075579D01*
X59107866Y-74108323D01*
X59100104Y-74126382D01*
X59089057Y-74165816D01*
X59084277Y-74196528D01*
X58984717Y-74196528D01*
X58986136Y-74183840D01*
X58994379Y-74144242D01*
X58997522Y-74133025D01*
X59011436Y-74094627D01*
X59030775Y-74057688D01*
X59048129Y-74033374D01*
X59077695Y-74003451D01*
X59112098Y-73980042D01*
X59129608Y-73971434D01*
X59167554Y-73958575D01*
X59209292Y-73951651D01*
X59239224Y-73950332D01*
X59279724Y-73952825D01*
G37*
G36*
X63970704Y-78572000D02*
G01*
X63970704Y-77771860D01*
X63978911Y-77771860D01*
X64281772Y-77888315D01*
X64281772Y-77981323D01*
X64072309Y-77901602D01*
X64072309Y-78572000D01*
X63970704Y-78572000D01*
G37*
G36*
X66510704Y-78572000D02*
G01*
X66510704Y-77771860D01*
X66518911Y-77771860D01*
X66821772Y-77888315D01*
X66821772Y-77981323D01*
X66612309Y-77901602D01*
X66612309Y-78572000D01*
X66510704Y-78572000D01*
G37*
G36*
X64097959Y-76492825D02*
G01*
X64138611Y-76501233D01*
X64166685Y-76511434D01*
X64203256Y-76531837D01*
X64234861Y-76558754D01*
X64247773Y-76573374D01*
X64270607Y-76606439D01*
X64288989Y-76644669D01*
X64298771Y-76673025D01*
X64308045Y-76711604D01*
X64313884Y-76753580D01*
X64316202Y-76794262D01*
X64316357Y-76808434D01*
X64316357Y-76995817D01*
X64314966Y-77037431D01*
X64310792Y-77076325D01*
X64302893Y-77116351D01*
X64298771Y-77131420D01*
X64284811Y-77169749D01*
X64265316Y-77206455D01*
X64247773Y-77230485D01*
X64220507Y-77258521D01*
X64186317Y-77282382D01*
X64165903Y-77292425D01*
X64127801Y-77304927D01*
X64086182Y-77311659D01*
X64056482Y-77312942D01*
X64015783Y-77310471D01*
X63975071Y-77302141D01*
X63947061Y-77292034D01*
X63910649Y-77271790D01*
X63879202Y-77245032D01*
X63866364Y-77230485D01*
X63843768Y-77197778D01*
X63825514Y-77159740D01*
X63815756Y-77131420D01*
X63806483Y-77092738D01*
X63800644Y-77050698D01*
X63798326Y-77009990D01*
X63798171Y-76995817D01*
X63798171Y-76872523D01*
X63900362Y-76872523D01*
X63900362Y-76904177D01*
X63900362Y-77017310D01*
X63902038Y-77059250D01*
X63907637Y-77099785D01*
X63912281Y-77119501D01*
X63926235Y-77156561D01*
X63949211Y-77189843D01*
X63980415Y-77213468D01*
X63994933Y-77220129D01*
X64033606Y-77229261D01*
X64056482Y-77230485D01*
X64096962Y-77226362D01*
X64115882Y-77220911D01*
X64151053Y-77201384D01*
X64160823Y-77192579D01*
X64185162Y-77160364D01*
X64193844Y-77142362D01*
X64205660Y-77105041D01*
X64211430Y-77071825D01*
X63900362Y-76833835D01*
X63900362Y-76872523D01*
X63798171Y-76872523D01*
X63798171Y-76808434D01*
X63799562Y-76766835D01*
X63802952Y-76736528D01*
X63902512Y-76736528D01*
X64214165Y-76975496D01*
X64214165Y-76947554D01*
X64214165Y-76920004D01*
X64214165Y-76785963D01*
X64212599Y-76745801D01*
X64207368Y-76706570D01*
X64203028Y-76687289D01*
X64188764Y-76648601D01*
X64168639Y-76617729D01*
X64138069Y-76593154D01*
X64121549Y-76585098D01*
X64083508Y-76575359D01*
X64057459Y-76573765D01*
X64018192Y-76577485D01*
X63994738Y-76584316D01*
X63959957Y-76604654D01*
X63948820Y-76615579D01*
X63926101Y-76648323D01*
X63918338Y-76666382D01*
X63907292Y-76705816D01*
X63902512Y-76736528D01*
X63802952Y-76736528D01*
X63804371Y-76723840D01*
X63812614Y-76684242D01*
X63815756Y-76673025D01*
X63829671Y-76634627D01*
X63849010Y-76597688D01*
X63866364Y-76573374D01*
X63895930Y-76543451D01*
X63930333Y-76520042D01*
X63947843Y-76511434D01*
X63985789Y-76498575D01*
X64027527Y-76491651D01*
X64057459Y-76490332D01*
X64097959Y-76492825D01*
G37*
G36*
X66510704Y-77302000D02*
G01*
X66510704Y-76501860D01*
X66518911Y-76501860D01*
X66821772Y-76618315D01*
X66821772Y-76711323D01*
X66612309Y-76631602D01*
X66612309Y-77302000D01*
X66510704Y-77302000D01*
G37*
G36*
X63970704Y-76032000D02*
G01*
X63970704Y-75231860D01*
X63978911Y-75231860D01*
X64281772Y-75348315D01*
X64281772Y-75441323D01*
X64072309Y-75361602D01*
X64072309Y-76032000D01*
X63970704Y-76032000D01*
G37*
G36*
X66637959Y-75222825D02*
G01*
X66678611Y-75231233D01*
X66706685Y-75241434D01*
X66743256Y-75261837D01*
X66774861Y-75288754D01*
X66787773Y-75303374D01*
X66810607Y-75336439D01*
X66828989Y-75374669D01*
X66838771Y-75403025D01*
X66848045Y-75441604D01*
X66853884Y-75483580D01*
X66856202Y-75524262D01*
X66856357Y-75538434D01*
X66856357Y-75725817D01*
X66854966Y-75767431D01*
X66850792Y-75806325D01*
X66842893Y-75846351D01*
X66838771Y-75861420D01*
X66824811Y-75899749D01*
X66805316Y-75936455D01*
X66787773Y-75960485D01*
X66760507Y-75988521D01*
X66726317Y-76012382D01*
X66705903Y-76022425D01*
X66667801Y-76034927D01*
X66626182Y-76041659D01*
X66596482Y-76042942D01*
X66555783Y-76040471D01*
X66515071Y-76032141D01*
X66487061Y-76022034D01*
X66450649Y-76001790D01*
X66419202Y-75975032D01*
X66406364Y-75960485D01*
X66383768Y-75927778D01*
X66365514Y-75889740D01*
X66355756Y-75861420D01*
X66346483Y-75822738D01*
X66340644Y-75780698D01*
X66338326Y-75739990D01*
X66338171Y-75725817D01*
X66338171Y-75602523D01*
X66440362Y-75602523D01*
X66440362Y-75634177D01*
X66440362Y-75747310D01*
X66442038Y-75789250D01*
X66447637Y-75829785D01*
X66452281Y-75849501D01*
X66466235Y-75886561D01*
X66489211Y-75919843D01*
X66520415Y-75943468D01*
X66534933Y-75950129D01*
X66573606Y-75959261D01*
X66596482Y-75960485D01*
X66636962Y-75956362D01*
X66655882Y-75950911D01*
X66691053Y-75931384D01*
X66700823Y-75922579D01*
X66725162Y-75890364D01*
X66733844Y-75872362D01*
X66745660Y-75835041D01*
X66751430Y-75801825D01*
X66440362Y-75563835D01*
X66440362Y-75602523D01*
X66338171Y-75602523D01*
X66338171Y-75538434D01*
X66339562Y-75496835D01*
X66342952Y-75466528D01*
X66442512Y-75466528D01*
X66754165Y-75705496D01*
X66754165Y-75677554D01*
X66754165Y-75650004D01*
X66754165Y-75515963D01*
X66752599Y-75475801D01*
X66747368Y-75436570D01*
X66743028Y-75417289D01*
X66728764Y-75378601D01*
X66708639Y-75347729D01*
X66678069Y-75323154D01*
X66661549Y-75315098D01*
X66623508Y-75305359D01*
X66597459Y-75303765D01*
X66558192Y-75307485D01*
X66534738Y-75314316D01*
X66499957Y-75334654D01*
X66488820Y-75345579D01*
X66466101Y-75378323D01*
X66458338Y-75396382D01*
X66447292Y-75435816D01*
X66442512Y-75466528D01*
X66342952Y-75466528D01*
X66344371Y-75453840D01*
X66352614Y-75414242D01*
X66355756Y-75403025D01*
X66369671Y-75364627D01*
X66389010Y-75327688D01*
X66406364Y-75303374D01*
X66435930Y-75273451D01*
X66470333Y-75250042D01*
X66487843Y-75241434D01*
X66525789Y-75228575D01*
X66567527Y-75221651D01*
X66597459Y-75220332D01*
X66637959Y-75222825D01*
G37*
G36*
X64097959Y-73952825D02*
G01*
X64138611Y-73961233D01*
X64166685Y-73971434D01*
X64203256Y-73991837D01*
X64234861Y-74018754D01*
X64247773Y-74033374D01*
X64270607Y-74066439D01*
X64288989Y-74104669D01*
X64298771Y-74133025D01*
X64308045Y-74171604D01*
X64313884Y-74213580D01*
X64316202Y-74254262D01*
X64316357Y-74268434D01*
X64316357Y-74455817D01*
X64314966Y-74497431D01*
X64310792Y-74536325D01*
X64302893Y-74576351D01*
X64298771Y-74591420D01*
X64284811Y-74629749D01*
X64265316Y-74666455D01*
X64247773Y-74690485D01*
X64220507Y-74718521D01*
X64186317Y-74742382D01*
X64165903Y-74752425D01*
X64127801Y-74764927D01*
X64086182Y-74771659D01*
X64056482Y-74772942D01*
X64015783Y-74770471D01*
X63975071Y-74762141D01*
X63947061Y-74752034D01*
X63910649Y-74731790D01*
X63879202Y-74705032D01*
X63866364Y-74690485D01*
X63843768Y-74657778D01*
X63825514Y-74619740D01*
X63815756Y-74591420D01*
X63806483Y-74552738D01*
X63800644Y-74510698D01*
X63798326Y-74469990D01*
X63798171Y-74455817D01*
X63798171Y-74332523D01*
X63900362Y-74332523D01*
X63900362Y-74364177D01*
X63900362Y-74477310D01*
X63902038Y-74519250D01*
X63907637Y-74559785D01*
X63912281Y-74579501D01*
X63926235Y-74616561D01*
X63949211Y-74649843D01*
X63980415Y-74673468D01*
X63994933Y-74680129D01*
X64033606Y-74689261D01*
X64056482Y-74690485D01*
X64096962Y-74686362D01*
X64115882Y-74680911D01*
X64151053Y-74661384D01*
X64160823Y-74652579D01*
X64185162Y-74620364D01*
X64193844Y-74602362D01*
X64205660Y-74565041D01*
X64211430Y-74531825D01*
X63900362Y-74293835D01*
X63900362Y-74332523D01*
X63798171Y-74332523D01*
X63798171Y-74268434D01*
X63799562Y-74226835D01*
X63802952Y-74196528D01*
X63902512Y-74196528D01*
X64214165Y-74435496D01*
X64214165Y-74407554D01*
X64214165Y-74380004D01*
X64214165Y-74245963D01*
X64212599Y-74205801D01*
X64207368Y-74166570D01*
X64203028Y-74147289D01*
X64188764Y-74108601D01*
X64168639Y-74077729D01*
X64138069Y-74053154D01*
X64121549Y-74045098D01*
X64083508Y-74035359D01*
X64057459Y-74033765D01*
X64018192Y-74037485D01*
X63994738Y-74044316D01*
X63959957Y-74064654D01*
X63948820Y-74075579D01*
X63926101Y-74108323D01*
X63918338Y-74126382D01*
X63907292Y-74165816D01*
X63902512Y-74196528D01*
X63802952Y-74196528D01*
X63804371Y-74183840D01*
X63812614Y-74144242D01*
X63815756Y-74133025D01*
X63829671Y-74094627D01*
X63849010Y-74057688D01*
X63866364Y-74033374D01*
X63895930Y-74003451D01*
X63930333Y-73980042D01*
X63947843Y-73971434D01*
X63985789Y-73958575D01*
X64027527Y-73951651D01*
X64057459Y-73950332D01*
X64097959Y-73952825D01*
G37*
G36*
X66637959Y-73952825D02*
G01*
X66678611Y-73961233D01*
X66706685Y-73971434D01*
X66743256Y-73991837D01*
X66774861Y-74018754D01*
X66787773Y-74033374D01*
X66810607Y-74066439D01*
X66828989Y-74104669D01*
X66838771Y-74133025D01*
X66848045Y-74171604D01*
X66853884Y-74213580D01*
X66856202Y-74254262D01*
X66856357Y-74268434D01*
X66856357Y-74455817D01*
X66854966Y-74497431D01*
X66850792Y-74536325D01*
X66842893Y-74576351D01*
X66838771Y-74591420D01*
X66824811Y-74629749D01*
X66805316Y-74666455D01*
X66787773Y-74690485D01*
X66760507Y-74718521D01*
X66726317Y-74742382D01*
X66705903Y-74752425D01*
X66667801Y-74764927D01*
X66626182Y-74771659D01*
X66596482Y-74772942D01*
X66555783Y-74770471D01*
X66515071Y-74762141D01*
X66487061Y-74752034D01*
X66450649Y-74731790D01*
X66419202Y-74705032D01*
X66406364Y-74690485D01*
X66383768Y-74657778D01*
X66365514Y-74619740D01*
X66355756Y-74591420D01*
X66346483Y-74552738D01*
X66340644Y-74510698D01*
X66338326Y-74469990D01*
X66338171Y-74455817D01*
X66338171Y-74332523D01*
X66440362Y-74332523D01*
X66440362Y-74364177D01*
X66440362Y-74477310D01*
X66442038Y-74519250D01*
X66447637Y-74559785D01*
X66452281Y-74579501D01*
X66466235Y-74616561D01*
X66489211Y-74649843D01*
X66520415Y-74673468D01*
X66534933Y-74680129D01*
X66573606Y-74689261D01*
X66596482Y-74690485D01*
X66636962Y-74686362D01*
X66655882Y-74680911D01*
X66691053Y-74661384D01*
X66700823Y-74652579D01*
X66725162Y-74620364D01*
X66733844Y-74602362D01*
X66745660Y-74565041D01*
X66751430Y-74531825D01*
X66440362Y-74293835D01*
X66440362Y-74332523D01*
X66338171Y-74332523D01*
X66338171Y-74268434D01*
X66339562Y-74226835D01*
X66342952Y-74196528D01*
X66442512Y-74196528D01*
X66754165Y-74435496D01*
X66754165Y-74407554D01*
X66754165Y-74380004D01*
X66754165Y-74245963D01*
X66752599Y-74205801D01*
X66747368Y-74166570D01*
X66743028Y-74147289D01*
X66728764Y-74108601D01*
X66708639Y-74077729D01*
X66678069Y-74053154D01*
X66661549Y-74045098D01*
X66623508Y-74035359D01*
X66597459Y-74033765D01*
X66558192Y-74037485D01*
X66534738Y-74044316D01*
X66499957Y-74064654D01*
X66488820Y-74075579D01*
X66466101Y-74108323D01*
X66458338Y-74126382D01*
X66447292Y-74165816D01*
X66442512Y-74196528D01*
X66342952Y-74196528D01*
X66344371Y-74183840D01*
X66352614Y-74144242D01*
X66355756Y-74133025D01*
X66369671Y-74094627D01*
X66389010Y-74057688D01*
X66406364Y-74033374D01*
X66435930Y-74003451D01*
X66470333Y-73980042D01*
X66487843Y-73971434D01*
X66525789Y-73958575D01*
X66567527Y-73951651D01*
X66597459Y-73950332D01*
X66637959Y-73952825D01*
G37*
G36*
X61499741Y-72857000D02*
G01*
X61243774Y-72857000D01*
X61202696Y-72854105D01*
X61162649Y-72846373D01*
X61144514Y-72841173D01*
X61107298Y-72826373D01*
X61071330Y-72805387D01*
X61059517Y-72796623D01*
X61030217Y-72768797D01*
X61006602Y-72735586D01*
X61000899Y-72725108D01*
X60986700Y-72688148D01*
X60979983Y-72646801D01*
X60979433Y-72627216D01*
X61082183Y-72627216D01*
X61087221Y-72666402D01*
X61095079Y-72687202D01*
X61117059Y-72719593D01*
X61129859Y-72731752D01*
X61163266Y-72752951D01*
X61180466Y-72760084D01*
X61219424Y-72769212D01*
X61241039Y-72770635D01*
X61397549Y-72770635D01*
X61397549Y-72482819D01*
X61235372Y-72482819D01*
X61194736Y-72487973D01*
X61174995Y-72493762D01*
X61139901Y-72511250D01*
X61126147Y-72521703D01*
X61100837Y-72552604D01*
X61093516Y-72566839D01*
X61083258Y-72604742D01*
X61082183Y-72627216D01*
X60979433Y-72627216D01*
X60979406Y-72626239D01*
X60983194Y-72585568D01*
X60990152Y-72559805D01*
X61006776Y-72523581D01*
X61020048Y-72504117D01*
X61048190Y-72476308D01*
X61066356Y-72463085D01*
X61102122Y-72444141D01*
X61124388Y-72437097D01*
X61124388Y-72435534D01*
X61088420Y-72417332D01*
X61074758Y-72408570D01*
X61044662Y-72382228D01*
X61037047Y-72373399D01*
X61016274Y-72339840D01*
X61011060Y-72327286D01*
X61001967Y-72289143D01*
X61000704Y-72270035D01*
X61000746Y-72269449D01*
X61103090Y-72269449D01*
X61109370Y-72309010D01*
X61116377Y-72324550D01*
X61140630Y-72355618D01*
X61150766Y-72364020D01*
X61184792Y-72383756D01*
X61199810Y-72389226D01*
X61239739Y-72397266D01*
X61255693Y-72398214D01*
X61397549Y-72398214D01*
X61397549Y-72143615D01*
X61258624Y-72143615D01*
X61218433Y-72147561D01*
X61200592Y-72151431D01*
X61163095Y-72165580D01*
X61150180Y-72173315D01*
X61122030Y-72202443D01*
X61115986Y-72212394D01*
X61104110Y-72251427D01*
X61103090Y-72269449D01*
X61000746Y-72269449D01*
X61003570Y-72230230D01*
X61013808Y-72192192D01*
X61022392Y-72173901D01*
X61044383Y-72141582D01*
X61074254Y-72113015D01*
X61081011Y-72108053D01*
X61115306Y-72087932D01*
X61153566Y-72073047D01*
X61165226Y-72069756D01*
X61203873Y-72061689D01*
X61243295Y-72057492D01*
X61261750Y-72056860D01*
X61499741Y-72056860D01*
X61499741Y-72857000D01*
G37*
G36*
X60877605Y-72857000D02*
G01*
X60776000Y-72857000D01*
X60711716Y-72649882D01*
X60444612Y-72649882D01*
X60381304Y-72857000D01*
X60280285Y-72857000D01*
X60374064Y-72561368D01*
X60471576Y-72561368D01*
X60684165Y-72561368D01*
X60577089Y-72213957D01*
X60471576Y-72561368D01*
X60374064Y-72561368D01*
X60534102Y-72056860D01*
X60619294Y-72056860D01*
X60877605Y-72857000D01*
G37*
G36*
X59652092Y-72056860D02*
G01*
X59750376Y-72056860D01*
X59752134Y-72598688D01*
X59756263Y-72638050D01*
X59763663Y-72667467D01*
X59779335Y-72703831D01*
X59793949Y-72725695D01*
X59823014Y-72753813D01*
X59843970Y-72766727D01*
X59882382Y-72779290D01*
X59912553Y-72781773D01*
X59951482Y-72777416D01*
X59981527Y-72766337D01*
X60015004Y-72743225D01*
X60031353Y-72725695D01*
X60053014Y-72691043D01*
X60062420Y-72667467D01*
X60071437Y-72627289D01*
X60073558Y-72598688D01*
X60075707Y-72056860D01*
X60172427Y-72056860D01*
X60173600Y-72598688D01*
X60170550Y-72639785D01*
X60162279Y-72678959D01*
X60153865Y-72704006D01*
X60135729Y-72741758D01*
X60112757Y-72775318D01*
X60100522Y-72789393D01*
X60070609Y-72816627D01*
X60036116Y-72838638D01*
X60018652Y-72847034D01*
X59981292Y-72859775D01*
X59941019Y-72866635D01*
X59912553Y-72867942D01*
X59871053Y-72864974D01*
X59832136Y-72856071D01*
X59807626Y-72846839D01*
X59770923Y-72827081D01*
X59738606Y-72802099D01*
X59725170Y-72788807D01*
X59699521Y-72757341D01*
X59678773Y-72721682D01*
X59670850Y-72703810D01*
X59658705Y-72666038D01*
X59652166Y-72626288D01*
X59650920Y-72598688D01*
X59652092Y-72056860D01*
G37*
G36*
X59492651Y-72857000D02*
G01*
X59307417Y-72857000D01*
X59265312Y-72854801D01*
X59225461Y-72849086D01*
X59200145Y-72843322D01*
X59161339Y-72830656D01*
X59123298Y-72812832D01*
X59110655Y-72805415D01*
X59077256Y-72781104D01*
X59047033Y-72752499D01*
X59043244Y-72748360D01*
X59018726Y-72717495D01*
X58998172Y-72683712D01*
X58993027Y-72673524D01*
X58977993Y-72637359D01*
X58966399Y-72598276D01*
X58963718Y-72586574D01*
X58957140Y-72547251D01*
X58953915Y-72506123D01*
X58953558Y-72486532D01*
X58953558Y-72427718D01*
X58953603Y-72426741D01*
X59055163Y-72426741D01*
X59055163Y-72486532D01*
X59057368Y-72527088D01*
X59061220Y-72557265D01*
X59069715Y-72595753D01*
X59077829Y-72620182D01*
X59093707Y-72656244D01*
X59112023Y-72684857D01*
X59138957Y-72714327D01*
X59163411Y-72733315D01*
X59199579Y-72753117D01*
X59227501Y-72763015D01*
X59267961Y-72771261D01*
X59307417Y-72773957D01*
X59389287Y-72773957D01*
X59389287Y-72140293D01*
X59307417Y-72140293D01*
X59266689Y-72143302D01*
X59237661Y-72148891D01*
X59200216Y-72161347D01*
X59180020Y-72171166D01*
X59146510Y-72193294D01*
X59118666Y-72221382D01*
X59096196Y-72254306D01*
X59078806Y-72290942D01*
X59066685Y-72329899D01*
X59061611Y-72355032D01*
X59056686Y-72394647D01*
X59055163Y-72426741D01*
X58953603Y-72426741D01*
X58955426Y-72387473D01*
X58960675Y-72345983D01*
X58964891Y-72324550D01*
X58975108Y-72286468D01*
X58989790Y-72248342D01*
X58995958Y-72235450D01*
X59014954Y-72201140D01*
X59040371Y-72167568D01*
X59056140Y-72151040D01*
X59085870Y-72125614D01*
X59118788Y-72104145D01*
X59142504Y-72092031D01*
X59179287Y-72077474D01*
X59219294Y-72066630D01*
X59259288Y-72059909D01*
X59298707Y-72057045D01*
X59307417Y-72056860D01*
X59492651Y-72056860D01*
X59492651Y-72857000D01*
G37*
G36*
X64301507Y-72857000D02*
G01*
X64045540Y-72857000D01*
X64004462Y-72854105D01*
X63964415Y-72846373D01*
X63946280Y-72841173D01*
X63909064Y-72826373D01*
X63873096Y-72805387D01*
X63861283Y-72796623D01*
X63831983Y-72768797D01*
X63808368Y-72735586D01*
X63802665Y-72725108D01*
X63788466Y-72688148D01*
X63781749Y-72646801D01*
X63781199Y-72627216D01*
X63883949Y-72627216D01*
X63888987Y-72666402D01*
X63896845Y-72687202D01*
X63918825Y-72719593D01*
X63931625Y-72731752D01*
X63965032Y-72752951D01*
X63982232Y-72760084D01*
X64021190Y-72769212D01*
X64042805Y-72770635D01*
X64199315Y-72770635D01*
X64199315Y-72482819D01*
X64037138Y-72482819D01*
X63996502Y-72487973D01*
X63976761Y-72493762D01*
X63941667Y-72511250D01*
X63927913Y-72521703D01*
X63902603Y-72552604D01*
X63895282Y-72566839D01*
X63885024Y-72604742D01*
X63883949Y-72627216D01*
X63781199Y-72627216D01*
X63781172Y-72626239D01*
X63784960Y-72585568D01*
X63791918Y-72559805D01*
X63808542Y-72523581D01*
X63821814Y-72504117D01*
X63849956Y-72476308D01*
X63868122Y-72463085D01*
X63903888Y-72444141D01*
X63926154Y-72437097D01*
X63926154Y-72435534D01*
X63890186Y-72417332D01*
X63876524Y-72408570D01*
X63846428Y-72382228D01*
X63838813Y-72373399D01*
X63818040Y-72339840D01*
X63812826Y-72327286D01*
X63803733Y-72289143D01*
X63802470Y-72270035D01*
X63802512Y-72269449D01*
X63904856Y-72269449D01*
X63911136Y-72309010D01*
X63918143Y-72324550D01*
X63942396Y-72355618D01*
X63952532Y-72364020D01*
X63986558Y-72383756D01*
X64001576Y-72389226D01*
X64041505Y-72397266D01*
X64057459Y-72398214D01*
X64199315Y-72398214D01*
X64199315Y-72143615D01*
X64060390Y-72143615D01*
X64020199Y-72147561D01*
X64002358Y-72151431D01*
X63964861Y-72165580D01*
X63951946Y-72173315D01*
X63923796Y-72202443D01*
X63917752Y-72212394D01*
X63905876Y-72251427D01*
X63904856Y-72269449D01*
X63802512Y-72269449D01*
X63805336Y-72230230D01*
X63815574Y-72192192D01*
X63824158Y-72173901D01*
X63846149Y-72141582D01*
X63876020Y-72113015D01*
X63882777Y-72108053D01*
X63917072Y-72087932D01*
X63955332Y-72073047D01*
X63966992Y-72069756D01*
X64005639Y-72061689D01*
X64045061Y-72057492D01*
X64063516Y-72056860D01*
X64301507Y-72056860D01*
X64301507Y-72857000D01*
G37*
G36*
X66891528Y-72857000D02*
G01*
X66789923Y-72857000D01*
X66725638Y-72649882D01*
X66458534Y-72649882D01*
X66395226Y-72857000D01*
X66294207Y-72857000D01*
X66387986Y-72561368D01*
X66485498Y-72561368D01*
X66698087Y-72561368D01*
X66591011Y-72213957D01*
X66485498Y-72561368D01*
X66387986Y-72561368D01*
X66548024Y-72056860D01*
X66633216Y-72056860D01*
X66891528Y-72857000D01*
G37*
G36*
X72131960Y-68114825D02*
G01*
X72131960Y-68810673D01*
X72137716Y-68859676D01*
X72146615Y-68891517D01*
X72169085Y-68937529D01*
X72184717Y-68958440D01*
X72222579Y-68991113D01*
X72246022Y-69004113D01*
X72294317Y-69018596D01*
X72326866Y-69020966D01*
X72376059Y-69015886D01*
X72406245Y-69006556D01*
X72450208Y-68980854D01*
X72467061Y-68965279D01*
X72497024Y-68924842D01*
X72507361Y-68903485D01*
X72520814Y-68856316D01*
X72524214Y-68825816D01*
X72653174Y-68825816D01*
X72645882Y-68875951D01*
X72631857Y-68926000D01*
X72621667Y-68951113D01*
X72596169Y-68996874D01*
X72564125Y-69036277D01*
X72553768Y-69046367D01*
X72514064Y-69077649D01*
X72468470Y-69101826D01*
X72454361Y-69107428D01*
X72405630Y-69121186D01*
X72356926Y-69127660D01*
X72326866Y-69128677D01*
X72276354Y-69125345D01*
X72225043Y-69114217D01*
X72198883Y-69104986D01*
X72153637Y-69082632D01*
X72113550Y-69054071D01*
X72096789Y-69038796D01*
X72064687Y-69001962D01*
X72038632Y-68959727D01*
X72028646Y-68938412D01*
X72012115Y-68889169D01*
X72003798Y-68840494D01*
X72002023Y-68810673D01*
X72002023Y-68114825D01*
X72131960Y-68114825D01*
G37*
G36*
X71621493Y-68114825D02*
G01*
X71778785Y-68114825D01*
X71778785Y-69115000D01*
X71654954Y-69115000D01*
X71654954Y-68715907D01*
X71665456Y-68312662D01*
X71495708Y-68836807D01*
X71422923Y-68836807D01*
X71238031Y-68298251D01*
X71248290Y-68715907D01*
X71248290Y-69115000D01*
X71124703Y-69115000D01*
X71124703Y-68114825D01*
X71282728Y-68114825D01*
X71458583Y-68614790D01*
X71621493Y-68114825D01*
G37*
G36*
X70909036Y-69115000D02*
G01*
X70781786Y-69115000D01*
X70781786Y-68713709D01*
X70584682Y-68713709D01*
X70535303Y-68710629D01*
X70484057Y-68701168D01*
X70457431Y-68693436D01*
X70410914Y-68674221D01*
X70366408Y-68646946D01*
X70351918Y-68635551D01*
X70315814Y-68599106D01*
X70287003Y-68556023D01*
X70280111Y-68542494D01*
X70263032Y-68494706D01*
X70254995Y-68445727D01*
X70253793Y-68416465D01*
X70380739Y-68416465D01*
X70386250Y-68466678D01*
X70396371Y-68497065D01*
X70421721Y-68538919D01*
X70439113Y-68557149D01*
X70481565Y-68585758D01*
X70503837Y-68595251D01*
X70552705Y-68607081D01*
X70584682Y-68609417D01*
X70781786Y-68609417D01*
X70781786Y-68219117D01*
X70584682Y-68219117D01*
X70534800Y-68224637D01*
X70503349Y-68233771D01*
X70458509Y-68256772D01*
X70438380Y-68272850D01*
X70407085Y-68312972D01*
X70396371Y-68334644D01*
X70382937Y-68383664D01*
X70380739Y-68416465D01*
X70253793Y-68416465D01*
X70253733Y-68415000D01*
X70257442Y-68363262D01*
X70269833Y-68312407D01*
X70280111Y-68287260D01*
X70304687Y-68244957D01*
X70338187Y-68205981D01*
X70351918Y-68193715D01*
X70394354Y-68164216D01*
X70438948Y-68142936D01*
X70457431Y-68136318D01*
X70507418Y-68123109D01*
X70559743Y-68116027D01*
X70584682Y-68114825D01*
X70909036Y-68114825D01*
X70909036Y-69115000D01*
G37*
G36*
X69463607Y-69218803D02*
G01*
X69463607Y-69115000D01*
X70093509Y-69115000D01*
X70093509Y-69218803D01*
X69463607Y-69218803D01*
G37*
G36*
X69241590Y-69115000D02*
G01*
X68921632Y-69115000D01*
X68870284Y-69111381D01*
X68820226Y-69101716D01*
X68797557Y-69095216D01*
X68751036Y-69076717D01*
X68706077Y-69050484D01*
X68691311Y-69039528D01*
X68654686Y-69004747D01*
X68625167Y-68963233D01*
X68618038Y-68950136D01*
X68600290Y-68903935D01*
X68591893Y-68852251D01*
X68591206Y-68827770D01*
X68719643Y-68827770D01*
X68725940Y-68876752D01*
X68735763Y-68902752D01*
X68763239Y-68943241D01*
X68779239Y-68958440D01*
X68820998Y-68984939D01*
X68842498Y-68993855D01*
X68891194Y-69005265D01*
X68918213Y-69007044D01*
X69113851Y-69007044D01*
X69113851Y-68647274D01*
X68911130Y-68647274D01*
X68860335Y-68653716D01*
X68835659Y-68660952D01*
X68791790Y-68682813D01*
X68774598Y-68695879D01*
X68742961Y-68734505D01*
X68733810Y-68752299D01*
X68720987Y-68799678D01*
X68719643Y-68827770D01*
X68591206Y-68827770D01*
X68591172Y-68826549D01*
X68595907Y-68775710D01*
X68604605Y-68743506D01*
X68625385Y-68698226D01*
X68641974Y-68673897D01*
X68677152Y-68639135D01*
X68699860Y-68622606D01*
X68744568Y-68598926D01*
X68772400Y-68590122D01*
X68772400Y-68588168D01*
X68727440Y-68565415D01*
X68710362Y-68554462D01*
X68672742Y-68521535D01*
X68663223Y-68510498D01*
X68637257Y-68468550D01*
X68630739Y-68452857D01*
X68619373Y-68405179D01*
X68617794Y-68381294D01*
X68617847Y-68380561D01*
X68745777Y-68380561D01*
X68753628Y-68430013D01*
X68762386Y-68449438D01*
X68792703Y-68488272D01*
X68805373Y-68498775D01*
X68847905Y-68523445D01*
X68866678Y-68530282D01*
X68916589Y-68540332D01*
X68936531Y-68541517D01*
X69113851Y-68541517D01*
X69113851Y-68223269D01*
X68940195Y-68223269D01*
X68889956Y-68228201D01*
X68867655Y-68233039D01*
X68820783Y-68250725D01*
X68804640Y-68260394D01*
X68769453Y-68296804D01*
X68761897Y-68309242D01*
X68747053Y-68358034D01*
X68745777Y-68380561D01*
X68617847Y-68380561D01*
X68621378Y-68331537D01*
X68634174Y-68283990D01*
X68644905Y-68261127D01*
X68672394Y-68220728D01*
X68709732Y-68185018D01*
X68718178Y-68178817D01*
X68761047Y-68153665D01*
X68808872Y-68135059D01*
X68823447Y-68130945D01*
X68871756Y-68120861D01*
X68921033Y-68115615D01*
X68944103Y-68114825D01*
X69241590Y-68114825D01*
X69241590Y-69115000D01*
G37*
G36*
X68256559Y-69007044D02*
G01*
X68256559Y-68114825D01*
X68383565Y-68114825D01*
X68383565Y-69115000D01*
X67767341Y-69115000D01*
X67767341Y-69007044D01*
X68256559Y-69007044D01*
G37*
G36*
X44651960Y-79004825D02*
G01*
X44651960Y-79700673D01*
X44657716Y-79749676D01*
X44666615Y-79781517D01*
X44689085Y-79827529D01*
X44704717Y-79848440D01*
X44742579Y-79881113D01*
X44766022Y-79894113D01*
X44814317Y-79908596D01*
X44846866Y-79910966D01*
X44896059Y-79905886D01*
X44926245Y-79896556D01*
X44970208Y-79870854D01*
X44987061Y-79855279D01*
X45017024Y-79814842D01*
X45027361Y-79793485D01*
X45040814Y-79746316D01*
X45044214Y-79715816D01*
X45173174Y-79715816D01*
X45165882Y-79765951D01*
X45151857Y-79816000D01*
X45141667Y-79841113D01*
X45116169Y-79886874D01*
X45084125Y-79926277D01*
X45073768Y-79936367D01*
X45034064Y-79967649D01*
X44988470Y-79991826D01*
X44974361Y-79997428D01*
X44925630Y-80011186D01*
X44876926Y-80017660D01*
X44846866Y-80018677D01*
X44796354Y-80015345D01*
X44745043Y-80004217D01*
X44718883Y-79994986D01*
X44673637Y-79972632D01*
X44633550Y-79944071D01*
X44616789Y-79928796D01*
X44584687Y-79891962D01*
X44558632Y-79849727D01*
X44548646Y-79828412D01*
X44532115Y-79779169D01*
X44523798Y-79730494D01*
X44522023Y-79700673D01*
X44522023Y-79004825D01*
X44651960Y-79004825D01*
G37*
G36*
X44141493Y-79004825D02*
G01*
X44298785Y-79004825D01*
X44298785Y-80005000D01*
X44174954Y-80005000D01*
X44174954Y-79605907D01*
X44185456Y-79202662D01*
X44015708Y-79726807D01*
X43942923Y-79726807D01*
X43758031Y-79188251D01*
X43768290Y-79605907D01*
X43768290Y-80005000D01*
X43644703Y-80005000D01*
X43644703Y-79004825D01*
X43802728Y-79004825D01*
X43978583Y-79504790D01*
X44141493Y-79004825D01*
G37*
G36*
X43429036Y-80005000D02*
G01*
X43301786Y-80005000D01*
X43301786Y-79603709D01*
X43104682Y-79603709D01*
X43055303Y-79600629D01*
X43004057Y-79591168D01*
X42977431Y-79583436D01*
X42930914Y-79564221D01*
X42886408Y-79536946D01*
X42871918Y-79525551D01*
X42835814Y-79489106D01*
X42807003Y-79446023D01*
X42800111Y-79432494D01*
X42783032Y-79384706D01*
X42774995Y-79335727D01*
X42773793Y-79306465D01*
X42900739Y-79306465D01*
X42906250Y-79356678D01*
X42916371Y-79387065D01*
X42941721Y-79428919D01*
X42959113Y-79447149D01*
X43001565Y-79475758D01*
X43023837Y-79485251D01*
X43072705Y-79497081D01*
X43104682Y-79499417D01*
X43301786Y-79499417D01*
X43301786Y-79109117D01*
X43104682Y-79109117D01*
X43054800Y-79114637D01*
X43023349Y-79123771D01*
X42978509Y-79146772D01*
X42958380Y-79162850D01*
X42927085Y-79202972D01*
X42916371Y-79224644D01*
X42902937Y-79273664D01*
X42900739Y-79306465D01*
X42773793Y-79306465D01*
X42773733Y-79305000D01*
X42777442Y-79253262D01*
X42789833Y-79202407D01*
X42800111Y-79177260D01*
X42824687Y-79134957D01*
X42858187Y-79095981D01*
X42871918Y-79083715D01*
X42914354Y-79054216D01*
X42958948Y-79032936D01*
X42977431Y-79026318D01*
X43027418Y-79013109D01*
X43079743Y-79006027D01*
X43104682Y-79004825D01*
X43429036Y-79004825D01*
X43429036Y-80005000D01*
G37*
G36*
X41983607Y-80108803D02*
G01*
X41983607Y-80005000D01*
X42613509Y-80005000D01*
X42613509Y-80108803D01*
X41983607Y-80108803D01*
G37*
G36*
X41515149Y-80005000D02*
G01*
X41404507Y-80005000D01*
X41089190Y-79004825D01*
X41224500Y-79004825D01*
X41445540Y-79750254D01*
X41460683Y-79800324D01*
X41475094Y-79751475D01*
X41694912Y-79004825D01*
X41830955Y-79004825D01*
X41515149Y-80005000D01*
G37*
G36*
X40666960Y-78993532D02*
G01*
X40717776Y-79004042D01*
X40752867Y-79016793D01*
X40798582Y-79042297D01*
X40838088Y-79075943D01*
X40854228Y-79094218D01*
X40882770Y-79135548D01*
X40905748Y-79183336D01*
X40917976Y-79218782D01*
X40929568Y-79267005D01*
X40936866Y-79319475D01*
X40939764Y-79370327D01*
X40939957Y-79388042D01*
X40939957Y-79622271D01*
X40938219Y-79674289D01*
X40933002Y-79722907D01*
X40923128Y-79772938D01*
X40917976Y-79791775D01*
X40900525Y-79839687D01*
X40876156Y-79885568D01*
X40854228Y-79915607D01*
X40820145Y-79950652D01*
X40777407Y-79980478D01*
X40751890Y-79993032D01*
X40704263Y-80008659D01*
X40652239Y-80017074D01*
X40615114Y-80018677D01*
X40564241Y-80015589D01*
X40513351Y-80005176D01*
X40478338Y-79992543D01*
X40432823Y-79967238D01*
X40393515Y-79933790D01*
X40377466Y-79915607D01*
X40349222Y-79874723D01*
X40326404Y-79827175D01*
X40314207Y-79791775D01*
X40302615Y-79743423D01*
X40295317Y-79690873D01*
X40292419Y-79639988D01*
X40292225Y-79622271D01*
X40292225Y-79468154D01*
X40419964Y-79468154D01*
X40419964Y-79507721D01*
X40419964Y-79649138D01*
X40422060Y-79701562D01*
X40429058Y-79752231D01*
X40434863Y-79776877D01*
X40452305Y-79823202D01*
X40481025Y-79864804D01*
X40520030Y-79894335D01*
X40538178Y-79902662D01*
X40586519Y-79914077D01*
X40615114Y-79915607D01*
X40665714Y-79910452D01*
X40689364Y-79903639D01*
X40733328Y-79879230D01*
X40745540Y-79868224D01*
X40775965Y-79827955D01*
X40786817Y-79805453D01*
X40801586Y-79758802D01*
X40808799Y-79717281D01*
X40419964Y-79419794D01*
X40419964Y-79468154D01*
X40292225Y-79468154D01*
X40292225Y-79388042D01*
X40293964Y-79336043D01*
X40298201Y-79298161D01*
X40422651Y-79298161D01*
X40812218Y-79596870D01*
X40812218Y-79561943D01*
X40812218Y-79527505D01*
X40812218Y-79359954D01*
X40810261Y-79309751D01*
X40803721Y-79260713D01*
X40798297Y-79236612D01*
X40780467Y-79188251D01*
X40755310Y-79149661D01*
X40717098Y-79118943D01*
X40696447Y-79108872D01*
X40648896Y-79096699D01*
X40616336Y-79094706D01*
X40567251Y-79099356D01*
X40537934Y-79107896D01*
X40494458Y-79133317D01*
X40480537Y-79146974D01*
X40452138Y-79187904D01*
X40442435Y-79210478D01*
X40428626Y-79259770D01*
X40422651Y-79298161D01*
X40298201Y-79298161D01*
X40299975Y-79282300D01*
X40310279Y-79232803D01*
X40314207Y-79218782D01*
X40331600Y-79170784D01*
X40355774Y-79124610D01*
X40377466Y-79094218D01*
X40414424Y-79056814D01*
X40457428Y-79027552D01*
X40479315Y-79016793D01*
X40526748Y-79000719D01*
X40578921Y-78992063D01*
X40616336Y-78990415D01*
X40666960Y-78993532D01*
G37*
D13*
%TO.C,SW1*%
X68505000Y-72940000D02*
X68505000Y-71090000D01*
X68505000Y-72940000D02*
X67855000Y-72940000D01*
X67855000Y-78460000D02*
X67855000Y-72940000D01*
X71785000Y-72940000D02*
X70515000Y-72940000D01*
X71785000Y-78460000D02*
X71785000Y-72940000D01*
X69124000Y-78460000D02*
X67855000Y-78460000D01*
X71785000Y-78460000D02*
X70515000Y-78460000D01*
%TO.C,JP2*%
X68800000Y-67040001D02*
X68800000Y-66439999D01*
X69500000Y-65740000D02*
X70900000Y-65740000D01*
X70900000Y-67740000D02*
X69500000Y-67740000D01*
X71600000Y-66439999D02*
X71600000Y-67040001D01*
X68800000Y-66439999D02*
G75*
G02*
X69500000Y-65740000I699999J0D01*
G01*
X69500000Y-67740000D02*
G75*
G02*
X68800000Y-67040001I-1J699999D01*
G01*
X70900000Y-65740000D02*
G75*
G02*
X71600000Y-66439999I0J-700000D01*
G01*
X71600000Y-67040001D02*
G75*
G02*
X70900000Y-67740000I-700000J1D01*
G01*
%TO.C,RV1*%
X46639999Y-72040000D02*
G75*
G02*
X38779999Y-72040000I-3930000J0D01*
G01*
X38779999Y-72040000D02*
G75*
G02*
X46639999Y-72040000I3930000J0D01*
G01*
%TO.C,JP1*%
X41320000Y-77840001D02*
X41320000Y-77239999D01*
X42020000Y-76540000D02*
X43420000Y-76540000D01*
X43420000Y-78540000D02*
X42020000Y-78540000D01*
X44120000Y-77239999D02*
X44120000Y-77840001D01*
X41320000Y-77239999D02*
G75*
G02*
X42020000Y-76540000I699999J0D01*
G01*
X42020000Y-78540000D02*
G75*
G02*
X41320000Y-77840001I-1J699999D01*
G01*
X43420000Y-76540000D02*
G75*
G02*
X44120000Y-77239999I0J-700000D01*
G01*
X44120000Y-77840001D02*
G75*
G02*
X43420000Y-78540000I-700000J1D01*
G01*
%TD*%
M02*
