%TF.GenerationSoftware,KiCad,Pcbnew,8.0.6*%
%TF.CreationDate,2024-12-18T19:44:47+00:00*%
%TF.ProjectId,003-UART-1602,3030332d-5541-4525-942d-313630322e6b,MkI*%
%TF.SameCoordinates,Original*%
%TF.FileFunction,Copper,L1,Top*%
%TF.FilePolarity,Positive*%
%FSLAX46Y46*%
G04 Gerber Fmt 4.6, Leading zero omitted, Abs format (unit mm)*
G04 Created by KiCad (PCBNEW 8.0.6) date 2024-12-18 19:44:47*
%MOMM*%
%LPD*%
G01*
G04 APERTURE LIST*
G04 Aperture macros list*
%AMRoundRect*
0 Rectangle with rounded corners*
0 $1 Rounding radius*
0 $2 $3 $4 $5 $6 $7 $8 $9 X,Y pos of 4 corners*
0 Add a 4 corners polygon primitive as box body*
4,1,4,$2,$3,$4,$5,$6,$7,$8,$9,$2,$3,0*
0 Add four circle primitives for the rounded corners*
1,1,$1+$1,$2,$3*
1,1,$1+$1,$4,$5*
1,1,$1+$1,$6,$7*
1,1,$1+$1,$8,$9*
0 Add four rect primitives between the rounded corners*
20,1,$1+$1,$2,$3,$4,$5,0*
20,1,$1+$1,$4,$5,$6,$7,0*
20,1,$1+$1,$6,$7,$8,$9,0*
20,1,$1+$1,$8,$9,$2,$3,0*%
G04 Aperture macros list end*
%TA.AperFunction,SMDPad,CuDef*%
%ADD10C,1.000000*%
%TD*%
%TA.AperFunction,SMDPad,CuDef*%
%ADD11RoundRect,0.150000X-0.587500X-0.150000X0.587500X-0.150000X0.587500X0.150000X-0.587500X0.150000X0*%
%TD*%
%TA.AperFunction,ComponentPad*%
%ADD12R,1.700000X1.700000*%
%TD*%
%TA.AperFunction,ComponentPad*%
%ADD13O,1.700000X1.700000*%
%TD*%
%TA.AperFunction,SMDPad,CuDef*%
%ADD14RoundRect,0.150000X-0.150000X0.587500X-0.150000X-0.587500X0.150000X-0.587500X0.150000X0.587500X0*%
%TD*%
%TA.AperFunction,SMDPad,CuDef*%
%ADD15RoundRect,0.250000X0.250000X0.475000X-0.250000X0.475000X-0.250000X-0.475000X0.250000X-0.475000X0*%
%TD*%
%TA.AperFunction,SMDPad,CuDef*%
%ADD16RoundRect,0.100000X-0.100000X0.637500X-0.100000X-0.637500X0.100000X-0.637500X0.100000X0.637500X0*%
%TD*%
%TA.AperFunction,SMDPad,CuDef*%
%ADD17RoundRect,0.250000X-0.475000X0.250000X-0.475000X-0.250000X0.475000X-0.250000X0.475000X0.250000X0*%
%TD*%
%TA.AperFunction,SMDPad,CuDef*%
%ADD18RoundRect,0.250000X-0.262500X-0.450000X0.262500X-0.450000X0.262500X0.450000X-0.262500X0.450000X0*%
%TD*%
%TA.AperFunction,ComponentPad*%
%ADD19C,1.260000*%
%TD*%
%TA.AperFunction,ViaPad*%
%ADD20C,0.500000*%
%TD*%
%TA.AperFunction,ViaPad*%
%ADD21C,0.800000*%
%TD*%
%TA.AperFunction,Conductor*%
%ADD22C,0.250000*%
%TD*%
%TA.AperFunction,Conductor*%
%ADD23C,0.400000*%
%TD*%
G04 APERTURE END LIST*
D10*
%TO.P,TP1,1,1*%
%TO.N,/VBUS_VIN*%
X54985520Y-75699300D03*
%TD*%
D11*
%TO.P,Q2,1,G*%
%TO.N,/LCD_BL*%
X69028720Y-68766800D03*
%TO.P,Q2,2,S*%
%TO.N,GND*%
X69028720Y-70666800D03*
%TO.P,Q2,3,D*%
%TO.N,Net-(DS1-LED(-))*%
X70903721Y-69716800D03*
%TD*%
D12*
%TO.P,DS1,1,VSS*%
%TO.N,GND*%
X32385520Y-66039300D03*
D13*
%TO.P,DS1,2,VDD*%
%TO.N,/VBUS_VIN*%
X34925520Y-66039300D03*
%TO.P,DS1,3,VO*%
%TO.N,/LCD_CONTRAST*%
X37465519Y-66039300D03*
%TO.P,DS1,4,RS*%
%TO.N,/LCD_RS*%
X40005520Y-66039300D03*
%TO.P,DS1,5,R/W*%
%TO.N,/LCD_RW*%
X42545520Y-66039300D03*
%TO.P,DS1,6,E*%
%TO.N,/LCD_EN*%
X45085520Y-66039300D03*
%TO.P,DS1,7,D0*%
%TO.N,unconnected-(DS1-D0-Pad7)*%
X47625520Y-66039300D03*
%TO.P,DS1,8,D1*%
%TO.N,unconnected-(DS1-D1-Pad8)*%
X50165521Y-66039300D03*
%TO.P,DS1,9,D2*%
%TO.N,unconnected-(DS1-D2-Pad9)*%
X52705520Y-66039300D03*
%TO.P,DS1,10,D3*%
%TO.N,unconnected-(DS1-D3-Pad10)*%
X55245520Y-66039300D03*
%TO.P,DS1,11,D4*%
%TO.N,/LCD_DA_0*%
X57785520Y-66039300D03*
%TO.P,DS1,12,D5*%
%TO.N,/LCD_DA_1*%
X60325519Y-66039300D03*
%TO.P,DS1,13,D6*%
%TO.N,/LCD_DA_2*%
X62865520Y-66039300D03*
%TO.P,DS1,14,D7*%
%TO.N,/LCD_DA_3*%
X65405520Y-66039300D03*
%TO.P,DS1,15,LED(+)*%
%TO.N,/VBUS_VIN*%
X67945520Y-66039300D03*
%TO.P,DS1,16,LED(-)*%
%TO.N,Net-(DS1-LED(-))*%
X70485519Y-66039300D03*
%TD*%
D14*
%TO.P,D1,1,A*%
%TO.N,Net-(D1-A)*%
X43035520Y-76341800D03*
%TO.P,D1,2,K*%
%TO.N,GND*%
X41135520Y-76341800D03*
%TO.P,D1,3,COM*%
%TO.N,Net-(D1-COM)*%
X42085520Y-78216800D03*
%TD*%
D15*
%TO.P,C3,1*%
%TO.N,GND*%
X49385518Y-73279300D03*
%TO.P,C3,2*%
%TO.N,/VBUS_VIN*%
X47485520Y-73279300D03*
%TD*%
D16*
%TO.P,U1,1,PD4*%
%TO.N,/CHRGPMP*%
X52966219Y-75392320D03*
%TO.P,U1,2,PD5*%
%TO.N,/UART_TX*%
X52316219Y-75392320D03*
%TO.P,U1,3,PD6*%
%TO.N,/UART_RX*%
X51666219Y-75392320D03*
%TO.P,U1,4,PD7*%
%TO.N,/NRST*%
X51016219Y-75392320D03*
%TO.P,U1,5,PA1*%
%TO.N,/BAUD_SEL0*%
X50366219Y-75392320D03*
%TO.P,U1,6,PA2*%
%TO.N,/BAUD_SEL1*%
X49716219Y-75392320D03*
%TO.P,U1,7,VSS*%
%TO.N,GND*%
X49066219Y-75392320D03*
%TO.P,U1,8,PD0*%
%TO.N,/LCD_BL*%
X48416219Y-75392320D03*
%TO.P,U1,9,VDD*%
%TO.N,/VBUS_VIN*%
X47766219Y-75392320D03*
%TO.P,U1,10,PC0*%
%TO.N,unconnected-(U1-PC0-Pad10)*%
X47116219Y-75392320D03*
%TO.P,U1,11,PC1*%
%TO.N,/LCD_RS*%
X47116219Y-81117320D03*
%TO.P,U1,12,PC2*%
%TO.N,/LCD_RW*%
X47766219Y-81117320D03*
%TO.P,U1,13,PC3*%
%TO.N,/LCD_EN*%
X48416219Y-81117320D03*
%TO.P,U1,14,PC4*%
%TO.N,/LCD_DA_0*%
X49066219Y-81117320D03*
%TO.P,U1,15,PC5*%
%TO.N,/LCD_DA_1*%
X49716219Y-81117320D03*
%TO.P,U1,16,PC6*%
%TO.N,/LCD_DA_2*%
X50366219Y-81117320D03*
%TO.P,U1,17,PC7*%
%TO.N,/LCD_DA_3*%
X51016219Y-81117320D03*
%TO.P,U1,18,PD1*%
%TO.N,/SWIO*%
X51666219Y-81117320D03*
%TO.P,U1,19,PD2*%
%TO.N,unconnected-(U1-PD2-Pad19)*%
X52316219Y-81117320D03*
%TO.P,U1,20,PD3*%
%TO.N,unconnected-(U1-PD3-Pad20)*%
X52966219Y-81117320D03*
%TD*%
D17*
%TO.P,C2,1*%
%TO.N,Net-(D1-A)*%
X44885520Y-76329301D03*
%TO.P,C2,2*%
%TO.N,GND*%
X44885520Y-78229299D03*
%TD*%
D12*
%TO.P,J2,1,Pin_1*%
%TO.N,/UART_RX*%
X32385520Y-78739300D03*
D13*
%TO.P,J2,2,Pin_2*%
%TO.N,GND*%
X32385520Y-81279300D03*
%TD*%
D12*
%TO.P,J1,1,Pin_1*%
%TO.N,/VBUS_VIN*%
X32385520Y-71119300D03*
D13*
%TO.P,J1,2,Pin_2*%
%TO.N,/VBUS_GND*%
X32385520Y-73659300D03*
%TD*%
D18*
%TO.P,R2,1*%
%TO.N,/VBUS_VIN*%
X35085520Y-70279300D03*
%TO.P,R2,2*%
%TO.N,Net-(Q1-G)*%
X36910520Y-70279300D03*
%TD*%
D17*
%TO.P,C1,1*%
%TO.N,/CHRGPMP*%
X39285520Y-76329301D03*
%TO.P,C1,2*%
%TO.N,Net-(D1-COM)*%
X39285520Y-78229299D03*
%TD*%
D10*
%TO.P,TP2,1,1*%
%TO.N,GND*%
X54985520Y-78239300D03*
%TD*%
%TO.P,TP3,1,1*%
%TO.N,/SWIO*%
X54985520Y-80779301D03*
%TD*%
D14*
%TO.P,Q1,1,G*%
%TO.N,Net-(Q1-G)*%
X36985520Y-72579300D03*
%TO.P,Q1,2,S*%
%TO.N,GND*%
X35085520Y-72579300D03*
%TO.P,Q1,3,D*%
%TO.N,/VBUS_GND*%
X36035520Y-74454300D03*
%TD*%
D19*
%TO.P,RV1,1,1*%
%TO.N,Net-(D1-A)*%
X44615519Y-74579300D03*
%TO.P,RV1,2,2*%
%TO.N,/LCD_CONTRAST*%
X42075519Y-72039300D03*
%TO.P,RV1,3,3*%
%TO.N,/VBUS_VIN*%
X39535520Y-74579300D03*
%TD*%
D20*
%TO.N,/CHRGPMP*%
X38485520Y-76839300D03*
X38485520Y-80529300D03*
%TO.N,Net-(D1-A)*%
X43035520Y-79139300D03*
%TO.N,GND*%
X69215520Y-67309300D03*
X36195520Y-67309300D03*
X46355520Y-72389300D03*
X37465520Y-82549300D03*
X51435520Y-67309300D03*
X64135520Y-74929300D03*
X59055520Y-74929300D03*
X48895520Y-67309300D03*
X34485520Y-72579300D03*
X32385520Y-68579300D03*
X59055520Y-82549300D03*
X59055520Y-71119300D03*
X41135520Y-79139300D03*
X66675520Y-67309300D03*
X69016220Y-71216800D03*
X34925520Y-74929300D03*
X37465520Y-74929300D03*
X32385520Y-76199300D03*
D21*
X54985520Y-78239300D03*
D20*
X42545520Y-69849300D03*
X41685520Y-76339300D03*
X64135520Y-71119300D03*
X37465520Y-78739300D03*
X46355520Y-67309300D03*
X46355520Y-74929300D03*
X33655520Y-67309300D03*
X34925520Y-82549300D03*
X34925520Y-78739300D03*
X53975520Y-67309300D03*
X46355520Y-77469300D03*
X48895520Y-69849300D03*
X64135520Y-78739300D03*
%TO.N,/VBUS_VIN*%
X54966219Y-71229300D03*
D21*
X54985520Y-75699300D03*
D20*
%TO.N,/LCD_DA_2*%
X50366219Y-79729300D03*
%TO.N,/LCD_RS*%
X47116219Y-80129300D03*
%TO.N,/LCD_DA_0*%
X49066219Y-79729300D03*
%TO.N,/LCD_DA_1*%
X49716219Y-80129300D03*
%TO.N,/LCD_RW*%
X47766219Y-79729300D03*
%TO.N,/LCD_DA_3*%
X51016219Y-80129300D03*
%TO.N,Net-(DS1-LED(-))*%
X71441220Y-69279300D03*
%TO.N,/LCD_EN*%
X48416219Y-80129300D03*
D21*
%TO.N,/SWIO*%
X54985520Y-80779301D03*
D20*
%TO.N,/BAUD_SEL1*%
X69835520Y-73339300D03*
%TO.N,/BAUD_SEL0*%
X68535520Y-73339300D03*
%TD*%
D22*
%TO.N,/CHRGPMP*%
X48716241Y-78629300D02*
X48903736Y-78629300D01*
X38995519Y-76329301D02*
X39285520Y-76329301D01*
X52966219Y-75609099D02*
X52966219Y-75392320D01*
X46360350Y-79685169D02*
X46496964Y-79548555D01*
X51656416Y-77489103D02*
X52563028Y-76582491D01*
X38485520Y-80529300D02*
X44322436Y-80529300D01*
X38485520Y-76839300D02*
X38995519Y-76329301D01*
X48903736Y-78629300D02*
G75*
G03*
X51656402Y-77489089I-36J3892900D01*
G01*
X52563028Y-76582491D02*
G75*
G03*
X52966209Y-75609099I-973428J973391D01*
G01*
X46496964Y-79548555D02*
G75*
G02*
X48716241Y-78629320I2219236J-2219245D01*
G01*
X44322436Y-80529300D02*
G75*
G03*
X46360343Y-79685162I-36J2882100D01*
G01*
D23*
%TO.N,Net-(D1-COM)*%
X42073022Y-78229299D02*
X42085520Y-78216801D01*
X39285520Y-78229298D02*
X42073022Y-78229299D01*
%TO.N,Net-(D1-A)*%
X44885520Y-76329301D02*
X44885520Y-74849301D01*
X44885520Y-76329301D02*
X43048019Y-76329301D01*
X43035520Y-79139300D02*
X43035520Y-76341800D01*
X43048019Y-76329301D02*
X43035520Y-76341800D01*
X44885520Y-74849301D02*
X44615519Y-74579300D01*
D22*
%TO.N,GND*%
X49066219Y-73598599D02*
X49385518Y-73279300D01*
D23*
X41135520Y-76341800D02*
X41683020Y-76341800D01*
X41683020Y-76341800D02*
X41685520Y-76339300D01*
X35085520Y-72579300D02*
X34485520Y-72579300D01*
X69028720Y-70666800D02*
X69028720Y-71204300D01*
D22*
X49066219Y-75392320D02*
X49066219Y-73598599D01*
D23*
X69028720Y-71204300D02*
X69016220Y-71216800D01*
%TO.N,/VBUS_VIN*%
X39230868Y-70693924D02*
X38043454Y-69506545D01*
X35085520Y-70279300D02*
X35085520Y-70479300D01*
X39535520Y-71429402D02*
X39535520Y-74579300D01*
X34925520Y-66039300D02*
X34925520Y-69129300D01*
D22*
X47766219Y-73559999D02*
X47485520Y-73279300D01*
X47766219Y-75392320D02*
X47766219Y-73559999D01*
D23*
X47485520Y-73279300D02*
X39585520Y-73279300D01*
X48265966Y-71729553D02*
X47849375Y-72146144D01*
X47485520Y-73024569D02*
X47485520Y-73279300D01*
X34925520Y-70119300D02*
X35085520Y-70279300D01*
X34031306Y-71119300D02*
X32385520Y-71119300D01*
X34925520Y-69129300D02*
X34925520Y-70119300D01*
X35085520Y-70479300D02*
X34738413Y-70826407D01*
X54966219Y-71229300D02*
X49473683Y-71229300D01*
X34925520Y-68929300D02*
X36649828Y-68929300D01*
X34031306Y-71119300D02*
G75*
G03*
X34738410Y-70826404I-6J1000000D01*
G01*
X39230868Y-70693924D02*
G75*
G02*
X39535514Y-71429402I-735468J-735476D01*
G01*
X47485520Y-73024569D02*
G75*
G02*
X47849391Y-72146160I1242280J-31D01*
G01*
X36649828Y-68929300D02*
G75*
G02*
X38043436Y-69506563I-28J-1970900D01*
G01*
X49473683Y-71229300D02*
G75*
G03*
X48265968Y-71729555I17J-1708000D01*
G01*
D22*
%TO.N,/LCD_DA_2*%
X50366219Y-81117320D02*
X50366219Y-79729300D01*
%TO.N,/LCD_RS*%
X47116219Y-80129300D02*
X47116219Y-81117320D01*
%TO.N,/LCD_DA_0*%
X49066219Y-79729300D02*
X49066219Y-81117320D01*
D23*
%TO.N,/LCD_CONTRAST*%
X37465519Y-66828600D02*
X37465519Y-66039300D01*
X42075519Y-71438600D02*
X37465519Y-66828600D01*
X42075519Y-72039300D02*
X42075519Y-71438600D01*
D22*
%TO.N,/LCD_DA_1*%
X49716219Y-81117320D02*
X49716219Y-80129300D01*
%TO.N,/LCD_RW*%
X47766219Y-79729300D02*
X47766219Y-81117320D01*
%TO.N,/LCD_DA_3*%
X51016219Y-81117320D02*
X51016219Y-80129300D01*
D23*
%TO.N,Net-(DS1-LED(-))*%
X71441220Y-69279300D02*
X71441220Y-69716800D01*
X71441220Y-69704299D02*
X71428719Y-69716800D01*
X71441220Y-67594216D02*
X71441220Y-69279300D01*
X71428719Y-69716800D02*
X70903721Y-69716800D01*
X70485519Y-66039300D02*
X71017511Y-66571292D01*
X71441220Y-69279300D02*
X71441220Y-69704299D01*
X71441220Y-69716800D02*
X70903721Y-69716800D01*
X71017511Y-66571292D02*
G75*
G02*
X71441212Y-67594216I-1022911J-1022908D01*
G01*
D22*
%TO.N,/LCD_EN*%
X48416219Y-80129300D02*
X48416219Y-81117320D01*
%TO.N,/SWIO*%
X51666219Y-81117320D02*
X51666219Y-80537127D01*
X54652807Y-80446588D02*
X54985520Y-80779301D01*
X52331564Y-79839300D02*
X53186686Y-79839300D01*
X51877398Y-80027422D02*
G75*
G03*
X51666231Y-80537127I509502J-509678D01*
G01*
X54652807Y-80446588D02*
G75*
G03*
X53186686Y-79839308I-1466107J-1466112D01*
G01*
X51877398Y-80027422D02*
G75*
G02*
X52331564Y-79839278I454202J-454178D01*
G01*
%TO.N,/UART_RX*%
X44203584Y-79789300D02*
X34177627Y-79789300D01*
X51289633Y-76535187D02*
X50745159Y-77079661D01*
X51666219Y-75392320D02*
X51666219Y-75626027D01*
X32910771Y-79264551D02*
X32385520Y-78739300D01*
X45915295Y-79080224D02*
G75*
G02*
X44203584Y-79789281I-1711695J1711524D01*
G01*
X48693949Y-77929300D02*
G75*
G03*
X50745124Y-77079626I-49J2900800D01*
G01*
X32910771Y-79264551D02*
G75*
G03*
X34177627Y-79789282I1266829J1266851D01*
G01*
X51289633Y-76535187D02*
G75*
G03*
X51666246Y-75626027I-909133J909187D01*
G01*
X45915295Y-79080224D02*
G75*
G02*
X48693949Y-77929280I2778605J-2778576D01*
G01*
%TO.N,/LCD_BL*%
X69016920Y-68778600D02*
X69028720Y-68766800D01*
X66411742Y-70983777D02*
X68628719Y-68766800D01*
X49480433Y-71929300D02*
X64129047Y-71929300D01*
X48709112Y-72286407D02*
X48773326Y-72222193D01*
X68628719Y-68766800D02*
X69028720Y-68766800D01*
X48416219Y-75392320D02*
X48416219Y-72993514D01*
X64129047Y-71929300D02*
G75*
G03*
X66411715Y-70983750I-47J3228200D01*
G01*
X48416219Y-72993514D02*
G75*
G02*
X48709109Y-72286404I999981J14D01*
G01*
X48773326Y-72222193D02*
G75*
G02*
X49480433Y-71929323I707074J-707107D01*
G01*
%TO.N,/BAUD_SEL1*%
X50257957Y-73951961D02*
X50559601Y-73650317D01*
X69479585Y-72983365D02*
X69835520Y-73339300D01*
X53241834Y-72539300D02*
X68407516Y-72539300D01*
X49716219Y-75392320D02*
X49716219Y-75259832D01*
X69479585Y-72983365D02*
G75*
G03*
X68407516Y-72539278I-1072085J-1072035D01*
G01*
X50257957Y-73951961D02*
G75*
G03*
X49716234Y-75259832I1307843J-1307839D01*
G01*
X50559601Y-73650317D02*
G75*
G02*
X53241834Y-72539338I2682199J-2682283D01*
G01*
%TO.N,/BAUD_SEL0*%
X50762366Y-74212454D02*
X51043654Y-73931166D01*
X68481967Y-73285747D02*
X68535520Y-73339300D01*
X50366219Y-75392320D02*
X50366219Y-75168840D01*
X52955386Y-73139300D02*
X68128413Y-73139300D01*
X50762366Y-74212454D02*
G75*
G03*
X50366260Y-75168840I956434J-956346D01*
G01*
X68481967Y-73285747D02*
G75*
G03*
X68128413Y-73139291I-353567J-353553D01*
G01*
X52955386Y-73139300D02*
G75*
G03*
X51043660Y-73931172I14J-2703600D01*
G01*
D23*
%TO.N,/VBUS_GND*%
X32645520Y-73919300D02*
X36025520Y-73919300D01*
X36035520Y-73929300D02*
X36035520Y-74454301D01*
X32625520Y-73419300D02*
X32385520Y-73659300D01*
X36025520Y-73919300D02*
X36035520Y-73929300D01*
X32645520Y-73919300D02*
X32385520Y-73659300D01*
%TO.N,Net-(Q1-G)*%
X36985520Y-70354300D02*
X36910520Y-70279300D01*
X36985520Y-72579300D02*
X36985520Y-70354300D01*
%TD*%
%TA.AperFunction,Conductor*%
%TO.N,GND*%
G36*
X46763346Y-73701474D02*
G01*
X46785020Y-73753800D01*
X46785020Y-73808566D01*
X46787874Y-73838999D01*
X46787874Y-73839001D01*
X46787875Y-73839004D01*
X46832726Y-73967181D01*
X46832727Y-73967183D01*
X46913366Y-74076446D01*
X46913373Y-74076453D01*
X47022636Y-74157092D01*
X47022638Y-74157093D01*
X47150815Y-74201944D01*
X47150821Y-74201946D01*
X47181254Y-74204800D01*
X47366719Y-74204800D01*
X47419045Y-74226474D01*
X47440719Y-74278800D01*
X47440719Y-74411890D01*
X47419045Y-74464216D01*
X47366719Y-74485890D01*
X47336830Y-74479585D01*
X47286208Y-74457234D01*
X47264380Y-74454702D01*
X47261084Y-74454320D01*
X47261083Y-74454320D01*
X46971355Y-74454320D01*
X46946232Y-74457234D01*
X46946226Y-74457235D01*
X46843453Y-74502614D01*
X46764013Y-74582054D01*
X46718633Y-74684831D01*
X46715719Y-74709955D01*
X46715719Y-76074683D01*
X46718633Y-76099806D01*
X46718634Y-76099811D01*
X46764013Y-76202585D01*
X46843454Y-76282026D01*
X46946228Y-76327405D01*
X46971354Y-76330320D01*
X47261083Y-76330319D01*
X47286210Y-76327405D01*
X47388984Y-76282026D01*
X47388985Y-76282024D01*
X47388987Y-76282024D01*
X47394642Y-76278151D01*
X47395487Y-76279385D01*
X47441219Y-76260443D01*
X47486950Y-76279385D01*
X47487796Y-76278151D01*
X47493450Y-76282024D01*
X47493453Y-76282025D01*
X47493454Y-76282026D01*
X47596228Y-76327405D01*
X47621354Y-76330320D01*
X47911083Y-76330319D01*
X47936210Y-76327405D01*
X48038984Y-76282026D01*
X48038985Y-76282024D01*
X48038987Y-76282024D01*
X48044642Y-76278151D01*
X48045487Y-76279385D01*
X48091219Y-76260443D01*
X48136950Y-76279385D01*
X48137796Y-76278151D01*
X48143450Y-76282024D01*
X48143453Y-76282025D01*
X48143454Y-76282026D01*
X48246228Y-76327405D01*
X48271354Y-76330320D01*
X48561083Y-76330319D01*
X48586210Y-76327405D01*
X48617468Y-76313602D01*
X48674088Y-76312293D01*
X48699684Y-76328971D01*
X48728172Y-76357459D01*
X48841066Y-76414983D01*
X48841072Y-76414985D01*
X48916218Y-76426885D01*
X48916219Y-76426885D01*
X48916219Y-75316320D01*
X48937893Y-75263994D01*
X48990219Y-75242320D01*
X49142219Y-75242320D01*
X49194545Y-75263994D01*
X49216219Y-75316320D01*
X49216219Y-76426885D01*
X49291365Y-76414985D01*
X49291371Y-76414983D01*
X49404263Y-76357461D01*
X49432750Y-76328973D01*
X49485076Y-76307297D01*
X49514969Y-76313603D01*
X49546228Y-76327405D01*
X49571354Y-76330320D01*
X49861083Y-76330319D01*
X49886210Y-76327405D01*
X49988984Y-76282026D01*
X49988985Y-76282024D01*
X49988987Y-76282024D01*
X49994642Y-76278151D01*
X49995487Y-76279385D01*
X50041219Y-76260443D01*
X50086950Y-76279385D01*
X50087796Y-76278151D01*
X50093450Y-76282024D01*
X50093453Y-76282025D01*
X50093454Y-76282026D01*
X50196228Y-76327405D01*
X50221354Y-76330320D01*
X50511083Y-76330319D01*
X50536210Y-76327405D01*
X50638984Y-76282026D01*
X50638985Y-76282024D01*
X50638987Y-76282024D01*
X50644642Y-76278151D01*
X50645487Y-76279385D01*
X50691219Y-76260443D01*
X50736950Y-76279385D01*
X50737796Y-76278151D01*
X50743450Y-76282024D01*
X50743453Y-76282025D01*
X50743454Y-76282026D01*
X50846228Y-76327405D01*
X50865246Y-76329611D01*
X50914727Y-76357168D01*
X50930229Y-76411642D01*
X50909048Y-76455444D01*
X50516452Y-76848040D01*
X50513437Y-76850890D01*
X50302752Y-77039179D01*
X50296264Y-77044354D01*
X50067505Y-77206675D01*
X50060479Y-77211090D01*
X49814988Y-77346775D01*
X49807511Y-77350376D01*
X49548363Y-77457724D01*
X49540530Y-77460464D01*
X49271012Y-77538117D01*
X49262922Y-77539964D01*
X48986396Y-77586953D01*
X48978149Y-77587883D01*
X48697241Y-77603663D01*
X48693091Y-77603779D01*
X48508174Y-77603778D01*
X48508171Y-77603778D01*
X48508170Y-77603778D01*
X48508168Y-77603778D01*
X48138044Y-77636155D01*
X48138016Y-77636158D01*
X47772102Y-77700675D01*
X47413191Y-77796842D01*
X47413178Y-77796846D01*
X47064049Y-77923918D01*
X47064047Y-77923918D01*
X46842628Y-78027167D01*
X46749134Y-78070764D01*
X46727281Y-78080954D01*
X46727276Y-78080956D01*
X46405508Y-78266729D01*
X46405500Y-78266734D01*
X46101123Y-78479861D01*
X46032086Y-78537791D01*
X45978071Y-78554822D01*
X45927833Y-78528670D01*
X45910520Y-78481104D01*
X45910520Y-78379299D01*
X45035520Y-78379299D01*
X45035520Y-79029299D01*
X45236475Y-79029299D01*
X45288801Y-79050973D01*
X45310475Y-79103299D01*
X45288801Y-79155625D01*
X45272276Y-79168061D01*
X45116307Y-79254269D01*
X45108830Y-79257869D01*
X44899443Y-79344606D01*
X44891610Y-79347348D01*
X44673805Y-79410099D01*
X44665714Y-79411945D01*
X44442282Y-79449909D01*
X44434035Y-79450839D01*
X44248135Y-79461279D01*
X44205310Y-79463684D01*
X44201167Y-79463800D01*
X43497727Y-79463800D01*
X43445401Y-79442126D01*
X43423727Y-79389800D01*
X43430413Y-79359062D01*
X43472217Y-79267526D01*
X43490653Y-79139300D01*
X43472217Y-79011074D01*
X43459004Y-78982141D01*
X43442707Y-78946455D01*
X43436020Y-78915715D01*
X43436020Y-78522360D01*
X43860520Y-78522360D01*
X43871134Y-78610742D01*
X43926597Y-78751391D01*
X44017955Y-78871863D01*
X44138427Y-78963221D01*
X44279076Y-79018684D01*
X44367459Y-79029299D01*
X44735520Y-79029299D01*
X44735520Y-78379299D01*
X43860520Y-78379299D01*
X43860520Y-78522360D01*
X43436020Y-78522360D01*
X43436020Y-77936237D01*
X43860520Y-77936237D01*
X43860520Y-78079299D01*
X44735520Y-78079299D01*
X45035520Y-78079299D01*
X45910520Y-78079299D01*
X45910520Y-77936237D01*
X45899905Y-77847855D01*
X45844442Y-77707206D01*
X45753084Y-77586734D01*
X45632612Y-77495376D01*
X45491963Y-77439913D01*
X45403581Y-77429299D01*
X45035520Y-77429299D01*
X45035520Y-78079299D01*
X44735520Y-78079299D01*
X44735520Y-77429299D01*
X44367459Y-77429299D01*
X44279076Y-77439913D01*
X44138427Y-77495376D01*
X44017955Y-77586734D01*
X43926597Y-77707206D01*
X43871134Y-77847855D01*
X43860520Y-77936237D01*
X43436020Y-77936237D01*
X43436020Y-77205133D01*
X43457694Y-77152807D01*
X43474718Y-77135783D01*
X43526093Y-77030693D01*
X43536020Y-76962560D01*
X43536020Y-76803801D01*
X43557694Y-76751475D01*
X43610020Y-76729801D01*
X43933393Y-76729801D01*
X43985719Y-76751475D01*
X44003241Y-76779362D01*
X44007727Y-76792184D01*
X44088366Y-76901447D01*
X44088373Y-76901454D01*
X44197636Y-76982093D01*
X44197638Y-76982094D01*
X44325815Y-77026945D01*
X44325821Y-77026947D01*
X44356254Y-77029801D01*
X44356261Y-77029801D01*
X45414778Y-77029801D01*
X45414786Y-77029801D01*
X45445219Y-77026947D01*
X45573402Y-76982094D01*
X45682670Y-76901451D01*
X45763313Y-76792183D01*
X45808166Y-76664000D01*
X45811020Y-76633567D01*
X45811020Y-76025035D01*
X45808166Y-75994602D01*
X45763313Y-75866419D01*
X45754739Y-75854801D01*
X45682673Y-75757154D01*
X45682666Y-75757147D01*
X45573403Y-75676508D01*
X45573401Y-75676507D01*
X45445224Y-75631656D01*
X45445225Y-75631656D01*
X45445220Y-75631655D01*
X45445219Y-75631655D01*
X45414786Y-75628801D01*
X45414780Y-75628801D01*
X45360020Y-75628801D01*
X45307694Y-75607127D01*
X45286020Y-75554801D01*
X45286020Y-75098787D01*
X45295934Y-75061787D01*
X45308796Y-75039510D01*
X45378398Y-74918956D01*
X45432346Y-74752922D01*
X45450594Y-74579300D01*
X45432346Y-74405678D01*
X45378398Y-74239644D01*
X45330737Y-74157092D01*
X45291111Y-74088457D01*
X45291108Y-74088454D01*
X45210715Y-73999169D01*
X45174293Y-73958718D01*
X45174292Y-73958717D01*
X45174290Y-73958715D01*
X45033063Y-73856107D01*
X45033055Y-73856103D01*
X44955116Y-73821402D01*
X44916130Y-73780319D01*
X44917613Y-73723701D01*
X44958696Y-73684715D01*
X44985215Y-73679800D01*
X46711020Y-73679800D01*
X46763346Y-73701474D01*
G37*
%TD.AperFunction*%
%TA.AperFunction,Conductor*%
G36*
X52036916Y-72276474D02*
G01*
X52058590Y-72328800D01*
X52036916Y-72381126D01*
X52003744Y-72400278D01*
X52002140Y-72400707D01*
X51664147Y-72523722D01*
X51338209Y-72675706D01*
X51338186Y-72675718D01*
X51026738Y-72855527D01*
X51026731Y-72855532D01*
X50732118Y-73061816D01*
X50456606Y-73292990D01*
X50362333Y-73387259D01*
X50362289Y-73387300D01*
X50305229Y-73444360D01*
X50252903Y-73466034D01*
X50200578Y-73444360D01*
X50185518Y-73429300D01*
X49309518Y-73429300D01*
X49257192Y-73407626D01*
X49235518Y-73355300D01*
X49235518Y-73203300D01*
X49257192Y-73150974D01*
X49309518Y-73129300D01*
X50185518Y-73129300D01*
X50185518Y-72761238D01*
X50174903Y-72672856D01*
X50119440Y-72532207D01*
X50028080Y-72411732D01*
X49996472Y-72387763D01*
X49967875Y-72338876D01*
X49982223Y-72284086D01*
X50031110Y-72255489D01*
X50041186Y-72254800D01*
X51984590Y-72254800D01*
X52036916Y-72276474D01*
G37*
%TD.AperFunction*%
%TA.AperFunction,Conductor*%
G36*
X71389637Y-64190265D02*
G01*
X71425397Y-64194294D01*
X71510629Y-64203899D01*
X71526779Y-64207586D01*
X71637754Y-64246420D01*
X71652679Y-64253608D01*
X71752230Y-64316161D01*
X71765177Y-64326486D01*
X71848320Y-64409631D01*
X71858642Y-64422575D01*
X71883008Y-64461353D01*
X71921197Y-64522131D01*
X71928386Y-64537060D01*
X71967215Y-64648027D01*
X71970903Y-64664183D01*
X71984535Y-64785174D01*
X71984555Y-64785347D01*
X71985020Y-64793632D01*
X71985020Y-67432655D01*
X71963346Y-67484981D01*
X71911020Y-67506655D01*
X71858694Y-67484981D01*
X71837653Y-67442313D01*
X71810110Y-67233090D01*
X71767644Y-67074600D01*
X71747443Y-66999204D01*
X71654783Y-66775500D01*
X71628159Y-66729385D01*
X71533723Y-66565813D01*
X71533715Y-66565801D01*
X71477920Y-66493088D01*
X71463261Y-66438381D01*
X71465810Y-66426574D01*
X71520819Y-66245234D01*
X71541102Y-66039300D01*
X71520819Y-65833366D01*
X71460751Y-65635346D01*
X71363204Y-65452850D01*
X71231929Y-65292890D01*
X71071969Y-65161615D01*
X70889473Y-65064068D01*
X70733719Y-65016821D01*
X70691454Y-65004000D01*
X70485519Y-64983717D01*
X70279583Y-65004000D01*
X70081562Y-65064069D01*
X69899068Y-65161615D01*
X69739109Y-65292889D01*
X69739108Y-65292890D01*
X69607834Y-65452849D01*
X69510288Y-65635343D01*
X69450219Y-65833364D01*
X69450219Y-65833366D01*
X69429936Y-66039300D01*
X69450219Y-66245234D01*
X69510287Y-66443254D01*
X69607834Y-66625750D01*
X69739109Y-66785710D01*
X69899069Y-66916985D01*
X70081565Y-67014532D01*
X70279585Y-67074600D01*
X70485519Y-67094883D01*
X70691453Y-67074600D01*
X70812027Y-67038024D01*
X70868390Y-67043576D01*
X70896602Y-67070173D01*
X70899315Y-67074600D01*
X70923652Y-67114315D01*
X70928923Y-67124661D01*
X70987283Y-67265556D01*
X70990871Y-67276599D01*
X71026474Y-67424899D01*
X71028291Y-67436369D01*
X71040492Y-67591417D01*
X71040720Y-67597222D01*
X71040720Y-69055715D01*
X71034033Y-69086455D01*
X71004522Y-69151074D01*
X71004522Y-69151076D01*
X71004270Y-69152833D01*
X71003748Y-69153711D01*
X71003030Y-69156158D01*
X71002405Y-69155974D01*
X70975368Y-69201541D01*
X70931023Y-69216300D01*
X70282956Y-69216300D01*
X70214827Y-69226227D01*
X70214826Y-69226227D01*
X70109738Y-69277601D01*
X70027022Y-69360317D01*
X69975648Y-69465405D01*
X69975648Y-69465406D01*
X69965721Y-69533535D01*
X69965721Y-69900064D01*
X69975648Y-69968193D01*
X69975648Y-69968194D01*
X70027022Y-70073282D01*
X70027023Y-70073283D01*
X70109738Y-70155998D01*
X70214828Y-70207373D01*
X70282961Y-70217300D01*
X70282967Y-70217300D01*
X71524475Y-70217300D01*
X71524481Y-70217300D01*
X71592614Y-70207373D01*
X71697704Y-70155998D01*
X71780419Y-70073283D01*
X71831794Y-69968193D01*
X71837793Y-69927016D01*
X71866785Y-69878363D01*
X71921689Y-69864459D01*
X71970343Y-69893451D01*
X71985020Y-69937686D01*
X71985020Y-82785141D01*
X71984555Y-82793426D01*
X71970922Y-82914421D01*
X71967234Y-82930577D01*
X71928404Y-83041547D01*
X71921215Y-83056476D01*
X71858662Y-83156031D01*
X71848330Y-83168987D01*
X71765194Y-83252124D01*
X71752239Y-83262455D01*
X71652690Y-83325008D01*
X71637761Y-83332198D01*
X71526787Y-83371031D01*
X71510632Y-83374718D01*
X71389815Y-83388334D01*
X71381528Y-83388800D01*
X31449065Y-83388800D01*
X31449053Y-83388799D01*
X31389667Y-83388799D01*
X31381384Y-83388334D01*
X31260394Y-83374705D01*
X31244238Y-83371018D01*
X31133265Y-83332189D01*
X31118334Y-83324999D01*
X31018780Y-83262446D01*
X31005829Y-83252118D01*
X30922687Y-83168978D01*
X30912361Y-83156030D01*
X30849806Y-83056474D01*
X30842617Y-83041546D01*
X30803783Y-82930568D01*
X30800098Y-82914424D01*
X30786485Y-82793603D01*
X30786020Y-82785318D01*
X30786020Y-81129298D01*
X31244492Y-81129298D01*
X31244494Y-81129300D01*
X31908075Y-81129300D01*
X31885520Y-81213474D01*
X31885520Y-81345126D01*
X31908075Y-81429300D01*
X31244494Y-81429300D01*
X31244492Y-81429301D01*
X31250256Y-81491504D01*
X31250258Y-81491518D01*
X31308581Y-81696502D01*
X31308584Y-81696512D01*
X31403579Y-81887288D01*
X31403583Y-81887294D01*
X31532021Y-82057371D01*
X31689523Y-82200953D01*
X31870720Y-82313144D01*
X31870730Y-82313149D01*
X32069455Y-82390136D01*
X32235519Y-82421179D01*
X32235520Y-82421179D01*
X32235520Y-81756745D01*
X32319694Y-81779300D01*
X32451346Y-81779300D01*
X32535520Y-81756745D01*
X32535520Y-82421179D01*
X32701584Y-82390136D01*
X32900309Y-82313149D01*
X32900319Y-82313144D01*
X33081516Y-82200953D01*
X33239018Y-82057371D01*
X33367456Y-81887294D01*
X33367460Y-81887288D01*
X33462455Y-81696512D01*
X33462458Y-81696502D01*
X33520781Y-81491518D01*
X33520783Y-81491504D01*
X33526547Y-81429301D01*
X33526546Y-81429300D01*
X32862965Y-81429300D01*
X32885520Y-81345126D01*
X32885520Y-81213474D01*
X32862965Y-81129300D01*
X33526546Y-81129300D01*
X33526547Y-81129298D01*
X33520783Y-81067095D01*
X33520781Y-81067081D01*
X33462458Y-80862097D01*
X33462455Y-80862087D01*
X33367460Y-80671311D01*
X33367456Y-80671305D01*
X33239018Y-80501228D01*
X33081516Y-80357646D01*
X32900319Y-80245455D01*
X32900309Y-80245450D01*
X32701583Y-80168462D01*
X32535520Y-80137419D01*
X32535520Y-80801854D01*
X32451346Y-80779300D01*
X32319694Y-80779300D01*
X32235520Y-80801854D01*
X32235520Y-80137419D01*
X32235519Y-80137419D01*
X32069456Y-80168462D01*
X31870730Y-80245450D01*
X31870720Y-80245455D01*
X31689523Y-80357646D01*
X31532021Y-80501228D01*
X31403583Y-80671305D01*
X31403579Y-80671311D01*
X31308584Y-80862087D01*
X31308581Y-80862097D01*
X31250258Y-81067081D01*
X31250256Y-81067095D01*
X31244492Y-81129298D01*
X30786020Y-81129298D01*
X30786020Y-76839300D01*
X38030387Y-76839300D01*
X38048822Y-76967523D01*
X38048822Y-76967524D01*
X38048823Y-76967526D01*
X38102638Y-77085363D01*
X38187471Y-77183267D01*
X38296451Y-77253304D01*
X38420748Y-77289800D01*
X38550292Y-77289800D01*
X38674589Y-77253304D01*
X38783569Y-77183267D01*
X38868402Y-77085363D01*
X38874020Y-77073060D01*
X38915472Y-77034467D01*
X38941333Y-77029801D01*
X39814778Y-77029801D01*
X39814786Y-77029801D01*
X39845219Y-77026947D01*
X39969370Y-76983505D01*
X40535521Y-76983505D01*
X40538370Y-77013902D01*
X40538372Y-77013911D01*
X40583172Y-77141943D01*
X40663727Y-77251091D01*
X40663728Y-77251092D01*
X40772876Y-77331647D01*
X40772875Y-77331647D01*
X40900905Y-77376446D01*
X40900913Y-77376448D01*
X40931322Y-77379299D01*
X41285520Y-77379299D01*
X41339714Y-77379299D01*
X41339725Y-77379298D01*
X41370122Y-77376449D01*
X41370131Y-77376447D01*
X41498163Y-77331647D01*
X41607311Y-77251092D01*
X41607312Y-77251091D01*
X41687867Y-77141943D01*
X41732666Y-77013914D01*
X41732668Y-77013906D01*
X41735519Y-76983498D01*
X41735520Y-76983497D01*
X41735520Y-76491800D01*
X41285520Y-76491800D01*
X41285520Y-77379299D01*
X40931322Y-77379299D01*
X40985519Y-77379298D01*
X40985520Y-77379298D01*
X40985520Y-76491800D01*
X40535521Y-76491800D01*
X40535521Y-76983505D01*
X39969370Y-76983505D01*
X39973402Y-76982094D01*
X40082670Y-76901451D01*
X40163313Y-76792183D01*
X40208166Y-76664000D01*
X40211020Y-76633567D01*
X40211020Y-76025035D01*
X40208166Y-75994602D01*
X40163313Y-75866419D01*
X40154739Y-75854801D01*
X40082673Y-75757154D01*
X40082666Y-75757147D01*
X40005371Y-75700101D01*
X40535520Y-75700101D01*
X40535520Y-76191800D01*
X40985520Y-76191800D01*
X41285520Y-76191800D01*
X41735519Y-76191800D01*
X41735519Y-75700106D01*
X41735518Y-75700094D01*
X41732669Y-75669697D01*
X41732667Y-75669688D01*
X41687867Y-75541656D01*
X41607312Y-75432508D01*
X41607311Y-75432507D01*
X41498163Y-75351952D01*
X41498164Y-75351952D01*
X41370134Y-75307153D01*
X41370126Y-75307151D01*
X41339718Y-75304300D01*
X41285520Y-75304300D01*
X41285520Y-76191800D01*
X40985520Y-76191800D01*
X40985520Y-75304300D01*
X40985519Y-75304299D01*
X40931327Y-75304300D01*
X40931313Y-75304301D01*
X40900917Y-75307150D01*
X40900908Y-75307152D01*
X40772876Y-75351952D01*
X40663728Y-75432507D01*
X40663727Y-75432508D01*
X40583172Y-75541656D01*
X40538373Y-75669685D01*
X40538371Y-75669693D01*
X40535520Y-75700101D01*
X40005371Y-75700101D01*
X39973403Y-75676508D01*
X39973401Y-75676507D01*
X39845224Y-75631656D01*
X39845225Y-75631656D01*
X39845220Y-75631655D01*
X39845219Y-75631655D01*
X39814786Y-75628801D01*
X38756254Y-75628801D01*
X38725821Y-75631655D01*
X38725819Y-75631655D01*
X38725815Y-75631656D01*
X38597638Y-75676507D01*
X38597636Y-75676508D01*
X38488373Y-75757147D01*
X38488366Y-75757154D01*
X38407727Y-75866417D01*
X38407726Y-75866419D01*
X38362875Y-75994596D01*
X38362874Y-75994600D01*
X38362874Y-75994602D01*
X38360020Y-76025035D01*
X38360020Y-76025041D01*
X38360020Y-76351234D01*
X38338346Y-76403560D01*
X38306872Y-76422235D01*
X38296456Y-76425293D01*
X38296448Y-76425297D01*
X38187474Y-76495331D01*
X38187470Y-76495334D01*
X38102639Y-76593235D01*
X38048822Y-76711076D01*
X38030387Y-76839300D01*
X30786020Y-76839300D01*
X30786020Y-73659300D01*
X31329937Y-73659300D01*
X31350220Y-73865235D01*
X31410289Y-74063256D01*
X31507835Y-74245750D01*
X31575330Y-74327994D01*
X31639110Y-74405710D01*
X31799070Y-74536985D01*
X31981566Y-74634532D01*
X32179586Y-74694600D01*
X32385520Y-74714883D01*
X32591454Y-74694600D01*
X32789474Y-74634532D01*
X32971970Y-74536985D01*
X33131930Y-74405710D01*
X33180231Y-74346855D01*
X33230181Y-74320156D01*
X33237434Y-74319800D01*
X35461020Y-74319800D01*
X35513346Y-74341474D01*
X35535020Y-74393800D01*
X35535020Y-75075064D01*
X35544947Y-75143193D01*
X35544947Y-75143194D01*
X35596321Y-75248282D01*
X35596322Y-75248283D01*
X35679037Y-75330998D01*
X35784127Y-75382373D01*
X35852260Y-75392300D01*
X35852266Y-75392300D01*
X36218774Y-75392300D01*
X36218780Y-75392300D01*
X36286913Y-75382373D01*
X36392003Y-75330998D01*
X36474718Y-75248283D01*
X36526093Y-75143193D01*
X36536020Y-75075060D01*
X36536020Y-73833540D01*
X36526093Y-73765407D01*
X36474718Y-73660317D01*
X36392003Y-73577602D01*
X36392002Y-73577601D01*
X36286914Y-73526227D01*
X36218784Y-73516300D01*
X36218780Y-73516300D01*
X35852260Y-73516300D01*
X35852254Y-73516300D01*
X35840407Y-73518027D01*
X35829738Y-73518800D01*
X35681604Y-73518800D01*
X35629278Y-73497126D01*
X35607604Y-73444800D01*
X35622064Y-73400858D01*
X35637865Y-73379447D01*
X35637867Y-73379444D01*
X35682666Y-73251414D01*
X35682668Y-73251406D01*
X35685519Y-73220998D01*
X35685520Y-73220997D01*
X35685520Y-72729300D01*
X34485521Y-72729300D01*
X34485521Y-73221005D01*
X34488370Y-73251402D01*
X34488372Y-73251411D01*
X34533172Y-73379444D01*
X34533174Y-73379447D01*
X34548976Y-73400858D01*
X34562609Y-73455829D01*
X34533378Y-73504340D01*
X34489436Y-73518800D01*
X33494334Y-73518800D01*
X33442008Y-73497126D01*
X33422869Y-73456660D01*
X33421528Y-73456927D01*
X33420820Y-73453368D01*
X33420820Y-73453366D01*
X33360752Y-73255346D01*
X33263205Y-73072850D01*
X33131930Y-72912890D01*
X33091196Y-72879461D01*
X32971970Y-72781615D01*
X32789476Y-72684069D01*
X32789475Y-72684068D01*
X32789474Y-72684068D01*
X32677678Y-72650155D01*
X32591455Y-72624000D01*
X32385520Y-72603717D01*
X32179584Y-72624000D01*
X31981563Y-72684069D01*
X31799069Y-72781615D01*
X31639110Y-72912889D01*
X31639109Y-72912890D01*
X31507835Y-73072849D01*
X31410289Y-73255343D01*
X31350220Y-73453364D01*
X31329937Y-73659300D01*
X30786020Y-73659300D01*
X30786020Y-70249553D01*
X31335020Y-70249553D01*
X31335020Y-71989046D01*
X31346653Y-72047532D01*
X31373342Y-72087474D01*
X31390968Y-72113852D01*
X31429801Y-72139800D01*
X31457287Y-72158166D01*
X31457288Y-72158166D01*
X31457289Y-72158167D01*
X31515772Y-72169800D01*
X31515774Y-72169800D01*
X33255266Y-72169800D01*
X33255268Y-72169800D01*
X33313751Y-72158167D01*
X33380072Y-72113852D01*
X33424387Y-72047531D01*
X33436020Y-71989048D01*
X33436020Y-71937601D01*
X34485520Y-71937601D01*
X34485520Y-72429300D01*
X34935520Y-72429300D01*
X35235520Y-72429300D01*
X35685519Y-72429300D01*
X35685519Y-71937606D01*
X35685518Y-71937594D01*
X35682669Y-71907197D01*
X35682667Y-71907188D01*
X35637867Y-71779156D01*
X35557312Y-71670008D01*
X35557311Y-71670007D01*
X35448163Y-71589452D01*
X35448164Y-71589452D01*
X35320134Y-71544653D01*
X35320126Y-71544651D01*
X35289718Y-71541800D01*
X35235520Y-71541800D01*
X35235520Y-72429300D01*
X34935520Y-72429300D01*
X34935520Y-71541800D01*
X34935519Y-71541799D01*
X34881327Y-71541800D01*
X34881313Y-71541801D01*
X34850917Y-71544650D01*
X34850908Y-71544652D01*
X34722876Y-71589452D01*
X34613728Y-71670007D01*
X34613727Y-71670008D01*
X34533172Y-71779156D01*
X34488373Y-71907185D01*
X34488371Y-71907193D01*
X34485520Y-71937601D01*
X33436020Y-71937601D01*
X33436020Y-71593800D01*
X33457694Y-71541474D01*
X33510020Y-71519800D01*
X33973725Y-71519800D01*
X34000653Y-71519800D01*
X34000662Y-71519803D01*
X34031308Y-71519803D01*
X34031308Y-71519804D01*
X34123102Y-71519803D01*
X34237183Y-71504783D01*
X34305112Y-71495840D01*
X34305112Y-71495839D01*
X34305119Y-71495839D01*
X34482450Y-71448323D01*
X34652062Y-71378066D01*
X34811053Y-71286271D01*
X34929880Y-71195091D01*
X34974927Y-71179800D01*
X35402278Y-71179800D01*
X35402286Y-71179800D01*
X35432719Y-71176946D01*
X35560902Y-71132093D01*
X35670170Y-71051450D01*
X35750813Y-70942182D01*
X35795666Y-70813999D01*
X35798520Y-70783566D01*
X35798520Y-69775034D01*
X35795666Y-69744601D01*
X35750813Y-69616418D01*
X35689647Y-69533540D01*
X35670173Y-69507153D01*
X35670166Y-69507146D01*
X35610810Y-69463340D01*
X35581579Y-69414830D01*
X35595212Y-69359858D01*
X35643722Y-69330627D01*
X35654752Y-69329800D01*
X36341288Y-69329800D01*
X36393614Y-69351474D01*
X36415288Y-69403800D01*
X36393614Y-69456126D01*
X36385230Y-69463340D01*
X36325873Y-69507146D01*
X36325866Y-69507153D01*
X36245227Y-69616416D01*
X36245226Y-69616418D01*
X36200375Y-69744595D01*
X36200374Y-69744599D01*
X36200374Y-69744601D01*
X36197520Y-69775034D01*
X36197520Y-70783566D01*
X36200374Y-70813999D01*
X36200374Y-70814001D01*
X36200375Y-70814004D01*
X36245226Y-70942181D01*
X36245227Y-70942183D01*
X36325866Y-71051446D01*
X36325873Y-71051453D01*
X36435135Y-71132091D01*
X36435138Y-71132093D01*
X36535461Y-71167197D01*
X36577691Y-71204936D01*
X36585020Y-71237044D01*
X36585020Y-71715967D01*
X36563346Y-71768293D01*
X36546321Y-71785317D01*
X36494947Y-71890405D01*
X36494947Y-71890406D01*
X36485020Y-71958535D01*
X36485020Y-73200064D01*
X36494947Y-73268193D01*
X36494947Y-73268194D01*
X36546321Y-73373282D01*
X36546322Y-73373283D01*
X36629037Y-73455998D01*
X36734127Y-73507373D01*
X36802260Y-73517300D01*
X36802266Y-73517300D01*
X37168774Y-73517300D01*
X37168780Y-73517300D01*
X37236913Y-73507373D01*
X37342003Y-73455998D01*
X37424718Y-73373283D01*
X37476093Y-73268193D01*
X37486020Y-73200060D01*
X37486020Y-71958540D01*
X37476093Y-71890407D01*
X37424718Y-71785317D01*
X37407694Y-71768293D01*
X37386020Y-71715967D01*
X37386020Y-71169362D01*
X37407694Y-71117036D01*
X37416078Y-71109822D01*
X37444319Y-71088979D01*
X37495170Y-71051450D01*
X37575813Y-70942182D01*
X37620666Y-70813999D01*
X37623520Y-70783566D01*
X37623520Y-69833180D01*
X37645194Y-69780854D01*
X37697520Y-69759180D01*
X37746312Y-69777544D01*
X37758710Y-69788417D01*
X37762243Y-69791726D01*
X38930842Y-70960291D01*
X38945102Y-70974551D01*
X38949979Y-70979932D01*
X39022594Y-71068414D01*
X39030653Y-71080475D01*
X39082889Y-71178199D01*
X39088441Y-71191602D01*
X39120608Y-71297643D01*
X39123438Y-71311870D01*
X39125952Y-71337394D01*
X39132758Y-71406499D01*
X39134664Y-71425845D01*
X39135020Y-71433099D01*
X39135020Y-73806020D01*
X39113346Y-73858346D01*
X39104516Y-73865887D01*
X38976746Y-73958717D01*
X38859930Y-74088454D01*
X38859927Y-74088457D01*
X38772639Y-74239647D01*
X38718694Y-74405672D01*
X38718693Y-74405676D01*
X38718693Y-74405678D01*
X38700445Y-74579300D01*
X38714177Y-74709956D01*
X38718694Y-74752927D01*
X38772639Y-74918952D01*
X38859927Y-75070142D01*
X38859930Y-75070145D01*
X38903529Y-75118567D01*
X38976748Y-75199884D01*
X39117975Y-75302492D01*
X39117982Y-75302496D01*
X39277468Y-75373504D01*
X39448231Y-75409800D01*
X39448232Y-75409800D01*
X39622808Y-75409800D01*
X39622809Y-75409800D01*
X39793572Y-75373504D01*
X39953058Y-75302496D01*
X40006052Y-75263994D01*
X40094291Y-75199884D01*
X40094290Y-75199884D01*
X40094294Y-75199882D01*
X40211110Y-75070145D01*
X40215936Y-75061787D01*
X40252301Y-74998800D01*
X40298399Y-74918956D01*
X40352347Y-74752922D01*
X40370595Y-74579300D01*
X40352347Y-74405678D01*
X40298399Y-74239644D01*
X40250738Y-74157092D01*
X40211112Y-74088457D01*
X40211109Y-74088454D01*
X40130716Y-73999169D01*
X40094294Y-73958718D01*
X40094293Y-73958717D01*
X40094291Y-73958715D01*
X39966524Y-73865886D01*
X39936931Y-73817595D01*
X39936020Y-73806019D01*
X39936020Y-73753800D01*
X39957694Y-73701474D01*
X40010020Y-73679800D01*
X44245823Y-73679800D01*
X44298149Y-73701474D01*
X44319823Y-73753800D01*
X44298149Y-73806126D01*
X44275922Y-73821402D01*
X44197983Y-73856102D01*
X44197978Y-73856105D01*
X44056745Y-73958717D01*
X43939929Y-74088454D01*
X43939926Y-74088457D01*
X43852638Y-74239647D01*
X43798693Y-74405672D01*
X43798692Y-74405676D01*
X43798692Y-74405678D01*
X43780444Y-74579300D01*
X43794176Y-74709956D01*
X43798693Y-74752927D01*
X43852638Y-74918952D01*
X43939926Y-75070142D01*
X43939929Y-75070145D01*
X43983528Y-75118567D01*
X44056747Y-75199884D01*
X44197974Y-75302492D01*
X44197981Y-75302496D01*
X44357463Y-75373503D01*
X44357466Y-75373503D01*
X44357467Y-75373504D01*
X44426404Y-75388156D01*
X44473081Y-75420235D01*
X44485020Y-75460539D01*
X44485020Y-75554801D01*
X44463346Y-75607127D01*
X44411020Y-75628801D01*
X44356254Y-75628801D01*
X44325821Y-75631655D01*
X44325819Y-75631655D01*
X44325815Y-75631656D01*
X44197638Y-75676507D01*
X44197636Y-75676508D01*
X44088373Y-75757147D01*
X44088366Y-75757154D01*
X44007727Y-75866417D01*
X44003241Y-75879240D01*
X43965502Y-75921472D01*
X43933393Y-75928801D01*
X43610020Y-75928801D01*
X43557694Y-75907127D01*
X43536020Y-75854801D01*
X43536020Y-75721046D01*
X43536020Y-75721040D01*
X43526093Y-75652907D01*
X43474718Y-75547817D01*
X43392003Y-75465102D01*
X43392002Y-75465101D01*
X43286914Y-75413727D01*
X43218784Y-75403800D01*
X43218780Y-75403800D01*
X42852260Y-75403800D01*
X42852255Y-75403800D01*
X42784126Y-75413727D01*
X42784125Y-75413727D01*
X42679037Y-75465101D01*
X42596321Y-75547817D01*
X42544947Y-75652905D01*
X42544947Y-75652906D01*
X42535020Y-75721035D01*
X42535020Y-76962564D01*
X42544947Y-77030693D01*
X42544947Y-77030694D01*
X42596321Y-77135782D01*
X42613346Y-77152807D01*
X42635020Y-77205133D01*
X42635020Y-77354467D01*
X42613346Y-77406793D01*
X42561020Y-77428467D01*
X42508694Y-77406793D01*
X42442002Y-77340101D01*
X42336914Y-77288727D01*
X42268784Y-77278800D01*
X42268780Y-77278800D01*
X41902260Y-77278800D01*
X41902255Y-77278800D01*
X41834126Y-77288727D01*
X41834125Y-77288727D01*
X41729037Y-77340101D01*
X41646321Y-77422817D01*
X41594947Y-77527905D01*
X41594947Y-77527906D01*
X41585020Y-77596035D01*
X41585020Y-77754798D01*
X41563346Y-77807124D01*
X41511020Y-77828798D01*
X40237647Y-77828798D01*
X40185321Y-77807124D01*
X40167800Y-77779238D01*
X40163314Y-77766418D01*
X40163312Y-77766415D01*
X40082673Y-77657152D01*
X40082666Y-77657145D01*
X39973403Y-77576506D01*
X39973401Y-77576505D01*
X39845224Y-77531654D01*
X39845225Y-77531654D01*
X39845220Y-77531653D01*
X39845219Y-77531653D01*
X39814786Y-77528799D01*
X38756254Y-77528799D01*
X38725821Y-77531653D01*
X38725819Y-77531653D01*
X38725815Y-77531654D01*
X38597638Y-77576505D01*
X38597636Y-77576506D01*
X38488373Y-77657145D01*
X38488366Y-77657152D01*
X38407727Y-77766415D01*
X38407726Y-77766417D01*
X38362875Y-77894594D01*
X38362874Y-77894598D01*
X38362874Y-77894600D01*
X38360020Y-77925033D01*
X38360020Y-78533565D01*
X38362874Y-78563998D01*
X38362874Y-78564000D01*
X38362875Y-78564003D01*
X38407726Y-78692180D01*
X38407727Y-78692182D01*
X38488366Y-78801445D01*
X38488373Y-78801452D01*
X38597636Y-78882091D01*
X38597638Y-78882092D01*
X38725815Y-78926943D01*
X38725821Y-78926945D01*
X38756254Y-78929799D01*
X38756261Y-78929799D01*
X39814778Y-78929799D01*
X39814786Y-78929799D01*
X39845219Y-78926945D01*
X39973402Y-78882092D01*
X40082670Y-78801449D01*
X40163313Y-78692181D01*
X40167799Y-78679358D01*
X40205538Y-78637127D01*
X40237647Y-78629798D01*
X41511020Y-78629798D01*
X41563346Y-78651472D01*
X41585020Y-78703798D01*
X41585020Y-78837564D01*
X41594947Y-78905693D01*
X41594947Y-78905694D01*
X41646321Y-79010782D01*
X41646322Y-79010783D01*
X41729037Y-79093498D01*
X41834127Y-79144873D01*
X41902260Y-79154800D01*
X41902266Y-79154800D01*
X42268774Y-79154800D01*
X42268780Y-79154800D01*
X42336913Y-79144873D01*
X42442003Y-79093498D01*
X42454100Y-79081401D01*
X42506425Y-79059725D01*
X42558751Y-79081398D01*
X42580427Y-79133723D01*
X42580387Y-79134290D01*
X42580387Y-79139299D01*
X42598822Y-79267523D01*
X42598822Y-79267524D01*
X42598823Y-79267526D01*
X42640626Y-79359060D01*
X42642647Y-79415660D01*
X42604054Y-79457113D01*
X42573313Y-79463800D01*
X34180050Y-79463800D01*
X34175211Y-79463642D01*
X33991090Y-79451576D01*
X33981493Y-79450312D01*
X33802922Y-79414795D01*
X33793572Y-79412290D01*
X33621154Y-79353764D01*
X33612218Y-79350063D01*
X33477290Y-79283526D01*
X33439947Y-79240945D01*
X33436020Y-79217158D01*
X33436020Y-77869553D01*
X33431704Y-77847855D01*
X33424387Y-77811069D01*
X33416415Y-77799139D01*
X33403118Y-77779238D01*
X33380072Y-77744748D01*
X33341936Y-77719266D01*
X33313752Y-77700433D01*
X33313753Y-77700433D01*
X33284509Y-77694616D01*
X33255268Y-77688800D01*
X31515772Y-77688800D01*
X31486530Y-77694616D01*
X31457287Y-77700433D01*
X31390969Y-77744747D01*
X31390967Y-77744749D01*
X31346653Y-77811067D01*
X31335020Y-77869553D01*
X31335020Y-79609046D01*
X31346653Y-79667532D01*
X31376128Y-79711643D01*
X31390968Y-79733852D01*
X31435080Y-79763327D01*
X31457287Y-79778166D01*
X31457288Y-79778166D01*
X31457289Y-79778167D01*
X31515772Y-79789800D01*
X33029120Y-79789800D01*
X33068490Y-79801142D01*
X33151925Y-79853566D01*
X33366168Y-79956737D01*
X33590614Y-80035271D01*
X33822442Y-80088181D01*
X34058737Y-80114802D01*
X34177632Y-80114800D01*
X38086551Y-80114800D01*
X38138877Y-80136474D01*
X38160551Y-80188800D01*
X38142477Y-80237259D01*
X38102640Y-80283232D01*
X38102639Y-80283234D01*
X38048822Y-80401076D01*
X38030387Y-80529300D01*
X38048822Y-80657523D01*
X38048822Y-80657524D01*
X38048823Y-80657526D01*
X38102638Y-80775363D01*
X38187471Y-80873267D01*
X38296451Y-80943304D01*
X38420748Y-80979800D01*
X38550292Y-80979800D01*
X38674589Y-80943304D01*
X38783569Y-80873267D01*
X38783572Y-80873263D01*
X38784019Y-80872877D01*
X38784391Y-80872737D01*
X38788022Y-80870405D01*
X38788529Y-80871194D01*
X38832481Y-80854800D01*
X44270886Y-80854800D01*
X44291780Y-80854800D01*
X44291801Y-80854808D01*
X44322440Y-80854807D01*
X44322440Y-80854809D01*
X44480016Y-80854807D01*
X44793651Y-80823913D01*
X45102747Y-80762427D01*
X45403113Y-80671311D01*
X45404310Y-80670948D01*
X45404312Y-80670946D01*
X45404329Y-80670942D01*
X45695492Y-80550337D01*
X45973431Y-80401775D01*
X46235471Y-80226685D01*
X46479088Y-80026755D01*
X46551654Y-79954189D01*
X46603976Y-79932517D01*
X46656303Y-79954191D01*
X46677977Y-80006516D01*
X46677224Y-80017047D01*
X46662493Y-80119511D01*
X46661086Y-80129300D01*
X46662253Y-80137419D01*
X46679521Y-80257525D01*
X46719793Y-80345708D01*
X46721814Y-80402309D01*
X46720178Y-80406330D01*
X46718635Y-80409825D01*
X46718632Y-80409833D01*
X46715719Y-80434955D01*
X46715719Y-81799683D01*
X46718633Y-81824806D01*
X46718634Y-81824811D01*
X46764013Y-81927585D01*
X46843454Y-82007026D01*
X46946228Y-82052405D01*
X46971354Y-82055320D01*
X47261083Y-82055319D01*
X47286210Y-82052405D01*
X47388984Y-82007026D01*
X47388985Y-82007024D01*
X47388987Y-82007024D01*
X47394642Y-82003151D01*
X47395487Y-82004385D01*
X47441219Y-81985443D01*
X47486950Y-82004385D01*
X47487796Y-82003151D01*
X47493450Y-82007024D01*
X47493453Y-82007025D01*
X47493454Y-82007026D01*
X47596228Y-82052405D01*
X47621354Y-82055320D01*
X47911083Y-82055319D01*
X47936210Y-82052405D01*
X48038984Y-82007026D01*
X48038985Y-82007024D01*
X48038987Y-82007024D01*
X48044642Y-82003151D01*
X48045487Y-82004385D01*
X48091219Y-81985443D01*
X48136950Y-82004385D01*
X48137796Y-82003151D01*
X48143450Y-82007024D01*
X48143453Y-82007025D01*
X48143454Y-82007026D01*
X48246228Y-82052405D01*
X48271354Y-82055320D01*
X48561083Y-82055319D01*
X48586210Y-82052405D01*
X48688984Y-82007026D01*
X48688985Y-82007024D01*
X48688987Y-82007024D01*
X48694642Y-82003151D01*
X48695487Y-82004385D01*
X48741219Y-81985443D01*
X48786950Y-82004385D01*
X48787796Y-82003151D01*
X48793450Y-82007024D01*
X48793453Y-82007025D01*
X48793454Y-82007026D01*
X48896228Y-82052405D01*
X48921354Y-82055320D01*
X49211083Y-82055319D01*
X49236210Y-82052405D01*
X49338984Y-82007026D01*
X49338985Y-82007024D01*
X49338987Y-82007024D01*
X49344642Y-82003151D01*
X49345487Y-82004385D01*
X49391219Y-81985443D01*
X49436950Y-82004385D01*
X49437796Y-82003151D01*
X49443450Y-82007024D01*
X49443453Y-82007025D01*
X49443454Y-82007026D01*
X49546228Y-82052405D01*
X49571354Y-82055320D01*
X49861083Y-82055319D01*
X49886210Y-82052405D01*
X49988984Y-82007026D01*
X49988985Y-82007024D01*
X49988987Y-82007024D01*
X49994642Y-82003151D01*
X49995487Y-82004385D01*
X50041219Y-81985443D01*
X50086950Y-82004385D01*
X50087796Y-82003151D01*
X50093450Y-82007024D01*
X50093453Y-82007025D01*
X50093454Y-82007026D01*
X50196228Y-82052405D01*
X50221354Y-82055320D01*
X50511083Y-82055319D01*
X50536210Y-82052405D01*
X50638984Y-82007026D01*
X50638985Y-82007024D01*
X50638987Y-82007024D01*
X50644642Y-82003151D01*
X50645487Y-82004385D01*
X50691219Y-81985443D01*
X50736950Y-82004385D01*
X50737796Y-82003151D01*
X50743450Y-82007024D01*
X50743453Y-82007025D01*
X50743454Y-82007026D01*
X50846228Y-82052405D01*
X50871354Y-82055320D01*
X51161083Y-82055319D01*
X51186210Y-82052405D01*
X51288984Y-82007026D01*
X51288985Y-82007024D01*
X51288987Y-82007024D01*
X51294642Y-82003151D01*
X51295487Y-82004385D01*
X51341219Y-81985443D01*
X51386950Y-82004385D01*
X51387796Y-82003151D01*
X51393450Y-82007024D01*
X51393453Y-82007025D01*
X51393454Y-82007026D01*
X51496228Y-82052405D01*
X51521354Y-82055320D01*
X51811083Y-82055319D01*
X51836210Y-82052405D01*
X51938984Y-82007026D01*
X51938985Y-82007024D01*
X51938987Y-82007024D01*
X51944642Y-82003151D01*
X51945487Y-82004385D01*
X51991219Y-81985443D01*
X52036950Y-82004385D01*
X52037796Y-82003151D01*
X52043450Y-82007024D01*
X52043453Y-82007025D01*
X52043454Y-82007026D01*
X52146228Y-82052405D01*
X52171354Y-82055320D01*
X52461083Y-82055319D01*
X52486210Y-82052405D01*
X52588984Y-82007026D01*
X52588985Y-82007024D01*
X52588987Y-82007024D01*
X52594642Y-82003151D01*
X52595487Y-82004385D01*
X52641219Y-81985443D01*
X52686950Y-82004385D01*
X52687796Y-82003151D01*
X52693450Y-82007024D01*
X52693453Y-82007025D01*
X52693454Y-82007026D01*
X52796228Y-82052405D01*
X52821354Y-82055320D01*
X53111083Y-82055319D01*
X53136210Y-82052405D01*
X53238984Y-82007026D01*
X53318425Y-81927585D01*
X53363804Y-81824811D01*
X53366719Y-81799685D01*
X53366718Y-80434956D01*
X53363804Y-80409829D01*
X53318425Y-80307055D01*
X53314457Y-80303087D01*
X53292783Y-80250761D01*
X53314457Y-80198435D01*
X53366783Y-80176761D01*
X53371622Y-80176919D01*
X53373480Y-80177041D01*
X53410002Y-80179436D01*
X53419597Y-80180699D01*
X53634323Y-80223409D01*
X53643670Y-80225913D01*
X53850994Y-80296289D01*
X53859934Y-80299992D01*
X54056295Y-80396826D01*
X54064678Y-80401666D01*
X54076889Y-80409825D01*
X54213684Y-80501228D01*
X54246721Y-80523302D01*
X54254392Y-80529188D01*
X54275490Y-80547690D01*
X54300540Y-80598487D01*
X54300158Y-80612245D01*
X54279875Y-80779296D01*
X54279875Y-80779304D01*
X54300379Y-80948172D01*
X54360701Y-81107230D01*
X54434037Y-81213474D01*
X54457337Y-81247230D01*
X54584668Y-81360035D01*
X54735295Y-81439091D01*
X54900464Y-81479801D01*
X54900468Y-81479801D01*
X55070572Y-81479801D01*
X55070576Y-81479801D01*
X55235745Y-81439091D01*
X55386372Y-81360035D01*
X55513703Y-81247230D01*
X55610338Y-81107231D01*
X55670660Y-80948173D01*
X55679755Y-80873267D01*
X55691165Y-80779304D01*
X55691165Y-80779297D01*
X55670660Y-80610429D01*
X55610338Y-80451371D01*
X55513703Y-80311372D01*
X55386376Y-80198570D01*
X55386373Y-80198568D01*
X55386372Y-80198567D01*
X55235745Y-80119511D01*
X55235742Y-80119510D01*
X55070578Y-80078801D01*
X55070576Y-80078801D01*
X54900464Y-80078801D01*
X54900459Y-80078801D01*
X54809127Y-80101312D01*
X54753135Y-80092789D01*
X54745281Y-80087318D01*
X54577056Y-79953164D01*
X54421525Y-79855438D01*
X54348914Y-79809814D01*
X54348913Y-79809813D01*
X54348909Y-79809811D01*
X54106160Y-79692910D01*
X53887339Y-79616343D01*
X53851836Y-79603920D01*
X53851832Y-79603919D01*
X53589155Y-79543966D01*
X53589153Y-79543965D01*
X53589150Y-79543965D01*
X53321404Y-79513799D01*
X53321400Y-79513799D01*
X53186684Y-79513800D01*
X52389075Y-79513800D01*
X52389051Y-79513798D01*
X52362216Y-79513798D01*
X52362165Y-79513777D01*
X52255381Y-79513782D01*
X52255379Y-79513783D01*
X52104928Y-79537619D01*
X52104924Y-79537619D01*
X52104923Y-79537620D01*
X52104921Y-79537620D01*
X52104910Y-79537623D01*
X51960055Y-79584697D01*
X51824320Y-79653863D01*
X51701085Y-79743406D01*
X51668958Y-79775534D01*
X51668939Y-79775541D01*
X51668941Y-79775543D01*
X51589020Y-79855438D01*
X51539112Y-79924112D01*
X51490817Y-79953698D01*
X51435746Y-79940468D01*
X51411939Y-79911348D01*
X51399101Y-79883237D01*
X51314268Y-79785333D01*
X51212438Y-79719891D01*
X51205287Y-79715295D01*
X51080991Y-79678800D01*
X50951447Y-79678800D01*
X50951446Y-79678800D01*
X50901595Y-79693437D01*
X50845283Y-79687382D01*
X50809745Y-79643281D01*
X50807501Y-79632964D01*
X50802916Y-79601076D01*
X50802916Y-79601074D01*
X50749101Y-79483237D01*
X50664268Y-79385333D01*
X50597251Y-79342264D01*
X50555287Y-79315295D01*
X50430991Y-79278800D01*
X50301447Y-79278800D01*
X50177150Y-79315295D01*
X50068173Y-79385331D01*
X50068169Y-79385334D01*
X49983338Y-79483235D01*
X49937000Y-79584700D01*
X49929522Y-79601074D01*
X49924936Y-79632967D01*
X49896036Y-79681675D01*
X49841158Y-79695681D01*
X49830843Y-79693437D01*
X49780992Y-79678800D01*
X49780991Y-79678800D01*
X49651447Y-79678800D01*
X49651446Y-79678800D01*
X49601595Y-79693437D01*
X49545283Y-79687382D01*
X49509745Y-79643281D01*
X49507501Y-79632964D01*
X49502916Y-79601076D01*
X49502916Y-79601074D01*
X49449101Y-79483237D01*
X49364268Y-79385333D01*
X49297251Y-79342264D01*
X49255287Y-79315295D01*
X49130991Y-79278800D01*
X49001447Y-79278800D01*
X48877150Y-79315295D01*
X48768173Y-79385331D01*
X48768169Y-79385334D01*
X48683338Y-79483235D01*
X48637000Y-79584700D01*
X48629522Y-79601074D01*
X48624936Y-79632967D01*
X48596036Y-79681675D01*
X48541158Y-79695681D01*
X48530843Y-79693437D01*
X48480992Y-79678800D01*
X48480991Y-79678800D01*
X48351447Y-79678800D01*
X48351446Y-79678800D01*
X48301595Y-79693437D01*
X48245283Y-79687382D01*
X48209745Y-79643281D01*
X48207501Y-79632964D01*
X48202916Y-79601076D01*
X48202916Y-79601074D01*
X48149101Y-79483237D01*
X48064268Y-79385333D01*
X47997251Y-79342264D01*
X47955287Y-79315295D01*
X47830991Y-79278800D01*
X47759169Y-79278800D01*
X47706843Y-79257126D01*
X47685169Y-79204800D01*
X47706843Y-79152474D01*
X47734240Y-79135126D01*
X47896244Y-79077161D01*
X47903177Y-79075057D01*
X48163932Y-79009744D01*
X48171018Y-79008334D01*
X48436929Y-78968893D01*
X48444123Y-78968184D01*
X48714837Y-78954888D01*
X48718457Y-78954800D01*
X48767791Y-78954800D01*
X48852185Y-78954800D01*
X48873068Y-78954800D01*
X48873113Y-78954818D01*
X48903739Y-78954818D01*
X48903739Y-78954819D01*
X49087918Y-78954818D01*
X49087921Y-78954818D01*
X49373854Y-78929799D01*
X49454873Y-78922710D01*
X49575780Y-78901390D01*
X54535560Y-78901390D01*
X54636217Y-78964636D01*
X54636222Y-78964638D01*
X54806365Y-79024173D01*
X54806376Y-79024176D01*
X54985520Y-79044361D01*
X55164663Y-79024176D01*
X55164674Y-79024173D01*
X55334822Y-78964636D01*
X55334824Y-78964636D01*
X55435477Y-78901390D01*
X55435478Y-78901390D01*
X54985520Y-78451432D01*
X54535560Y-78901390D01*
X49575780Y-78901390D01*
X49817633Y-78858743D01*
X50173438Y-78763402D01*
X50519580Y-78637415D01*
X50853424Y-78481738D01*
X51172430Y-78297558D01*
X51255630Y-78239300D01*
X54180458Y-78239300D01*
X54200643Y-78418443D01*
X54200646Y-78418454D01*
X54260181Y-78588597D01*
X54260183Y-78588602D01*
X54323428Y-78689257D01*
X54773387Y-78239299D01*
X55197652Y-78239299D01*
X55197652Y-78239300D01*
X55647610Y-78689258D01*
X55647610Y-78689257D01*
X55710856Y-78588604D01*
X55710856Y-78588602D01*
X55770393Y-78418454D01*
X55770396Y-78418443D01*
X55790581Y-78239300D01*
X55770396Y-78060156D01*
X55770393Y-78060145D01*
X55710858Y-77890002D01*
X55710856Y-77889997D01*
X55647610Y-77789340D01*
X55197652Y-78239299D01*
X54773387Y-78239299D01*
X54323429Y-77789341D01*
X54260183Y-77889997D01*
X54260181Y-77890002D01*
X54200646Y-78060145D01*
X54200643Y-78060156D01*
X54180458Y-78239300D01*
X51255630Y-78239300D01*
X51474169Y-78086276D01*
X51756346Y-77849500D01*
X51886580Y-77719266D01*
X51903254Y-77702592D01*
X52028637Y-77577209D01*
X54535561Y-77577209D01*
X54985519Y-78027167D01*
X55435478Y-77577209D01*
X55334822Y-77513963D01*
X55334817Y-77513961D01*
X55164674Y-77454426D01*
X55164663Y-77454423D01*
X54985520Y-77434238D01*
X54806376Y-77454423D01*
X54806365Y-77454426D01*
X54636222Y-77513961D01*
X54636217Y-77513963D01*
X54535561Y-77577209D01*
X52028637Y-77577209D01*
X52750649Y-76855195D01*
X52750654Y-76855192D01*
X52756740Y-76849105D01*
X52756742Y-76849105D01*
X52771516Y-76834331D01*
X52771539Y-76834321D01*
X52793202Y-76812656D01*
X52793203Y-76812657D01*
X52872086Y-76733771D01*
X53007910Y-76556755D01*
X53119468Y-76363526D01*
X53122679Y-76355771D01*
X53161157Y-76316389D01*
X53238984Y-76282026D01*
X53318425Y-76202585D01*
X53363804Y-76099811D01*
X53366719Y-76074685D01*
X53366719Y-75699296D01*
X54279875Y-75699296D01*
X54279875Y-75699303D01*
X54300379Y-75868171D01*
X54360701Y-76027229D01*
X54457336Y-76167228D01*
X54582542Y-76278151D01*
X54584668Y-76280034D01*
X54735295Y-76359090D01*
X54900464Y-76399800D01*
X54900468Y-76399800D01*
X55070572Y-76399800D01*
X55070576Y-76399800D01*
X55235745Y-76359090D01*
X55386372Y-76280034D01*
X55513703Y-76167229D01*
X55610338Y-76027230D01*
X55670660Y-75868172D01*
X55688525Y-75721046D01*
X55691165Y-75699303D01*
X55691165Y-75699296D01*
X55670660Y-75530428D01*
X55610338Y-75371370D01*
X55513703Y-75231371D01*
X55386376Y-75118569D01*
X55386373Y-75118567D01*
X55386372Y-75118566D01*
X55235745Y-75039510D01*
X55235742Y-75039509D01*
X55070578Y-74998800D01*
X55070576Y-74998800D01*
X54900464Y-74998800D01*
X54900461Y-74998800D01*
X54735297Y-75039509D01*
X54584666Y-75118567D01*
X54584663Y-75118569D01*
X54457336Y-75231371D01*
X54360701Y-75371370D01*
X54300379Y-75530428D01*
X54279875Y-75699296D01*
X53366719Y-75699296D01*
X53366718Y-74709956D01*
X53363804Y-74684829D01*
X53318425Y-74582055D01*
X53238984Y-74502614D01*
X53136210Y-74457235D01*
X53136209Y-74457234D01*
X53136207Y-74457234D01*
X53114878Y-74454760D01*
X53111084Y-74454320D01*
X53111083Y-74454320D01*
X52821355Y-74454320D01*
X52796232Y-74457234D01*
X52796226Y-74457235D01*
X52693450Y-74502615D01*
X52687796Y-74506489D01*
X52686950Y-74505254D01*
X52641219Y-74524197D01*
X52595487Y-74505254D01*
X52594642Y-74506489D01*
X52588987Y-74502615D01*
X52536828Y-74479585D01*
X52486210Y-74457235D01*
X52486209Y-74457234D01*
X52486207Y-74457234D01*
X52464878Y-74454760D01*
X52461084Y-74454320D01*
X52461083Y-74454320D01*
X52171355Y-74454320D01*
X52146232Y-74457234D01*
X52146226Y-74457235D01*
X52043450Y-74502615D01*
X52037796Y-74506489D01*
X52036950Y-74505254D01*
X51991219Y-74524197D01*
X51945487Y-74505254D01*
X51944642Y-74506489D01*
X51938987Y-74502615D01*
X51886828Y-74479585D01*
X51836210Y-74457235D01*
X51836209Y-74457234D01*
X51836207Y-74457234D01*
X51814878Y-74454760D01*
X51811084Y-74454320D01*
X51811083Y-74454320D01*
X51521355Y-74454320D01*
X51496232Y-74457234D01*
X51496226Y-74457235D01*
X51393450Y-74502615D01*
X51387796Y-74506489D01*
X51386950Y-74505254D01*
X51341219Y-74524197D01*
X51295487Y-74505254D01*
X51294642Y-74506489D01*
X51288987Y-74502615D01*
X51236828Y-74479585D01*
X51186210Y-74457235D01*
X51186209Y-74457234D01*
X51186207Y-74457234D01*
X51161084Y-74454320D01*
X51159478Y-74454320D01*
X51159216Y-74454211D01*
X51158946Y-74454196D01*
X51158951Y-74454101D01*
X51107152Y-74432646D01*
X51085478Y-74380320D01*
X51107152Y-74327994D01*
X51115346Y-74319800D01*
X51272371Y-74162775D01*
X51275350Y-74159959D01*
X51469573Y-73986390D01*
X51476052Y-73981223D01*
X51686786Y-73831698D01*
X51693783Y-73827302D01*
X51919952Y-73702301D01*
X51927382Y-73698723D01*
X52166125Y-73599831D01*
X52173928Y-73597101D01*
X52422225Y-73525567D01*
X52430308Y-73523722D01*
X52685026Y-73480442D01*
X52693262Y-73479513D01*
X52953181Y-73464916D01*
X52957330Y-73464800D01*
X68050022Y-73464800D01*
X68102348Y-73486474D01*
X68117332Y-73508054D01*
X68152638Y-73585363D01*
X68237471Y-73683267D01*
X68346451Y-73753304D01*
X68470748Y-73789800D01*
X68600292Y-73789800D01*
X68724589Y-73753304D01*
X68833569Y-73683267D01*
X68918402Y-73585363D01*
X68972217Y-73467526D01*
X68990653Y-73339300D01*
X68972217Y-73211074D01*
X68945012Y-73151504D01*
X68942989Y-73094903D01*
X68981583Y-73053451D01*
X69038184Y-73051428D01*
X69050990Y-73057668D01*
X69102373Y-73089157D01*
X69111767Y-73095983D01*
X69247397Y-73211827D01*
X69251662Y-73215769D01*
X69285870Y-73249978D01*
X69285872Y-73249979D01*
X69363843Y-73327950D01*
X69384764Y-73369745D01*
X69398822Y-73467523D01*
X69398822Y-73467524D01*
X69398823Y-73467526D01*
X69452638Y-73585363D01*
X69537471Y-73683267D01*
X69646451Y-73753304D01*
X69770748Y-73789800D01*
X69900292Y-73789800D01*
X70024589Y-73753304D01*
X70133569Y-73683267D01*
X70218402Y-73585363D01*
X70272217Y-73467526D01*
X70290653Y-73339300D01*
X70272217Y-73211074D01*
X70218402Y-73093237D01*
X70133569Y-72995333D01*
X70066552Y-72952264D01*
X70024588Y-72925295D01*
X69900292Y-72888800D01*
X69875999Y-72888800D01*
X69823673Y-72867126D01*
X69761347Y-72804800D01*
X69679447Y-72722900D01*
X69679444Y-72722898D01*
X69676112Y-72719566D01*
X69675872Y-72719356D01*
X69624387Y-72667868D01*
X69432864Y-72520901D01*
X69223796Y-72400190D01*
X69223791Y-72400188D01*
X69223788Y-72400186D01*
X69000760Y-72307801D01*
X68767571Y-72245315D01*
X68528223Y-72213801D01*
X68450372Y-72213800D01*
X68450371Y-72213800D01*
X68450370Y-72213800D01*
X65290293Y-72213800D01*
X65237967Y-72192126D01*
X65216293Y-72139800D01*
X65237967Y-72087474D01*
X65268811Y-72068987D01*
X65296518Y-72060581D01*
X65327710Y-72051119D01*
X65650298Y-71917494D01*
X65958234Y-71752893D01*
X66248553Y-71558901D01*
X66518460Y-71337388D01*
X66611601Y-71244243D01*
X66611604Y-71244242D01*
X66984841Y-70871005D01*
X67991221Y-70871005D01*
X67994070Y-70901402D01*
X67994072Y-70901411D01*
X68038872Y-71029443D01*
X68119427Y-71138591D01*
X68119428Y-71138592D01*
X68228576Y-71219147D01*
X68228575Y-71219147D01*
X68356605Y-71263946D01*
X68356613Y-71263948D01*
X68387022Y-71266799D01*
X68878720Y-71266799D01*
X69178720Y-71266799D01*
X69670414Y-71266799D01*
X69670425Y-71266798D01*
X69700822Y-71263949D01*
X69700831Y-71263947D01*
X69828863Y-71219147D01*
X69938011Y-71138592D01*
X69938012Y-71138591D01*
X70018567Y-71029443D01*
X70063366Y-70901414D01*
X70063368Y-70901406D01*
X70066219Y-70870998D01*
X70066220Y-70870997D01*
X70066220Y-70816800D01*
X69178720Y-70816800D01*
X69178720Y-71266799D01*
X68878720Y-71266799D01*
X68878720Y-70816800D01*
X67991221Y-70816800D01*
X67991221Y-70871005D01*
X66984841Y-70871005D01*
X67393245Y-70462601D01*
X67991220Y-70462601D01*
X67991220Y-70516800D01*
X68878720Y-70516800D01*
X69178720Y-70516800D01*
X70066219Y-70516800D01*
X70066219Y-70462606D01*
X70066218Y-70462594D01*
X70063369Y-70432197D01*
X70063367Y-70432188D01*
X70018567Y-70304156D01*
X69938012Y-70195008D01*
X69938011Y-70195007D01*
X69828863Y-70114452D01*
X69828864Y-70114452D01*
X69700834Y-70069653D01*
X69700826Y-70069651D01*
X69670418Y-70066800D01*
X69178720Y-70066800D01*
X69178720Y-70516800D01*
X68878720Y-70516800D01*
X68878720Y-70066800D01*
X68387026Y-70066800D01*
X68387013Y-70066801D01*
X68356617Y-70069650D01*
X68356608Y-70069652D01*
X68228576Y-70114452D01*
X68119428Y-70195007D01*
X68119427Y-70195008D01*
X68038872Y-70304156D01*
X67994073Y-70432185D01*
X67994071Y-70432193D01*
X67991220Y-70462601D01*
X67393245Y-70462601D01*
X68566872Y-69288974D01*
X68619198Y-69267300D01*
X69649474Y-69267300D01*
X69649480Y-69267300D01*
X69717613Y-69257373D01*
X69822703Y-69205998D01*
X69905418Y-69123283D01*
X69956793Y-69018193D01*
X69966720Y-68950060D01*
X69966720Y-68583540D01*
X69956793Y-68515407D01*
X69905418Y-68410317D01*
X69822703Y-68327602D01*
X69822702Y-68327601D01*
X69717614Y-68276227D01*
X69649484Y-68266300D01*
X69649480Y-68266300D01*
X68407960Y-68266300D01*
X68407955Y-68266300D01*
X68339826Y-68276227D01*
X68339825Y-68276227D01*
X68234737Y-68327601D01*
X68152021Y-68410317D01*
X68100647Y-68515405D01*
X68100647Y-68515406D01*
X68090720Y-68583535D01*
X68090720Y-68813820D01*
X68069046Y-68866146D01*
X66218028Y-70717164D01*
X66182858Y-70752333D01*
X66180229Y-70754836D01*
X65973201Y-70942481D01*
X65967587Y-70947088D01*
X65744629Y-71112449D01*
X65738592Y-71116483D01*
X65500499Y-71259196D01*
X65494094Y-71262620D01*
X65243153Y-71381309D01*
X65236444Y-71384088D01*
X64975082Y-71477610D01*
X64968133Y-71479718D01*
X64698864Y-71547171D01*
X64691741Y-71548588D01*
X64417157Y-71589322D01*
X64409930Y-71590034D01*
X64131626Y-71603711D01*
X64127994Y-71603800D01*
X55399848Y-71603800D01*
X55347522Y-71582126D01*
X55325848Y-71529800D01*
X55343922Y-71481341D01*
X55349098Y-71475367D01*
X55349099Y-71475365D01*
X55349098Y-71475365D01*
X55349101Y-71475363D01*
X55402916Y-71357526D01*
X55421352Y-71229300D01*
X55402916Y-71101074D01*
X55349101Y-70983237D01*
X55264268Y-70885333D01*
X55158022Y-70817053D01*
X55155287Y-70815295D01*
X55030991Y-70778800D01*
X54901447Y-70778800D01*
X54777148Y-70815296D01*
X54774415Y-70817053D01*
X54734409Y-70828800D01*
X49504332Y-70828800D01*
X49504327Y-70828798D01*
X49355274Y-70828798D01*
X49224156Y-70843573D01*
X49119942Y-70855316D01*
X49119938Y-70855316D01*
X49119937Y-70855317D01*
X48889067Y-70908012D01*
X48889055Y-70908016D01*
X48665545Y-70986226D01*
X48452175Y-71088979D01*
X48251651Y-71214976D01*
X48066501Y-71362628D01*
X48022649Y-71406479D01*
X48022627Y-71406499D01*
X47982770Y-71446356D01*
X47961486Y-71467641D01*
X47961485Y-71467642D01*
X47525698Y-71903427D01*
X47525477Y-71903678D01*
X47490061Y-71939093D01*
X47358964Y-72109936D01*
X47251292Y-72296422D01*
X47251285Y-72296435D01*
X47246415Y-72308192D01*
X47206364Y-72348238D01*
X47182960Y-72353465D01*
X47182977Y-72353639D01*
X47181610Y-72353767D01*
X47181517Y-72353788D01*
X47181259Y-72353800D01*
X47181254Y-72353800D01*
X47150821Y-72356654D01*
X47150819Y-72356654D01*
X47150815Y-72356655D01*
X47022638Y-72401506D01*
X47022636Y-72401507D01*
X46913373Y-72482146D01*
X46913366Y-72482153D01*
X46832727Y-72591416D01*
X46832726Y-72591418D01*
X46787875Y-72719595D01*
X46787874Y-72719599D01*
X46787874Y-72719601D01*
X46785020Y-72750034D01*
X46785020Y-72750040D01*
X46785020Y-72804800D01*
X46763346Y-72857126D01*
X46711020Y-72878800D01*
X42560728Y-72878800D01*
X42508402Y-72857126D01*
X42486728Y-72804800D01*
X42508402Y-72752474D01*
X42517232Y-72744933D01*
X42634290Y-72659884D01*
X42634289Y-72659884D01*
X42634293Y-72659882D01*
X42751109Y-72530145D01*
X42754818Y-72523722D01*
X42778821Y-72482146D01*
X42838398Y-72378956D01*
X42892346Y-72212922D01*
X42910594Y-72039300D01*
X42892346Y-71865678D01*
X42838398Y-71699644D01*
X42797888Y-71629479D01*
X42751111Y-71548457D01*
X42751108Y-71548454D01*
X42725311Y-71519804D01*
X42634293Y-71418718D01*
X42634292Y-71418717D01*
X42634290Y-71418715D01*
X42493060Y-71316105D01*
X42493058Y-71316104D01*
X42480289Y-71310419D01*
X42446303Y-71279817D01*
X42438787Y-71266799D01*
X42395999Y-71192687D01*
X42321432Y-71118120D01*
X42318853Y-71115541D01*
X42318842Y-71115531D01*
X38147230Y-66943918D01*
X38125556Y-66891592D01*
X38147230Y-66839266D01*
X38152599Y-66834399D01*
X38211929Y-66785710D01*
X38343204Y-66625750D01*
X38440751Y-66443254D01*
X38500819Y-66245234D01*
X38521102Y-66039300D01*
X38949937Y-66039300D01*
X38970220Y-66245234D01*
X39030288Y-66443254D01*
X39127835Y-66625750D01*
X39259110Y-66785710D01*
X39419070Y-66916985D01*
X39601566Y-67014532D01*
X39799586Y-67074600D01*
X40005520Y-67094883D01*
X40211454Y-67074600D01*
X40409474Y-67014532D01*
X40591970Y-66916985D01*
X40751930Y-66785710D01*
X40883205Y-66625750D01*
X40980752Y-66443254D01*
X41040820Y-66245234D01*
X41061103Y-66039300D01*
X41489937Y-66039300D01*
X41510220Y-66245234D01*
X41570288Y-66443254D01*
X41667835Y-66625750D01*
X41799110Y-66785710D01*
X41959070Y-66916985D01*
X42141566Y-67014532D01*
X42339586Y-67074600D01*
X42545520Y-67094883D01*
X42751454Y-67074600D01*
X42949474Y-67014532D01*
X43131970Y-66916985D01*
X43291930Y-66785710D01*
X43423205Y-66625750D01*
X43520752Y-66443254D01*
X43580820Y-66245234D01*
X43601103Y-66039300D01*
X44029937Y-66039300D01*
X44050220Y-66245234D01*
X44110288Y-66443254D01*
X44207835Y-66625750D01*
X44339110Y-66785710D01*
X44499070Y-66916985D01*
X44681566Y-67014532D01*
X44879586Y-67074600D01*
X45085520Y-67094883D01*
X45291454Y-67074600D01*
X45489474Y-67014532D01*
X45671970Y-66916985D01*
X45831930Y-66785710D01*
X45963205Y-66625750D01*
X46060752Y-66443254D01*
X46120820Y-66245234D01*
X46141103Y-66039300D01*
X46569937Y-66039300D01*
X46590220Y-66245234D01*
X46650288Y-66443254D01*
X46747835Y-66625750D01*
X46879110Y-66785710D01*
X47039070Y-66916985D01*
X47221566Y-67014532D01*
X47419586Y-67074600D01*
X47625520Y-67094883D01*
X47831454Y-67074600D01*
X48029474Y-67014532D01*
X48211970Y-66916985D01*
X48371930Y-66785710D01*
X48503205Y-66625750D01*
X48600752Y-66443254D01*
X48660820Y-66245234D01*
X48681103Y-66039300D01*
X49109938Y-66039300D01*
X49130221Y-66245234D01*
X49190289Y-66443254D01*
X49287836Y-66625750D01*
X49419111Y-66785710D01*
X49579071Y-66916985D01*
X49761567Y-67014532D01*
X49959587Y-67074600D01*
X50165521Y-67094883D01*
X50371455Y-67074600D01*
X50569475Y-67014532D01*
X50751971Y-66916985D01*
X50911931Y-66785710D01*
X51043206Y-66625750D01*
X51140753Y-66443254D01*
X51200821Y-66245234D01*
X51221104Y-66039300D01*
X51649937Y-66039300D01*
X51670220Y-66245234D01*
X51730288Y-66443254D01*
X51827835Y-66625750D01*
X51959110Y-66785710D01*
X52119070Y-66916985D01*
X52301566Y-67014532D01*
X52499586Y-67074600D01*
X52705520Y-67094883D01*
X52911454Y-67074600D01*
X53109474Y-67014532D01*
X53291970Y-66916985D01*
X53451930Y-66785710D01*
X53583205Y-66625750D01*
X53680752Y-66443254D01*
X53740820Y-66245234D01*
X53761103Y-66039300D01*
X54189937Y-66039300D01*
X54210220Y-66245234D01*
X54270288Y-66443254D01*
X54367835Y-66625750D01*
X54499110Y-66785710D01*
X54659070Y-66916985D01*
X54841566Y-67014532D01*
X55039586Y-67074600D01*
X55245520Y-67094883D01*
X55451454Y-67074600D01*
X55649474Y-67014532D01*
X55831970Y-66916985D01*
X55991930Y-66785710D01*
X56123205Y-66625750D01*
X56220752Y-66443254D01*
X56280820Y-66245234D01*
X56301103Y-66039300D01*
X56729937Y-66039300D01*
X56750220Y-66245234D01*
X56810288Y-66443254D01*
X56907835Y-66625750D01*
X57039110Y-66785710D01*
X57199070Y-66916985D01*
X57381566Y-67014532D01*
X57579586Y-67074600D01*
X57785520Y-67094883D01*
X57991454Y-67074600D01*
X58189474Y-67014532D01*
X58371970Y-66916985D01*
X58531930Y-66785710D01*
X58663205Y-66625750D01*
X58760752Y-66443254D01*
X58820820Y-66245234D01*
X58841103Y-66039300D01*
X59269936Y-66039300D01*
X59290219Y-66245234D01*
X59350287Y-66443254D01*
X59447834Y-66625750D01*
X59579109Y-66785710D01*
X59739069Y-66916985D01*
X59921565Y-67014532D01*
X60119585Y-67074600D01*
X60325519Y-67094883D01*
X60531453Y-67074600D01*
X60729473Y-67014532D01*
X60911969Y-66916985D01*
X61071929Y-66785710D01*
X61203204Y-66625750D01*
X61300751Y-66443254D01*
X61360819Y-66245234D01*
X61381102Y-66039300D01*
X61809937Y-66039300D01*
X61830220Y-66245234D01*
X61890288Y-66443254D01*
X61987835Y-66625750D01*
X62119110Y-66785710D01*
X62279070Y-66916985D01*
X62461566Y-67014532D01*
X62659586Y-67074600D01*
X62865520Y-67094883D01*
X63071454Y-67074600D01*
X63269474Y-67014532D01*
X63451970Y-66916985D01*
X63611930Y-66785710D01*
X63743205Y-66625750D01*
X63840752Y-66443254D01*
X63900820Y-66245234D01*
X63921103Y-66039300D01*
X64349937Y-66039300D01*
X64370220Y-66245234D01*
X64430288Y-66443254D01*
X64527835Y-66625750D01*
X64659110Y-66785710D01*
X64819070Y-66916985D01*
X65001566Y-67014532D01*
X65199586Y-67074600D01*
X65405520Y-67094883D01*
X65611454Y-67074600D01*
X65809474Y-67014532D01*
X65991970Y-66916985D01*
X66151930Y-66785710D01*
X66283205Y-66625750D01*
X66380752Y-66443254D01*
X66440820Y-66245234D01*
X66461103Y-66039300D01*
X66889937Y-66039300D01*
X66910220Y-66245234D01*
X66970288Y-66443254D01*
X67067835Y-66625750D01*
X67199110Y-66785710D01*
X67359070Y-66916985D01*
X67541566Y-67014532D01*
X67739586Y-67074600D01*
X67945520Y-67094883D01*
X68151454Y-67074600D01*
X68349474Y-67014532D01*
X68531970Y-66916985D01*
X68691930Y-66785710D01*
X68823205Y-66625750D01*
X68920752Y-66443254D01*
X68980820Y-66245234D01*
X69001103Y-66039300D01*
X68980820Y-65833366D01*
X68920752Y-65635346D01*
X68823205Y-65452850D01*
X68691930Y-65292890D01*
X68531970Y-65161615D01*
X68349474Y-65064068D01*
X68193720Y-65016821D01*
X68151455Y-65004000D01*
X67945520Y-64983717D01*
X67739584Y-65004000D01*
X67541563Y-65064069D01*
X67359069Y-65161615D01*
X67199110Y-65292889D01*
X67199109Y-65292890D01*
X67067835Y-65452849D01*
X66970289Y-65635343D01*
X66910220Y-65833364D01*
X66910220Y-65833366D01*
X66889937Y-66039300D01*
X66461103Y-66039300D01*
X66440820Y-65833366D01*
X66380752Y-65635346D01*
X66283205Y-65452850D01*
X66151930Y-65292890D01*
X65991970Y-65161615D01*
X65809474Y-65064068D01*
X65653720Y-65016821D01*
X65611455Y-65004000D01*
X65405520Y-64983717D01*
X65199584Y-65004000D01*
X65001563Y-65064069D01*
X64819069Y-65161615D01*
X64659110Y-65292889D01*
X64659109Y-65292890D01*
X64527835Y-65452849D01*
X64430289Y-65635343D01*
X64370220Y-65833364D01*
X64370220Y-65833366D01*
X64349937Y-66039300D01*
X63921103Y-66039300D01*
X63900820Y-65833366D01*
X63840752Y-65635346D01*
X63743205Y-65452850D01*
X63611930Y-65292890D01*
X63451970Y-65161615D01*
X63269474Y-65064068D01*
X63113720Y-65016821D01*
X63071455Y-65004000D01*
X62865520Y-64983717D01*
X62659584Y-65004000D01*
X62461563Y-65064069D01*
X62279069Y-65161615D01*
X62119110Y-65292889D01*
X62119109Y-65292890D01*
X61987835Y-65452849D01*
X61890289Y-65635343D01*
X61830220Y-65833364D01*
X61830220Y-65833366D01*
X61809937Y-66039300D01*
X61381102Y-66039300D01*
X61360819Y-65833366D01*
X61300751Y-65635346D01*
X61203204Y-65452850D01*
X61071929Y-65292890D01*
X60911969Y-65161615D01*
X60729473Y-65064068D01*
X60573719Y-65016821D01*
X60531454Y-65004000D01*
X60325519Y-64983717D01*
X60119583Y-65004000D01*
X59921562Y-65064069D01*
X59739068Y-65161615D01*
X59579109Y-65292889D01*
X59579108Y-65292890D01*
X59447834Y-65452849D01*
X59350288Y-65635343D01*
X59290219Y-65833364D01*
X59290219Y-65833366D01*
X59269936Y-66039300D01*
X58841103Y-66039300D01*
X58820820Y-65833366D01*
X58760752Y-65635346D01*
X58663205Y-65452850D01*
X58531930Y-65292890D01*
X58371970Y-65161615D01*
X58189474Y-65064068D01*
X58033720Y-65016821D01*
X57991455Y-65004000D01*
X57785520Y-64983717D01*
X57579584Y-65004000D01*
X57381563Y-65064069D01*
X57199069Y-65161615D01*
X57039110Y-65292889D01*
X57039109Y-65292890D01*
X56907835Y-65452849D01*
X56810289Y-65635343D01*
X56750220Y-65833364D01*
X56750220Y-65833366D01*
X56729937Y-66039300D01*
X56301103Y-66039300D01*
X56280820Y-65833366D01*
X56220752Y-65635346D01*
X56123205Y-65452850D01*
X55991930Y-65292890D01*
X55831970Y-65161615D01*
X55649474Y-65064068D01*
X55493720Y-65016821D01*
X55451455Y-65004000D01*
X55245520Y-64983717D01*
X55039584Y-65004000D01*
X54841563Y-65064069D01*
X54659069Y-65161615D01*
X54499110Y-65292889D01*
X54499109Y-65292890D01*
X54367835Y-65452849D01*
X54270289Y-65635343D01*
X54210220Y-65833364D01*
X54210220Y-65833366D01*
X54189937Y-66039300D01*
X53761103Y-66039300D01*
X53740820Y-65833366D01*
X53680752Y-65635346D01*
X53583205Y-65452850D01*
X53451930Y-65292890D01*
X53291970Y-65161615D01*
X53109474Y-65064068D01*
X52953720Y-65016821D01*
X52911455Y-65004000D01*
X52705520Y-64983717D01*
X52499584Y-65004000D01*
X52301563Y-65064069D01*
X52119069Y-65161615D01*
X51959110Y-65292889D01*
X51959109Y-65292890D01*
X51827835Y-65452849D01*
X51730289Y-65635343D01*
X51670220Y-65833364D01*
X51670220Y-65833366D01*
X51649937Y-66039300D01*
X51221104Y-66039300D01*
X51200821Y-65833366D01*
X51140753Y-65635346D01*
X51043206Y-65452850D01*
X50911931Y-65292890D01*
X50751971Y-65161615D01*
X50569475Y-65064068D01*
X50413721Y-65016821D01*
X50371456Y-65004000D01*
X50165521Y-64983717D01*
X49959585Y-65004000D01*
X49761564Y-65064069D01*
X49579070Y-65161615D01*
X49419111Y-65292889D01*
X49419110Y-65292890D01*
X49287836Y-65452849D01*
X49190290Y-65635343D01*
X49130221Y-65833364D01*
X49130221Y-65833366D01*
X49109938Y-66039300D01*
X48681103Y-66039300D01*
X48660820Y-65833366D01*
X48600752Y-65635346D01*
X48503205Y-65452850D01*
X48371930Y-65292890D01*
X48211970Y-65161615D01*
X48029474Y-65064068D01*
X47873720Y-65016821D01*
X47831455Y-65004000D01*
X47625520Y-64983717D01*
X47419584Y-65004000D01*
X47221563Y-65064069D01*
X47039069Y-65161615D01*
X46879110Y-65292889D01*
X46879109Y-65292890D01*
X46747835Y-65452849D01*
X46650289Y-65635343D01*
X46590220Y-65833364D01*
X46590220Y-65833366D01*
X46569937Y-66039300D01*
X46141103Y-66039300D01*
X46120820Y-65833366D01*
X46060752Y-65635346D01*
X45963205Y-65452850D01*
X45831930Y-65292890D01*
X45671970Y-65161615D01*
X45489474Y-65064068D01*
X45333720Y-65016821D01*
X45291455Y-65004000D01*
X45085520Y-64983717D01*
X44879584Y-65004000D01*
X44681563Y-65064069D01*
X44499069Y-65161615D01*
X44339110Y-65292889D01*
X44339109Y-65292890D01*
X44207835Y-65452849D01*
X44110289Y-65635343D01*
X44050220Y-65833364D01*
X44050220Y-65833366D01*
X44029937Y-66039300D01*
X43601103Y-66039300D01*
X43580820Y-65833366D01*
X43520752Y-65635346D01*
X43423205Y-65452850D01*
X43291930Y-65292890D01*
X43131970Y-65161615D01*
X42949474Y-65064068D01*
X42793720Y-65016821D01*
X42751455Y-65004000D01*
X42545520Y-64983717D01*
X42339584Y-65004000D01*
X42141563Y-65064069D01*
X41959069Y-65161615D01*
X41799110Y-65292889D01*
X41799109Y-65292890D01*
X41667835Y-65452849D01*
X41570289Y-65635343D01*
X41510220Y-65833364D01*
X41510220Y-65833366D01*
X41489937Y-66039300D01*
X41061103Y-66039300D01*
X41040820Y-65833366D01*
X40980752Y-65635346D01*
X40883205Y-65452850D01*
X40751930Y-65292890D01*
X40591970Y-65161615D01*
X40409474Y-65064068D01*
X40253720Y-65016821D01*
X40211455Y-65004000D01*
X40005520Y-64983717D01*
X39799584Y-65004000D01*
X39601563Y-65064069D01*
X39419069Y-65161615D01*
X39259110Y-65292889D01*
X39259109Y-65292890D01*
X39127835Y-65452849D01*
X39030289Y-65635343D01*
X38970220Y-65833364D01*
X38970220Y-65833366D01*
X38949937Y-66039300D01*
X38521102Y-66039300D01*
X38500819Y-65833366D01*
X38440751Y-65635346D01*
X38343204Y-65452850D01*
X38211929Y-65292890D01*
X38051969Y-65161615D01*
X37869473Y-65064068D01*
X37713719Y-65016821D01*
X37671454Y-65004000D01*
X37465519Y-64983717D01*
X37259583Y-65004000D01*
X37061562Y-65064069D01*
X36879068Y-65161615D01*
X36719109Y-65292889D01*
X36719108Y-65292890D01*
X36587834Y-65452849D01*
X36490288Y-65635343D01*
X36430219Y-65833364D01*
X36430219Y-65833366D01*
X36409936Y-66039300D01*
X36430219Y-66245234D01*
X36490287Y-66443254D01*
X36587834Y-66625750D01*
X36719109Y-66785710D01*
X36879069Y-66916985D01*
X37061565Y-67014532D01*
X37092795Y-67024005D01*
X37135400Y-67057818D01*
X37145039Y-67074513D01*
X39327899Y-69257372D01*
X41454059Y-71383532D01*
X41475733Y-71435858D01*
X41456727Y-71485373D01*
X41399926Y-71548458D01*
X41312638Y-71699647D01*
X41258693Y-71865672D01*
X41258692Y-71865676D01*
X41258692Y-71865678D01*
X41240444Y-72039300D01*
X41256506Y-72192126D01*
X41258693Y-72212927D01*
X41312638Y-72378952D01*
X41312639Y-72378954D01*
X41312640Y-72378956D01*
X41324950Y-72400278D01*
X41399926Y-72530142D01*
X41399929Y-72530145D01*
X41516747Y-72659884D01*
X41633806Y-72744933D01*
X41663399Y-72793224D01*
X41650177Y-72848296D01*
X41601886Y-72877889D01*
X41590310Y-72878800D01*
X40010020Y-72878800D01*
X39957694Y-72857126D01*
X39936020Y-72804800D01*
X39936020Y-71371995D01*
X39936014Y-71371901D01*
X39936014Y-71334980D01*
X39911366Y-71147753D01*
X39911364Y-71147744D01*
X39908912Y-71138592D01*
X39862487Y-70965335D01*
X39790218Y-70790863D01*
X39695794Y-70627316D01*
X39580830Y-70477494D01*
X39554559Y-70451223D01*
X39554543Y-70451205D01*
X39551344Y-70448006D01*
X38289362Y-69186061D01*
X38289359Y-69186059D01*
X38286139Y-69182839D01*
X38285865Y-69182598D01*
X38232465Y-69129198D01*
X38024223Y-68963130D01*
X37798714Y-68821433D01*
X37798713Y-68821432D01*
X37798709Y-68821430D01*
X37558741Y-68705866D01*
X37558734Y-68705863D01*
X37558729Y-68705861D01*
X37307348Y-68617897D01*
X37307343Y-68617896D01*
X37047690Y-68558628D01*
X37047682Y-68558627D01*
X37047678Y-68558626D01*
X37047676Y-68558626D01*
X36934952Y-68545923D01*
X36783001Y-68528800D01*
X36702556Y-68528800D01*
X36702555Y-68528800D01*
X35400020Y-68528800D01*
X35347694Y-68507126D01*
X35326020Y-68454800D01*
X35326020Y-67060732D01*
X35347694Y-67008406D01*
X35365136Y-66995470D01*
X35511970Y-66916985D01*
X35671930Y-66785710D01*
X35803205Y-66625750D01*
X35900752Y-66443254D01*
X35960820Y-66245234D01*
X35981103Y-66039300D01*
X35960820Y-65833366D01*
X35900752Y-65635346D01*
X35803205Y-65452850D01*
X35671930Y-65292890D01*
X35511970Y-65161615D01*
X35329474Y-65064068D01*
X35173720Y-65016821D01*
X35131455Y-65004000D01*
X34925520Y-64983717D01*
X34719584Y-65004000D01*
X34521563Y-65064069D01*
X34339069Y-65161615D01*
X34179110Y-65292889D01*
X34179109Y-65292890D01*
X34047835Y-65452849D01*
X33950289Y-65635343D01*
X33890220Y-65833364D01*
X33890220Y-65833366D01*
X33869937Y-66039300D01*
X33890220Y-66245234D01*
X33950288Y-66443254D01*
X34047835Y-66625750D01*
X34179110Y-66785710D01*
X34339070Y-66916985D01*
X34485904Y-66995470D01*
X34521834Y-67039251D01*
X34525020Y-67060732D01*
X34525020Y-69452348D01*
X34503350Y-69504670D01*
X34500871Y-69507149D01*
X34500870Y-69507150D01*
X34460548Y-69561784D01*
X34420226Y-69616419D01*
X34375375Y-69744595D01*
X34375374Y-69744599D01*
X34375374Y-69744601D01*
X34372520Y-69775034D01*
X34372520Y-69775040D01*
X34372520Y-70569057D01*
X34350846Y-70621383D01*
X34333403Y-70634319D01*
X34267150Y-70669732D01*
X34253749Y-70675283D01*
X34155239Y-70705167D01*
X34141011Y-70707998D01*
X34034959Y-70718444D01*
X34027705Y-70718800D01*
X33510020Y-70718800D01*
X33457694Y-70697126D01*
X33436020Y-70644800D01*
X33436020Y-70249553D01*
X33436020Y-70249552D01*
X33424387Y-70191069D01*
X33380072Y-70124748D01*
X33357863Y-70109908D01*
X33313752Y-70080433D01*
X33313753Y-70080433D01*
X33284509Y-70074616D01*
X33255268Y-70068800D01*
X31515772Y-70068800D01*
X31486530Y-70074616D01*
X31457287Y-70080433D01*
X31390969Y-70124747D01*
X31390967Y-70124749D01*
X31346653Y-70191067D01*
X31335020Y-70249553D01*
X30786020Y-70249553D01*
X30786020Y-65144510D01*
X31235520Y-65144510D01*
X31235520Y-65889300D01*
X31908075Y-65889300D01*
X31885520Y-65973474D01*
X31885520Y-66105126D01*
X31908075Y-66189300D01*
X31235521Y-66189300D01*
X31235521Y-66934092D01*
X31238428Y-66959168D01*
X31238430Y-66959174D01*
X31283733Y-67061778D01*
X31363041Y-67141086D01*
X31465644Y-67186389D01*
X31465643Y-67186389D01*
X31490730Y-67189299D01*
X32235520Y-67189299D01*
X32235520Y-66516745D01*
X32319694Y-66539300D01*
X32451346Y-66539300D01*
X32535520Y-66516745D01*
X32535520Y-67189299D01*
X33280312Y-67189299D01*
X33305388Y-67186391D01*
X33305394Y-67186389D01*
X33407998Y-67141086D01*
X33487306Y-67061778D01*
X33532609Y-66959175D01*
X33535520Y-66934089D01*
X33535520Y-66189300D01*
X32862965Y-66189300D01*
X32885520Y-66105126D01*
X32885520Y-65973474D01*
X32862965Y-65889300D01*
X33535519Y-65889300D01*
X33535519Y-65144507D01*
X33532611Y-65119431D01*
X33532609Y-65119425D01*
X33487306Y-65016821D01*
X33407998Y-64937513D01*
X33305395Y-64892210D01*
X33305396Y-64892210D01*
X33280309Y-64889300D01*
X32535520Y-64889300D01*
X32535520Y-65561854D01*
X32451346Y-65539300D01*
X32319694Y-65539300D01*
X32235520Y-65561854D01*
X32235520Y-64889300D01*
X31490727Y-64889300D01*
X31465651Y-64892208D01*
X31465645Y-64892210D01*
X31363041Y-64937513D01*
X31283733Y-65016821D01*
X31238430Y-65119424D01*
X31235520Y-65144510D01*
X30786020Y-65144510D01*
X30786020Y-64793459D01*
X30786485Y-64785174D01*
X30791961Y-64736573D01*
X30800118Y-64664177D01*
X30803803Y-64648035D01*
X30842636Y-64537060D01*
X30849825Y-64522132D01*
X30888016Y-64461353D01*
X30912376Y-64422583D01*
X30922702Y-64409634D01*
X31005850Y-64326488D01*
X31018782Y-64316175D01*
X31118352Y-64253612D01*
X31133262Y-64246432D01*
X31244250Y-64207599D01*
X31260390Y-64203915D01*
X31381562Y-64190265D01*
X31389845Y-64189800D01*
X31443095Y-64189801D01*
X31443098Y-64189800D01*
X71381351Y-64189800D01*
X71389637Y-64190265D01*
G37*
%TD.AperFunction*%
%TD*%
M02*
