%TF.GenerationSoftware,KiCad,Pcbnew,8.0.6*%
%TF.CreationDate,2024-12-17T20:27:31+00:00*%
%TF.ProjectId,003-UART-1602,3030332d-5541-4525-942d-313630322e6b,MkI*%
%TF.SameCoordinates,Original*%
%TF.FileFunction,Copper,L1,Top*%
%TF.FilePolarity,Positive*%
%FSLAX46Y46*%
G04 Gerber Fmt 4.6, Leading zero omitted, Abs format (unit mm)*
G04 Created by KiCad (PCBNEW 8.0.6) date 2024-12-17 20:27:31*
%MOMM*%
%LPD*%
G01*
G04 APERTURE LIST*
G04 Aperture macros list*
%AMRoundRect*
0 Rectangle with rounded corners*
0 $1 Rounding radius*
0 $2 $3 $4 $5 $6 $7 $8 $9 X,Y pos of 4 corners*
0 Add a 4 corners polygon primitive as box body*
4,1,4,$2,$3,$4,$5,$6,$7,$8,$9,$2,$3,0*
0 Add four circle primitives for the rounded corners*
1,1,$1+$1,$2,$3*
1,1,$1+$1,$4,$5*
1,1,$1+$1,$6,$7*
1,1,$1+$1,$8,$9*
0 Add four rect primitives between the rounded corners*
20,1,$1+$1,$2,$3,$4,$5,0*
20,1,$1+$1,$4,$5,$6,$7,0*
20,1,$1+$1,$6,$7,$8,$9,0*
20,1,$1+$1,$8,$9,$2,$3,0*%
G04 Aperture macros list end*
%TA.AperFunction,SMDPad,CuDef*%
%ADD10RoundRect,0.150000X-0.150000X0.587500X-0.150000X-0.587500X0.150000X-0.587500X0.150000X0.587500X0*%
%TD*%
%TA.AperFunction,SMDPad,CuDef*%
%ADD11RoundRect,0.100000X-0.100000X0.637500X-0.100000X-0.637500X0.100000X-0.637500X0.100000X0.637500X0*%
%TD*%
%TA.AperFunction,SMDPad,CuDef*%
%ADD12C,1.000000*%
%TD*%
%TA.AperFunction,SMDPad,CuDef*%
%ADD13RoundRect,0.150000X-0.587500X-0.150000X0.587500X-0.150000X0.587500X0.150000X-0.587500X0.150000X0*%
%TD*%
%TA.AperFunction,ComponentPad*%
%ADD14R,1.700000X1.700000*%
%TD*%
%TA.AperFunction,ComponentPad*%
%ADD15O,1.700000X1.700000*%
%TD*%
%TA.AperFunction,SMDPad,CuDef*%
%ADD16RoundRect,0.250000X0.250000X0.475000X-0.250000X0.475000X-0.250000X-0.475000X0.250000X-0.475000X0*%
%TD*%
%TA.AperFunction,SMDPad,CuDef*%
%ADD17RoundRect,0.250000X-0.475000X0.250000X-0.475000X-0.250000X0.475000X-0.250000X0.475000X0.250000X0*%
%TD*%
%TA.AperFunction,SMDPad,CuDef*%
%ADD18RoundRect,0.250000X-0.262500X-0.450000X0.262500X-0.450000X0.262500X0.450000X-0.262500X0.450000X0*%
%TD*%
%TA.AperFunction,ComponentPad*%
%ADD19C,1.260000*%
%TD*%
%TA.AperFunction,ViaPad*%
%ADD20C,0.500000*%
%TD*%
%TA.AperFunction,ViaPad*%
%ADD21C,0.800000*%
%TD*%
%TA.AperFunction,Conductor*%
%ADD22C,0.400000*%
%TD*%
%TA.AperFunction,Conductor*%
%ADD23C,0.250000*%
%TD*%
G04 APERTURE END LIST*
D10*
%TO.P,Q1,1,G*%
%TO.N,Net-(Q1-G)*%
X37620000Y-70040000D03*
%TO.P,Q1,2,S*%
%TO.N,GND*%
X35720000Y-70040000D03*
%TO.P,Q1,3,D*%
%TO.N,/VBUS_GND*%
X36670000Y-71915000D03*
%TD*%
D11*
%TO.P,U1,1,PD4*%
%TO.N,/CHRGPMP*%
X53600699Y-72853020D03*
%TO.P,U1,2,PD5*%
%TO.N,/UART_TX*%
X52950699Y-72853020D03*
%TO.P,U1,3,PD6*%
%TO.N,/UART_RX*%
X52300699Y-72853020D03*
%TO.P,U1,4,PD7*%
%TO.N,/NRST*%
X51650699Y-72853020D03*
%TO.P,U1,5,PA1*%
%TO.N,/BAUD_SEL0*%
X51000699Y-72853020D03*
%TO.P,U1,6,PA2*%
%TO.N,/BAUD_SEL1*%
X50350699Y-72853020D03*
%TO.P,U1,7,VSS*%
%TO.N,GND*%
X49700699Y-72853020D03*
%TO.P,U1,8,PD0*%
%TO.N,/LCD_BL*%
X49050699Y-72853020D03*
%TO.P,U1,9,VDD*%
%TO.N,/VBUS_VIN*%
X48400699Y-72853020D03*
%TO.P,U1,10,PC0*%
%TO.N,unconnected-(U1-PC0-Pad10)*%
X47750699Y-72853020D03*
%TO.P,U1,11,PC1*%
%TO.N,/LCD_RS*%
X47750699Y-78578020D03*
%TO.P,U1,12,PC2*%
%TO.N,/LCD_RW*%
X48400699Y-78578020D03*
%TO.P,U1,13,PC3*%
%TO.N,/LCD_EN*%
X49050699Y-78578020D03*
%TO.P,U1,14,PC4*%
%TO.N,/LCD_DA_0*%
X49700699Y-78578020D03*
%TO.P,U1,15,PC5*%
%TO.N,/LCD_DA_1*%
X50350699Y-78578020D03*
%TO.P,U1,16,PC6*%
%TO.N,/LCD_DA_2*%
X51000699Y-78578020D03*
%TO.P,U1,17,PC7*%
%TO.N,/LCD_DA_3*%
X51650699Y-78578020D03*
%TO.P,U1,18,PD1*%
%TO.N,/SWIO*%
X52300699Y-78578020D03*
%TO.P,U1,19,PD2*%
%TO.N,unconnected-(U1-PD2-Pad19)*%
X52950699Y-78578020D03*
%TO.P,U1,20,PD3*%
%TO.N,unconnected-(U1-PD3-Pad20)*%
X53600699Y-78578020D03*
%TD*%
D10*
%TO.P,D1,1,A*%
%TO.N,Net-(D1-A)*%
X43670000Y-73802500D03*
%TO.P,D1,2,K*%
%TO.N,GND*%
X41770000Y-73802500D03*
%TO.P,D1,3,COM*%
%TO.N,Net-(D1-COM)*%
X42720000Y-75677500D03*
%TD*%
D12*
%TO.P,TP1,1,1*%
%TO.N,/VBUS_VIN*%
X55620000Y-73160000D03*
%TD*%
D13*
%TO.P,Q2,3,D*%
%TO.N,Net-(DS1-LED(-))*%
X71538201Y-67177500D03*
%TO.P,Q2,2,S*%
%TO.N,GND*%
X69663200Y-68127500D03*
%TO.P,Q2,1,G*%
%TO.N,/LCD_BL*%
X69663200Y-66227500D03*
%TD*%
D14*
%TO.P,DS1,1,VSS*%
%TO.N,GND*%
X33020000Y-63500000D03*
D15*
%TO.P,DS1,2,VDD*%
%TO.N,/VBUS_VIN*%
X35560000Y-63500000D03*
%TO.P,DS1,3,VO*%
%TO.N,/LCD_CONTRAST*%
X38099999Y-63500000D03*
%TO.P,DS1,4,RS*%
%TO.N,/LCD_RS*%
X40640000Y-63500000D03*
%TO.P,DS1,5,R/W*%
%TO.N,/LCD_RW*%
X43180000Y-63500000D03*
%TO.P,DS1,6,E*%
%TO.N,/LCD_EN*%
X45720000Y-63500000D03*
%TO.P,DS1,7,D0*%
%TO.N,unconnected-(DS1-D0-Pad7)*%
X48260000Y-63500000D03*
%TO.P,DS1,8,D1*%
%TO.N,unconnected-(DS1-D1-Pad8)*%
X50800001Y-63500000D03*
%TO.P,DS1,9,D2*%
%TO.N,unconnected-(DS1-D2-Pad9)*%
X53340000Y-63500000D03*
%TO.P,DS1,10,D3*%
%TO.N,unconnected-(DS1-D3-Pad10)*%
X55880000Y-63500000D03*
%TO.P,DS1,11,D4*%
%TO.N,/LCD_DA_0*%
X58420000Y-63500000D03*
%TO.P,DS1,12,D5*%
%TO.N,/LCD_DA_1*%
X60959999Y-63500000D03*
%TO.P,DS1,13,D6*%
%TO.N,/LCD_DA_2*%
X63500000Y-63500000D03*
%TO.P,DS1,14,D7*%
%TO.N,/LCD_DA_3*%
X66040000Y-63500000D03*
%TO.P,DS1,15,LED(+)*%
%TO.N,/VBUS_VIN*%
X68580000Y-63500000D03*
%TO.P,DS1,16,LED(-)*%
%TO.N,Net-(DS1-LED(-))*%
X71119999Y-63500000D03*
%TD*%
D16*
%TO.P,C3,1*%
%TO.N,GND*%
X50019998Y-70740000D03*
%TO.P,C3,2*%
%TO.N,/VBUS_VIN*%
X48120000Y-70740000D03*
%TD*%
D17*
%TO.P,C2,1*%
%TO.N,Net-(D1-A)*%
X45520000Y-73790001D03*
%TO.P,C2,2*%
%TO.N,GND*%
X45520000Y-75689999D03*
%TD*%
D14*
%TO.P,J2,1,Pin_1*%
%TO.N,/UART_RX*%
X33020000Y-76200000D03*
D15*
%TO.P,J2,2,Pin_2*%
%TO.N,GND*%
X33020000Y-78740000D03*
%TD*%
D14*
%TO.P,J1,1,Pin_1*%
%TO.N,/VBUS_VIN*%
X33020000Y-68580000D03*
D15*
%TO.P,J1,2,Pin_2*%
%TO.N,/VBUS_GND*%
X33020000Y-71120000D03*
%TD*%
D18*
%TO.P,R2,1*%
%TO.N,/VBUS_VIN*%
X35720000Y-67740000D03*
%TO.P,R2,2*%
%TO.N,Net-(Q1-G)*%
X37545000Y-67740000D03*
%TD*%
D17*
%TO.P,C1,1*%
%TO.N,/CHRGPMP*%
X39920000Y-73790001D03*
%TO.P,C1,2*%
%TO.N,Net-(D1-COM)*%
X39920000Y-75689999D03*
%TD*%
D12*
%TO.P,TP2,1,1*%
%TO.N,GND*%
X55620000Y-75700000D03*
%TD*%
%TO.P,TP3,1,1*%
%TO.N,/SWIO*%
X55620000Y-78240001D03*
%TD*%
D19*
%TO.P,RV1,1,1*%
%TO.N,Net-(D1-A)*%
X45249999Y-72040000D03*
%TO.P,RV1,2,2*%
%TO.N,/LCD_CONTRAST*%
X42709999Y-69500000D03*
%TO.P,RV1,3,3*%
%TO.N,/VBUS_VIN*%
X40170000Y-72040000D03*
%TD*%
D20*
%TO.N,GND*%
X64770000Y-76200000D03*
X59690000Y-72390000D03*
X59690000Y-80010000D03*
X33020000Y-73660000D03*
X33020000Y-66040000D03*
X35560000Y-80010000D03*
X35560000Y-76200000D03*
X35560000Y-72390000D03*
X38100000Y-72390000D03*
X38100000Y-76200000D03*
X38100000Y-80010000D03*
X46990000Y-69850000D03*
X46990000Y-72390000D03*
X46990000Y-74930000D03*
X64770000Y-72390000D03*
X59690000Y-68580000D03*
X64770000Y-68580000D03*
X69850000Y-64770000D03*
X67310000Y-64770000D03*
X43180000Y-67310000D03*
X49530000Y-67310000D03*
X54610000Y-64770000D03*
X52070000Y-64770000D03*
X49530000Y-64770000D03*
X46990000Y-64770000D03*
X36830000Y-64770000D03*
X34290000Y-64770000D03*
%TO.N,/VBUS_VIN*%
X55600699Y-68690000D03*
%TO.N,/CHRGPMP*%
X39120000Y-74300000D03*
X39120000Y-77990000D03*
%TO.N,/BAUD_SEL0*%
X69170000Y-70800000D03*
%TO.N,/BAUD_SEL1*%
X70470000Y-70800000D03*
%TO.N,Net-(D1-A)*%
X43670000Y-76600000D03*
%TO.N,GND*%
X35120000Y-70040000D03*
X41770000Y-76600000D03*
X69650700Y-68677500D03*
D21*
X55620000Y-75700000D03*
D20*
X42320000Y-73800000D03*
D21*
%TO.N,/VBUS_VIN*%
X55620000Y-73160000D03*
D20*
%TO.N,/LCD_DA_2*%
X51000699Y-77190000D03*
%TO.N,/LCD_RS*%
X47750699Y-77590000D03*
%TO.N,/LCD_DA_0*%
X49700699Y-77190000D03*
%TO.N,/LCD_DA_1*%
X50350699Y-77590000D03*
%TO.N,/LCD_RW*%
X48400699Y-77190000D03*
%TO.N,/LCD_DA_3*%
X51650699Y-77590000D03*
%TO.N,Net-(DS1-LED(-))*%
X72075700Y-66740000D03*
%TO.N,/LCD_EN*%
X49050699Y-77590000D03*
D21*
%TO.N,/SWIO*%
X55620000Y-78240001D03*
%TD*%
D22*
%TO.N,/VBUS_VIN*%
X39865348Y-68154624D02*
X38677934Y-66967245D01*
X39865348Y-68154624D02*
G75*
G02*
X40170000Y-68890102I-735448J-735476D01*
G01*
X37284308Y-66390000D02*
G75*
G02*
X38677926Y-66967253I-8J-1970900D01*
G01*
X34665786Y-68580000D02*
G75*
G03*
X35372900Y-68287114I14J1000000D01*
G01*
D23*
%TO.N,/SWIO*%
X55287287Y-77907288D02*
G75*
G03*
X53821166Y-77300022I-1466087J-1466112D01*
G01*
X52511878Y-77488122D02*
G75*
G02*
X52966044Y-77300035I454122J-454178D01*
G01*
X52511878Y-77488122D02*
G75*
G03*
X52300717Y-77997827I509522J-509678D01*
G01*
X52300699Y-78578020D02*
X52300699Y-77997827D01*
X52966044Y-77300000D02*
X53821166Y-77300000D01*
X55287287Y-77907288D02*
X55620000Y-78240001D01*
%TO.N,/CHRGPMP*%
X53197508Y-74043191D02*
G75*
G03*
X53600695Y-73069799I-973408J973391D01*
G01*
X49538216Y-76090000D02*
G75*
G03*
X52290892Y-74949799I-16J3892900D01*
G01*
X47131444Y-77009255D02*
G75*
G02*
X49350721Y-76090006I2219256J-2219245D01*
G01*
X44956916Y-77990000D02*
G75*
G03*
X46994833Y-77145872I-16J2882100D01*
G01*
%TO.N,/UART_RX*%
X51924113Y-73995887D02*
G75*
G03*
X52300732Y-73086727I-909113J909187D01*
G01*
X49328429Y-75390000D02*
G75*
G03*
X51379614Y-74540336I-29J2900800D01*
G01*
X33545251Y-76725251D02*
G75*
G03*
X34812107Y-77249996I1266849J1266851D01*
G01*
X46549775Y-76540924D02*
G75*
G02*
X44838064Y-77249967I-1711675J1711524D01*
G01*
X46549775Y-76540924D02*
G75*
G02*
X49328429Y-75389965I2778625J-2778576D01*
G01*
D22*
%TO.N,Net-(DS1-LED(-))*%
X71651991Y-64031992D02*
G75*
G02*
X72075698Y-65054916I-1022891J-1022908D01*
G01*
D23*
%TO.N,/LCD_BL*%
X64763527Y-69390000D02*
G75*
G03*
X67046205Y-68444460I-27J3228200D01*
G01*
X49407806Y-69682893D02*
G75*
G02*
X50114913Y-69390009I707094J-707107D01*
G01*
X49050699Y-70454214D02*
G75*
G02*
X49343585Y-69747100I1000001J14D01*
G01*
%TO.N,/BAUD_SEL0*%
X69116447Y-70746447D02*
G75*
G03*
X68762893Y-70600005I-353547J-353553D01*
G01*
X51396846Y-71673154D02*
G75*
G03*
X51000717Y-72629540I956354J-956346D01*
G01*
%TO.N,/BAUD_SEL1*%
X70114065Y-70444065D02*
G75*
G03*
X69041996Y-69999992I-1072065J-1072035D01*
G01*
%TO.N,/BAUD_SEL0*%
X53589866Y-70600000D02*
G75*
G03*
X51678150Y-71391882I34J-2703600D01*
G01*
%TO.N,/BAUD_SEL1*%
X51194081Y-71111017D02*
G75*
G02*
X53876314Y-70000024I2682219J-2682283D01*
G01*
X50892437Y-71412661D02*
G75*
G03*
X50350719Y-72720532I1307863J-1307839D01*
G01*
%TO.N,/BAUD_SEL0*%
X51000699Y-72853020D02*
X51000699Y-72629540D01*
X51396846Y-71673154D02*
X51678134Y-71391866D01*
X53589866Y-70600000D02*
X68762893Y-70600000D01*
X69116447Y-70746447D02*
X69170000Y-70800000D01*
%TO.N,/BAUD_SEL1*%
X50350699Y-72853020D02*
X50350699Y-72720532D01*
X50892437Y-71412661D02*
X51194081Y-71111017D01*
X53876314Y-70000000D02*
X69041996Y-70000000D01*
X70114065Y-70444065D02*
X70470000Y-70800000D01*
%TO.N,/LCD_BL*%
X49050699Y-72853020D02*
X49050699Y-70454214D01*
X67046222Y-68444477D02*
X69263199Y-66227500D01*
X69263199Y-66227500D02*
X69663200Y-66227500D01*
X50114913Y-69390000D02*
X64763527Y-69390000D01*
%TO.N,/UART_RX*%
X52300699Y-72853020D02*
X52300699Y-73086727D01*
X51924113Y-73995887D02*
X51379639Y-74540361D01*
X44838064Y-77250000D02*
X34812107Y-77250000D01*
X33545251Y-76725251D02*
X33020000Y-76200000D01*
%TO.N,/CHRGPMP*%
X39120000Y-77990000D02*
X44956916Y-77990000D01*
X46994830Y-77145869D02*
X47131444Y-77009255D01*
X49350721Y-76090000D02*
X49538216Y-76090000D01*
X52290896Y-74949803D02*
X53197508Y-74043191D01*
X53600699Y-73069799D02*
X53600699Y-72853020D01*
D22*
%TO.N,/LCD_CONTRAST*%
X42709999Y-69500000D02*
X42709999Y-68899300D01*
X42709999Y-68899300D02*
X38099999Y-64289300D01*
X38099999Y-64289300D02*
X38099999Y-63500000D01*
%TO.N,Net-(DS1-LED(-))*%
X72075700Y-66740000D02*
X72075700Y-67164999D01*
X72075700Y-67164999D02*
X72063199Y-67177500D01*
X72063199Y-67177500D02*
X71538201Y-67177500D01*
X71119999Y-63500000D02*
X71651991Y-64031992D01*
X72075700Y-65054916D02*
X72075700Y-66740000D01*
%TO.N,/VBUS_VIN*%
X35560000Y-66390000D02*
X37284308Y-66390000D01*
X40170000Y-68890102D02*
X40170000Y-72040000D01*
X35560000Y-66590000D02*
X35560000Y-67580000D01*
X35560000Y-63500000D02*
X35560000Y-66590000D01*
X35560000Y-67580000D02*
X35720000Y-67740000D01*
D23*
%TO.N,/LCD_DA_3*%
X51650699Y-78578020D02*
X51650699Y-77590000D01*
%TO.N,/LCD_DA_2*%
X51000699Y-78578020D02*
X51000699Y-77190000D01*
%TO.N,/LCD_DA_1*%
X50350699Y-78578020D02*
X50350699Y-77590000D01*
%TO.N,/LCD_DA_0*%
X49700699Y-77190000D02*
X49700699Y-78578020D01*
%TO.N,/LCD_EN*%
X49050699Y-77590000D02*
X49050699Y-78578020D01*
%TO.N,/LCD_RW*%
X48400699Y-77190000D02*
X48400699Y-78578020D01*
%TO.N,/LCD_RS*%
X47750699Y-77590000D02*
X47750699Y-78578020D01*
%TO.N,/CHRGPMP*%
X39120000Y-74300000D02*
X39629999Y-73790001D01*
X39629999Y-73790001D02*
X39920000Y-73790001D01*
D22*
%TO.N,Net-(D1-A)*%
X43670000Y-76600000D02*
X43670000Y-73802500D01*
D23*
%TO.N,/LCD_BL*%
X69651400Y-66239300D02*
X69663200Y-66227500D01*
D22*
%TO.N,Net-(D1-COM)*%
X42707502Y-75689999D02*
X42720000Y-75677501D01*
X39920000Y-75689998D02*
X42707502Y-75689999D01*
%TO.N,Net-(D1-A)*%
X45520000Y-73790001D02*
X45520000Y-72310001D01*
X45520000Y-73790001D02*
X43682499Y-73790001D01*
X43682499Y-73790001D02*
X43670000Y-73802500D01*
X45520000Y-72310001D02*
X45249999Y-72040000D01*
D23*
%TO.N,GND*%
X49700699Y-71059299D02*
X50019998Y-70740000D01*
D22*
X41770000Y-73802500D02*
X42317500Y-73802500D01*
X42317500Y-73802500D02*
X42320000Y-73800000D01*
X35720000Y-70040000D02*
X35120000Y-70040000D01*
X69663200Y-68127500D02*
X69663200Y-68665000D01*
D23*
X49700699Y-72853020D02*
X49700699Y-71059299D01*
D22*
X69663200Y-68665000D02*
X69650700Y-68677500D01*
%TO.N,/VBUS_VIN*%
X35720000Y-67740000D02*
X35720000Y-67940000D01*
D23*
X48400699Y-71020699D02*
X48120000Y-70740000D01*
X48400699Y-72853020D02*
X48400699Y-71020699D01*
D22*
X34665786Y-68580000D02*
X33020000Y-68580000D01*
X35720000Y-67940000D02*
X35372893Y-68287107D01*
%TO.N,Net-(DS1-LED(-))*%
X72075700Y-66740000D02*
X72075700Y-67177500D01*
X72075700Y-67177500D02*
X71538201Y-67177500D01*
%TO.N,/VBUS_GND*%
X33280000Y-71380000D02*
X36660000Y-71380000D01*
X36670000Y-71390000D02*
X36670000Y-71915001D01*
X33260000Y-70880000D02*
X33020000Y-71120000D01*
X36660000Y-71380000D02*
X36670000Y-71390000D01*
X33280000Y-71380000D02*
X33020000Y-71120000D01*
%TO.N,Net-(Q1-G)*%
X37620000Y-67815000D02*
X37545000Y-67740000D01*
X37620000Y-70040000D02*
X37620000Y-67815000D01*
%TO.N,/VBUS_VIN*%
X48120000Y-70740000D02*
X40220000Y-70740000D01*
D23*
%TO.N,/LCD_BL*%
X49343592Y-69747107D02*
X49407806Y-69682893D01*
D22*
%TO.N,/VBUS_VIN*%
X55600699Y-68690000D02*
X50108163Y-68690000D01*
X50108163Y-68690000D02*
G75*
G03*
X48900458Y-69190265I37J-1708000D01*
G01*
X48900446Y-69190253D02*
X48483855Y-69606844D01*
X48120000Y-70485269D02*
G75*
G02*
X48483867Y-69606856I1242300J-31D01*
G01*
X48120000Y-70485269D02*
X48120000Y-70740000D01*
%TD*%
%TA.AperFunction,Conductor*%
%TO.N,GND*%
G36*
X47397826Y-71162174D02*
G01*
X47419500Y-71214500D01*
X47419500Y-71269266D01*
X47422354Y-71299699D01*
X47422354Y-71299701D01*
X47422355Y-71299704D01*
X47467206Y-71427881D01*
X47467207Y-71427883D01*
X47547846Y-71537146D01*
X47547853Y-71537153D01*
X47657116Y-71617792D01*
X47657118Y-71617793D01*
X47785295Y-71662644D01*
X47785301Y-71662646D01*
X47815734Y-71665500D01*
X48001199Y-71665500D01*
X48053525Y-71687174D01*
X48075199Y-71739500D01*
X48075199Y-71872590D01*
X48053525Y-71924916D01*
X48001199Y-71946590D01*
X47971310Y-71940285D01*
X47920688Y-71917934D01*
X47898860Y-71915402D01*
X47895564Y-71915020D01*
X47895563Y-71915020D01*
X47605835Y-71915020D01*
X47580712Y-71917934D01*
X47580706Y-71917935D01*
X47477933Y-71963314D01*
X47398493Y-72042754D01*
X47353113Y-72145531D01*
X47350199Y-72170655D01*
X47350199Y-73535383D01*
X47353113Y-73560506D01*
X47353114Y-73560511D01*
X47398493Y-73663285D01*
X47477934Y-73742726D01*
X47580708Y-73788105D01*
X47605834Y-73791020D01*
X47895563Y-73791019D01*
X47920690Y-73788105D01*
X48023464Y-73742726D01*
X48023465Y-73742724D01*
X48023467Y-73742724D01*
X48029122Y-73738851D01*
X48029967Y-73740085D01*
X48075699Y-73721143D01*
X48121430Y-73740085D01*
X48122276Y-73738851D01*
X48127930Y-73742724D01*
X48127933Y-73742725D01*
X48127934Y-73742726D01*
X48230708Y-73788105D01*
X48255834Y-73791020D01*
X48545563Y-73791019D01*
X48570690Y-73788105D01*
X48673464Y-73742726D01*
X48673465Y-73742724D01*
X48673467Y-73742724D01*
X48679122Y-73738851D01*
X48679967Y-73740085D01*
X48725699Y-73721143D01*
X48771430Y-73740085D01*
X48772276Y-73738851D01*
X48777930Y-73742724D01*
X48777933Y-73742725D01*
X48777934Y-73742726D01*
X48880708Y-73788105D01*
X48905834Y-73791020D01*
X49195563Y-73791019D01*
X49220690Y-73788105D01*
X49251948Y-73774302D01*
X49308568Y-73772993D01*
X49334164Y-73789671D01*
X49362652Y-73818159D01*
X49475546Y-73875683D01*
X49475552Y-73875685D01*
X49550698Y-73887585D01*
X49550699Y-73887585D01*
X49550699Y-72777020D01*
X49572373Y-72724694D01*
X49624699Y-72703020D01*
X49776699Y-72703020D01*
X49829025Y-72724694D01*
X49850699Y-72777020D01*
X49850699Y-73887585D01*
X49925845Y-73875685D01*
X49925851Y-73875683D01*
X50038743Y-73818161D01*
X50067230Y-73789673D01*
X50119556Y-73767997D01*
X50149449Y-73774303D01*
X50180708Y-73788105D01*
X50205834Y-73791020D01*
X50495563Y-73791019D01*
X50520690Y-73788105D01*
X50623464Y-73742726D01*
X50623465Y-73742724D01*
X50623467Y-73742724D01*
X50629122Y-73738851D01*
X50629967Y-73740085D01*
X50675699Y-73721143D01*
X50721430Y-73740085D01*
X50722276Y-73738851D01*
X50727930Y-73742724D01*
X50727933Y-73742725D01*
X50727934Y-73742726D01*
X50830708Y-73788105D01*
X50855834Y-73791020D01*
X51145563Y-73791019D01*
X51170690Y-73788105D01*
X51273464Y-73742726D01*
X51273465Y-73742724D01*
X51273467Y-73742724D01*
X51279122Y-73738851D01*
X51279967Y-73740085D01*
X51325699Y-73721143D01*
X51371430Y-73740085D01*
X51372276Y-73738851D01*
X51377930Y-73742724D01*
X51377933Y-73742725D01*
X51377934Y-73742726D01*
X51480708Y-73788105D01*
X51499725Y-73790311D01*
X51549206Y-73817868D01*
X51564708Y-73872342D01*
X51543527Y-73916144D01*
X51185927Y-74273745D01*
X51150943Y-74308729D01*
X51147928Y-74311580D01*
X50937227Y-74499880D01*
X50930739Y-74505054D01*
X50701982Y-74667372D01*
X50694955Y-74671787D01*
X50449472Y-74807466D01*
X50441995Y-74811067D01*
X50182851Y-74918412D01*
X50175019Y-74921153D01*
X49905483Y-74998809D01*
X49897392Y-75000655D01*
X49620878Y-75047640D01*
X49612632Y-75048570D01*
X49331704Y-75064349D01*
X49327554Y-75064465D01*
X49142646Y-75064465D01*
X48772521Y-75096843D01*
X48772497Y-75096846D01*
X48406577Y-75161367D01*
X48047669Y-75257534D01*
X48047664Y-75257536D01*
X47698523Y-75384613D01*
X47667027Y-75399300D01*
X47365300Y-75539999D01*
X47361759Y-75541650D01*
X47361754Y-75541652D01*
X47039978Y-75727430D01*
X46735613Y-75940552D01*
X46735602Y-75940560D01*
X46666566Y-75998489D01*
X46612551Y-76015520D01*
X46562313Y-75989368D01*
X46545000Y-75941802D01*
X46545000Y-75839999D01*
X45670000Y-75839999D01*
X45670000Y-76489999D01*
X45870946Y-76489999D01*
X45923272Y-76511673D01*
X45944946Y-76563999D01*
X45923272Y-76616325D01*
X45906743Y-76628765D01*
X45750789Y-76714962D01*
X45743312Y-76718563D01*
X45533914Y-76805302D01*
X45526080Y-76808043D01*
X45308287Y-76870789D01*
X45300196Y-76872635D01*
X45076764Y-76910597D01*
X45068518Y-76911527D01*
X44931443Y-76919224D01*
X44839540Y-76924384D01*
X44835405Y-76924500D01*
X44132207Y-76924500D01*
X44079881Y-76902826D01*
X44058207Y-76850500D01*
X44064893Y-76819762D01*
X44106697Y-76728226D01*
X44125133Y-76600000D01*
X44106697Y-76471774D01*
X44104673Y-76467343D01*
X44077187Y-76407155D01*
X44070500Y-76376415D01*
X44070500Y-75983060D01*
X44495000Y-75983060D01*
X44505614Y-76071442D01*
X44561077Y-76212091D01*
X44652435Y-76332563D01*
X44772907Y-76423921D01*
X44913556Y-76479384D01*
X45001939Y-76489999D01*
X45370000Y-76489999D01*
X45370000Y-75839999D01*
X44495000Y-75839999D01*
X44495000Y-75983060D01*
X44070500Y-75983060D01*
X44070500Y-75396937D01*
X44495000Y-75396937D01*
X44495000Y-75539999D01*
X45370000Y-75539999D01*
X45670000Y-75539999D01*
X46545000Y-75539999D01*
X46545000Y-75396937D01*
X46534385Y-75308555D01*
X46478922Y-75167906D01*
X46387564Y-75047434D01*
X46267092Y-74956076D01*
X46126443Y-74900613D01*
X46038061Y-74889999D01*
X45670000Y-74889999D01*
X45670000Y-75539999D01*
X45370000Y-75539999D01*
X45370000Y-74889999D01*
X45001939Y-74889999D01*
X44913556Y-74900613D01*
X44772907Y-74956076D01*
X44652435Y-75047434D01*
X44561077Y-75167906D01*
X44505614Y-75308555D01*
X44495000Y-75396937D01*
X44070500Y-75396937D01*
X44070500Y-74665833D01*
X44092174Y-74613507D01*
X44109198Y-74596483D01*
X44160573Y-74491393D01*
X44170500Y-74423260D01*
X44170500Y-74264501D01*
X44192174Y-74212175D01*
X44244500Y-74190501D01*
X44567873Y-74190501D01*
X44620199Y-74212175D01*
X44637721Y-74240062D01*
X44642207Y-74252884D01*
X44722846Y-74362147D01*
X44722853Y-74362154D01*
X44832116Y-74442793D01*
X44832118Y-74442794D01*
X44960295Y-74487645D01*
X44960301Y-74487647D01*
X44990734Y-74490501D01*
X44990741Y-74490501D01*
X46049258Y-74490501D01*
X46049266Y-74490501D01*
X46079699Y-74487647D01*
X46207882Y-74442794D01*
X46317150Y-74362151D01*
X46397793Y-74252883D01*
X46442646Y-74124700D01*
X46445500Y-74094267D01*
X46445500Y-73485735D01*
X46442646Y-73455302D01*
X46397793Y-73327119D01*
X46389219Y-73315501D01*
X46317153Y-73217854D01*
X46317146Y-73217847D01*
X46207883Y-73137208D01*
X46207881Y-73137207D01*
X46079704Y-73092356D01*
X46079705Y-73092356D01*
X46079700Y-73092355D01*
X46079699Y-73092355D01*
X46049266Y-73089501D01*
X46049260Y-73089501D01*
X45994500Y-73089501D01*
X45942174Y-73067827D01*
X45920500Y-73015501D01*
X45920500Y-72559487D01*
X45930414Y-72522487D01*
X45943276Y-72500210D01*
X46012878Y-72379656D01*
X46066826Y-72213622D01*
X46085074Y-72040000D01*
X46066826Y-71866378D01*
X46012878Y-71700344D01*
X45965217Y-71617792D01*
X45925591Y-71549157D01*
X45925588Y-71549154D01*
X45833690Y-71447091D01*
X45808773Y-71419418D01*
X45808772Y-71419417D01*
X45808770Y-71419415D01*
X45667543Y-71316807D01*
X45667535Y-71316803D01*
X45589596Y-71282102D01*
X45550610Y-71241019D01*
X45552093Y-71184401D01*
X45593176Y-71145415D01*
X45619695Y-71140500D01*
X47345500Y-71140500D01*
X47397826Y-71162174D01*
G37*
%TD.AperFunction*%
%TA.AperFunction,Conductor*%
G36*
X52671368Y-69737174D02*
G01*
X52693042Y-69789500D01*
X52671368Y-69841826D01*
X52638195Y-69860978D01*
X52636621Y-69861399D01*
X52636592Y-69861408D01*
X52298644Y-69984408D01*
X51972684Y-70136402D01*
X51972673Y-70136408D01*
X51661217Y-70316224D01*
X51366596Y-70522514D01*
X51091089Y-70753688D01*
X51091082Y-70753694D01*
X50996809Y-70847963D01*
X50996803Y-70847969D01*
X50994221Y-70850550D01*
X50994219Y-70850552D01*
X50976445Y-70868326D01*
X50939709Y-70905061D01*
X50887383Y-70926734D01*
X50835058Y-70905060D01*
X50819998Y-70890000D01*
X49943998Y-70890000D01*
X49891672Y-70868326D01*
X49869998Y-70816000D01*
X49869998Y-70664000D01*
X49891672Y-70611674D01*
X49943998Y-70590000D01*
X50819998Y-70590000D01*
X50819998Y-70221938D01*
X50809383Y-70133556D01*
X50753920Y-69992907D01*
X50662560Y-69872432D01*
X50630952Y-69848463D01*
X50602355Y-69799576D01*
X50616703Y-69744786D01*
X50665590Y-69716189D01*
X50675666Y-69715500D01*
X52619042Y-69715500D01*
X52671368Y-69737174D01*
G37*
%TD.AperFunction*%
%TA.AperFunction,Conductor*%
G36*
X72024126Y-61650965D02*
G01*
X72037425Y-61652463D01*
X72145126Y-61664598D01*
X72161265Y-61668282D01*
X72272240Y-61707114D01*
X72287169Y-61714303D01*
X72386721Y-61776855D01*
X72399677Y-61787187D01*
X72482812Y-61870322D01*
X72493144Y-61883278D01*
X72555696Y-61982830D01*
X72562885Y-61997759D01*
X72581386Y-62050633D01*
X72601715Y-62108728D01*
X72605402Y-62124879D01*
X72619035Y-62245873D01*
X72619500Y-62254159D01*
X72619500Y-64893308D01*
X72597826Y-64945634D01*
X72545500Y-64967308D01*
X72493174Y-64945634D01*
X72472133Y-64902966D01*
X72469846Y-64885595D01*
X72444596Y-64693787D01*
X72381927Y-64459901D01*
X72289266Y-64236196D01*
X72168199Y-64026503D01*
X72168195Y-64026497D01*
X72112401Y-63953785D01*
X72097742Y-63899078D01*
X72100291Y-63887269D01*
X72155299Y-63705934D01*
X72175582Y-63500000D01*
X72155299Y-63294066D01*
X72095231Y-63096046D01*
X71997684Y-62913550D01*
X71866409Y-62753590D01*
X71706449Y-62622315D01*
X71523953Y-62524768D01*
X71368199Y-62477521D01*
X71325934Y-62464700D01*
X71119999Y-62444417D01*
X70914063Y-62464700D01*
X70716042Y-62524769D01*
X70533548Y-62622315D01*
X70373589Y-62753589D01*
X70373588Y-62753590D01*
X70242314Y-62913549D01*
X70144768Y-63096043D01*
X70084699Y-63294064D01*
X70064416Y-63500000D01*
X70084699Y-63705935D01*
X70144768Y-63903956D01*
X70242314Y-64086450D01*
X70365206Y-64236196D01*
X70373589Y-64246410D01*
X70533549Y-64377685D01*
X70716045Y-64475232D01*
X70914065Y-64535300D01*
X71119999Y-64555583D01*
X71325933Y-64535300D01*
X71446511Y-64498723D01*
X71502873Y-64504275D01*
X71531084Y-64530870D01*
X71558141Y-64575022D01*
X71563409Y-64585362D01*
X71621770Y-64726260D01*
X71625358Y-64737303D01*
X71660959Y-64885595D01*
X71662776Y-64897064D01*
X71674972Y-65052040D01*
X71675200Y-65057846D01*
X71675200Y-66516415D01*
X71668513Y-66547155D01*
X71639002Y-66611774D01*
X71639002Y-66611776D01*
X71638750Y-66613533D01*
X71638228Y-66614411D01*
X71637510Y-66616858D01*
X71636885Y-66616674D01*
X71609848Y-66662241D01*
X71565503Y-66677000D01*
X70917436Y-66677000D01*
X70849307Y-66686927D01*
X70849306Y-66686927D01*
X70744218Y-66738301D01*
X70661502Y-66821017D01*
X70610128Y-66926105D01*
X70610128Y-66926106D01*
X70600201Y-66994235D01*
X70600201Y-67360764D01*
X70610128Y-67428893D01*
X70610128Y-67428894D01*
X70661502Y-67533982D01*
X70661503Y-67533983D01*
X70744218Y-67616698D01*
X70849308Y-67668073D01*
X70917441Y-67678000D01*
X70917447Y-67678000D01*
X72158955Y-67678000D01*
X72158961Y-67678000D01*
X72227094Y-67668073D01*
X72332184Y-67616698D01*
X72414899Y-67533983D01*
X72466274Y-67428893D01*
X72472273Y-67387716D01*
X72501265Y-67339063D01*
X72556169Y-67325159D01*
X72604823Y-67354151D01*
X72619500Y-67398386D01*
X72619500Y-80245840D01*
X72619035Y-80254126D01*
X72605402Y-80375120D01*
X72601714Y-80391275D01*
X72562885Y-80502240D01*
X72555696Y-80517169D01*
X72493144Y-80616721D01*
X72482812Y-80629677D01*
X72399677Y-80712812D01*
X72386721Y-80723144D01*
X72287169Y-80785696D01*
X72272240Y-80792885D01*
X72182670Y-80824227D01*
X72161273Y-80831714D01*
X72145120Y-80835402D01*
X72024127Y-80849035D01*
X72015841Y-80849500D01*
X32024159Y-80849500D01*
X32015873Y-80849035D01*
X31894879Y-80835402D01*
X31878728Y-80831715D01*
X31820633Y-80811386D01*
X31767759Y-80792885D01*
X31752830Y-80785696D01*
X31653278Y-80723144D01*
X31640322Y-80712812D01*
X31557187Y-80629677D01*
X31546855Y-80616721D01*
X31484303Y-80517169D01*
X31477114Y-80502240D01*
X31438282Y-80391265D01*
X31434598Y-80375126D01*
X31420965Y-80254125D01*
X31420500Y-80245840D01*
X31420500Y-78589998D01*
X31878972Y-78589998D01*
X31878974Y-78590000D01*
X32542555Y-78590000D01*
X32520000Y-78674174D01*
X32520000Y-78805826D01*
X32542555Y-78890000D01*
X31878974Y-78890000D01*
X31878972Y-78890001D01*
X31884736Y-78952204D01*
X31884738Y-78952218D01*
X31943061Y-79157202D01*
X31943064Y-79157212D01*
X32038059Y-79347988D01*
X32038063Y-79347994D01*
X32166501Y-79518071D01*
X32324003Y-79661653D01*
X32505200Y-79773844D01*
X32505210Y-79773849D01*
X32703935Y-79850836D01*
X32869999Y-79881879D01*
X32870000Y-79881879D01*
X32870000Y-79217445D01*
X32954174Y-79240000D01*
X33085826Y-79240000D01*
X33170000Y-79217445D01*
X33170000Y-79881879D01*
X33336064Y-79850836D01*
X33534789Y-79773849D01*
X33534799Y-79773844D01*
X33715996Y-79661653D01*
X33873498Y-79518071D01*
X34001936Y-79347994D01*
X34001940Y-79347988D01*
X34096935Y-79157212D01*
X34096938Y-79157202D01*
X34155261Y-78952218D01*
X34155263Y-78952204D01*
X34161027Y-78890001D01*
X34161026Y-78890000D01*
X33497445Y-78890000D01*
X33520000Y-78805826D01*
X33520000Y-78674174D01*
X33497445Y-78590000D01*
X34161026Y-78590000D01*
X34161027Y-78589998D01*
X34155263Y-78527795D01*
X34155261Y-78527781D01*
X34096938Y-78322797D01*
X34096935Y-78322787D01*
X34001940Y-78132011D01*
X34001936Y-78132005D01*
X33873498Y-77961928D01*
X33715996Y-77818346D01*
X33534799Y-77706155D01*
X33534789Y-77706150D01*
X33336063Y-77629162D01*
X33170000Y-77598119D01*
X33170000Y-78262554D01*
X33085826Y-78240000D01*
X32954174Y-78240000D01*
X32870000Y-78262554D01*
X32870000Y-77598119D01*
X32869999Y-77598119D01*
X32703936Y-77629162D01*
X32505210Y-77706150D01*
X32505200Y-77706155D01*
X32324003Y-77818346D01*
X32166501Y-77961928D01*
X32038063Y-78132005D01*
X32038059Y-78132011D01*
X31943064Y-78322787D01*
X31943061Y-78322797D01*
X31884738Y-78527781D01*
X31884736Y-78527795D01*
X31878972Y-78589998D01*
X31420500Y-78589998D01*
X31420500Y-74300000D01*
X38664867Y-74300000D01*
X38683302Y-74428223D01*
X38683302Y-74428224D01*
X38683303Y-74428226D01*
X38737118Y-74546063D01*
X38821951Y-74643967D01*
X38930931Y-74714004D01*
X39055228Y-74750500D01*
X39184772Y-74750500D01*
X39309069Y-74714004D01*
X39418049Y-74643967D01*
X39502882Y-74546063D01*
X39508500Y-74533760D01*
X39549952Y-74495167D01*
X39575813Y-74490501D01*
X40449258Y-74490501D01*
X40449266Y-74490501D01*
X40479699Y-74487647D01*
X40603850Y-74444205D01*
X41170001Y-74444205D01*
X41172850Y-74474602D01*
X41172852Y-74474611D01*
X41217652Y-74602643D01*
X41298207Y-74711791D01*
X41298208Y-74711792D01*
X41407356Y-74792347D01*
X41407355Y-74792347D01*
X41535385Y-74837146D01*
X41535393Y-74837148D01*
X41565802Y-74839999D01*
X41920000Y-74839999D01*
X41974194Y-74839999D01*
X41974205Y-74839998D01*
X42004602Y-74837149D01*
X42004611Y-74837147D01*
X42132643Y-74792347D01*
X42241791Y-74711792D01*
X42241792Y-74711791D01*
X42322347Y-74602643D01*
X42367146Y-74474614D01*
X42367148Y-74474606D01*
X42369999Y-74444198D01*
X42370000Y-74444197D01*
X42370000Y-73952500D01*
X41920000Y-73952500D01*
X41920000Y-74839999D01*
X41565802Y-74839999D01*
X41619999Y-74839998D01*
X41620000Y-74839998D01*
X41620000Y-73952500D01*
X41170001Y-73952500D01*
X41170001Y-74444205D01*
X40603850Y-74444205D01*
X40607882Y-74442794D01*
X40717150Y-74362151D01*
X40797793Y-74252883D01*
X40842646Y-74124700D01*
X40845500Y-74094267D01*
X40845500Y-73485735D01*
X40842646Y-73455302D01*
X40797793Y-73327119D01*
X40789219Y-73315501D01*
X40717153Y-73217854D01*
X40717146Y-73217847D01*
X40639851Y-73160801D01*
X41170000Y-73160801D01*
X41170000Y-73652500D01*
X41620000Y-73652500D01*
X41920000Y-73652500D01*
X42369999Y-73652500D01*
X42369999Y-73160806D01*
X42369998Y-73160794D01*
X42367149Y-73130397D01*
X42367147Y-73130388D01*
X42322347Y-73002356D01*
X42241792Y-72893208D01*
X42241791Y-72893207D01*
X42132643Y-72812652D01*
X42132644Y-72812652D01*
X42004614Y-72767853D01*
X42004606Y-72767851D01*
X41974198Y-72765000D01*
X41920000Y-72765000D01*
X41920000Y-73652500D01*
X41620000Y-73652500D01*
X41620000Y-72765000D01*
X41619999Y-72764999D01*
X41565807Y-72765000D01*
X41565793Y-72765001D01*
X41535397Y-72767850D01*
X41535388Y-72767852D01*
X41407356Y-72812652D01*
X41298208Y-72893207D01*
X41298207Y-72893208D01*
X41217652Y-73002356D01*
X41172853Y-73130385D01*
X41172851Y-73130393D01*
X41170000Y-73160801D01*
X40639851Y-73160801D01*
X40607883Y-73137208D01*
X40607881Y-73137207D01*
X40479704Y-73092356D01*
X40479705Y-73092356D01*
X40479700Y-73092355D01*
X40479699Y-73092355D01*
X40449266Y-73089501D01*
X39390734Y-73089501D01*
X39360301Y-73092355D01*
X39360299Y-73092355D01*
X39360295Y-73092356D01*
X39232118Y-73137207D01*
X39232116Y-73137208D01*
X39122853Y-73217847D01*
X39122846Y-73217854D01*
X39042207Y-73327117D01*
X39042206Y-73327119D01*
X38997355Y-73455296D01*
X38997354Y-73455300D01*
X38997354Y-73455302D01*
X38994500Y-73485735D01*
X38994500Y-73485741D01*
X38994500Y-73811934D01*
X38972826Y-73864260D01*
X38941352Y-73882935D01*
X38930936Y-73885993D01*
X38930928Y-73885997D01*
X38821954Y-73956031D01*
X38821950Y-73956034D01*
X38737119Y-74053935D01*
X38683302Y-74171776D01*
X38664867Y-74300000D01*
X31420500Y-74300000D01*
X31420500Y-71120000D01*
X31964417Y-71120000D01*
X31984700Y-71325935D01*
X31984898Y-71326587D01*
X32020612Y-71444323D01*
X32044769Y-71523956D01*
X32142315Y-71706450D01*
X32209810Y-71788694D01*
X32273590Y-71866410D01*
X32433550Y-71997685D01*
X32616046Y-72095232D01*
X32814066Y-72155300D01*
X33020000Y-72175583D01*
X33225934Y-72155300D01*
X33423954Y-72095232D01*
X33606450Y-71997685D01*
X33766410Y-71866410D01*
X33814711Y-71807555D01*
X33864661Y-71780856D01*
X33871914Y-71780500D01*
X36095500Y-71780500D01*
X36147826Y-71802174D01*
X36169500Y-71854500D01*
X36169500Y-72535764D01*
X36179427Y-72603893D01*
X36179427Y-72603894D01*
X36230801Y-72708982D01*
X36230802Y-72708983D01*
X36313517Y-72791698D01*
X36418607Y-72843073D01*
X36486740Y-72853000D01*
X36486746Y-72853000D01*
X36853254Y-72853000D01*
X36853260Y-72853000D01*
X36921393Y-72843073D01*
X37026483Y-72791698D01*
X37109198Y-72708983D01*
X37160573Y-72603893D01*
X37170500Y-72535760D01*
X37170500Y-71294240D01*
X37160573Y-71226107D01*
X37109198Y-71121017D01*
X37026483Y-71038302D01*
X37026482Y-71038301D01*
X36921394Y-70986927D01*
X36853264Y-70977000D01*
X36853260Y-70977000D01*
X36486740Y-70977000D01*
X36486734Y-70977000D01*
X36474887Y-70978727D01*
X36464218Y-70979500D01*
X36316084Y-70979500D01*
X36263758Y-70957826D01*
X36242084Y-70905500D01*
X36256544Y-70861558D01*
X36272345Y-70840147D01*
X36272347Y-70840144D01*
X36317146Y-70712114D01*
X36317148Y-70712106D01*
X36319999Y-70681698D01*
X36320000Y-70681697D01*
X36320000Y-70190000D01*
X35120001Y-70190000D01*
X35120001Y-70681705D01*
X35122850Y-70712102D01*
X35122852Y-70712111D01*
X35167652Y-70840144D01*
X35167654Y-70840147D01*
X35183456Y-70861558D01*
X35197089Y-70916529D01*
X35167858Y-70965040D01*
X35123916Y-70979500D01*
X34128814Y-70979500D01*
X34076488Y-70957826D01*
X34057349Y-70917360D01*
X34056008Y-70917627D01*
X34055300Y-70914068D01*
X34055300Y-70914066D01*
X33995232Y-70716046D01*
X33897685Y-70533550D01*
X33766410Y-70373590D01*
X33713904Y-70330500D01*
X33606450Y-70242315D01*
X33423956Y-70144769D01*
X33423955Y-70144768D01*
X33423954Y-70144768D01*
X33312158Y-70110855D01*
X33225935Y-70084700D01*
X33020000Y-70064417D01*
X32814064Y-70084700D01*
X32616043Y-70144769D01*
X32433549Y-70242315D01*
X32273590Y-70373589D01*
X32273589Y-70373590D01*
X32142315Y-70533549D01*
X32044769Y-70716043D01*
X31984700Y-70914064D01*
X31964417Y-71120000D01*
X31420500Y-71120000D01*
X31420500Y-67710253D01*
X31969500Y-67710253D01*
X31969500Y-69449746D01*
X31981133Y-69508232D01*
X32007822Y-69548174D01*
X32025448Y-69574552D01*
X32064281Y-69600500D01*
X32091767Y-69618866D01*
X32091768Y-69618866D01*
X32091769Y-69618867D01*
X32150252Y-69630500D01*
X32150254Y-69630500D01*
X33889746Y-69630500D01*
X33889748Y-69630500D01*
X33948231Y-69618867D01*
X34014552Y-69574552D01*
X34058867Y-69508231D01*
X34070500Y-69449748D01*
X34070500Y-69398301D01*
X35120000Y-69398301D01*
X35120000Y-69890000D01*
X35570000Y-69890000D01*
X35870000Y-69890000D01*
X36319999Y-69890000D01*
X36319999Y-69398306D01*
X36319998Y-69398294D01*
X36317149Y-69367897D01*
X36317147Y-69367888D01*
X36272347Y-69239856D01*
X36191792Y-69130708D01*
X36191791Y-69130707D01*
X36082643Y-69050152D01*
X36082644Y-69050152D01*
X35954614Y-69005353D01*
X35954606Y-69005351D01*
X35924198Y-69002500D01*
X35870000Y-69002500D01*
X35870000Y-69890000D01*
X35570000Y-69890000D01*
X35570000Y-69002500D01*
X35569999Y-69002499D01*
X35515807Y-69002500D01*
X35515793Y-69002501D01*
X35485397Y-69005350D01*
X35485388Y-69005352D01*
X35357356Y-69050152D01*
X35248208Y-69130707D01*
X35248207Y-69130708D01*
X35167652Y-69239856D01*
X35122853Y-69367885D01*
X35122851Y-69367893D01*
X35120000Y-69398301D01*
X34070500Y-69398301D01*
X34070500Y-69054500D01*
X34092174Y-69002174D01*
X34144500Y-68980500D01*
X34723601Y-68980500D01*
X34723740Y-68980490D01*
X34757574Y-68980491D01*
X34939590Y-68956531D01*
X35116922Y-68909017D01*
X35116923Y-68909016D01*
X35116925Y-68909016D01*
X35116932Y-68909013D01*
X35188383Y-68879418D01*
X35286535Y-68838764D01*
X35445527Y-68746972D01*
X35513747Y-68694626D01*
X35564361Y-68655791D01*
X35609408Y-68640500D01*
X36036758Y-68640500D01*
X36036766Y-68640500D01*
X36067199Y-68637646D01*
X36195382Y-68592793D01*
X36304650Y-68512150D01*
X36385293Y-68402882D01*
X36430146Y-68274699D01*
X36433000Y-68244266D01*
X36433000Y-67235734D01*
X36430146Y-67205301D01*
X36385293Y-67077118D01*
X36324127Y-66994240D01*
X36304653Y-66967853D01*
X36304646Y-66967846D01*
X36245290Y-66924040D01*
X36216059Y-66875530D01*
X36229692Y-66820558D01*
X36278202Y-66791327D01*
X36289232Y-66790500D01*
X36975768Y-66790500D01*
X37028094Y-66812174D01*
X37049768Y-66864500D01*
X37028094Y-66916826D01*
X37019710Y-66924040D01*
X36960353Y-66967846D01*
X36960346Y-66967853D01*
X36879707Y-67077116D01*
X36879706Y-67077118D01*
X36834855Y-67205295D01*
X36834854Y-67205299D01*
X36834854Y-67205301D01*
X36832000Y-67235734D01*
X36832000Y-68244266D01*
X36834854Y-68274699D01*
X36834854Y-68274701D01*
X36834855Y-68274704D01*
X36879706Y-68402881D01*
X36879707Y-68402883D01*
X36960346Y-68512146D01*
X36960353Y-68512153D01*
X37069615Y-68592791D01*
X37069618Y-68592793D01*
X37169941Y-68627897D01*
X37212171Y-68665636D01*
X37219500Y-68697744D01*
X37219500Y-69176667D01*
X37197826Y-69228993D01*
X37180801Y-69246017D01*
X37129427Y-69351105D01*
X37129427Y-69351106D01*
X37119500Y-69419235D01*
X37119500Y-70660764D01*
X37129427Y-70728893D01*
X37129427Y-70728894D01*
X37180801Y-70833982D01*
X37180802Y-70833983D01*
X37263517Y-70916698D01*
X37368607Y-70968073D01*
X37436740Y-70978000D01*
X37436746Y-70978000D01*
X37803254Y-70978000D01*
X37803260Y-70978000D01*
X37871393Y-70968073D01*
X37976483Y-70916698D01*
X38059198Y-70833983D01*
X38110573Y-70728893D01*
X38120500Y-70660760D01*
X38120500Y-69419240D01*
X38110573Y-69351107D01*
X38059198Y-69246017D01*
X38042174Y-69228993D01*
X38020500Y-69176667D01*
X38020500Y-68630062D01*
X38042174Y-68577736D01*
X38050558Y-68570522D01*
X38090319Y-68541177D01*
X38129650Y-68512150D01*
X38210293Y-68402882D01*
X38255146Y-68274699D01*
X38258000Y-68244266D01*
X38258000Y-67293861D01*
X38279674Y-67241535D01*
X38332000Y-67219861D01*
X38380792Y-67238226D01*
X38393036Y-67248964D01*
X38396569Y-67252272D01*
X39490363Y-68346034D01*
X39537217Y-68392886D01*
X39537220Y-68392890D01*
X39579587Y-68435256D01*
X39584464Y-68440637D01*
X39657078Y-68529115D01*
X39665138Y-68541177D01*
X39717376Y-68638905D01*
X39722927Y-68652307D01*
X39755093Y-68758339D01*
X39757924Y-68772568D01*
X39769144Y-68886486D01*
X39769500Y-68893739D01*
X39769500Y-71266720D01*
X39747826Y-71319046D01*
X39738996Y-71326587D01*
X39611226Y-71419417D01*
X39494410Y-71549154D01*
X39494407Y-71549157D01*
X39407119Y-71700347D01*
X39353174Y-71866372D01*
X39353173Y-71866376D01*
X39353173Y-71866378D01*
X39334925Y-72040000D01*
X39348657Y-72170656D01*
X39353174Y-72213627D01*
X39407119Y-72379652D01*
X39494407Y-72530842D01*
X39494410Y-72530845D01*
X39538009Y-72579267D01*
X39611228Y-72660584D01*
X39752455Y-72763192D01*
X39752462Y-72763196D01*
X39911948Y-72834204D01*
X40082711Y-72870500D01*
X40082712Y-72870500D01*
X40257288Y-72870500D01*
X40257289Y-72870500D01*
X40428052Y-72834204D01*
X40587538Y-72763196D01*
X40640532Y-72724694D01*
X40728771Y-72660584D01*
X40728770Y-72660584D01*
X40728774Y-72660582D01*
X40845590Y-72530845D01*
X40850416Y-72522487D01*
X40886781Y-72459500D01*
X40932879Y-72379656D01*
X40986827Y-72213622D01*
X41005075Y-72040000D01*
X40986827Y-71866378D01*
X40932879Y-71700344D01*
X40885218Y-71617792D01*
X40845592Y-71549157D01*
X40845589Y-71549154D01*
X40753691Y-71447091D01*
X40728774Y-71419418D01*
X40728773Y-71419417D01*
X40728771Y-71419415D01*
X40601004Y-71326586D01*
X40571411Y-71278295D01*
X40570500Y-71266719D01*
X40570500Y-71214500D01*
X40592174Y-71162174D01*
X40644500Y-71140500D01*
X44880303Y-71140500D01*
X44932629Y-71162174D01*
X44954303Y-71214500D01*
X44932629Y-71266826D01*
X44910402Y-71282102D01*
X44832463Y-71316802D01*
X44832458Y-71316805D01*
X44691225Y-71419417D01*
X44574409Y-71549154D01*
X44574406Y-71549157D01*
X44487118Y-71700347D01*
X44433173Y-71866372D01*
X44433172Y-71866376D01*
X44433172Y-71866378D01*
X44414924Y-72040000D01*
X44428656Y-72170656D01*
X44433173Y-72213627D01*
X44487118Y-72379652D01*
X44574406Y-72530842D01*
X44574409Y-72530845D01*
X44618008Y-72579267D01*
X44691227Y-72660584D01*
X44832454Y-72763192D01*
X44832461Y-72763196D01*
X44991943Y-72834203D01*
X44991946Y-72834203D01*
X44991947Y-72834204D01*
X45060884Y-72848856D01*
X45107561Y-72880935D01*
X45119500Y-72921239D01*
X45119500Y-73015501D01*
X45097826Y-73067827D01*
X45045500Y-73089501D01*
X44990734Y-73089501D01*
X44960301Y-73092355D01*
X44960299Y-73092355D01*
X44960295Y-73092356D01*
X44832118Y-73137207D01*
X44832116Y-73137208D01*
X44722853Y-73217847D01*
X44722846Y-73217854D01*
X44642207Y-73327117D01*
X44637721Y-73339940D01*
X44599982Y-73382172D01*
X44567873Y-73389501D01*
X44244500Y-73389501D01*
X44192174Y-73367827D01*
X44170500Y-73315501D01*
X44170500Y-73181746D01*
X44170500Y-73181740D01*
X44160573Y-73113607D01*
X44109198Y-73008517D01*
X44026483Y-72925802D01*
X44026482Y-72925801D01*
X43921394Y-72874427D01*
X43853264Y-72864500D01*
X43853260Y-72864500D01*
X43486740Y-72864500D01*
X43486735Y-72864500D01*
X43418606Y-72874427D01*
X43418605Y-72874427D01*
X43313517Y-72925801D01*
X43230801Y-73008517D01*
X43179427Y-73113605D01*
X43179427Y-73113606D01*
X43169500Y-73181735D01*
X43169500Y-74423264D01*
X43179427Y-74491393D01*
X43179427Y-74491394D01*
X43230801Y-74596482D01*
X43247826Y-74613507D01*
X43269500Y-74665833D01*
X43269500Y-74815167D01*
X43247826Y-74867493D01*
X43195500Y-74889167D01*
X43143174Y-74867493D01*
X43076482Y-74800801D01*
X42971394Y-74749427D01*
X42903264Y-74739500D01*
X42903260Y-74739500D01*
X42536740Y-74739500D01*
X42536735Y-74739500D01*
X42468606Y-74749427D01*
X42468605Y-74749427D01*
X42363517Y-74800801D01*
X42280801Y-74883517D01*
X42229427Y-74988605D01*
X42229427Y-74988606D01*
X42219500Y-75056735D01*
X42219500Y-75215498D01*
X42197826Y-75267824D01*
X42145500Y-75289498D01*
X40872127Y-75289498D01*
X40819801Y-75267824D01*
X40802280Y-75239938D01*
X40797794Y-75227118D01*
X40797792Y-75227115D01*
X40717153Y-75117852D01*
X40717146Y-75117845D01*
X40607883Y-75037206D01*
X40607881Y-75037205D01*
X40479704Y-74992354D01*
X40479705Y-74992354D01*
X40479700Y-74992353D01*
X40479699Y-74992353D01*
X40449266Y-74989499D01*
X39390734Y-74989499D01*
X39360301Y-74992353D01*
X39360299Y-74992353D01*
X39360295Y-74992354D01*
X39232118Y-75037205D01*
X39232116Y-75037206D01*
X39122853Y-75117845D01*
X39122846Y-75117852D01*
X39042207Y-75227115D01*
X39042206Y-75227117D01*
X38997355Y-75355294D01*
X38997354Y-75355298D01*
X38997354Y-75355300D01*
X38994500Y-75385733D01*
X38994500Y-75994265D01*
X38997354Y-76024698D01*
X38997354Y-76024700D01*
X38997355Y-76024703D01*
X39042206Y-76152880D01*
X39042207Y-76152882D01*
X39122846Y-76262145D01*
X39122853Y-76262152D01*
X39232116Y-76342791D01*
X39232118Y-76342792D01*
X39360295Y-76387643D01*
X39360301Y-76387645D01*
X39390734Y-76390499D01*
X39390741Y-76390499D01*
X40449258Y-76390499D01*
X40449266Y-76390499D01*
X40479699Y-76387645D01*
X40607882Y-76342792D01*
X40717150Y-76262149D01*
X40797793Y-76152881D01*
X40802279Y-76140058D01*
X40840018Y-76097827D01*
X40872127Y-76090498D01*
X42145500Y-76090498D01*
X42197826Y-76112172D01*
X42219500Y-76164498D01*
X42219500Y-76298264D01*
X42229427Y-76366393D01*
X42229427Y-76366394D01*
X42280801Y-76471482D01*
X42280802Y-76471483D01*
X42363517Y-76554198D01*
X42468607Y-76605573D01*
X42536740Y-76615500D01*
X42536746Y-76615500D01*
X42903254Y-76615500D01*
X42903260Y-76615500D01*
X42971393Y-76605573D01*
X43076483Y-76554198D01*
X43088580Y-76542101D01*
X43140905Y-76520425D01*
X43193231Y-76542098D01*
X43214907Y-76594423D01*
X43214867Y-76594990D01*
X43214867Y-76599999D01*
X43214867Y-76600000D01*
X43215668Y-76605572D01*
X43233302Y-76728223D01*
X43233302Y-76728224D01*
X43233303Y-76728226D01*
X43275106Y-76819760D01*
X43277127Y-76876360D01*
X43238534Y-76917813D01*
X43207793Y-76924500D01*
X34814535Y-76924500D01*
X34809695Y-76924342D01*
X34625574Y-76912274D01*
X34615978Y-76911010D01*
X34437408Y-76875491D01*
X34428058Y-76872986D01*
X34255645Y-76814460D01*
X34246702Y-76810756D01*
X34111771Y-76744216D01*
X34074427Y-76701634D01*
X34070500Y-76677847D01*
X34070500Y-75330253D01*
X34070500Y-75330252D01*
X34058867Y-75271769D01*
X34050889Y-75259830D01*
X34037598Y-75239938D01*
X34014552Y-75205448D01*
X33992343Y-75190608D01*
X33948232Y-75161133D01*
X33948233Y-75161133D01*
X33918989Y-75155316D01*
X33889748Y-75149500D01*
X32150252Y-75149500D01*
X32121010Y-75155316D01*
X32091767Y-75161133D01*
X32025449Y-75205447D01*
X32025447Y-75205449D01*
X31981133Y-75271767D01*
X31981133Y-75271769D01*
X31969500Y-75330252D01*
X31969500Y-77069748D01*
X31974257Y-77093664D01*
X31981133Y-77128232D01*
X32010608Y-77172343D01*
X32025448Y-77194552D01*
X32069560Y-77224027D01*
X32091767Y-77238866D01*
X32091768Y-77238866D01*
X32091769Y-77238867D01*
X32150252Y-77250500D01*
X33663621Y-77250500D01*
X33702990Y-77261841D01*
X33786409Y-77314257D01*
X33786412Y-77314258D01*
X33786413Y-77314259D01*
X34000651Y-77417430D01*
X34168480Y-77476155D01*
X34225094Y-77495965D01*
X34456921Y-77548878D01*
X34693214Y-77575501D01*
X34812108Y-77575500D01*
X38721031Y-77575500D01*
X38773357Y-77597174D01*
X38795031Y-77649500D01*
X38776957Y-77697959D01*
X38737120Y-77743932D01*
X38737119Y-77743934D01*
X38683302Y-77861776D01*
X38664867Y-77990000D01*
X38683302Y-78118223D01*
X38683302Y-78118224D01*
X38683303Y-78118226D01*
X38737118Y-78236063D01*
X38821951Y-78333967D01*
X38930931Y-78404004D01*
X39055228Y-78440500D01*
X39184772Y-78440500D01*
X39309069Y-78404004D01*
X39418049Y-78333967D01*
X39418052Y-78333963D01*
X39418499Y-78333577D01*
X39418871Y-78333437D01*
X39422502Y-78331105D01*
X39423009Y-78331894D01*
X39466961Y-78315500D01*
X45005399Y-78315500D01*
X45005478Y-78315494D01*
X45114493Y-78315494D01*
X45114494Y-78315494D01*
X45428128Y-78284602D01*
X45737224Y-78223119D01*
X46038806Y-78131635D01*
X46329969Y-78011032D01*
X46607909Y-77862472D01*
X46869949Y-77687384D01*
X47113566Y-77487456D01*
X47186133Y-77414888D01*
X47238457Y-77393215D01*
X47290784Y-77414889D01*
X47312458Y-77467214D01*
X47311705Y-77477746D01*
X47296973Y-77580211D01*
X47295566Y-77590000D01*
X47296733Y-77598119D01*
X47314001Y-77718225D01*
X47354273Y-77806408D01*
X47356294Y-77863009D01*
X47354658Y-77867030D01*
X47353115Y-77870525D01*
X47353112Y-77870533D01*
X47350199Y-77895655D01*
X47350199Y-79260383D01*
X47353113Y-79285506D01*
X47353114Y-79285511D01*
X47398493Y-79388285D01*
X47477934Y-79467726D01*
X47580708Y-79513105D01*
X47605834Y-79516020D01*
X47895563Y-79516019D01*
X47920690Y-79513105D01*
X48023464Y-79467726D01*
X48023465Y-79467724D01*
X48023467Y-79467724D01*
X48029122Y-79463851D01*
X48029967Y-79465085D01*
X48075699Y-79446143D01*
X48121430Y-79465085D01*
X48122276Y-79463851D01*
X48127930Y-79467724D01*
X48127933Y-79467725D01*
X48127934Y-79467726D01*
X48230708Y-79513105D01*
X48255834Y-79516020D01*
X48545563Y-79516019D01*
X48570690Y-79513105D01*
X48673464Y-79467726D01*
X48673465Y-79467724D01*
X48673467Y-79467724D01*
X48679122Y-79463851D01*
X48679967Y-79465085D01*
X48725699Y-79446143D01*
X48771430Y-79465085D01*
X48772276Y-79463851D01*
X48777930Y-79467724D01*
X48777933Y-79467725D01*
X48777934Y-79467726D01*
X48880708Y-79513105D01*
X48905834Y-79516020D01*
X49195563Y-79516019D01*
X49220690Y-79513105D01*
X49323464Y-79467726D01*
X49323465Y-79467724D01*
X49323467Y-79467724D01*
X49329122Y-79463851D01*
X49329967Y-79465085D01*
X49375699Y-79446143D01*
X49421430Y-79465085D01*
X49422276Y-79463851D01*
X49427930Y-79467724D01*
X49427933Y-79467725D01*
X49427934Y-79467726D01*
X49530708Y-79513105D01*
X49555834Y-79516020D01*
X49845563Y-79516019D01*
X49870690Y-79513105D01*
X49973464Y-79467726D01*
X49973465Y-79467724D01*
X49973467Y-79467724D01*
X49979122Y-79463851D01*
X49979967Y-79465085D01*
X50025699Y-79446143D01*
X50071430Y-79465085D01*
X50072276Y-79463851D01*
X50077930Y-79467724D01*
X50077933Y-79467725D01*
X50077934Y-79467726D01*
X50180708Y-79513105D01*
X50205834Y-79516020D01*
X50495563Y-79516019D01*
X50520690Y-79513105D01*
X50623464Y-79467726D01*
X50623465Y-79467724D01*
X50623467Y-79467724D01*
X50629122Y-79463851D01*
X50629967Y-79465085D01*
X50675699Y-79446143D01*
X50721430Y-79465085D01*
X50722276Y-79463851D01*
X50727930Y-79467724D01*
X50727933Y-79467725D01*
X50727934Y-79467726D01*
X50830708Y-79513105D01*
X50855834Y-79516020D01*
X51145563Y-79516019D01*
X51170690Y-79513105D01*
X51273464Y-79467726D01*
X51273465Y-79467724D01*
X51273467Y-79467724D01*
X51279122Y-79463851D01*
X51279967Y-79465085D01*
X51325699Y-79446143D01*
X51371430Y-79465085D01*
X51372276Y-79463851D01*
X51377930Y-79467724D01*
X51377933Y-79467725D01*
X51377934Y-79467726D01*
X51480708Y-79513105D01*
X51505834Y-79516020D01*
X51795563Y-79516019D01*
X51820690Y-79513105D01*
X51923464Y-79467726D01*
X51923465Y-79467724D01*
X51923467Y-79467724D01*
X51929122Y-79463851D01*
X51929967Y-79465085D01*
X51975699Y-79446143D01*
X52021430Y-79465085D01*
X52022276Y-79463851D01*
X52027930Y-79467724D01*
X52027933Y-79467725D01*
X52027934Y-79467726D01*
X52130708Y-79513105D01*
X52155834Y-79516020D01*
X52445563Y-79516019D01*
X52470690Y-79513105D01*
X52573464Y-79467726D01*
X52573465Y-79467724D01*
X52573467Y-79467724D01*
X52579122Y-79463851D01*
X52579967Y-79465085D01*
X52625699Y-79446143D01*
X52671430Y-79465085D01*
X52672276Y-79463851D01*
X52677930Y-79467724D01*
X52677933Y-79467725D01*
X52677934Y-79467726D01*
X52780708Y-79513105D01*
X52805834Y-79516020D01*
X53095563Y-79516019D01*
X53120690Y-79513105D01*
X53223464Y-79467726D01*
X53223465Y-79467724D01*
X53223467Y-79467724D01*
X53229122Y-79463851D01*
X53229967Y-79465085D01*
X53275699Y-79446143D01*
X53321430Y-79465085D01*
X53322276Y-79463851D01*
X53327930Y-79467724D01*
X53327933Y-79467725D01*
X53327934Y-79467726D01*
X53430708Y-79513105D01*
X53455834Y-79516020D01*
X53745563Y-79516019D01*
X53770690Y-79513105D01*
X53873464Y-79467726D01*
X53952905Y-79388285D01*
X53998284Y-79285511D01*
X54001199Y-79260385D01*
X54001198Y-77895656D01*
X53998284Y-77870529D01*
X53952905Y-77767755D01*
X53948935Y-77763785D01*
X53927261Y-77711459D01*
X53948935Y-77659133D01*
X54001261Y-77637459D01*
X54006073Y-77637616D01*
X54044490Y-77640133D01*
X54054080Y-77641396D01*
X54268814Y-77684106D01*
X54278152Y-77686608D01*
X54485489Y-77756987D01*
X54494415Y-77760684D01*
X54690784Y-77857519D01*
X54699159Y-77862354D01*
X54749000Y-77895656D01*
X54881211Y-77983995D01*
X54888881Y-77989880D01*
X54909972Y-78008376D01*
X54935021Y-78059170D01*
X54934640Y-78072930D01*
X54914355Y-78239996D01*
X54914355Y-78240004D01*
X54934859Y-78408872D01*
X54995181Y-78567930D01*
X55068517Y-78674174D01*
X55091817Y-78707930D01*
X55219148Y-78820735D01*
X55369775Y-78899791D01*
X55534944Y-78940501D01*
X55534948Y-78940501D01*
X55705052Y-78940501D01*
X55705056Y-78940501D01*
X55870225Y-78899791D01*
X56020852Y-78820735D01*
X56148183Y-78707930D01*
X56244818Y-78567931D01*
X56305140Y-78408873D01*
X56314235Y-78333967D01*
X56325645Y-78240004D01*
X56325645Y-78239997D01*
X56305140Y-78071129D01*
X56244818Y-77912071D01*
X56148183Y-77772072D01*
X56020856Y-77659270D01*
X56020853Y-77659268D01*
X56020852Y-77659267D01*
X55870225Y-77580211D01*
X55870222Y-77580210D01*
X55705058Y-77539501D01*
X55705056Y-77539501D01*
X55534944Y-77539501D01*
X55534939Y-77539501D01*
X55443622Y-77562008D01*
X55387630Y-77553485D01*
X55379776Y-77548014D01*
X55211542Y-77413854D01*
X54983403Y-77270508D01*
X54983402Y-77270507D01*
X54983398Y-77270505D01*
X54740638Y-77153602D01*
X54486316Y-77064614D01*
X54486312Y-77064613D01*
X54486303Y-77064610D01*
X54223634Y-77004663D01*
X54223632Y-77004662D01*
X54223629Y-77004662D01*
X53955881Y-76974498D01*
X53955877Y-76974498D01*
X53821161Y-76974500D01*
X52918670Y-76974500D01*
X52918192Y-76974530D01*
X52889903Y-76974529D01*
X52889902Y-76974529D01*
X52889901Y-76974529D01*
X52842263Y-76982070D01*
X52739446Y-76998348D01*
X52739444Y-76998349D01*
X52594565Y-77045412D01*
X52458834Y-77114559D01*
X52335588Y-77204091D01*
X52335585Y-77204094D01*
X52303438Y-77236238D01*
X52303400Y-77236253D01*
X52223490Y-77316143D01*
X52173590Y-77384806D01*
X52125295Y-77414392D01*
X52070225Y-77401163D01*
X52046417Y-77372045D01*
X52033581Y-77343937D01*
X51948748Y-77246033D01*
X51846918Y-77180591D01*
X51839767Y-77175995D01*
X51715471Y-77139500D01*
X51585927Y-77139500D01*
X51585926Y-77139500D01*
X51536075Y-77154137D01*
X51479763Y-77148082D01*
X51444225Y-77103981D01*
X51441981Y-77093664D01*
X51437804Y-77064613D01*
X51437396Y-77061774D01*
X51383581Y-76943937D01*
X51298748Y-76846033D01*
X51199489Y-76782243D01*
X51189767Y-76775995D01*
X51065471Y-76739500D01*
X50935927Y-76739500D01*
X50811630Y-76775995D01*
X50702653Y-76846031D01*
X50702649Y-76846034D01*
X50617818Y-76943935D01*
X50592968Y-76998349D01*
X50564002Y-77061774D01*
X50559416Y-77093667D01*
X50530516Y-77142375D01*
X50475638Y-77156381D01*
X50465323Y-77154137D01*
X50415472Y-77139500D01*
X50415471Y-77139500D01*
X50285927Y-77139500D01*
X50285926Y-77139500D01*
X50236075Y-77154137D01*
X50179763Y-77148082D01*
X50144225Y-77103981D01*
X50141981Y-77093664D01*
X50137804Y-77064613D01*
X50137396Y-77061774D01*
X50083581Y-76943937D01*
X49998748Y-76846033D01*
X49899489Y-76782243D01*
X49889767Y-76775995D01*
X49765471Y-76739500D01*
X49635927Y-76739500D01*
X49511630Y-76775995D01*
X49402653Y-76846031D01*
X49402649Y-76846034D01*
X49317818Y-76943935D01*
X49292968Y-76998349D01*
X49264002Y-77061774D01*
X49259416Y-77093667D01*
X49230516Y-77142375D01*
X49175638Y-77156381D01*
X49165323Y-77154137D01*
X49115472Y-77139500D01*
X49115471Y-77139500D01*
X48985927Y-77139500D01*
X48985926Y-77139500D01*
X48936075Y-77154137D01*
X48879763Y-77148082D01*
X48844225Y-77103981D01*
X48841981Y-77093664D01*
X48837804Y-77064613D01*
X48837396Y-77061774D01*
X48783581Y-76943937D01*
X48698748Y-76846033D01*
X48599489Y-76782243D01*
X48589767Y-76775995D01*
X48465471Y-76739500D01*
X48393626Y-76739500D01*
X48341300Y-76717826D01*
X48319626Y-76665500D01*
X48341300Y-76613174D01*
X48368696Y-76595826D01*
X48530719Y-76537853D01*
X48537669Y-76535746D01*
X48598834Y-76520425D01*
X48798398Y-76470437D01*
X48805511Y-76469021D01*
X49071411Y-76429581D01*
X49078608Y-76428872D01*
X49349030Y-76415588D01*
X49352658Y-76415500D01*
X49402273Y-76415500D01*
X49486663Y-76415500D01*
X49507561Y-76415500D01*
X49507570Y-76415503D01*
X49538217Y-76415503D01*
X49538217Y-76415504D01*
X49722396Y-76415503D01*
X49722398Y-76415503D01*
X50089327Y-76383400D01*
X50089326Y-76383400D01*
X50089350Y-76383398D01*
X50210191Y-76362090D01*
X55170040Y-76362090D01*
X55270697Y-76425336D01*
X55270702Y-76425338D01*
X55440845Y-76484873D01*
X55440856Y-76484876D01*
X55620000Y-76505061D01*
X55799143Y-76484876D01*
X55799154Y-76484873D01*
X55969302Y-76425336D01*
X55969304Y-76425336D01*
X56069957Y-76362090D01*
X56069958Y-76362090D01*
X55620000Y-75912132D01*
X55170040Y-76362090D01*
X50210191Y-76362090D01*
X50452110Y-76319432D01*
X50807915Y-76224094D01*
X51154057Y-76098108D01*
X51487901Y-75942433D01*
X51806907Y-75758255D01*
X51890104Y-75700000D01*
X54814938Y-75700000D01*
X54835123Y-75879143D01*
X54835126Y-75879154D01*
X54894661Y-76049297D01*
X54894663Y-76049302D01*
X54957908Y-76149957D01*
X55407867Y-75699999D01*
X55832132Y-75699999D01*
X55832132Y-75700000D01*
X56282090Y-76149958D01*
X56282090Y-76149957D01*
X56345336Y-76049304D01*
X56345336Y-76049302D01*
X56404873Y-75879154D01*
X56404876Y-75879143D01*
X56425061Y-75700000D01*
X56404876Y-75520856D01*
X56404873Y-75520845D01*
X56345338Y-75350702D01*
X56345336Y-75350697D01*
X56282090Y-75250040D01*
X55832132Y-75699999D01*
X55407867Y-75699999D01*
X54957909Y-75250041D01*
X54894663Y-75350697D01*
X54894661Y-75350702D01*
X54835126Y-75520845D01*
X54835123Y-75520856D01*
X54814938Y-75700000D01*
X51890104Y-75700000D01*
X52108647Y-75546974D01*
X52390825Y-75310200D01*
X52485441Y-75215582D01*
X52485451Y-75215574D01*
X52490756Y-75210268D01*
X52490758Y-75210268D01*
X52663117Y-75037909D01*
X55170041Y-75037909D01*
X55619999Y-75487867D01*
X56069958Y-75037909D01*
X55969302Y-74974663D01*
X55969297Y-74974661D01*
X55799154Y-74915126D01*
X55799143Y-74915123D01*
X55620000Y-74894938D01*
X55440856Y-74915123D01*
X55440845Y-74915126D01*
X55270702Y-74974661D01*
X55270697Y-74974663D01*
X55170041Y-75037909D01*
X52663117Y-75037909D01*
X53405996Y-74295028D01*
X53406006Y-74295024D01*
X53427675Y-74273354D01*
X53427676Y-74273355D01*
X53506561Y-74194469D01*
X53642387Y-74017455D01*
X53753946Y-73824226D01*
X53757158Y-73816470D01*
X53795635Y-73777090D01*
X53873464Y-73742726D01*
X53952905Y-73663285D01*
X53998284Y-73560511D01*
X54001199Y-73535385D01*
X54001199Y-73159996D01*
X54914355Y-73159996D01*
X54914355Y-73160003D01*
X54934859Y-73328871D01*
X54995181Y-73487929D01*
X55091816Y-73627928D01*
X55217022Y-73738851D01*
X55219148Y-73740734D01*
X55369775Y-73819790D01*
X55534944Y-73860500D01*
X55534948Y-73860500D01*
X55705052Y-73860500D01*
X55705056Y-73860500D01*
X55870225Y-73819790D01*
X56020852Y-73740734D01*
X56148183Y-73627929D01*
X56244818Y-73487930D01*
X56305140Y-73328872D01*
X56323005Y-73181746D01*
X56325645Y-73160003D01*
X56325645Y-73159996D01*
X56305140Y-72991128D01*
X56244818Y-72832070D01*
X56148183Y-72692071D01*
X56020856Y-72579269D01*
X56020853Y-72579267D01*
X56020852Y-72579266D01*
X55870225Y-72500210D01*
X55870222Y-72500209D01*
X55705058Y-72459500D01*
X55705056Y-72459500D01*
X55534944Y-72459500D01*
X55534941Y-72459500D01*
X55369777Y-72500209D01*
X55219146Y-72579267D01*
X55219143Y-72579269D01*
X55091816Y-72692071D01*
X54995181Y-72832070D01*
X54934859Y-72991128D01*
X54914355Y-73159996D01*
X54001199Y-73159996D01*
X54001198Y-72170656D01*
X53998284Y-72145529D01*
X53952905Y-72042755D01*
X53873464Y-71963314D01*
X53770690Y-71917935D01*
X53770689Y-71917934D01*
X53770687Y-71917934D01*
X53749358Y-71915460D01*
X53745564Y-71915020D01*
X53745563Y-71915020D01*
X53455835Y-71915020D01*
X53430712Y-71917934D01*
X53430706Y-71917935D01*
X53327930Y-71963315D01*
X53322276Y-71967189D01*
X53321430Y-71965954D01*
X53275699Y-71984897D01*
X53229967Y-71965954D01*
X53229122Y-71967189D01*
X53223467Y-71963315D01*
X53171308Y-71940285D01*
X53120690Y-71917935D01*
X53120689Y-71917934D01*
X53120687Y-71917934D01*
X53099358Y-71915460D01*
X53095564Y-71915020D01*
X53095563Y-71915020D01*
X52805835Y-71915020D01*
X52780712Y-71917934D01*
X52780706Y-71917935D01*
X52677930Y-71963315D01*
X52672276Y-71967189D01*
X52671430Y-71965954D01*
X52625699Y-71984897D01*
X52579967Y-71965954D01*
X52579122Y-71967189D01*
X52573467Y-71963315D01*
X52521308Y-71940285D01*
X52470690Y-71917935D01*
X52470689Y-71917934D01*
X52470687Y-71917934D01*
X52449358Y-71915460D01*
X52445564Y-71915020D01*
X52445563Y-71915020D01*
X52155835Y-71915020D01*
X52130712Y-71917934D01*
X52130706Y-71917935D01*
X52027930Y-71963315D01*
X52022276Y-71967189D01*
X52021430Y-71965954D01*
X51975699Y-71984897D01*
X51929967Y-71965954D01*
X51929122Y-71967189D01*
X51923467Y-71963315D01*
X51871308Y-71940285D01*
X51820690Y-71917935D01*
X51820689Y-71917934D01*
X51820687Y-71917934D01*
X51795564Y-71915020D01*
X51793958Y-71915020D01*
X51793696Y-71914911D01*
X51793426Y-71914896D01*
X51793431Y-71914801D01*
X51741632Y-71893346D01*
X51719958Y-71841020D01*
X51741632Y-71788694D01*
X51823876Y-71706450D01*
X51906831Y-71623494D01*
X51909817Y-71620671D01*
X52104065Y-71447078D01*
X52110522Y-71441929D01*
X52321266Y-71292395D01*
X52328266Y-71287996D01*
X52554414Y-71163006D01*
X52561888Y-71159407D01*
X52599160Y-71143968D01*
X52800597Y-71060527D01*
X52808420Y-71057789D01*
X53056704Y-70986258D01*
X53064790Y-70984412D01*
X53319509Y-70941130D01*
X53327744Y-70940201D01*
X53587413Y-70925616D01*
X53591563Y-70925500D01*
X68684502Y-70925500D01*
X68736828Y-70947174D01*
X68751812Y-70968754D01*
X68787118Y-71046063D01*
X68871951Y-71143967D01*
X68980931Y-71214004D01*
X69105228Y-71250500D01*
X69234772Y-71250500D01*
X69359069Y-71214004D01*
X69468049Y-71143967D01*
X69552882Y-71046063D01*
X69606697Y-70928226D01*
X69625133Y-70800000D01*
X69606697Y-70671774D01*
X69579482Y-70612184D01*
X69577462Y-70555585D01*
X69616055Y-70514132D01*
X69672656Y-70512111D01*
X69685455Y-70518347D01*
X69736859Y-70549848D01*
X69746250Y-70556671D01*
X69881750Y-70672400D01*
X69886017Y-70676344D01*
X69998323Y-70788650D01*
X70019244Y-70830445D01*
X70033302Y-70928223D01*
X70033302Y-70928224D01*
X70033303Y-70928226D01*
X70087118Y-71046063D01*
X70171951Y-71143967D01*
X70280931Y-71214004D01*
X70405228Y-71250500D01*
X70534772Y-71250500D01*
X70659069Y-71214004D01*
X70768049Y-71143967D01*
X70852882Y-71046063D01*
X70906697Y-70928226D01*
X70925133Y-70800000D01*
X70906697Y-70671774D01*
X70852882Y-70553937D01*
X70768049Y-70456033D01*
X70701032Y-70412964D01*
X70659068Y-70385995D01*
X70534772Y-70349500D01*
X70510479Y-70349500D01*
X70458153Y-70327826D01*
X70310531Y-70180204D01*
X70310441Y-70180125D01*
X70258876Y-70128559D01*
X70258871Y-70128555D01*
X70067348Y-69981591D01*
X70067343Y-69981588D01*
X70067340Y-69981586D01*
X69858286Y-69860885D01*
X69858277Y-69860880D01*
X69635245Y-69768497D01*
X69635244Y-69768496D01*
X69635240Y-69768495D01*
X69634587Y-69768320D01*
X69402054Y-69706011D01*
X69402045Y-69706009D01*
X69209670Y-69680683D01*
X69162703Y-69674500D01*
X69162701Y-69674500D01*
X65924747Y-69674500D01*
X65872421Y-69652826D01*
X65850747Y-69600500D01*
X65872421Y-69548174D01*
X65903265Y-69529687D01*
X65962175Y-69511816D01*
X65962176Y-69511815D01*
X65962188Y-69511812D01*
X66284775Y-69378189D01*
X66592711Y-69213590D01*
X66883031Y-69019600D01*
X67152939Y-68798088D01*
X67235673Y-68715350D01*
X67235677Y-68715348D01*
X67246083Y-68704942D01*
X67246084Y-68704942D01*
X67619321Y-68331705D01*
X68625701Y-68331705D01*
X68628550Y-68362102D01*
X68628552Y-68362111D01*
X68673352Y-68490143D01*
X68753907Y-68599291D01*
X68753908Y-68599292D01*
X68863056Y-68679847D01*
X68863055Y-68679847D01*
X68991085Y-68724646D01*
X68991093Y-68724648D01*
X69021502Y-68727499D01*
X69513200Y-68727499D01*
X69813200Y-68727499D01*
X70304894Y-68727499D01*
X70304905Y-68727498D01*
X70335302Y-68724649D01*
X70335311Y-68724647D01*
X70463343Y-68679847D01*
X70572491Y-68599292D01*
X70572492Y-68599291D01*
X70653047Y-68490143D01*
X70697846Y-68362114D01*
X70697848Y-68362106D01*
X70700699Y-68331698D01*
X70700700Y-68331697D01*
X70700700Y-68277500D01*
X69813200Y-68277500D01*
X69813200Y-68727499D01*
X69513200Y-68727499D01*
X69513200Y-68277500D01*
X68625701Y-68277500D01*
X68625701Y-68331705D01*
X67619321Y-68331705D01*
X68027725Y-67923301D01*
X68625700Y-67923301D01*
X68625700Y-67977500D01*
X69513200Y-67977500D01*
X69813200Y-67977500D01*
X70700699Y-67977500D01*
X70700699Y-67923306D01*
X70700698Y-67923294D01*
X70697849Y-67892897D01*
X70697847Y-67892888D01*
X70653047Y-67764856D01*
X70572492Y-67655708D01*
X70572491Y-67655707D01*
X70463343Y-67575152D01*
X70463344Y-67575152D01*
X70335314Y-67530353D01*
X70335306Y-67530351D01*
X70304898Y-67527500D01*
X69813200Y-67527500D01*
X69813200Y-67977500D01*
X69513200Y-67977500D01*
X69513200Y-67527500D01*
X69021506Y-67527500D01*
X69021493Y-67527501D01*
X68991097Y-67530350D01*
X68991088Y-67530352D01*
X68863056Y-67575152D01*
X68753908Y-67655707D01*
X68753907Y-67655708D01*
X68673352Y-67764856D01*
X68628553Y-67892885D01*
X68628551Y-67892893D01*
X68625700Y-67923301D01*
X68027725Y-67923301D01*
X69201352Y-66749674D01*
X69253678Y-66728000D01*
X70283954Y-66728000D01*
X70283960Y-66728000D01*
X70352093Y-66718073D01*
X70457183Y-66666698D01*
X70539898Y-66583983D01*
X70591273Y-66478893D01*
X70601200Y-66410760D01*
X70601200Y-66044240D01*
X70591273Y-65976107D01*
X70539898Y-65871017D01*
X70457183Y-65788302D01*
X70457182Y-65788301D01*
X70352094Y-65736927D01*
X70283964Y-65727000D01*
X70283960Y-65727000D01*
X69042440Y-65727000D01*
X69042435Y-65727000D01*
X68974306Y-65736927D01*
X68974305Y-65736927D01*
X68869217Y-65788301D01*
X68786501Y-65871017D01*
X68735127Y-65976105D01*
X68735127Y-65976106D01*
X68725200Y-66044235D01*
X68725200Y-66274520D01*
X68703526Y-66326846D01*
X66829267Y-68201105D01*
X66817338Y-68213033D01*
X66814710Y-68215535D01*
X66607681Y-68403178D01*
X66602068Y-68407785D01*
X66379105Y-68573149D01*
X66373075Y-68577179D01*
X66134975Y-68719892D01*
X66128571Y-68723315D01*
X65877631Y-68842004D01*
X65870921Y-68844783D01*
X65609563Y-68938301D01*
X65602614Y-68940409D01*
X65333346Y-69007860D01*
X65326224Y-69009277D01*
X65051638Y-69050010D01*
X65044411Y-69050722D01*
X64765823Y-69064411D01*
X64762191Y-69064500D01*
X56034328Y-69064500D01*
X55982002Y-69042826D01*
X55960328Y-68990500D01*
X55978402Y-68942041D01*
X55983578Y-68936067D01*
X55983579Y-68936065D01*
X55983578Y-68936065D01*
X55983581Y-68936063D01*
X56037396Y-68818226D01*
X56055832Y-68690000D01*
X56037396Y-68561774D01*
X55983581Y-68443937D01*
X55898748Y-68346033D01*
X55810759Y-68289486D01*
X55789767Y-68275995D01*
X55665471Y-68239500D01*
X55535927Y-68239500D01*
X55411628Y-68275996D01*
X55408895Y-68277753D01*
X55368889Y-68289500D01*
X50171707Y-68289500D01*
X50171695Y-68289499D01*
X50138821Y-68289499D01*
X50138779Y-68289482D01*
X49989749Y-68289485D01*
X49858629Y-68304261D01*
X49754417Y-68316005D01*
X49754413Y-68316005D01*
X49754412Y-68316006D01*
X49523536Y-68368706D01*
X49300003Y-68446927D01*
X49086648Y-68549677D01*
X49086639Y-68549682D01*
X48886131Y-68675671D01*
X48700978Y-68823328D01*
X48654534Y-68869773D01*
X48160249Y-69364056D01*
X48160088Y-69364238D01*
X48124543Y-69399784D01*
X48124536Y-69399792D01*
X48124536Y-69399793D01*
X48038579Y-69511812D01*
X47993438Y-69570640D01*
X47993436Y-69570643D01*
X47885770Y-69757119D01*
X47885766Y-69757127D01*
X47880893Y-69768891D01*
X47840842Y-69808938D01*
X47817440Y-69814165D01*
X47817457Y-69814339D01*
X47816093Y-69814466D01*
X47815999Y-69814488D01*
X47815736Y-69814500D01*
X47815734Y-69814500D01*
X47785301Y-69817354D01*
X47785299Y-69817354D01*
X47785295Y-69817355D01*
X47657118Y-69862206D01*
X47657116Y-69862207D01*
X47547853Y-69942846D01*
X47547846Y-69942853D01*
X47467207Y-70052116D01*
X47467206Y-70052118D01*
X47422355Y-70180295D01*
X47422354Y-70180299D01*
X47422354Y-70180301D01*
X47419500Y-70210734D01*
X47419500Y-70210740D01*
X47419500Y-70265500D01*
X47397826Y-70317826D01*
X47345500Y-70339500D01*
X43195208Y-70339500D01*
X43142882Y-70317826D01*
X43121208Y-70265500D01*
X43142882Y-70213174D01*
X43151712Y-70205633D01*
X43268770Y-70120584D01*
X43268769Y-70120584D01*
X43268773Y-70120582D01*
X43385589Y-69990845D01*
X43389306Y-69984408D01*
X43430502Y-69913053D01*
X43472878Y-69839656D01*
X43526826Y-69673622D01*
X43545074Y-69500000D01*
X43526826Y-69326378D01*
X43472878Y-69160344D01*
X43432368Y-69090179D01*
X43385591Y-69009157D01*
X43385588Y-69009154D01*
X43338206Y-68956531D01*
X43268773Y-68879418D01*
X43268772Y-68879417D01*
X43268770Y-68879415D01*
X43127540Y-68776805D01*
X43127538Y-68776804D01*
X43114769Y-68771119D01*
X43080783Y-68740517D01*
X43073267Y-68727499D01*
X43030479Y-68653387D01*
X42955912Y-68578820D01*
X42953333Y-68576241D01*
X42953322Y-68576231D01*
X38781710Y-64404618D01*
X38760036Y-64352292D01*
X38781710Y-64299966D01*
X38787079Y-64295099D01*
X38846409Y-64246410D01*
X38977684Y-64086450D01*
X39075231Y-63903954D01*
X39135299Y-63705934D01*
X39155582Y-63500000D01*
X39584417Y-63500000D01*
X39604700Y-63705935D01*
X39664769Y-63903956D01*
X39762315Y-64086450D01*
X39885207Y-64236196D01*
X39893590Y-64246410D01*
X40053550Y-64377685D01*
X40236046Y-64475232D01*
X40434066Y-64535300D01*
X40640000Y-64555583D01*
X40845934Y-64535300D01*
X41043954Y-64475232D01*
X41226450Y-64377685D01*
X41386410Y-64246410D01*
X41517685Y-64086450D01*
X41615232Y-63903954D01*
X41675300Y-63705934D01*
X41695583Y-63500000D01*
X42124417Y-63500000D01*
X42144700Y-63705935D01*
X42204769Y-63903956D01*
X42302315Y-64086450D01*
X42425207Y-64236196D01*
X42433590Y-64246410D01*
X42593550Y-64377685D01*
X42776046Y-64475232D01*
X42974066Y-64535300D01*
X43180000Y-64555583D01*
X43385934Y-64535300D01*
X43583954Y-64475232D01*
X43766450Y-64377685D01*
X43926410Y-64246410D01*
X44057685Y-64086450D01*
X44155232Y-63903954D01*
X44215300Y-63705934D01*
X44235583Y-63500000D01*
X44664417Y-63500000D01*
X44684700Y-63705935D01*
X44744769Y-63903956D01*
X44842315Y-64086450D01*
X44965207Y-64236196D01*
X44973590Y-64246410D01*
X45133550Y-64377685D01*
X45316046Y-64475232D01*
X45514066Y-64535300D01*
X45720000Y-64555583D01*
X45925934Y-64535300D01*
X46123954Y-64475232D01*
X46306450Y-64377685D01*
X46466410Y-64246410D01*
X46597685Y-64086450D01*
X46695232Y-63903954D01*
X46755300Y-63705934D01*
X46775583Y-63500000D01*
X47204417Y-63500000D01*
X47224700Y-63705935D01*
X47284769Y-63903956D01*
X47382315Y-64086450D01*
X47505207Y-64236196D01*
X47513590Y-64246410D01*
X47673550Y-64377685D01*
X47856046Y-64475232D01*
X48054066Y-64535300D01*
X48260000Y-64555583D01*
X48465934Y-64535300D01*
X48663954Y-64475232D01*
X48846450Y-64377685D01*
X49006410Y-64246410D01*
X49137685Y-64086450D01*
X49235232Y-63903954D01*
X49295300Y-63705934D01*
X49315583Y-63500000D01*
X49744418Y-63500000D01*
X49764701Y-63705935D01*
X49824770Y-63903956D01*
X49922316Y-64086450D01*
X50045208Y-64236196D01*
X50053591Y-64246410D01*
X50213551Y-64377685D01*
X50396047Y-64475232D01*
X50594067Y-64535300D01*
X50800001Y-64555583D01*
X51005935Y-64535300D01*
X51203955Y-64475232D01*
X51386451Y-64377685D01*
X51546411Y-64246410D01*
X51677686Y-64086450D01*
X51775233Y-63903954D01*
X51835301Y-63705934D01*
X51855584Y-63500000D01*
X52284417Y-63500000D01*
X52304700Y-63705935D01*
X52364769Y-63903956D01*
X52462315Y-64086450D01*
X52585207Y-64236196D01*
X52593590Y-64246410D01*
X52753550Y-64377685D01*
X52936046Y-64475232D01*
X53134066Y-64535300D01*
X53340000Y-64555583D01*
X53545934Y-64535300D01*
X53743954Y-64475232D01*
X53926450Y-64377685D01*
X54086410Y-64246410D01*
X54217685Y-64086450D01*
X54315232Y-63903954D01*
X54375300Y-63705934D01*
X54395583Y-63500000D01*
X54824417Y-63500000D01*
X54844700Y-63705935D01*
X54904769Y-63903956D01*
X55002315Y-64086450D01*
X55125207Y-64236196D01*
X55133590Y-64246410D01*
X55293550Y-64377685D01*
X55476046Y-64475232D01*
X55674066Y-64535300D01*
X55880000Y-64555583D01*
X56085934Y-64535300D01*
X56283954Y-64475232D01*
X56466450Y-64377685D01*
X56626410Y-64246410D01*
X56757685Y-64086450D01*
X56855232Y-63903954D01*
X56915300Y-63705934D01*
X56935583Y-63500000D01*
X57364417Y-63500000D01*
X57384700Y-63705935D01*
X57444769Y-63903956D01*
X57542315Y-64086450D01*
X57665207Y-64236196D01*
X57673590Y-64246410D01*
X57833550Y-64377685D01*
X58016046Y-64475232D01*
X58214066Y-64535300D01*
X58420000Y-64555583D01*
X58625934Y-64535300D01*
X58823954Y-64475232D01*
X59006450Y-64377685D01*
X59166410Y-64246410D01*
X59297685Y-64086450D01*
X59395232Y-63903954D01*
X59455300Y-63705934D01*
X59475583Y-63500000D01*
X59904416Y-63500000D01*
X59924699Y-63705935D01*
X59984768Y-63903956D01*
X60082314Y-64086450D01*
X60205206Y-64236196D01*
X60213589Y-64246410D01*
X60373549Y-64377685D01*
X60556045Y-64475232D01*
X60754065Y-64535300D01*
X60959999Y-64555583D01*
X61165933Y-64535300D01*
X61363953Y-64475232D01*
X61546449Y-64377685D01*
X61706409Y-64246410D01*
X61837684Y-64086450D01*
X61935231Y-63903954D01*
X61995299Y-63705934D01*
X62015582Y-63500000D01*
X62444417Y-63500000D01*
X62464700Y-63705935D01*
X62524769Y-63903956D01*
X62622315Y-64086450D01*
X62745207Y-64236196D01*
X62753590Y-64246410D01*
X62913550Y-64377685D01*
X63096046Y-64475232D01*
X63294066Y-64535300D01*
X63500000Y-64555583D01*
X63705934Y-64535300D01*
X63903954Y-64475232D01*
X64086450Y-64377685D01*
X64246410Y-64246410D01*
X64377685Y-64086450D01*
X64475232Y-63903954D01*
X64535300Y-63705934D01*
X64555583Y-63500000D01*
X64984417Y-63500000D01*
X65004700Y-63705935D01*
X65064769Y-63903956D01*
X65162315Y-64086450D01*
X65285207Y-64236196D01*
X65293590Y-64246410D01*
X65453550Y-64377685D01*
X65636046Y-64475232D01*
X65834066Y-64535300D01*
X66040000Y-64555583D01*
X66245934Y-64535300D01*
X66443954Y-64475232D01*
X66626450Y-64377685D01*
X66786410Y-64246410D01*
X66917685Y-64086450D01*
X67015232Y-63903954D01*
X67075300Y-63705934D01*
X67095583Y-63500000D01*
X67524417Y-63500000D01*
X67544700Y-63705935D01*
X67604769Y-63903956D01*
X67702315Y-64086450D01*
X67825207Y-64236196D01*
X67833590Y-64246410D01*
X67993550Y-64377685D01*
X68176046Y-64475232D01*
X68374066Y-64535300D01*
X68580000Y-64555583D01*
X68785934Y-64535300D01*
X68983954Y-64475232D01*
X69166450Y-64377685D01*
X69326410Y-64246410D01*
X69457685Y-64086450D01*
X69555232Y-63903954D01*
X69615300Y-63705934D01*
X69635583Y-63500000D01*
X69615300Y-63294066D01*
X69555232Y-63096046D01*
X69457685Y-62913550D01*
X69326410Y-62753590D01*
X69166450Y-62622315D01*
X68983954Y-62524768D01*
X68828200Y-62477521D01*
X68785935Y-62464700D01*
X68580000Y-62444417D01*
X68374064Y-62464700D01*
X68176043Y-62524769D01*
X67993549Y-62622315D01*
X67833590Y-62753589D01*
X67833589Y-62753590D01*
X67702315Y-62913549D01*
X67604769Y-63096043D01*
X67544700Y-63294064D01*
X67524417Y-63500000D01*
X67095583Y-63500000D01*
X67075300Y-63294066D01*
X67015232Y-63096046D01*
X66917685Y-62913550D01*
X66786410Y-62753590D01*
X66626450Y-62622315D01*
X66443954Y-62524768D01*
X66288200Y-62477521D01*
X66245935Y-62464700D01*
X66040000Y-62444417D01*
X65834064Y-62464700D01*
X65636043Y-62524769D01*
X65453549Y-62622315D01*
X65293590Y-62753589D01*
X65293589Y-62753590D01*
X65162315Y-62913549D01*
X65064769Y-63096043D01*
X65004700Y-63294064D01*
X64984417Y-63500000D01*
X64555583Y-63500000D01*
X64535300Y-63294066D01*
X64475232Y-63096046D01*
X64377685Y-62913550D01*
X64246410Y-62753590D01*
X64086450Y-62622315D01*
X63903954Y-62524768D01*
X63748200Y-62477521D01*
X63705935Y-62464700D01*
X63500000Y-62444417D01*
X63294064Y-62464700D01*
X63096043Y-62524769D01*
X62913549Y-62622315D01*
X62753590Y-62753589D01*
X62753589Y-62753590D01*
X62622315Y-62913549D01*
X62524769Y-63096043D01*
X62464700Y-63294064D01*
X62444417Y-63500000D01*
X62015582Y-63500000D01*
X61995299Y-63294066D01*
X61935231Y-63096046D01*
X61837684Y-62913550D01*
X61706409Y-62753590D01*
X61546449Y-62622315D01*
X61363953Y-62524768D01*
X61208199Y-62477521D01*
X61165934Y-62464700D01*
X60959999Y-62444417D01*
X60754063Y-62464700D01*
X60556042Y-62524769D01*
X60373548Y-62622315D01*
X60213589Y-62753589D01*
X60213588Y-62753590D01*
X60082314Y-62913549D01*
X59984768Y-63096043D01*
X59924699Y-63294064D01*
X59904416Y-63500000D01*
X59475583Y-63500000D01*
X59455300Y-63294066D01*
X59395232Y-63096046D01*
X59297685Y-62913550D01*
X59166410Y-62753590D01*
X59006450Y-62622315D01*
X58823954Y-62524768D01*
X58668200Y-62477521D01*
X58625935Y-62464700D01*
X58420000Y-62444417D01*
X58214064Y-62464700D01*
X58016043Y-62524769D01*
X57833549Y-62622315D01*
X57673590Y-62753589D01*
X57673589Y-62753590D01*
X57542315Y-62913549D01*
X57444769Y-63096043D01*
X57384700Y-63294064D01*
X57364417Y-63500000D01*
X56935583Y-63500000D01*
X56915300Y-63294066D01*
X56855232Y-63096046D01*
X56757685Y-62913550D01*
X56626410Y-62753590D01*
X56466450Y-62622315D01*
X56283954Y-62524768D01*
X56128200Y-62477521D01*
X56085935Y-62464700D01*
X55880000Y-62444417D01*
X55674064Y-62464700D01*
X55476043Y-62524769D01*
X55293549Y-62622315D01*
X55133590Y-62753589D01*
X55133589Y-62753590D01*
X55002315Y-62913549D01*
X54904769Y-63096043D01*
X54844700Y-63294064D01*
X54824417Y-63500000D01*
X54395583Y-63500000D01*
X54375300Y-63294066D01*
X54315232Y-63096046D01*
X54217685Y-62913550D01*
X54086410Y-62753590D01*
X53926450Y-62622315D01*
X53743954Y-62524768D01*
X53588200Y-62477521D01*
X53545935Y-62464700D01*
X53340000Y-62444417D01*
X53134064Y-62464700D01*
X52936043Y-62524769D01*
X52753549Y-62622315D01*
X52593590Y-62753589D01*
X52593589Y-62753590D01*
X52462315Y-62913549D01*
X52364769Y-63096043D01*
X52304700Y-63294064D01*
X52284417Y-63500000D01*
X51855584Y-63500000D01*
X51835301Y-63294066D01*
X51775233Y-63096046D01*
X51677686Y-62913550D01*
X51546411Y-62753590D01*
X51386451Y-62622315D01*
X51203955Y-62524768D01*
X51048201Y-62477521D01*
X51005936Y-62464700D01*
X50800001Y-62444417D01*
X50594065Y-62464700D01*
X50396044Y-62524769D01*
X50213550Y-62622315D01*
X50053591Y-62753589D01*
X50053590Y-62753590D01*
X49922316Y-62913549D01*
X49824770Y-63096043D01*
X49764701Y-63294064D01*
X49744418Y-63500000D01*
X49315583Y-63500000D01*
X49295300Y-63294066D01*
X49235232Y-63096046D01*
X49137685Y-62913550D01*
X49006410Y-62753590D01*
X48846450Y-62622315D01*
X48663954Y-62524768D01*
X48508200Y-62477521D01*
X48465935Y-62464700D01*
X48260000Y-62444417D01*
X48054064Y-62464700D01*
X47856043Y-62524769D01*
X47673549Y-62622315D01*
X47513590Y-62753589D01*
X47513589Y-62753590D01*
X47382315Y-62913549D01*
X47284769Y-63096043D01*
X47224700Y-63294064D01*
X47204417Y-63500000D01*
X46775583Y-63500000D01*
X46755300Y-63294066D01*
X46695232Y-63096046D01*
X46597685Y-62913550D01*
X46466410Y-62753590D01*
X46306450Y-62622315D01*
X46123954Y-62524768D01*
X45968200Y-62477521D01*
X45925935Y-62464700D01*
X45720000Y-62444417D01*
X45514064Y-62464700D01*
X45316043Y-62524769D01*
X45133549Y-62622315D01*
X44973590Y-62753589D01*
X44973589Y-62753590D01*
X44842315Y-62913549D01*
X44744769Y-63096043D01*
X44684700Y-63294064D01*
X44664417Y-63500000D01*
X44235583Y-63500000D01*
X44215300Y-63294066D01*
X44155232Y-63096046D01*
X44057685Y-62913550D01*
X43926410Y-62753590D01*
X43766450Y-62622315D01*
X43583954Y-62524768D01*
X43428200Y-62477521D01*
X43385935Y-62464700D01*
X43180000Y-62444417D01*
X42974064Y-62464700D01*
X42776043Y-62524769D01*
X42593549Y-62622315D01*
X42433590Y-62753589D01*
X42433589Y-62753590D01*
X42302315Y-62913549D01*
X42204769Y-63096043D01*
X42144700Y-63294064D01*
X42124417Y-63500000D01*
X41695583Y-63500000D01*
X41675300Y-63294066D01*
X41615232Y-63096046D01*
X41517685Y-62913550D01*
X41386410Y-62753590D01*
X41226450Y-62622315D01*
X41043954Y-62524768D01*
X40888200Y-62477521D01*
X40845935Y-62464700D01*
X40640000Y-62444417D01*
X40434064Y-62464700D01*
X40236043Y-62524769D01*
X40053549Y-62622315D01*
X39893590Y-62753589D01*
X39893589Y-62753590D01*
X39762315Y-62913549D01*
X39664769Y-63096043D01*
X39604700Y-63294064D01*
X39584417Y-63500000D01*
X39155582Y-63500000D01*
X39135299Y-63294066D01*
X39075231Y-63096046D01*
X38977684Y-62913550D01*
X38846409Y-62753590D01*
X38686449Y-62622315D01*
X38503953Y-62524768D01*
X38348199Y-62477521D01*
X38305934Y-62464700D01*
X38099999Y-62444417D01*
X37894063Y-62464700D01*
X37696042Y-62524769D01*
X37513548Y-62622315D01*
X37353589Y-62753589D01*
X37353588Y-62753590D01*
X37222314Y-62913549D01*
X37124768Y-63096043D01*
X37064699Y-63294064D01*
X37044416Y-63500000D01*
X37064699Y-63705935D01*
X37124768Y-63903956D01*
X37222314Y-64086450D01*
X37345206Y-64236196D01*
X37353589Y-64246410D01*
X37513549Y-64377685D01*
X37696045Y-64475232D01*
X37727275Y-64484705D01*
X37769880Y-64518518D01*
X37779519Y-64535213D01*
X39962379Y-66718072D01*
X42088539Y-68844232D01*
X42110213Y-68896558D01*
X42091207Y-68946073D01*
X42034406Y-69009158D01*
X41947118Y-69160347D01*
X41893173Y-69326372D01*
X41893172Y-69326376D01*
X41893172Y-69326378D01*
X41874924Y-69500000D01*
X41890986Y-69652826D01*
X41893173Y-69673627D01*
X41947118Y-69839652D01*
X42034406Y-69990842D01*
X42034409Y-69990845D01*
X42151227Y-70120584D01*
X42268286Y-70205633D01*
X42297879Y-70253924D01*
X42284657Y-70308996D01*
X42236366Y-70338589D01*
X42224790Y-70339500D01*
X40644500Y-70339500D01*
X40592174Y-70317826D01*
X40570500Y-70265500D01*
X40570500Y-68795679D01*
X40545851Y-68608451D01*
X40545849Y-68608442D01*
X40541656Y-68592793D01*
X40496971Y-68426031D01*
X40424701Y-68251558D01*
X40403198Y-68214316D01*
X40330278Y-68088019D01*
X40330277Y-68088017D01*
X40330276Y-68088016D01*
X40330274Y-68088012D01*
X40215308Y-67938190D01*
X40185825Y-67908708D01*
X40185824Y-67908706D01*
X38923842Y-66646761D01*
X38923839Y-66646759D01*
X38920525Y-66643445D01*
X38920408Y-66643342D01*
X38866956Y-66589890D01*
X38866953Y-66589887D01*
X38658714Y-66423824D01*
X38433192Y-66282121D01*
X38433191Y-66282120D01*
X38433187Y-66282118D01*
X38193219Y-66166556D01*
X37941835Y-66078594D01*
X37941817Y-66078588D01*
X37682159Y-66019323D01*
X37682157Y-66019322D01*
X37682154Y-66019322D01*
X37417483Y-65989500D01*
X37417478Y-65989500D01*
X36034500Y-65989500D01*
X35982174Y-65967826D01*
X35960500Y-65915500D01*
X35960500Y-64521432D01*
X35982174Y-64469106D01*
X35999616Y-64456170D01*
X36146450Y-64377685D01*
X36306410Y-64246410D01*
X36437685Y-64086450D01*
X36535232Y-63903954D01*
X36595300Y-63705934D01*
X36615583Y-63500000D01*
X36595300Y-63294066D01*
X36535232Y-63096046D01*
X36437685Y-62913550D01*
X36306410Y-62753590D01*
X36146450Y-62622315D01*
X35963954Y-62524768D01*
X35808200Y-62477521D01*
X35765935Y-62464700D01*
X35560000Y-62444417D01*
X35354064Y-62464700D01*
X35156043Y-62524769D01*
X34973549Y-62622315D01*
X34813590Y-62753589D01*
X34813589Y-62753590D01*
X34682315Y-62913549D01*
X34584769Y-63096043D01*
X34524700Y-63294064D01*
X34504417Y-63500000D01*
X34524700Y-63705935D01*
X34584769Y-63903956D01*
X34682315Y-64086450D01*
X34805207Y-64236196D01*
X34813590Y-64246410D01*
X34973550Y-64377685D01*
X35120384Y-64456170D01*
X35156314Y-64499951D01*
X35159500Y-64521432D01*
X35159500Y-66913048D01*
X35137830Y-66965370D01*
X35135351Y-66967849D01*
X35135350Y-66967850D01*
X35095028Y-67022484D01*
X35054706Y-67077119D01*
X35009855Y-67205295D01*
X35009854Y-67205299D01*
X35009854Y-67205301D01*
X35007000Y-67235734D01*
X35007000Y-67235740D01*
X35007000Y-68029751D01*
X34985326Y-68082077D01*
X34967882Y-68095014D01*
X34901632Y-68130424D01*
X34888230Y-68135975D01*
X34789722Y-68165856D01*
X34775495Y-68168686D01*
X34738491Y-68172330D01*
X34669301Y-68179144D01*
X34662056Y-68179500D01*
X34144500Y-68179500D01*
X34092174Y-68157826D01*
X34070500Y-68105500D01*
X34070500Y-67710253D01*
X34070500Y-67710252D01*
X34058867Y-67651769D01*
X34014552Y-67585448D01*
X33992343Y-67570608D01*
X33948232Y-67541133D01*
X33948233Y-67541133D01*
X33918989Y-67535316D01*
X33889748Y-67529500D01*
X32150252Y-67529500D01*
X32121010Y-67535316D01*
X32091767Y-67541133D01*
X32025449Y-67585447D01*
X32025447Y-67585449D01*
X31981133Y-67651767D01*
X31969500Y-67710253D01*
X31420500Y-67710253D01*
X31420500Y-62605210D01*
X31870000Y-62605210D01*
X31870000Y-63350000D01*
X32542555Y-63350000D01*
X32520000Y-63434174D01*
X32520000Y-63565826D01*
X32542555Y-63650000D01*
X31870001Y-63650000D01*
X31870001Y-64394792D01*
X31872908Y-64419868D01*
X31872910Y-64419874D01*
X31918213Y-64522478D01*
X31997521Y-64601786D01*
X32100124Y-64647089D01*
X32100123Y-64647089D01*
X32125210Y-64649999D01*
X32870000Y-64649999D01*
X32870000Y-63977445D01*
X32954174Y-64000000D01*
X33085826Y-64000000D01*
X33170000Y-63977445D01*
X33170000Y-64649999D01*
X33914792Y-64649999D01*
X33939868Y-64647091D01*
X33939874Y-64647089D01*
X34042478Y-64601786D01*
X34121786Y-64522478D01*
X34167089Y-64419875D01*
X34170000Y-64394789D01*
X34170000Y-63650000D01*
X33497445Y-63650000D01*
X33520000Y-63565826D01*
X33520000Y-63434174D01*
X33497445Y-63350000D01*
X34169999Y-63350000D01*
X34169999Y-62605207D01*
X34167091Y-62580131D01*
X34167089Y-62580125D01*
X34121786Y-62477521D01*
X34042478Y-62398213D01*
X33939875Y-62352910D01*
X33939876Y-62352910D01*
X33914789Y-62350000D01*
X33170000Y-62350000D01*
X33170000Y-63022554D01*
X33085826Y-63000000D01*
X32954174Y-63000000D01*
X32870000Y-63022554D01*
X32870000Y-62350000D01*
X32125207Y-62350000D01*
X32100131Y-62352908D01*
X32100125Y-62352910D01*
X31997521Y-62398213D01*
X31918213Y-62477521D01*
X31872910Y-62580124D01*
X31870000Y-62605210D01*
X31420500Y-62605210D01*
X31420500Y-62254159D01*
X31420965Y-62245874D01*
X31426441Y-62197273D01*
X31434598Y-62124871D01*
X31438282Y-62108736D01*
X31477115Y-61997755D01*
X31484303Y-61982830D01*
X31522494Y-61922049D01*
X31546859Y-61883272D01*
X31557183Y-61870326D01*
X31640326Y-61787183D01*
X31653272Y-61776859D01*
X31752831Y-61714302D01*
X31767755Y-61707115D01*
X31878736Y-61668282D01*
X31894871Y-61664598D01*
X32004018Y-61652300D01*
X32015874Y-61650965D01*
X32024159Y-61650500D01*
X32077583Y-61650500D01*
X71962417Y-61650500D01*
X72015841Y-61650500D01*
X72024126Y-61650965D01*
G37*
%TD.AperFunction*%
%TD*%
M02*
