M48
; DRILL file {KiCad 8.0.6} date 2024-12-17T20:27:37+0000
; FORMAT={-:-/ absolute / inch / decimal}
; #@! TF.CreationDate,2024-12-17T20:27:37+00:00
; #@! TF.GenerationSoftware,Kicad,Pcbnew,8.0.6
; #@! TF.FileFunction,Plated,1,2,PTH
FMAT,2
INCH
; #@! TA.AperFunction,Plated,PTH,ViaDrill
T1C0.0118
; #@! TA.AperFunction,Plated,PTH,ViaDrill
T2C0.0236
; #@! TA.AperFunction,Plated,PTH,ComponentDrill
T3C0.0276
; #@! TA.AperFunction,Plated,PTH,ComponentDrill
T4C0.0394
%
G90
G05
T1
X1.3Y-2.6
X1.3Y-2.9
X1.35Y-2.55
X1.3827Y-2.7575
X1.4Y-2.85
X1.4Y-3.0
X1.4Y-3.15
X1.45Y-2.55
X1.5Y-2.85
X1.5Y-3.0
X1.5Y-3.15
X1.5402Y-2.9252
X1.5402Y-3.0705
X1.6445Y-3.0157
X1.6661Y-2.9055
X1.7Y-2.65
X1.7193Y-3.0157
X1.85Y-2.55
X1.85Y-2.75
X1.85Y-2.85
X1.85Y-2.95
X1.8799Y-3.0547
X1.9055Y-3.039
X1.9311Y-3.0547
X1.95Y-2.55
X1.95Y-2.65
X1.9567Y-3.039
X1.9823Y-3.0547
X2.0079Y-3.039
X2.0335Y-3.0547
X2.05Y-2.55
X2.15Y-2.55
X2.189Y-2.7043
X2.35Y-2.7
X2.35Y-2.85
X2.35Y-3.15
X2.55Y-2.7
X2.55Y-2.85
X2.55Y-3.0
X2.65Y-2.55
X2.7232Y-2.7874
X2.7422Y-2.7038
X2.75Y-2.55
X2.7744Y-2.7874
X2.8376Y-2.6276
T2
X2.1898Y-2.8803
X2.1898Y-2.9803
X2.1898Y-3.0803
T3
X1.5815Y-2.8362
X1.6815Y-2.7362
X1.7815Y-2.8362
T4
X1.3Y-2.5
X1.3Y-2.7
X1.3Y-2.8
X1.3Y-3.0
X1.3Y-3.1
X1.4Y-2.5
X1.5Y-2.5
X1.6Y-2.5
X1.7Y-2.5
X1.8Y-2.5
X1.9Y-2.5
X2.0Y-2.5
X2.1Y-2.5
X2.2Y-2.5
X2.3Y-2.5
X2.4Y-2.5
X2.5Y-2.5
X2.6Y-2.5
X2.7Y-2.5
X2.8Y-2.5
M30
